<?xml version="1.0" standalone="no"?>
 <!DOCTYPE svg PUBLIC "-//W3C//DTD SVG 1.1//EN" 
 "http://www.w3.org/Graphics/SVG/1.1/DTD/svg11.dtd"> 
<svg xmlns="http://www.w3.org/2000/svg" version="1.1" 
    width="29.7002cm" height="21.0007cm" viewBox="0 0 116930 82680 ">
<title>SVG Picture created as .kicad_pcb-B_SilkS.svg date 2013/10/07 21:43:23 </title>
  <desc>Picture generated by PCBNEW </desc>
<g style="fill:#000000; fill-opacity:1;stroke:#000000; stroke-opacity:1;
stroke-linecap:round; stroke-linejoin:round; "
 transform="translate(0 0) scale(1 1)">
</g>
<g style="fill:#000000; fill-opacity:0.0; 
stroke:#000000; stroke-width:39.3701; stroke-opacity:1; 
stroke-linecap:round; stroke-linejoin:round;">
<rect x="-845466" y="-845466" width="0" height="0" rx="0" />
<rect x="-845466" y="-845466" width="0" height="0" rx="0" />
<path d="M-845466 -845466
L-845466 -845466
" />
<path d="M-845466 -845466
L-845466 -845466
" />
<path d="M-845466 -845466
L-845466 -845466
" />
<path d="M-845466 -845466
L-845466 -845466
" />
<path d="M-845466 -845466
L-845466 -845466
" />
<path d="M-845353 -845227
L-845269 -845199
L-845128 -845199
L-845072 -845227
L-845044 -845255
L-845016 -845311
L-845016 -845367
L-845044 -845423
L-845072 -845451
L-845128 845451
L-845241 845423
L-845297 845395
L-845325 845367
L-845353 845311
L-845353 845255
L-845325 845199
L-845297 845171
L-845241 845142
L-845100 845142
L-845016 845171
" />
<path d="M-844763 -845199
L-844763 845142
" />
<path d="M-844510 -845199
L-844510 845423
L-844538 845367
L-844595 845339
L-844679 845339
L-844735 845367
L-844763 845395
" />
<path d="M-844005 -845227
L-844061 -845199
L-844173 -845199
L-844229 -845227
L-844257 -845283
L-844257 845423
L-844229 845367
L-844173 845339
L-844061 845339
L-844005 845367
L-843976 845423
L-843976 -845451
L-844257 -845395
" />
<path d="M-843499 -845227
L-843555 -845199
L-843667 -845199
L-843724 -845227
L-843752 -845283
L-843752 845423
L-843724 845367
L-843667 845339
L-843555 845339
L-843499 845367
L-843471 845423
L-843471 -845451
L-843752 -845395
" />
<path d="M-843302 845339
L-843077 845339
" />
<path d="M-843218 845142
L-843218 -845283
L-843190 -845227
L-843134 -845199
L-843077 -845199
" />
<path d="M-842881 -845255
L-842853 -845227
L-842881 -845199
L-842909 -845227
L-842881 -845255
L-842881 -845199
" />
<path d="M-842881 845367
L-842853 845395
L-842881 845423
L-842909 845395
L-842881 845367
L-842881 845423
" />
<path d="M-841729 845114
L-842235 -845058
" />
<path d="M-841532 -845199
L-841532 845142
" />
<path d="M-841279 -845199
L-841279 845423
L-841307 845367
L-841364 845339
L-841448 845339
L-841504 845367
L-841532 845395
" />
<path d="M-840914 -845199
L-840970 -845227
L-840998 -845255
L-841026 -845311
L-841026 845451
L-840998 845395
L-840970 845367
L-840914 845339
L-840830 845339
L-840774 845367
L-840746 845395
L-840717 845451
L-840717 -845311
L-840746 -845255
L-840774 -845227
L-840830 -845199
L-840914 -845199
" />
<path d="M-840465 -845199
L-840465 845339
" />
<path d="M-840465 845395
L-840436 845367
L-840380 845339
L-840296 845339
L-840240 845367
L-840212 845423
L-840212 -845199
" />
<path d="M-840212 845423
L-840184 845367
L-840127 845339
L-840043 845339
L-839987 845367
L-839959 845423
L-839959 -845199
" />
<path d="M-839453 -845227
L-839509 -845199
L-839622 -845199
L-839678 -845227
L-839706 -845283
L-839706 845423
L-839678 845367
L-839622 845339
L-839509 845339
L-839453 845367
L-839425 845423
L-839425 -845451
L-839706 -845395
" />
<path d="M-838751 845114
L-839256 -845058
" />
<path d="M-838554 -845199
L-838554 845142
" />
<path d="M-838554 845367
L-838498 845339
L-838386 845339
L-838329 845367
L-838301 845395
L-838273 845451
L-838273 -845311
L-838301 -845255
L-838329 -845227
L-838386 -845199
L-838498 -845199
L-838554 -845227
" />
<path d="M-837796 -845227
L-837852 -845199
L-837964 -845199
L-838020 -845227
L-838048 -845283
L-838048 845423
L-838020 845367
L-837964 845339
L-837852 845339
L-837796 845367
L-837767 845423
L-837767 -845451
L-838048 -845395
" />
<path d="M-837515 845339
L-837515 -845199
" />
<path d="M-837515 845395
L-837486 845367
L-837430 845339
L-837346 845339
L-837290 845367
L-837262 845423
L-837262 -845199
" />
<path d="M-836981 845339
L-836981 -845086
L-837009 -845030
L-837065 -845002
L-837093 -845002
" />
<path d="M-836981 845142
L-837009 845171
L-836981 845199
L-836953 845171
L-836981 845142
L-836981 845199
" />
<path d="M-836447 -845199
L-836447 845423
L-836475 845367
L-836531 845339
L-836644 845339
L-836700 845367
" />
<path d="M-836447 -845227
L-836503 -845199
L-836644 -845199
L-836700 -845227
L-836728 -845283
L-836728 -845339
L-836700 -845395
L-836644 -845423
L-836503 -845423
L-836447 -845451
" />
<path d="M-836166 -845199
L-836166 845339
" />
<path d="M-836166 845395
L-836138 845367
L-836082 845339
L-835997 845339
L-835941 845367
L-835913 845423
L-835913 -845199
" />
<path d="M-835913 845423
L-835885 845367
L-835829 845339
L-835745 845339
L-835688 845367
L-835660 845423
L-835660 -845199
" />
<path d="M-835379 -845199
L-835379 845339
" />
<path d="M-835379 845142
L-835407 845171
L-835379 845199
L-835351 845171
L-835379 845142
L-835379 845199
" />
<path d="M-835098 845339
L-835098 -845199
" />
<path d="M-835098 845395
L-835070 845367
L-835014 845339
L-834930 845339
L-834874 845367
L-834846 845423
L-834846 -845199
" />
<path d="M-834143 845114
L-834649 -845058
" />
<path d="M-833946 -845199
L-833946 845142
L-833806 845142
L-833722 845171
L-833666 845227
L-833637 845283
L-833609 845395
L-833609 -845451
L-833637 -845339
L-833666 -845283
L-833722 -845227
L-833806 -845199
L-833946 -845199
" />
<path d="M-833272 -845199
L-833328 -845227
L-833356 -845255
L-833385 -845311
L-833385 845451
L-833356 845395
L-833328 845367
L-833272 845339
L-833188 845339
L-833132 845367
L-833104 845395
L-833076 845451
L-833076 -845311
L-833104 -845255
L-833132 -845227
L-833188 -845199
L-833272 -845199
" />
<path d="M-832570 -845227
L-832626 -845199
L-832738 -845199
L-832795 -845227
L-832823 -845255
L-832851 -845311
L-832851 845451
L-832823 845395
L-832795 845367
L-832738 845339
L-832626 845339
L-832570 845367
" />
<path d="M-832064 845339
L-832064 -845199
" />
<path d="M-832317 845339
L-832317 -845283
L-832289 -845227
L-832233 -845199
L-832148 -845199
L-832092 -845227
L-832064 -845255
" />
<path d="M-831783 -845199
L-831783 845339
" />
<path d="M-831783 845395
L-831755 845367
L-831699 845339
L-831615 845339
L-831558 845367
L-831530 845423
L-831530 -845199
" />
<path d="M-831530 845423
L-831502 845367
L-831446 845339
L-831362 845339
L-831306 845367
L-831277 845423
L-831277 -845199
" />
<path d="M-830772 -845227
L-830828 -845199
L-830940 -845199
L-830996 -845227
L-831025 -845283
L-831025 845423
L-830996 845367
L-830940 845339
L-830828 845339
L-830772 845367
L-830744 845423
L-830744 -845451
L-831025 -845395
" />
<path d="M-830491 845339
L-830491 -845199
" />
<path d="M-830491 845395
L-830463 845367
L-830406 845339
L-830322 845339
L-830266 845367
L-830238 845423
L-830238 -845199
" />
<path d="M-830041 845339
L-829816 845339
" />
<path d="M-829957 845142
L-829957 -845283
L-829929 -845227
L-829873 -845199
L-829816 -845199
" />
<path d="M-829648 -845227
L-829592 -845199
L-829479 -845199
L-829423 -845227
L-829395 -845283
L-829395 -845311
L-829423 -845367
L-829479 -845395
L-829564 -845395
L-829620 -845423
L-829648 845451
L-829648 845423
L-829620 845367
L-829564 845339
L-829479 845339
L-829423 845367
" />
<path d="M-828721 845114
L-829226 -845058
" />
<path d="M-828440 -845199
L-828496 -845227
L-828524 -845255
L-828552 -845311
L-828552 845451
L-828524 845395
L-828496 845367
L-828440 845339
L-828356 845339
L-828299 845367
L-828271 845395
L-828243 845451
L-828243 -845311
L-828271 -845255
L-828299 -845227
L-828356 -845199
L-828440 -845199
" />
<path d="M-827990 845339
L-827990 -845002
" />
<path d="M-827990 845367
L-827934 845339
L-827822 845339
L-827766 845367
L-827737 845395
L-827709 845451
L-827709 -845311
L-827737 -845255
L-827766 -845227
L-827822 -845199
L-827934 -845199
L-827990 -845227
" />
<path d="M-827232 -845227
L-827288 -845199
L-827400 -845199
L-827456 -845227
L-827485 -845283
L-827485 845423
L-827456 845367
L-827400 845339
L-827288 845339
L-827232 845367
L-827204 845423
L-827204 -845451
L-827485 -845395
" />
<path d="M-826951 845339
L-826951 -845199
" />
<path d="M-826951 845395
L-826923 845367
L-826866 845339
L-826782 845339
L-826726 845367
L-826698 845423
L-826698 -845199
" />
<path d="M-826445 -845227
L-826389 -845199
L-826276 -845199
L-826220 -845227
L-826192 -845283
L-826192 -845311
L-826220 -845367
L-826276 -845395
L-826361 -845395
L-826417 -845423
L-826445 845451
L-826445 845423
L-826417 845367
L-826361 845339
L-826276 845339
L-826220 845367
" />
<path d="M-826024 845339
L-825799 845339
" />
<path d="M-825939 845142
L-825939 -845283
L-825911 -845227
L-825855 -845199
L-825799 -845199
" />
<path d="M-825602 -845199
L-825602 845339
" />
<path d="M-825602 845451
L-825574 845395
L-825546 845367
L-825490 845339
L-825434 845339
" />
<path d="M-825012 -845227
L-825068 -845199
L-825181 -845199
L-825237 -845227
L-825265 -845283
L-825265 845423
L-825237 845367
L-825181 845339
L-825068 845339
L-825012 845367
L-824984 845423
L-824984 -845451
L-825265 -845395
" />
<path d="M-824506 -845227
L-824563 -845199
L-824675 -845199
L-824731 -845227
L-824759 -845283
L-824759 845423
L-824731 845367
L-824675 845339
L-824563 845339
L-824506 845367
L-824478 845423
L-824478 -845451
L-824759 -845395
" />
<path d="M-824310 845339
L-824085 845339
" />
<path d="M-824226 845142
L-824226 -845283
L-824197 -845227
L-824141 -845199
L-824085 -845199
" />
<path d="M-823945 845339
L-823804 -845199
L-823664 845339
" />
<path d="M-823439 -845199
L-823439 845339
" />
<path d="M-823439 845142
L-823467 845171
L-823439 845199
L-823411 845171
L-823439 845142
L-823439 845199
" />
<path d="M-822933 -845227
L-822989 -845199
L-823102 -845199
L-823158 -845227
L-823186 -845283
L-823186 845423
L-823158 845367
L-823102 845339
L-822989 845339
L-822933 845367
L-822905 845423
L-822905 -845451
L-823186 -845395
" />
<path d="M-822708 845339
L-822596 -845199
L-822484 845451
L-822371 -845199
L-822259 845339
" />
<path d="M-821613 845114
L-822118 -845058
" />
<path d="M-821191 -845227
L-821247 -845199
L-821360 -845199
L-821416 -845227
L-821444 -845283
L-821444 845423
L-821416 845367
L-821360 845339
L-821247 845339
L-821191 845367
L-821163 845423
L-821163 -845451
L-821444 -845395
" />
<path d="M-821247 845114
L-821332 845199
" />
<path d="M-820826 -845199
L-820882 -845227
L-820910 -845283
L-820910 845142
" />
<path d="M-820376 -845227
L-820433 -845199
L-820545 -845199
L-820601 -845227
L-820629 -845283
L-820629 845423
L-820601 845367
L-820545 845339
L-820433 845339
L-820376 845367
L-820348 845423
L-820348 -845451
L-820629 -845395
" />
<path d="M-819843 -845227
L-819899 -845199
L-820011 -845199
L-820067 -845227
L-820096 -845255
L-820124 -845311
L-820124 845451
L-820096 845395
L-820067 845367
L-820011 845339
L-819899 845339
L-819843 845367
" />
<path d="M-819674 845339
L-819449 845339
" />
<path d="M-819590 845142
L-819590 -845283
L-819562 -845227
L-819506 -845199
L-819449 -845199
" />
<path d="M-819253 -845199
L-819253 845339
" />
<path d="M-819253 845451
L-819225 845395
L-819196 845367
L-819140 845339
L-819084 845339
" />
<path d="M-818803 -845199
L-818859 -845227
L-818887 -845255
L-818916 -845311
L-818916 845451
L-818887 845395
L-818859 845367
L-818803 845339
L-818719 845339
L-818663 845367
L-818635 845395
L-818606 845451
L-818606 -845311
L-818635 -845255
L-818663 -845227
L-818719 -845199
L-818803 -845199
" />
<path d="M-818354 845339
L-818354 -845199
" />
<path d="M-818354 845395
L-818326 845367
L-818269 845339
L-818185 845339
L-818129 845367
L-818101 845423
L-818101 -845199
" />
<path d="M-817820 -845199
L-817820 845339
" />
<path d="M-817820 845142
L-817848 845171
L-817820 845199
L-817792 845171
L-817820 845142
L-817820 845199
" />
<path d="M-817286 845339
L-817286 -845002
" />
<path d="M-817286 -845227
L-817342 -845199
L-817455 -845199
L-817511 -845227
L-817539 -845255
L-817567 -845311
L-817567 845451
L-817539 845395
L-817511 845367
L-817455 845339
L-817342 845339
L-817286 845367
" />
<path d="M-816752 845339
L-816752 -845199
" />
<path d="M-817005 845339
L-817005 -845283
L-816977 -845227
L-816921 -845199
L-816836 -845199
L-816780 -845227
L-816752 -845255
" />
<path d="M-816246 -845227
L-816303 -845199
L-816415 -845199
L-816471 -845227
L-816499 -845283
L-816499 845423
L-816471 845367
L-816415 845339
L-816303 845339
L-816246 845367
L-816218 845423
L-816218 -845451
L-816499 -845395
" />
<path d="M-815544 845114
L-816050 -845058
" />
<path d="M-815347 -845199
L-815347 845142
L-815123 845142
L-815066 845171
L-815038 845199
L-815010 845255
L-815010 845339
L-815038 845395
L-815066 845423
L-815123 845451
L-815347 845451
" />
<path d="M-814420 -845255
L-814448 -845227
L-814533 -845199
L-814589 -845199
L-814673 -845227
L-814729 -845283
L-814757 -845339
L-814786 -845451
L-814786 845395
L-814757 845283
L-814729 845227
L-814673 845171
L-814589 845142
L-814533 845142
L-814448 845171
L-814420 845199
" />
<path d="M-813971 845423
L-813886 845451
L-813858 -845451
L-813830 -845395
L-813830 -845311
L-813858 -845255
L-813886 -845227
L-813943 -845199
L-814167 -845199
L-814167 845142
L-813971 845142
L-813915 845171
L-813886 845199
L-813858 845255
L-813858 845311
L-813886 845367
L-813915 845395
L-813971 845423
L-814167 845423
" />
<path d="M-813718 -845142
L-813268 -845142
" />
<path d="M-813212 845142
L-813016 -845199
L-812819 845142
" />
<path d="M-812650 845199
L-812622 845171
L-812566 845142
L-812426 845142
L-812369 845171
L-812341 845199
L-812313 845255
L-812313 845311
L-812341 845395
L-812678 -845199
L-812313 -845199
" />
<path d="M-812060 -845255
L-812032 -845227
L-812060 -845199
L-812088 -845227
L-812060 -845255
L-812060 -845199
" />
<path d="M-811807 845199
L-811779 845171
L-811723 845142
L-811583 845142
L-811526 845171
L-811498 845199
L-811470 845255
L-811470 845311
L-811498 845395
L-811836 -845199
L-811470 -845199
" />
<path d="M-810796 845114
L-811302 -845058
" />
<path d="M-810599 -845199
L-810599 845142
L-810375 845142
L-810318 845171
L-810290 845199
L-810262 845255
L-810262 845339
L-810290 845395
L-810318 845423
L-810375 845451
L-810599 845451
" />
<path d="M-809672 -845255
L-809700 -845227
L-809785 -845199
L-809841 -845199
L-809925 -845227
L-809981 -845283
L-810009 -845339
L-810037 -845451
L-810037 845395
L-810009 845283
L-809981 845227
L-809925 845171
L-809841 845142
L-809785 845142
L-809700 845171
L-809672 845199
" />
<path d="M-809223 845423
L-809138 845451
L-809110 -845451
L-809082 -845395
L-809082 -845311
L-809110 -845255
L-809138 -845227
L-809195 -845199
L-809419 -845199
L-809419 845142
L-809223 845142
L-809166 845171
L-809138 845199
L-809110 845255
L-809110 845311
L-809138 845367
L-809166 845395
L-809223 845423
L-809419 845423
" />
<path d="M-808886 845339
L-808745 -845199
L-808605 845339
" />
<path d="M-808408 845199
L-808380 845171
L-808324 845142
L-808183 845142
L-808127 845171
L-808099 845199
L-808071 845255
L-808071 845311
L-808099 845395
L-808436 -845199
L-808071 -845199
" />
<path d="M-807818 -845255
L-807790 -845227
L-807818 -845199
L-807846 -845227
L-807818 -845255
L-807818 -845199
" />
<path d="M-807565 845199
L-807537 845171
L-807481 845142
L-807340 845142
L-807284 845171
L-807256 845199
L-807228 845255
L-807228 845311
L-807256 845395
L-807593 -845199
L-807228 -845199
" />
<path d="M-806554 845114
L-807059 -845058
" />
<path d="M-806357 -845255
L-806329 -845227
L-806357 -845199
L-806385 -845227
L-806357 -845255
L-806357 -845199
" />
<path d="M-806076 -845199
L-806076 845142
" />
<path d="M-806020 -845423
L-805851 -845199
" />
<path d="M-805851 845339
L-806076 -845367
" />
<path d="M-805598 -845199
L-805598 845339
" />
<path d="M-805598 845142
L-805626 845171
L-805598 845199
L-805570 845171
L-805598 845142
L-805598 845199
" />
<path d="M-805065 -845227
L-805121 -845199
L-805233 -845199
L-805289 -845227
L-805317 -845255
L-805346 -845311
L-805346 845451
L-805317 845395
L-805289 845367
L-805233 845339
L-805121 845339
L-805065 845367
" />
<path d="M-804559 -845199
L-804559 845423
L-804587 845367
L-804643 845339
L-804756 845339
L-804812 845367
" />
<path d="M-804559 -845227
L-804615 -845199
L-804756 -845199
L-804812 -845227
L-804840 -845283
L-804840 -845339
L-804812 -845395
L-804756 -845423
L-804615 -845423
L-804559 -845451
" />
<path d="M-804025 -845199
L-804025 845142
" />
<path d="M-804025 -845227
L-804081 -845199
L-804194 -845199
L-804250 -845227
L-804278 -845255
L-804306 -845311
L-804306 845451
L-804278 845395
L-804250 845367
L-804194 845339
L-804081 845339
L-804025 845367
" />
<path d="M-803885 -845142
L-803435 -845142
" />
<path d="M-803295 845339
L-803295 -845002
" />
<path d="M-803295 845367
L-803238 845339
L-803126 845339
L-803070 845367
L-803042 845395
L-803014 845451
L-803014 -845311
L-803042 -845255
L-803070 -845227
L-803126 -845199
L-803238 -845199
L-803295 -845227
" />
<path d="M-802508 -845227
L-802564 -845199
L-802676 -845199
L-802733 -845227
L-802761 -845255
L-802789 -845311
L-802789 845451
L-802761 845395
L-802733 845367
L-802676 845339
L-802564 845339
L-802508 845367
" />
<path d="M-802255 -845199
L-802255 845142
" />
<path d="M-802255 845367
L-802199 845339
L-802086 845339
L-802030 845367
L-802002 845395
L-801974 845451
L-801974 -845311
L-802002 -845255
L-802030 -845227
L-802086 -845199
L-802199 -845199
L-802255 -845227
" />
<path d="M-845128 845423
L-845325 845423
" />
<path d="M-845325 -845199
L-845325 845142
L-845044 845142
" />
<path d="M-844819 -845199
L-844819 845339
" />
<path d="M-844819 845142
L-844847 845171
L-844819 845199
L-844791 845171
L-844819 845142
L-844819 845199
" />
<path d="M-844454 -845199
L-844510 -845227
L-844538 -845283
L-844538 845142
" />
<path d="M-844005 -845227
L-844061 -845199
L-844173 -845199
L-844229 -845227
L-844257 -845283
L-844257 845423
L-844229 845367
L-844173 845339
L-844061 845339
L-844005 845367
L-843976 845423
L-843976 -845451
L-844257 -845395
" />
<path d="M-843724 -845255
L-843696 -845227
L-843724 -845199
L-843752 -845227
L-843724 -845255
L-843724 -845199
" />
<path d="M-843724 845367
L-843696 845395
L-843724 845423
L-843752 845395
L-843724 845367
L-843724 845423
" />
</g>
<g style="fill:#000000; fill-opacity:0.0; 
stroke:#000000; stroke-width:118; stroke-opacity:1; 
stroke-linecap:round; stroke-linejoin:round;">
<path d="M-845409 845142
L-845072 845142
" />
<path d="M-845241 -845199
L-845241 845142
" />
<path d="M-844876 -845199
L-844876 845339
" />
<path d="M-844876 845142
L-844904 845171
L-844876 845199
L-844847 845171
L-844876 845142
L-844876 845199
" />
<path d="M-844679 845339
L-844454 845339
" />
<path d="M-844595 845142
L-844595 -845283
L-844566 -845227
L-844510 -845199
L-844454 -845199
" />
<path d="M-844173 -845199
L-844229 -845227
L-844257 -845283
L-844257 845142
" />
<path d="M-843724 -845227
L-843780 -845199
L-843892 -845199
L-843948 -845227
L-843976 -845283
L-843976 845423
L-843948 845367
L-843892 845339
L-843780 845339
L-843724 845367
L-843696 845423
L-843696 -845451
L-843976 -845395
" />
<path d="M-843443 -845255
L-843415 -845227
L-843443 -845199
L-843471 -845227
L-843443 -845255
L-843443 -845199
" />
<path d="M-843443 845367
L-843415 845395
L-843443 845423
L-843471 845395
L-843443 845367
L-843443 845423
" />
</g>
<g style="fill:#000000; fill-opacity:0.0; 
stroke:#000000; stroke-width:39.3701; stroke-opacity:1; 
stroke-linecap:round; stroke-linejoin:round;">
<path d="M-845325 -845199
L-845325 845142
" />
<path d="M-844791 -845199
L-844791 845142
" />
<path d="M-844791 -845227
L-844847 -845199
L-844960 -845199
L-845016 -845227
L-845044 -845255
L-845072 -845311
L-845072 845451
L-845044 845395
L-845016 845367
L-844960 845339
L-844847 845339
L-844791 845367
" />
<path d="M-844510 -845255
L-844482 -845227
L-844510 -845199
L-844538 -845227
L-844510 -845255
L-844510 -845199
" />
<path d="M-844510 845367
L-844482 845395
L-844510 845423
L-844538 845395
L-844510 845367
L-844510 845423
" />
<path d="M-843471 -845199
L-843808 -845199
" />
<path d="M-843639 -845199
L-843639 845142
L-843696 845227
L-843752 845283
L-843808 845311
" />
<path d="M-842796 845114
L-843302 -845058
" />
<path d="M-842291 -845199
L-842628 -845199
" />
<path d="M-842459 -845199
L-842459 845142
L-842516 845227
L-842572 845283
L-842628 845311
" />
<path d="M-845353 -845227
L-845269 -845199
L-845128 -845199
L-845072 -845227
L-845044 -845255
L-845016 -845311
L-845016 -845367
L-845044 -845423
L-845072 -845451
L-845128 845451
L-845241 845423
L-845297 845395
L-845325 845367
L-845353 845311
L-845353 845255
L-845325 845199
L-845297 845171
L-845241 845142
L-845100 845142
L-845016 845171
" />
<path d="M-844763 -845199
L-844763 845339
" />
<path d="M-844763 845142
L-844791 845171
L-844763 845199
L-844735 845171
L-844763 845142
L-844763 845199
" />
<path d="M-844538 845339
L-844229 845339
L-844538 -845199
L-844229 -845199
" />
<path d="M-843780 -845227
L-843836 -845199
L-843948 -845199
L-844005 -845227
L-844033 -845283
L-844033 845423
L-844005 845367
L-843948 845339
L-843836 845339
L-843780 845367
L-843752 845423
L-843752 -845451
L-844033 -845395
" />
<path d="M-843499 -845255
L-843471 -845227
L-843499 -845199
L-843527 -845227
L-843499 -845255
L-843499 -845199
" />
<path d="M-843499 845367
L-843471 845395
L-843499 845423
L-843527 845395
L-843499 845367
L-843499 845423
" />
<path d="M-842796 -845367
L-842516 -845367
" />
<path d="M-842853 -845199
L-842656 845142
L-842459 -845199
" />
<path d="M-842010 845339
L-842010 -845199
" />
<path d="M-842150 845114
L-842291 -845395
L-841926 -845395
" />
</g>
<g style="fill:#000000; fill-opacity:0.0; 
stroke:#000000; stroke-width:118; stroke-opacity:1; 
stroke-linecap:round; stroke-linejoin:round;">
<path d="M-844988 -845199
L-845185 845451
" />
<path d="M-845325 -845199
L-845325 845142
L-845100 845142
L-845044 845171
L-845016 845199
L-844988 845255
L-844988 845339
L-845016 845395
L-845044 845423
L-845100 845451
L-845325 845451
" />
<path d="M-844510 -845227
L-844566 -845199
L-844679 -845199
L-844735 -845227
L-844763 -845283
L-844763 845423
L-844735 845367
L-844679 845339
L-844566 845339
L-844510 845367
L-844482 845423
L-844482 -845451
L-844763 -845395
" />
<path d="M-844286 845339
L-844145 -845199
L-844005 845339
" />
<path d="M-843780 -845255
L-843752 -845227
L-843780 -845199
L-843808 -845227
L-843780 -845255
L-843780 -845199
" />
<path d="M-843780 845367
L-843752 845395
L-843780 845423
L-843808 845395
L-843780 845367
L-843780 845423
" />
</g>
<g style="fill:#000000; fill-opacity:0.0; 
stroke:#000000; stroke-width:39.3701; stroke-opacity:1; 
stroke-linecap:round; stroke-linejoin:round;">
<path d="M-845325 -845199
L-845325 845142
" />
<path d="M-844988 -845199
L-845241 845395
" />
<path d="M-844988 845142
L-845325 -845451
" />
<path d="M-844735 -845199
L-844735 845339
" />
<path d="M-844735 845142
L-844763 845171
L-844735 845199
L-844707 845171
L-844735 845142
L-844735 845199
" />
<path d="M-844117 -845255
L-844145 -845227
L-844229 -845199
L-844286 -845199
L-844370 -845227
L-844426 -845283
L-844454 -845339
L-844482 -845451
L-844482 845395
L-844454 845283
L-844426 845227
L-844370 845171
L-844286 845142
L-844229 845142
L-844145 845171
L-844117 845199
" />
<path d="M-843611 -845199
L-843611 845423
L-843639 845367
L-843696 845339
L-843808 845339
L-843864 845367
" />
<path d="M-843611 -845227
L-843667 -845199
L-843808 -845199
L-843864 -845227
L-843892 -845283
L-843892 -845339
L-843864 -845395
L-843808 -845423
L-843667 -845423
L-843611 -845451
" />
<path d="M-843077 -845199
L-843077 845142
" />
<path d="M-843077 -845227
L-843134 -845199
L-843246 -845199
L-843302 -845227
L-843330 -845255
L-843358 -845311
L-843358 845451
L-843330 845395
L-843302 845367
L-843246 845339
L-843134 845339
L-843077 845367
" />
<path d="M-842347 845423
L-842150 845423
" />
<path d="M-842066 -845199
L-842347 -845199
L-842347 845142
L-842066 845142
" />
<path d="M-841813 -845255
L-841785 -845227
L-841813 -845199
L-841841 -845227
L-841813 -845255
L-841813 -845199
" />
<path d="M-841532 -845199
L-841532 845142
L-841392 845142
L-841307 845171
L-841251 845227
L-841223 845283
L-841195 845395
L-841195 -845451
L-841223 -845339
L-841251 -845283
L-841307 -845227
L-841392 -845199
L-841532 -845199
" />
<path d="M-840942 -845255
L-840914 -845227
L-840942 -845199
L-840970 -845227
L-840942 -845255
L-840942 -845199
" />
<path d="M-840689 -845367
L-840408 -845367
" />
<path d="M-840746 -845199
L-840549 845142
L-840352 -845199
" />
<path d="M-840156 -845255
L-840127 -845227
L-840156 -845199
L-840184 -845227
L-840156 -845255
L-840156 -845199
" />
<path d="M-838976 845339
L-838976 -845002
" />
<path d="M-838976 845367
L-838919 845339
L-838807 845339
L-838751 845367
L-838723 845395
L-838695 845451
L-838695 -845311
L-838723 -845255
L-838751 -845227
L-838807 -845199
L-838919 -845199
L-838976 -845227
" />
<path d="M-838189 -845227
L-838245 -845199
L-838357 -845199
L-838414 -845227
L-838442 -845255
L-838470 -845311
L-838470 845451
L-838442 845395
L-838414 845367
L-838357 845339
L-838245 845339
L-838189 845367
" />
<path d="M-837936 -845199
L-837936 845142
" />
<path d="M-837936 845367
L-837880 845339
L-837767 845339
L-837711 845367
L-837683 845395
L-837655 845451
L-837655 -845311
L-837683 -845255
L-837711 -845227
L-837767 -845199
L-837880 -845199
L-837936 -845227
" />
<path d="M-837402 845339
L-837402 -845199
" />
<path d="M-837402 845395
L-837374 845367
L-837318 845339
L-837234 845339
L-837177 845367
L-837149 845423
L-837149 -845199
" />
<path d="M-836644 -845227
L-836700 -845199
L-836812 -845199
L-836868 -845227
L-836896 -845283
L-836896 845423
L-836868 845367
L-836812 845339
L-836700 845339
L-836644 845367
L-836616 845423
L-836616 -845451
L-836896 -845395
" />
<path d="M-836419 845339
L-836306 -845199
L-836194 845451
L-836082 -845199
L-835969 845339
" />
<path d="M-835126 -844974
L-835155 -845002
L-835211 -845086
L-835239 -845142
L-835267 -845227
L-835295 -845367
L-835295 845451
L-835267 845311
L-835239 845227
L-835211 845171
L-835155 845086
L-835126 845058
" />
<path d="M-834930 845199
L-834902 845171
L-834846 845142
L-834705 845142
L-834649 845171
L-834621 845199
L-834593 845255
L-834593 845311
L-834621 845395
L-834958 -845199
L-834593 -845199
" />
<path d="M-834227 845142
L-834171 845142
L-834115 845171
L-834087 845199
L-834059 845255
L-834031 845367
L-834031 -845423
L-834059 -845311
L-834087 -845255
L-834115 -845227
L-834171 -845199
L-834227 -845199
L-834284 -845227
L-834312 -845255
L-834340 -845311
L-834368 -845423
L-834368 845367
L-834340 845255
L-834312 845199
L-834284 845171
L-834227 845142
" />
<path d="M-833469 -845199
L-833806 -845199
" />
<path d="M-833637 -845199
L-833637 845142
L-833694 845227
L-833750 845283
L-833806 845311
" />
<path d="M-833272 845142
L-832907 845142
L-833104 845367
L-833019 845367
L-832963 845395
L-832935 845423
L-832907 -845451
L-832907 -845311
L-832935 -845255
L-832963 -845227
L-833019 -845199
L-833188 -845199
L-833244 -845227
L-833272 -845255
" />
<path d="M-832654 -845423
L-832205 -845423
" />
<path d="M-831924 -845199
L-831924 845339
" />
<path d="M-831924 845395
L-831896 845367
L-831839 845339
L-831755 845339
L-831699 845367
L-831671 845423
L-831671 -845199
" />
<path d="M-831671 845423
L-831643 845367
L-831586 845339
L-831502 845339
L-831446 845367
L-831418 845423
L-831418 -845199
" />
<path d="M-830884 -845199
L-830884 845423
L-830912 845367
L-830968 845339
L-831081 845339
L-831137 845367
" />
<path d="M-830884 -845227
L-830940 -845199
L-831081 -845199
L-831137 -845227
L-831165 -845283
L-831165 -845339
L-831137 -845395
L-831081 -845423
L-830940 -845423
L-830884 -845451
" />
<path d="M-830603 -845199
L-830603 845339
" />
<path d="M-830603 845451
L-830575 845395
L-830547 845367
L-830491 845339
L-830435 845339
" />
<path d="M-830238 -845423
L-829788 -845423
" />
<path d="M-829198 -845199
L-829536 -845199
" />
<path d="M-829367 -845199
L-829367 845142
L-829423 845227
L-829479 845283
L-829536 845311
" />
<path d="M-829002 845142
L-828636 845142
L-828833 845367
L-828749 845367
L-828693 845395
L-828665 845423
L-828636 -845451
L-828636 -845311
L-828665 -845255
L-828693 -845227
L-828749 -845199
L-828917 -845199
L-828974 -845227
L-829002 -845255
" />
<path d="M-828440 -844974
L-828412 -845002
L-828356 -845086
L-828327 -845142
L-828299 -845227
L-828271 -845367
L-828271 845451
L-828299 845311
L-828327 845227
L-828356 845171
L-828412 845086
L-828440 845058
" />
<path d="M-827990 -845423
L-827541 -845423
" />
<path d="M-827344 845339
L-827119 845339
" />
<path d="M-827260 845142
L-827260 -845283
L-827232 -845227
L-827176 -845199
L-827119 -845199
" />
<path d="M-826698 -845227
L-826754 -845199
L-826866 -845199
L-826923 -845227
L-826951 -845283
L-826951 845423
L-826923 845367
L-826866 845339
L-826754 845339
L-826698 845367
L-826670 845423
L-826670 -845451
L-826951 -845395
" />
<path d="M-826445 -845227
L-826389 -845199
L-826276 -845199
L-826220 -845227
L-826192 -845283
L-826192 -845311
L-826220 -845367
L-826276 -845395
L-826361 -845395
L-826417 -845423
L-826445 845451
L-826445 845423
L-826417 845367
L-826361 845339
L-826276 845339
L-826220 845367
" />
<path d="M-826024 845339
L-825799 845339
" />
<path d="M-825939 845142
L-825939 -845283
L-825911 -845227
L-825855 -845199
L-825799 -845199
" />
<path d="M-825602 -845199
L-825602 845339
" />
<path d="M-825602 845142
L-825630 845171
L-825602 845199
L-825574 845171
L-825602 845142
L-825602 845199
" />
<path d="M-825321 845339
L-825321 -845199
" />
<path d="M-825321 845395
L-825293 845367
L-825237 845339
L-825153 845339
L-825096 845367
L-825068 845423
L-825068 -845199
" />
<path d="M-824535 845339
L-824535 -845114
L-824563 -845058
L-824591 -845030
L-824647 -845002
L-824731 -845002
L-824787 -845030
" />
<path d="M-824535 -845227
L-824591 -845199
L-824703 -845199
L-824759 -845227
L-824787 -845255
L-824816 -845311
L-824816 845451
L-824787 845395
L-824759 845367
L-824703 845339
L-824591 845339
L-824535 845367
" />
<path d="M-845325 -845199
L-845325 845142
L-845185 845142
L-845100 845171
L-845044 845227
L-845016 845283
L-844988 845395
L-844988 -845451
L-845016 -845339
L-845044 -845283
L-845100 -845227
L-845185 -845199
L-845325 -845199
" />
<path d="M-844482 -845199
L-844482 845423
L-844510 845367
L-844566 845339
L-844679 845339
L-844735 845367
" />
<path d="M-844482 -845227
L-844538 -845199
L-844679 -845199
L-844735 -845227
L-844763 -845283
L-844763 -845339
L-844735 -845395
L-844679 -845423
L-844538 -845423
L-844482 -845451
" />
<path d="M-844286 845339
L-844061 845339
" />
<path d="M-844201 845142
L-844201 -845283
L-844173 -845227
L-844117 -845199
L-844061 -845199
" />
<path d="M-843639 -845227
L-843696 -845199
L-843808 -845199
L-843864 -845227
L-843892 -845283
L-843892 845423
L-843864 845367
L-843808 845339
L-843696 845339
L-843639 845367
L-843611 845423
L-843611 -845451
L-843892 -845395
" />
<path d="M-843358 -845255
L-843330 -845227
L-843358 -845199
L-843386 -845227
L-843358 -845255
L-843358 -845199
" />
<path d="M-843358 845367
L-843330 845395
L-843358 845423
L-843386 845395
L-843358 845367
L-843358 845423
" />
<path d="M-842319 -845199
L-842656 -845199
" />
<path d="M-842487 -845199
L-842487 845142
L-842544 845227
L-842600 845283
L-842656 845311
" />
<path d="M-841364 -845199
L-841364 845423
L-841392 845367
L-841448 845339
L-841560 845339
L-841616 845367
" />
<path d="M-841364 -845227
L-841420 -845199
L-841560 -845199
L-841616 -845227
L-841645 -845283
L-841645 -845339
L-841616 -845395
L-841560 -845423
L-841420 -845423
L-841364 -845451
" />
<path d="M-840830 845339
L-840830 -845199
" />
<path d="M-841083 845339
L-841083 -845283
L-841055 -845227
L-840998 -845199
L-840914 -845199
L-840858 -845227
L-840830 -845255
" />
<path d="M-840296 845339
L-840296 -845114
L-840324 -845058
L-840352 -845030
L-840408 -845002
L-840493 -845002
L-840549 -845030
" />
<path d="M-840296 -845227
L-840352 -845199
L-840465 -845199
L-840521 -845227
L-840549 -845255
L-840577 -845311
L-840577 845451
L-840549 845395
L-840521 845367
L-840465 845339
L-840352 845339
L-840296 845367
" />
<path d="M-839594 845199
L-839566 845171
L-839509 845142
L-839369 845142
L-839313 845171
L-839285 845199
L-839256 845255
L-839256 845311
L-839285 845395
L-839622 -845199
L-839256 -845199
" />
<path d="M-838891 845142
L-838835 845142
L-838779 845171
L-838751 845199
L-838723 845255
L-838695 845367
L-838695 -845423
L-838723 -845311
L-838751 -845255
L-838779 -845227
L-838835 -845199
L-838891 -845199
L-838947 -845227
L-838976 -845255
L-839004 -845311
L-839032 -845423
L-839032 845367
L-839004 845255
L-838976 845199
L-838947 845171
L-838891 845142
" />
<path d="M-838133 -845199
L-838470 -845199
" />
<path d="M-838301 -845199
L-838301 845142
L-838357 845227
L-838414 845283
L-838470 845311
" />
<path d="M-837936 845142
L-837571 845142
L-837767 845367
L-837683 845367
L-837627 845395
L-837599 845423
L-837571 -845451
L-837571 -845311
L-837599 -845255
L-837627 -845227
L-837683 -845199
L-837852 -845199
L-837908 -845227
L-837936 -845255
" />
<path d="M-845466 -845466
L-845466 -845466
" />
<path d="M-845466 -845466
L-845466 -845466
" />
<path d="M-845466 -845466
L-845466 -845466
" />
</g>
<g style="fill:#C2C200; fill-opacity:0.0; 
stroke:#C2C200; stroke-width:150; stroke-opacity:1; 
stroke-linecap:round; stroke-linejoin:round;">
<circle cx="69000" cy="38500" r="1000" /> 
<circle cx="59000" cy="14500" r="1000" /> 
<circle cx="89000" cy="14500" r="1000" /> 
<circle cx="58250" cy="40500" r="0.655906" /> 
<path d="M58249 40500
L58250 40500
" />
<path d="M58250 40499
L58250 40500
" />
<circle cx="90000" cy="40500" r="0.655906" /> 
<path d="M89999 40500
L90000 40500
" />
<path d="M90000 40499
L90000 40500
" />
<circle cx="90000" cy="13250" r="0.655906" /> 
<path d="M89999 13250
L90000 13250
" />
<path d="M90000 13249
L90000 13250
" />
<circle cx="58500" cy="13750" r="0.655906" /> 
<path d="M58499 13750
L58500 13750
" />
<path d="M58500 13749
L58500 13750
" />
<path d="M91000 41500
L90000 41500
" />
<path d="M91000 12500
L91000 41500
" />
<path d="M57000 12500
L91000 12500
" />
<path d="M57000 41500
L57000 12500
" />
<path d="M90000 41500
L57000 41500
" />
</g>
<g style="fill:#840084; fill-opacity:0.0; 
stroke:#840084; stroke-width:43; stroke-opacity:1; 
stroke-linecap:round; stroke-linejoin:round;">
<path d="M63032 33214
L63098 33120
" />
<path d="M63145 33214
L63145 33017
L63070 33017
L63051 33026
L63042 33035
L63032 33054
L63032 33082
L63042 33101
L63051 33110
L63070 33120
L63145 33120
" />
<path d="M62845 33214
L62957 33214
" />
<path d="M62901 33214
L62901 33017
L62920 33045
L62939 33064
L62957 33073
" />
<path d="M63023 32939
L63136 32939
" />
<path d="M63079 32939
L63079 32742
L63098 32770
L63117 32789
L63136 32798
" />
<path d="M62939 32939
L62939 32742
" />
<path d="M62920 32864
L62863 32939
" />
<path d="M62863 32807
L62939 32882
" />
<path d="M63282 23714
L63348 23620
" />
<path d="M63395 23714
L63395 23517
L63320 23517
L63301 23526
L63292 23535
L63282 23554
L63282 23582
L63292 23601
L63301 23610
L63320 23620
L63395 23620
" />
<path d="M63207 23535
L63198 23526
L63179 23517
L63132 23517
L63113 23526
L63104 23535
L63095 23554
L63095 23573
L63104 23601
L63217 23714
L63095 23714
" />
<path d="M63273 23439
L63386 23439
" />
<path d="M63329 23439
L63329 23242
L63348 23270
L63367 23289
L63386 23298
" />
<path d="M63189 23439
L63189 23242
" />
<path d="M63170 23364
L63113 23439
" />
<path d="M63113 23307
L63189 23382
" />
<path d="M63032 14464
L63098 14370
" />
<path d="M63145 14464
L63145 14267
L63070 14267
L63051 14276
L63042 14285
L63032 14304
L63032 14332
L63042 14351
L63051 14360
L63070 14370
L63145 14370
" />
<path d="M62967 14267
L62845 14267
L62910 14342
L62882 14342
L62863 14351
L62854 14360
L62845 14379
L62845 14426
L62854 14445
L62863 14454
L62882 14464
L62939 14464
L62957 14454
L62967 14445
" />
<path d="M63023 14189
L63136 14189
" />
<path d="M63079 14189
L63079 13992
L63098 14020
L63117 14039
L63136 14048
" />
<path d="M62939 14189
L62939 13992
" />
<path d="M62920 14114
L62863 14189
" />
<path d="M62863 14057
L62939 14132
" />
<path d="M85032 21714
L85098 21620
" />
<path d="M85145 21714
L85145 21517
L85070 21517
L85051 21526
L85042 21535
L85032 21554
L85032 21582
L85042 21601
L85051 21610
L85070 21620
L85145 21620
" />
<path d="M84863 21582
L84863 21714
" />
<path d="M84910 21507
L84957 21648
L84835 21648
" />
<path d="M85023 21989
L85136 21989
" />
<path d="M85079 21989
L85079 21792
L85098 21820
L85117 21839
L85136 21848
" />
<path d="M84939 21989
L84939 21792
" />
<path d="M84920 21914
L84863 21989
" />
<path d="M84863 21857
L84939 21932
" />
<path d="M84982 30389
L85048 30295
" />
<path d="M85095 30389
L85095 30192
L85020 30192
L85001 30201
L84992 30210
L84982 30229
L84982 30257
L84992 30276
L85001 30285
L85020 30295
L85095 30295
" />
<path d="M84804 30192
L84898 30192
L84907 30285
L84898 30276
L84879 30267
L84832 30267
L84813 30276
L84804 30285
L84795 30304
L84795 30351
L84804 30370
L84813 30379
L84832 30389
L84879 30389
L84898 30379
L84907 30370
" />
<path d="M85023 30739
L85136 30739
" />
<path d="M85079 30739
L85079 30542
L85098 30570
L85117 30589
L85136 30598
" />
<path d="M84939 30739
L84939 30542
" />
<path d="M84920 30664
L84863 30739
" />
<path d="M84863 30607
L84939 30682
" />
<path d="M85032 39214
L85098 39120
" />
<path d="M85145 39214
L85145 39017
L85070 39017
L85051 39026
L85042 39035
L85032 39054
L85032 39082
L85042 39101
L85051 39110
L85070 39120
L85145 39120
" />
<path d="M84863 39017
L84901 39017
L84920 39026
L84929 39035
L84948 39064
L84957 39101
L84957 39176
L84948 39195
L84939 39204
L84920 39214
L84882 39214
L84863 39204
L84854 39195
L84845 39176
L84845 39129
L84854 39110
L84863 39101
L84882 39092
L84920 39092
L84939 39101
L84948 39110
L84957 39129
" />
<path d="M85023 39489
L85136 39489
" />
<path d="M85079 39489
L85079 39292
L85098 39320
L85117 39339
L85136 39348
" />
<path d="M84939 39489
L84939 39292
" />
<path d="M84920 39414
L84863 39489
" />
<path d="M84863 39357
L84939 39432
" />
</g>
<g style="fill:#840084; fill-opacity:0.0; 
stroke:#840084; stroke-width:50; stroke-opacity:1; 
stroke-linecap:round; stroke-linejoin:round;">
<path d="M67308 34497
L67308 34699
L67296 34723
L67284 34735
L67260 34747
L67213 34747
L67189 34735
L67177 34723
L67165 34699
L67165 34497
" />
<path d="M66915 34747
L67058 34747
" />
<path d="M66987 34747
L66987 34497
L67010 34532
L67034 34556
L67058 34568
" />
<path d="M66886 34845
L66875 34857
L66863 34880
L66863 34940
L66875 34964
L66886 34976
L66910 34988
L66934 34988
L66970 34976
L67113 34833
L67113 34988
" />
<path d="M66946 35202
L67113 35202
" />
<path d="M66851 35142
L67029 35083
L67029 35238
" />
<path d="M67113 35452
L67113 35333
L66863 35333
" />
<path d="M67089 35678
L67101 35666
L67113 35630
L67113 35607
L67101 35571
L67077 35547
L67053 35535
L67005 35523
L66970 35523
L66922 35535
L66898 35547
L66875 35571
L66863 35607
L66863 35630
L66875 35666
L66886 35678
" />
<path d="M66863 35833
L66863 35857
L66875 35880
L66886 35892
L66910 35904
L66958 35916
L67017 35916
L67065 35904
L67089 35892
L67101 35880
L67113 35857
L67113 35833
L67101 35809
L67089 35797
L67065 35785
L67017 35773
L66958 35773
L66910 35785
L66886 35797
L66875 35809
L66863 35833
" />
<path d="M67113 36154
L67113 36011
" />
<path d="M67113 36083
L66863 36083
L66898 36059
L66922 36035
L66934 36011
" />
<path d="M67308 27972
L67308 28174
L67296 28198
L67284 28210
L67260 28222
L67213 28222
L67189 28210
L67177 28198
L67165 28174
L67165 27972
" />
<path d="M67058 27995
L67046 27984
L67022 27972
L66963 27972
L66939 27984
L66927 27995
L66915 28019
L66915 28043
L66927 28079
L67070 28222
L66915 28222
" />
<path d="M66886 28320
L66875 28332
L66863 28355
L66863 28415
L66875 28439
L66886 28451
L66910 28463
L66934 28463
L66970 28451
L67113 28308
L67113 28463
" />
<path d="M66946 28677
L67113 28677
" />
<path d="M66851 28617
L67029 28558
L67029 28713
" />
<path d="M67113 28927
L67113 28808
L66863 28808
" />
<path d="M67089 29153
L67101 29141
L67113 29105
L67113 29082
L67101 29046
L67077 29022
L67053 29010
L67005 28998
L66970 28998
L66922 29010
L66898 29022
L66875 29046
L66863 29082
L66863 29105
L66875 29141
L66886 29153
" />
<path d="M66863 29308
L66863 29332
L66875 29355
L66886 29367
L66910 29379
L66958 29391
L67017 29391
L67065 29379
L67089 29367
L67101 29355
L67113 29332
L67113 29308
L67101 29284
L67089 29272
L67065 29260
L67017 29248
L66958 29248
L66910 29260
L66886 29272
L66875 29284
L66863 29308
" />
<path d="M67113 29629
L67113 29486
" />
<path d="M67113 29558
L66863 29558
L66898 29534
L66922 29510
L66934 29486
" />
<path d="M67308 17797
L67308 17999
L67296 18023
L67284 18035
L67260 18047
L67213 18047
L67189 18035
L67177 18023
L67165 17999
L67165 17797
" />
<path d="M67070 17797
L66915 17797
L66998 17892
L66963 17892
L66939 17904
L66927 17916
L66915 17939
L66915 17999
L66927 18023
L66939 18035
L66963 18047
L67034 18047
L67058 18035
L67070 18023
" />
<path d="M66886 18145
L66875 18157
L66863 18180
L66863 18240
L66875 18264
L66886 18276
L66910 18288
L66934 18288
L66970 18276
L67113 18133
L67113 18288
" />
<path d="M66946 18502
L67113 18502
" />
<path d="M66851 18442
L67029 18383
L67029 18538
" />
<path d="M67113 18752
L67113 18633
L66863 18633
" />
<path d="M67089 18978
L67101 18966
L67113 18930
L67113 18907
L67101 18871
L67077 18847
L67053 18835
L67005 18823
L66970 18823
L66922 18835
L66898 18847
L66875 18871
L66863 18907
L66863 18930
L66875 18966
L66886 18978
" />
<path d="M66863 19133
L66863 19157
L66875 19180
L66886 19192
L66910 19204
L66958 19216
L67017 19216
L67065 19204
L67089 19192
L67101 19180
L67113 19157
L67113 19133
L67101 19109
L67089 19097
L67065 19085
L67017 19073
L66958 19073
L66910 19085
L66886 19097
L66875 19109
L66863 19133
" />
<path d="M67113 19454
L67113 19311
" />
<path d="M67113 19383
L66863 19383
L66898 19359
L66922 19335
L66934 19311
" />
<path d="M81422 21029
L81422 21231
L81410 21255
L81398 21267
L81374 21279
L81327 21279
L81303 21267
L81291 21255
L81279 21231
L81279 21029
" />
<path d="M81053 21112
L81053 21279
" />
<path d="M81112 21017
L81172 21195
L81017 21195
" />
<path d="M81236 19645
L81225 19657
L81213 19680
L81213 19740
L81225 19764
L81236 19776
L81260 19788
L81284 19788
L81320 19776
L81463 19633
L81463 19788
" />
<path d="M81296 20002
L81463 20002
" />
<path d="M81201 19942
L81379 19883
L81379 20038
" />
<path d="M81463 20252
L81463 20133
L81213 20133
" />
<path d="M81439 20478
L81451 20466
L81463 20430
L81463 20407
L81451 20371
L81427 20347
L81403 20335
L81355 20323
L81320 20323
L81272 20335
L81248 20347
L81225 20371
L81213 20407
L81213 20430
L81225 20466
L81236 20478
" />
<path d="M81213 20633
L81213 20657
L81225 20680
L81236 20692
L81260 20704
L81308 20716
L81367 20716
L81415 20704
L81439 20692
L81451 20680
L81463 20657
L81463 20633
L81451 20609
L81439 20597
L81415 20585
L81367 20573
L81308 20573
L81260 20585
L81236 20597
L81225 20609
L81213 20633
" />
<path d="M81463 20954
L81463 20811
" />
<path d="M81463 20883
L81213 20883
L81248 20859
L81272 20835
L81284 20811
" />
<path d="M81422 29829
L81422 30031
L81410 30055
L81398 30067
L81374 30079
L81327 30079
L81303 30067
L81291 30055
L81279 30031
L81279 29829
" />
<path d="M81041 29829
L81160 29829
L81172 29948
L81160 29936
L81136 29924
L81077 29924
L81053 29936
L81041 29948
L81029 29971
L81029 30031
L81041 30055
L81053 30067
L81077 30079
L81136 30079
L81160 30067
L81172 30055
" />
<path d="M81236 28445
L81225 28457
L81213 28480
L81213 28540
L81225 28564
L81236 28576
L81260 28588
L81284 28588
L81320 28576
L81463 28433
L81463 28588
" />
<path d="M81296 28802
L81463 28802
" />
<path d="M81201 28742
L81379 28683
L81379 28838
" />
<path d="M81463 29052
L81463 28933
L81213 28933
" />
<path d="M81439 29278
L81451 29266
L81463 29230
L81463 29207
L81451 29171
L81427 29147
L81403 29135
L81355 29123
L81320 29123
L81272 29135
L81248 29147
L81225 29171
L81213 29207
L81213 29230
L81225 29266
L81236 29278
" />
<path d="M81213 29433
L81213 29457
L81225 29480
L81236 29492
L81260 29504
L81308 29516
L81367 29516
L81415 29504
L81439 29492
L81451 29480
L81463 29457
L81463 29433
L81451 29409
L81439 29397
L81415 29385
L81367 29373
L81308 29373
L81260 29385
L81236 29397
L81225 29409
L81213 29433
" />
<path d="M81463 29754
L81463 29611
" />
<path d="M81463 29683
L81213 29683
L81248 29659
L81272 29635
L81284 29611
" />
<path d="M81297 36704
L81297 36906
L81285 36930
L81273 36942
L81249 36954
L81202 36954
L81178 36942
L81166 36930
L81154 36906
L81154 36704
" />
<path d="M80928 36704
L80976 36704
L80999 36716
L81011 36727
L81035 36763
L81047 36811
L81047 36906
L81035 36930
L81023 36942
L80999 36954
L80952 36954
L80928 36942
L80916 36930
L80904 36906
L80904 36846
L80916 36823
L80928 36811
L80952 36799
L80999 36799
L81023 36811
L81035 36823
L81047 36846
" />
<path d="M81111 35320
L81100 35332
L81088 35355
L81088 35415
L81100 35439
L81111 35451
L81135 35463
L81159 35463
L81195 35451
L81338 35308
L81338 35463
" />
<path d="M81171 35677
L81338 35677
" />
<path d="M81076 35617
L81254 35558
L81254 35713
" />
<path d="M81338 35927
L81338 35808
L81088 35808
" />
<path d="M81314 36153
L81326 36141
L81338 36105
L81338 36082
L81326 36046
L81302 36022
L81278 36010
L81230 35998
L81195 35998
L81147 36010
L81123 36022
L81100 36046
L81088 36082
L81088 36105
L81100 36141
L81111 36153
" />
<path d="M81088 36308
L81088 36332
L81100 36355
L81111 36367
L81135 36379
L81183 36391
L81242 36391
L81290 36379
L81314 36367
L81326 36355
L81338 36332
L81338 36308
L81326 36284
L81314 36272
L81290 36260
L81242 36248
L81183 36248
L81135 36260
L81111 36272
L81100 36284
L81088 36308
" />
<path d="M81338 36629
L81338 36486
" />
<path d="M81338 36558
L81088 36558
L81123 36534
L81147 36510
L81159 36486
" />
</g>
<g style="fill:#840084; fill-opacity:0.0; 
stroke:#840084; stroke-width:80; stroke-opacity:1; 
stroke-linecap:round; stroke-linejoin:round;">
<path d="M70925 27150
L70925 26650
" />
<path d="M70925 26650
L70675 26400
" />
<path d="M70175 26400
L69925 26650
" />
<path d="M70675 28400
L70925 28150
" />
<path d="M70925 28150
L70925 27650
" />
<path d="M70925 27650
L70675 27400
" />
<path d="M70175 27400
L69925 27650
" />
<path d="M69925 27650
L69925 28150
" />
<path d="M69925 28150
L70175 28400
" />
<path d="M70925 27150
L70675 27400
" />
<path d="M70175 27400
L69925 27150
" />
<path d="M69925 26650
L69925 27150
" />
<path d="M70925 30150
L70925 29650
" />
<path d="M70925 29650
L70675 29400
" />
<path d="M70175 29400
L69925 29650
" />
<path d="M70675 29400
L70925 29150
" />
<path d="M70925 29150
L70925 28650
" />
<path d="M70925 28650
L70675 28400
" />
<path d="M70175 28400
L69925 28650
" />
<path d="M69925 28650
L69925 29150
" />
<path d="M69925 29150
L70175 29400
" />
<path d="M70675 31400
L70925 31150
" />
<path d="M70925 31150
L70925 30650
" />
<path d="M70925 30650
L70675 30400
" />
<path d="M70175 30400
L69925 30650
" />
<path d="M69925 30650
L69925 31150
" />
<path d="M69925 31150
L70175 31400
" />
<path d="M70925 30150
L70675 30400
" />
<path d="M70175 30400
L69925 30150
" />
<path d="M69925 29650
L69925 30150
" />
<path d="M70925 33150
L70925 32650
" />
<path d="M70925 32650
L70675 32400
" />
<path d="M70175 32400
L69925 32650
" />
<path d="M70675 32400
L70925 32150
" />
<path d="M70925 32150
L70925 31650
" />
<path d="M70925 31650
L70675 31400
" />
<path d="M70175 31400
L69925 31650
" />
<path d="M69925 31650
L69925 32150
" />
<path d="M69925 32150
L70175 32400
" />
<path d="M70675 33400
L70175 33400
" />
<path d="M70925 33150
L70675 33400
" />
<path d="M70175 33400
L69925 33150
" />
<path d="M69925 32650
L69925 33150
" />
<path d="M70925 26150
L70925 25650
" />
<path d="M70925 25650
L70675 25400
" />
<path d="M70175 25400
L69925 25650
" />
<path d="M70925 26150
L70675 26400
" />
<path d="M70175 26400
L69925 26150
" />
<path d="M69925 25650
L69925 26150
" />
<path d="M70925 25150
L70925 24650
" />
<path d="M70925 24650
L70675 24400
" />
<path d="M70175 24400
L69925 24650
" />
<path d="M70925 25150
L70675 25400
" />
<path d="M70175 25400
L69925 25150
" />
<path d="M69925 24650
L69925 25150
" />
<path d="M70925 24150
L70925 23650
" />
<path d="M70925 23650
L70675 23400
" />
<path d="M70175 23400
L69925 23650
" />
<path d="M70925 24150
L70675 24400
" />
<path d="M70175 24400
L69925 24150
" />
<path d="M69925 23650
L69925 24150
" />
<path d="M70925 23150
L70925 22650
" />
<path d="M70925 22650
L70675 22400
" />
<path d="M70175 22400
L69925 22650
" />
<path d="M70925 23150
L70675 23400
" />
<path d="M70175 23400
L69925 23150
" />
<path d="M69925 22650
L69925 23150
" />
<path d="M70925 22150
L70925 21650
" />
<path d="M70925 21650
L70675 21400
" />
<path d="M70675 21400
L70175 21400
" />
<path d="M70175 21400
L69925 21650
" />
<path d="M70925 22150
L70675 22400
" />
<path d="M70175 22400
L69925 22150
" />
<path d="M69925 21650
L69925 22150
" />
<path d="M75925 27650
L75925 28150
" />
<path d="M75925 28150
L76175 28400
" />
<path d="M76675 28400
L76925 28150
" />
<path d="M76175 26400
L75925 26650
" />
<path d="M75925 26650
L75925 27150
" />
<path d="M75925 27150
L76175 27400
" />
<path d="M76675 27400
L76925 27150
" />
<path d="M76925 27150
L76925 26650
" />
<path d="M76925 26650
L76675 26400
" />
<path d="M75925 27650
L76175 27400
" />
<path d="M76675 27400
L76925 27650
" />
<path d="M76925 28150
L76925 27650
" />
<path d="M75925 24650
L75925 25150
" />
<path d="M75925 25150
L76175 25400
" />
<path d="M76675 25400
L76925 25150
" />
<path d="M76175 25400
L75925 25650
" />
<path d="M75925 25650
L75925 26150
" />
<path d="M75925 26150
L76175 26400
" />
<path d="M76675 26400
L76925 26150
" />
<path d="M76925 26150
L76925 25650
" />
<path d="M76925 25650
L76675 25400
" />
<path d="M76175 23400
L75925 23650
" />
<path d="M75925 23650
L75925 24150
" />
<path d="M75925 24150
L76175 24400
" />
<path d="M76675 24400
L76925 24150
" />
<path d="M76925 24150
L76925 23650
" />
<path d="M76925 23650
L76675 23400
" />
<path d="M75925 24650
L76175 24400
" />
<path d="M76675 24400
L76925 24650
" />
<path d="M76925 25150
L76925 24650
" />
<path d="M75925 21650
L75925 22150
" />
<path d="M75925 22150
L76175 22400
" />
<path d="M76675 22400
L76925 22150
" />
<path d="M76175 22400
L75925 22650
" />
<path d="M75925 22650
L75925 23150
" />
<path d="M75925 23150
L76175 23400
" />
<path d="M76675 23400
L76925 23150
" />
<path d="M76925 23150
L76925 22650
" />
<path d="M76925 22650
L76675 22400
" />
<path d="M76175 21400
L76675 21400
" />
<path d="M75925 21650
L76175 21400
" />
<path d="M76675 21400
L76925 21650
" />
<path d="M76925 22150
L76925 21650
" />
<path d="M75925 28650
L75925 29150
" />
<path d="M75925 29150
L76175 29400
" />
<path d="M76675 29400
L76925 29150
" />
<path d="M75925 28650
L76175 28400
" />
<path d="M76675 28400
L76925 28650
" />
<path d="M76925 29150
L76925 28650
" />
<path d="M75925 29650
L75925 30150
" />
<path d="M75925 30150
L76175 30400
" />
<path d="M76675 30400
L76925 30150
" />
<path d="M75925 29650
L76175 29400
" />
<path d="M76675 29400
L76925 29650
" />
<path d="M76925 30150
L76925 29650
" />
<path d="M75925 30650
L75925 31150
" />
<path d="M75925 31150
L76175 31400
" />
<path d="M76675 31400
L76925 31150
" />
<path d="M75925 30650
L76175 30400
" />
<path d="M76675 30400
L76925 30650
" />
<path d="M76925 31150
L76925 30650
" />
<path d="M75925 31650
L75925 32150
" />
<path d="M75925 32150
L76175 32400
" />
<path d="M76675 32400
L76925 32150
" />
<path d="M75925 31650
L76175 31400
" />
<path d="M76675 31400
L76925 31650
" />
<path d="M76925 32150
L76925 31650
" />
<path d="M75925 32650
L75925 33150
" />
<path d="M75925 33150
L76175 33400
" />
<path d="M76175 33400
L76675 33400
" />
<path d="M76675 33400
L76925 33150
" />
<path d="M75925 32650
L76175 32400
" />
<path d="M76675 32400
L76925 32650
" />
<path d="M76925 33150
L76925 32650
" />
</g>
<g style="fill:#840084; fill-opacity:0.0; 
stroke:#840084; stroke-width:39; stroke-opacity:1; 
stroke-linecap:round; stroke-linejoin:round;">
<circle cx="62350" cy="32700" r="50" /> 
<path d="M62800 32700
L62400 32700
" />
<path d="M62400 32700
L62400 33300
" />
<path d="M62400 33300
L62800 33300
" />
<path d="M63200 33300
L63600 33300
" />
<path d="M63600 33300
L63600 32700
" />
<path d="M63600 32700
L63200 32700
" />
<circle cx="62600" cy="23200" r="50" /> 
<path d="M63050 23200
L62650 23200
" />
<path d="M62650 23200
L62650 23800
" />
<path d="M62650 23800
L63050 23800
" />
<path d="M63450 23800
L63850 23800
" />
<path d="M63850 23800
L63850 23200
" />
<path d="M63850 23200
L63450 23200
" />
<circle cx="62350" cy="13950" r="50" /> 
<path d="M62800 13950
L62400 13950
" />
<path d="M62400 13950
L62400 14550
" />
<path d="M62400 14550
L62800 14550
" />
<path d="M63200 14550
L63600 14550
" />
<path d="M63600 14550
L63600 13950
" />
<path d="M63600 13950
L63200 13950
" />
<circle cx="85650" cy="22050" r="50" /> 
<path d="M85200 22050
L85600 22050
" />
<path d="M85600 22050
L85600 21450
" />
<path d="M85600 21450
L85200 21450
" />
<path d="M84800 21450
L84400 21450
" />
<path d="M84400 21450
L84400 22050
" />
<path d="M84400 22050
L84800 22050
" />
<circle cx="85650" cy="30800" r="50" /> 
<path d="M85200 30800
L85600 30800
" />
<path d="M85600 30800
L85600 30200
" />
<path d="M85600 30200
L85200 30200
" />
<path d="M84800 30200
L84400 30200
" />
<path d="M84400 30200
L84400 30800
" />
<path d="M84400 30800
L84800 30800
" />
<circle cx="85650" cy="39550" r="50" /> 
<path d="M85200 39550
L85600 39550
" />
<path d="M85600 39550
L85600 38950
" />
<path d="M85600 38950
L85200 38950
" />
<path d="M84800 38950
L84400 38950
" />
<path d="M84400 38950
L84400 39550
" />
<path d="M84400 39550
L84800 39550
" />
</g>
<g style="fill:#840084; fill-opacity:0.0; 
stroke:#840084; stroke-width:50; stroke-opacity:1; 
stroke-linecap:round; stroke-linejoin:round;">
<path d="M67350 34900
L66650 34900
" />
<path d="M66650 34900
L66650 36100
" />
<path d="M66650 36100
L67350 36100
" />
<path d="M67350 36100
L67350 34900
" />
<path d="M67350 28375
L66650 28375
" />
<path d="M66650 28375
L66650 29575
" />
<path d="M66650 29575
L67350 29575
" />
<path d="M67350 29575
L67350 28375
" />
<path d="M67350 18200
L66650 18200
" />
<path d="M66650 18200
L66650 19400
" />
<path d="M66650 19400
L67350 19400
" />
<path d="M67350 19400
L67350 18200
" />
<path d="M81000 20900
L81700 20900
" />
<path d="M81700 20900
L81700 19700
" />
<path d="M81700 19700
L81000 19700
" />
<path d="M81000 19700
L81000 20900
" />
<path d="M81000 29700
L81700 29700
" />
<path d="M81700 29700
L81700 28500
" />
<path d="M81700 28500
L81000 28500
" />
<path d="M81000 28500
L81000 29700
" />
<path d="M80875 36575
L81575 36575
" />
<path d="M81575 36575
L81575 35375
" />
<path d="M81575 35375
L80875 35375
" />
<path d="M80875 35375
L80875 36575
" />
</g> 
</svg>
