<?xml version="1.0" standalone="no"?>
 <!DOCTYPE svg PUBLIC "-//W3C//DTD SVG 1.1//EN" 
 "http://www.w3.org/Graphics/SVG/1.1/DTD/svg11.dtd"> 
<svg xmlns="http://www.w3.org/2000/svg" version="1.1" 
    width="29.7002cm" height="21.0007cm" viewBox="0 0 116930 82680 ">
<title>SVG Picture created as .kicad_pcb-F_SilkS.svg date 2013/10/07 21:43:23 </title>
  <desc>Picture generated by PCBNEW </desc>
<g style="fill:#000000; fill-opacity:1;stroke:#000000; stroke-opacity:1;
stroke-linecap:round; stroke-linejoin:round; "
 transform="translate(0 0) scale(1 1)">
</g>
<g style="fill:#000000; fill-opacity:0.0; 
stroke:#000000; stroke-width:39.3701; stroke-opacity:1; 
stroke-linecap:round; stroke-linejoin:round;">
<rect x="-845466" y="-845466" width="0" height="0" rx="0" />
<rect x="-845466" y="-845466" width="0" height="0" rx="0" />
<path d="M-845466 -845466
L-845466 -845466
" />
<path d="M-845466 -845466
L-845466 -845466
" />
<path d="M-845466 -845466
L-845466 -845466
" />
<path d="M-845466 -845466
L-845466 -845466
" />
<path d="M-845466 -845466
L-845466 -845466
" />
<path d="M-845353 -845227
L-845269 -845199
L-845128 -845199
L-845072 -845227
L-845044 -845255
L-845016 -845311
L-845016 -845367
L-845044 -845423
L-845072 -845451
L-845128 845451
L-845241 845423
L-845297 845395
L-845325 845367
L-845353 845311
L-845353 845255
L-845325 845199
L-845297 845171
L-845241 845142
L-845100 845142
L-845016 845171
" />
<path d="M-844763 -845199
L-844763 845142
" />
<path d="M-844510 -845199
L-844510 845423
L-844538 845367
L-844595 845339
L-844679 845339
L-844735 845367
L-844763 845395
" />
<path d="M-844005 -845227
L-844061 -845199
L-844173 -845199
L-844229 -845227
L-844257 -845283
L-844257 845423
L-844229 845367
L-844173 845339
L-844061 845339
L-844005 845367
L-843976 845423
L-843976 -845451
L-844257 -845395
" />
<path d="M-843499 -845227
L-843555 -845199
L-843667 -845199
L-843724 -845227
L-843752 -845283
L-843752 845423
L-843724 845367
L-843667 845339
L-843555 845339
L-843499 845367
L-843471 845423
L-843471 -845451
L-843752 -845395
" />
<path d="M-843302 845339
L-843077 845339
" />
<path d="M-843218 845142
L-843218 -845283
L-843190 -845227
L-843134 -845199
L-843077 -845199
" />
<path d="M-842881 -845255
L-842853 -845227
L-842881 -845199
L-842909 -845227
L-842881 -845255
L-842881 -845199
" />
<path d="M-842881 845367
L-842853 845395
L-842881 845423
L-842909 845395
L-842881 845367
L-842881 845423
" />
<path d="M-841729 845114
L-842235 -845058
" />
<path d="M-841532 -845199
L-841532 845142
" />
<path d="M-841279 -845199
L-841279 845423
L-841307 845367
L-841364 845339
L-841448 845339
L-841504 845367
L-841532 845395
" />
<path d="M-840914 -845199
L-840970 -845227
L-840998 -845255
L-841026 -845311
L-841026 845451
L-840998 845395
L-840970 845367
L-840914 845339
L-840830 845339
L-840774 845367
L-840746 845395
L-840717 845451
L-840717 -845311
L-840746 -845255
L-840774 -845227
L-840830 -845199
L-840914 -845199
" />
<path d="M-840465 -845199
L-840465 845339
" />
<path d="M-840465 845395
L-840436 845367
L-840380 845339
L-840296 845339
L-840240 845367
L-840212 845423
L-840212 -845199
" />
<path d="M-840212 845423
L-840184 845367
L-840127 845339
L-840043 845339
L-839987 845367
L-839959 845423
L-839959 -845199
" />
<path d="M-839453 -845227
L-839509 -845199
L-839622 -845199
L-839678 -845227
L-839706 -845283
L-839706 845423
L-839678 845367
L-839622 845339
L-839509 845339
L-839453 845367
L-839425 845423
L-839425 -845451
L-839706 -845395
" />
<path d="M-838751 845114
L-839256 -845058
" />
<path d="M-838554 -845199
L-838554 845142
" />
<path d="M-838554 845367
L-838498 845339
L-838386 845339
L-838329 845367
L-838301 845395
L-838273 845451
L-838273 -845311
L-838301 -845255
L-838329 -845227
L-838386 -845199
L-838498 -845199
L-838554 -845227
" />
<path d="M-837796 -845227
L-837852 -845199
L-837964 -845199
L-838020 -845227
L-838048 -845283
L-838048 845423
L-838020 845367
L-837964 845339
L-837852 845339
L-837796 845367
L-837767 845423
L-837767 -845451
L-838048 -845395
" />
<path d="M-837515 845339
L-837515 -845199
" />
<path d="M-837515 845395
L-837486 845367
L-837430 845339
L-837346 845339
L-837290 845367
L-837262 845423
L-837262 -845199
" />
<path d="M-836981 845339
L-836981 -845086
L-837009 -845030
L-837065 -845002
L-837093 -845002
" />
<path d="M-836981 845142
L-837009 845171
L-836981 845199
L-836953 845171
L-836981 845142
L-836981 845199
" />
<path d="M-836447 -845199
L-836447 845423
L-836475 845367
L-836531 845339
L-836644 845339
L-836700 845367
" />
<path d="M-836447 -845227
L-836503 -845199
L-836644 -845199
L-836700 -845227
L-836728 -845283
L-836728 -845339
L-836700 -845395
L-836644 -845423
L-836503 -845423
L-836447 -845451
" />
<path d="M-836166 -845199
L-836166 845339
" />
<path d="M-836166 845395
L-836138 845367
L-836082 845339
L-835997 845339
L-835941 845367
L-835913 845423
L-835913 -845199
" />
<path d="M-835913 845423
L-835885 845367
L-835829 845339
L-835745 845339
L-835688 845367
L-835660 845423
L-835660 -845199
" />
<path d="M-835379 -845199
L-835379 845339
" />
<path d="M-835379 845142
L-835407 845171
L-835379 845199
L-835351 845171
L-835379 845142
L-835379 845199
" />
<path d="M-835098 845339
L-835098 -845199
" />
<path d="M-835098 845395
L-835070 845367
L-835014 845339
L-834930 845339
L-834874 845367
L-834846 845423
L-834846 -845199
" />
<path d="M-834143 845114
L-834649 -845058
" />
<path d="M-833946 -845199
L-833946 845142
L-833806 845142
L-833722 845171
L-833666 845227
L-833637 845283
L-833609 845395
L-833609 -845451
L-833637 -845339
L-833666 -845283
L-833722 -845227
L-833806 -845199
L-833946 -845199
" />
<path d="M-833272 -845199
L-833328 -845227
L-833356 -845255
L-833385 -845311
L-833385 845451
L-833356 845395
L-833328 845367
L-833272 845339
L-833188 845339
L-833132 845367
L-833104 845395
L-833076 845451
L-833076 -845311
L-833104 -845255
L-833132 -845227
L-833188 -845199
L-833272 -845199
" />
<path d="M-832570 -845227
L-832626 -845199
L-832738 -845199
L-832795 -845227
L-832823 -845255
L-832851 -845311
L-832851 845451
L-832823 845395
L-832795 845367
L-832738 845339
L-832626 845339
L-832570 845367
" />
<path d="M-832064 845339
L-832064 -845199
" />
<path d="M-832317 845339
L-832317 -845283
L-832289 -845227
L-832233 -845199
L-832148 -845199
L-832092 -845227
L-832064 -845255
" />
<path d="M-831783 -845199
L-831783 845339
" />
<path d="M-831783 845395
L-831755 845367
L-831699 845339
L-831615 845339
L-831558 845367
L-831530 845423
L-831530 -845199
" />
<path d="M-831530 845423
L-831502 845367
L-831446 845339
L-831362 845339
L-831306 845367
L-831277 845423
L-831277 -845199
" />
<path d="M-830772 -845227
L-830828 -845199
L-830940 -845199
L-830996 -845227
L-831025 -845283
L-831025 845423
L-830996 845367
L-830940 845339
L-830828 845339
L-830772 845367
L-830744 845423
L-830744 -845451
L-831025 -845395
" />
<path d="M-830491 845339
L-830491 -845199
" />
<path d="M-830491 845395
L-830463 845367
L-830406 845339
L-830322 845339
L-830266 845367
L-830238 845423
L-830238 -845199
" />
<path d="M-830041 845339
L-829816 845339
" />
<path d="M-829957 845142
L-829957 -845283
L-829929 -845227
L-829873 -845199
L-829816 -845199
" />
<path d="M-829648 -845227
L-829592 -845199
L-829479 -845199
L-829423 -845227
L-829395 -845283
L-829395 -845311
L-829423 -845367
L-829479 -845395
L-829564 -845395
L-829620 -845423
L-829648 845451
L-829648 845423
L-829620 845367
L-829564 845339
L-829479 845339
L-829423 845367
" />
<path d="M-828721 845114
L-829226 -845058
" />
<path d="M-828440 -845199
L-828496 -845227
L-828524 -845255
L-828552 -845311
L-828552 845451
L-828524 845395
L-828496 845367
L-828440 845339
L-828356 845339
L-828299 845367
L-828271 845395
L-828243 845451
L-828243 -845311
L-828271 -845255
L-828299 -845227
L-828356 -845199
L-828440 -845199
" />
<path d="M-827990 845339
L-827990 -845002
" />
<path d="M-827990 845367
L-827934 845339
L-827822 845339
L-827766 845367
L-827737 845395
L-827709 845451
L-827709 -845311
L-827737 -845255
L-827766 -845227
L-827822 -845199
L-827934 -845199
L-827990 -845227
" />
<path d="M-827232 -845227
L-827288 -845199
L-827400 -845199
L-827456 -845227
L-827485 -845283
L-827485 845423
L-827456 845367
L-827400 845339
L-827288 845339
L-827232 845367
L-827204 845423
L-827204 -845451
L-827485 -845395
" />
<path d="M-826951 845339
L-826951 -845199
" />
<path d="M-826951 845395
L-826923 845367
L-826866 845339
L-826782 845339
L-826726 845367
L-826698 845423
L-826698 -845199
" />
<path d="M-826445 -845227
L-826389 -845199
L-826276 -845199
L-826220 -845227
L-826192 -845283
L-826192 -845311
L-826220 -845367
L-826276 -845395
L-826361 -845395
L-826417 -845423
L-826445 845451
L-826445 845423
L-826417 845367
L-826361 845339
L-826276 845339
L-826220 845367
" />
<path d="M-826024 845339
L-825799 845339
" />
<path d="M-825939 845142
L-825939 -845283
L-825911 -845227
L-825855 -845199
L-825799 -845199
" />
<path d="M-825602 -845199
L-825602 845339
" />
<path d="M-825602 845451
L-825574 845395
L-825546 845367
L-825490 845339
L-825434 845339
" />
<path d="M-825012 -845227
L-825068 -845199
L-825181 -845199
L-825237 -845227
L-825265 -845283
L-825265 845423
L-825237 845367
L-825181 845339
L-825068 845339
L-825012 845367
L-824984 845423
L-824984 -845451
L-825265 -845395
" />
<path d="M-824506 -845227
L-824563 -845199
L-824675 -845199
L-824731 -845227
L-824759 -845283
L-824759 845423
L-824731 845367
L-824675 845339
L-824563 845339
L-824506 845367
L-824478 845423
L-824478 -845451
L-824759 -845395
" />
<path d="M-824310 845339
L-824085 845339
" />
<path d="M-824226 845142
L-824226 -845283
L-824197 -845227
L-824141 -845199
L-824085 -845199
" />
<path d="M-823945 845339
L-823804 -845199
L-823664 845339
" />
<path d="M-823439 -845199
L-823439 845339
" />
<path d="M-823439 845142
L-823467 845171
L-823439 845199
L-823411 845171
L-823439 845142
L-823439 845199
" />
<path d="M-822933 -845227
L-822989 -845199
L-823102 -845199
L-823158 -845227
L-823186 -845283
L-823186 845423
L-823158 845367
L-823102 845339
L-822989 845339
L-822933 845367
L-822905 845423
L-822905 -845451
L-823186 -845395
" />
<path d="M-822708 845339
L-822596 -845199
L-822484 845451
L-822371 -845199
L-822259 845339
" />
<path d="M-821613 845114
L-822118 -845058
" />
<path d="M-821191 -845227
L-821247 -845199
L-821360 -845199
L-821416 -845227
L-821444 -845283
L-821444 845423
L-821416 845367
L-821360 845339
L-821247 845339
L-821191 845367
L-821163 845423
L-821163 -845451
L-821444 -845395
" />
<path d="M-821247 845114
L-821332 845199
" />
<path d="M-820826 -845199
L-820882 -845227
L-820910 -845283
L-820910 845142
" />
<path d="M-820376 -845227
L-820433 -845199
L-820545 -845199
L-820601 -845227
L-820629 -845283
L-820629 845423
L-820601 845367
L-820545 845339
L-820433 845339
L-820376 845367
L-820348 845423
L-820348 -845451
L-820629 -845395
" />
<path d="M-819843 -845227
L-819899 -845199
L-820011 -845199
L-820067 -845227
L-820096 -845255
L-820124 -845311
L-820124 845451
L-820096 845395
L-820067 845367
L-820011 845339
L-819899 845339
L-819843 845367
" />
<path d="M-819674 845339
L-819449 845339
" />
<path d="M-819590 845142
L-819590 -845283
L-819562 -845227
L-819506 -845199
L-819449 -845199
" />
<path d="M-819253 -845199
L-819253 845339
" />
<path d="M-819253 845451
L-819225 845395
L-819196 845367
L-819140 845339
L-819084 845339
" />
<path d="M-818803 -845199
L-818859 -845227
L-818887 -845255
L-818916 -845311
L-818916 845451
L-818887 845395
L-818859 845367
L-818803 845339
L-818719 845339
L-818663 845367
L-818635 845395
L-818606 845451
L-818606 -845311
L-818635 -845255
L-818663 -845227
L-818719 -845199
L-818803 -845199
" />
<path d="M-818354 845339
L-818354 -845199
" />
<path d="M-818354 845395
L-818326 845367
L-818269 845339
L-818185 845339
L-818129 845367
L-818101 845423
L-818101 -845199
" />
<path d="M-817820 -845199
L-817820 845339
" />
<path d="M-817820 845142
L-817848 845171
L-817820 845199
L-817792 845171
L-817820 845142
L-817820 845199
" />
<path d="M-817286 845339
L-817286 -845002
" />
<path d="M-817286 -845227
L-817342 -845199
L-817455 -845199
L-817511 -845227
L-817539 -845255
L-817567 -845311
L-817567 845451
L-817539 845395
L-817511 845367
L-817455 845339
L-817342 845339
L-817286 845367
" />
<path d="M-816752 845339
L-816752 -845199
" />
<path d="M-817005 845339
L-817005 -845283
L-816977 -845227
L-816921 -845199
L-816836 -845199
L-816780 -845227
L-816752 -845255
" />
<path d="M-816246 -845227
L-816303 -845199
L-816415 -845199
L-816471 -845227
L-816499 -845283
L-816499 845423
L-816471 845367
L-816415 845339
L-816303 845339
L-816246 845367
L-816218 845423
L-816218 -845451
L-816499 -845395
" />
<path d="M-815544 845114
L-816050 -845058
" />
<path d="M-815347 -845199
L-815347 845142
L-815123 845142
L-815066 845171
L-815038 845199
L-815010 845255
L-815010 845339
L-815038 845395
L-815066 845423
L-815123 845451
L-815347 845451
" />
<path d="M-814420 -845255
L-814448 -845227
L-814533 -845199
L-814589 -845199
L-814673 -845227
L-814729 -845283
L-814757 -845339
L-814786 -845451
L-814786 845395
L-814757 845283
L-814729 845227
L-814673 845171
L-814589 845142
L-814533 845142
L-814448 845171
L-814420 845199
" />
<path d="M-813971 845423
L-813886 845451
L-813858 -845451
L-813830 -845395
L-813830 -845311
L-813858 -845255
L-813886 -845227
L-813943 -845199
L-814167 -845199
L-814167 845142
L-813971 845142
L-813915 845171
L-813886 845199
L-813858 845255
L-813858 845311
L-813886 845367
L-813915 845395
L-813971 845423
L-814167 845423
" />
<path d="M-813718 -845142
L-813268 -845142
" />
<path d="M-813212 845142
L-813016 -845199
L-812819 845142
" />
<path d="M-812650 845199
L-812622 845171
L-812566 845142
L-812426 845142
L-812369 845171
L-812341 845199
L-812313 845255
L-812313 845311
L-812341 845395
L-812678 -845199
L-812313 -845199
" />
<path d="M-812060 -845255
L-812032 -845227
L-812060 -845199
L-812088 -845227
L-812060 -845255
L-812060 -845199
" />
<path d="M-811807 845199
L-811779 845171
L-811723 845142
L-811583 845142
L-811526 845171
L-811498 845199
L-811470 845255
L-811470 845311
L-811498 845395
L-811836 -845199
L-811470 -845199
" />
<path d="M-810796 845114
L-811302 -845058
" />
<path d="M-810599 -845199
L-810599 845142
L-810375 845142
L-810318 845171
L-810290 845199
L-810262 845255
L-810262 845339
L-810290 845395
L-810318 845423
L-810375 845451
L-810599 845451
" />
<path d="M-809672 -845255
L-809700 -845227
L-809785 -845199
L-809841 -845199
L-809925 -845227
L-809981 -845283
L-810009 -845339
L-810037 -845451
L-810037 845395
L-810009 845283
L-809981 845227
L-809925 845171
L-809841 845142
L-809785 845142
L-809700 845171
L-809672 845199
" />
<path d="M-809223 845423
L-809138 845451
L-809110 -845451
L-809082 -845395
L-809082 -845311
L-809110 -845255
L-809138 -845227
L-809195 -845199
L-809419 -845199
L-809419 845142
L-809223 845142
L-809166 845171
L-809138 845199
L-809110 845255
L-809110 845311
L-809138 845367
L-809166 845395
L-809223 845423
L-809419 845423
" />
<path d="M-808886 845339
L-808745 -845199
L-808605 845339
" />
<path d="M-808408 845199
L-808380 845171
L-808324 845142
L-808183 845142
L-808127 845171
L-808099 845199
L-808071 845255
L-808071 845311
L-808099 845395
L-808436 -845199
L-808071 -845199
" />
<path d="M-807818 -845255
L-807790 -845227
L-807818 -845199
L-807846 -845227
L-807818 -845255
L-807818 -845199
" />
<path d="M-807565 845199
L-807537 845171
L-807481 845142
L-807340 845142
L-807284 845171
L-807256 845199
L-807228 845255
L-807228 845311
L-807256 845395
L-807593 -845199
L-807228 -845199
" />
<path d="M-806554 845114
L-807059 -845058
" />
<path d="M-806357 -845255
L-806329 -845227
L-806357 -845199
L-806385 -845227
L-806357 -845255
L-806357 -845199
" />
<path d="M-806076 -845199
L-806076 845142
" />
<path d="M-806020 -845423
L-805851 -845199
" />
<path d="M-805851 845339
L-806076 -845367
" />
<path d="M-805598 -845199
L-805598 845339
" />
<path d="M-805598 845142
L-805626 845171
L-805598 845199
L-805570 845171
L-805598 845142
L-805598 845199
" />
<path d="M-805065 -845227
L-805121 -845199
L-805233 -845199
L-805289 -845227
L-805317 -845255
L-805346 -845311
L-805346 845451
L-805317 845395
L-805289 845367
L-805233 845339
L-805121 845339
L-805065 845367
" />
<path d="M-804559 -845199
L-804559 845423
L-804587 845367
L-804643 845339
L-804756 845339
L-804812 845367
" />
<path d="M-804559 -845227
L-804615 -845199
L-804756 -845199
L-804812 -845227
L-804840 -845283
L-804840 -845339
L-804812 -845395
L-804756 -845423
L-804615 -845423
L-804559 -845451
" />
<path d="M-804025 -845199
L-804025 845142
" />
<path d="M-804025 -845227
L-804081 -845199
L-804194 -845199
L-804250 -845227
L-804278 -845255
L-804306 -845311
L-804306 845451
L-804278 845395
L-804250 845367
L-804194 845339
L-804081 845339
L-804025 845367
" />
<path d="M-803885 -845142
L-803435 -845142
" />
<path d="M-803295 845339
L-803295 -845002
" />
<path d="M-803295 845367
L-803238 845339
L-803126 845339
L-803070 845367
L-803042 845395
L-803014 845451
L-803014 -845311
L-803042 -845255
L-803070 -845227
L-803126 -845199
L-803238 -845199
L-803295 -845227
" />
<path d="M-802508 -845227
L-802564 -845199
L-802676 -845199
L-802733 -845227
L-802761 -845255
L-802789 -845311
L-802789 845451
L-802761 845395
L-802733 845367
L-802676 845339
L-802564 845339
L-802508 845367
" />
<path d="M-802255 -845199
L-802255 845142
" />
<path d="M-802255 845367
L-802199 845339
L-802086 845339
L-802030 845367
L-802002 845395
L-801974 845451
L-801974 -845311
L-802002 -845255
L-802030 -845227
L-802086 -845199
L-802199 -845199
L-802255 -845227
" />
<path d="M-845128 845423
L-845325 845423
" />
<path d="M-845325 -845199
L-845325 845142
L-845044 845142
" />
<path d="M-844819 -845199
L-844819 845339
" />
<path d="M-844819 845142
L-844847 845171
L-844819 845199
L-844791 845171
L-844819 845142
L-844819 845199
" />
<path d="M-844454 -845199
L-844510 -845227
L-844538 -845283
L-844538 845142
" />
<path d="M-844005 -845227
L-844061 -845199
L-844173 -845199
L-844229 -845227
L-844257 -845283
L-844257 845423
L-844229 845367
L-844173 845339
L-844061 845339
L-844005 845367
L-843976 845423
L-843976 -845451
L-844257 -845395
" />
<path d="M-843724 -845255
L-843696 -845227
L-843724 -845199
L-843752 -845227
L-843724 -845255
L-843724 -845199
" />
<path d="M-843724 845367
L-843696 845395
L-843724 845423
L-843752 845395
L-843724 845367
L-843724 845423
" />
</g>
<g style="fill:#000000; fill-opacity:0.0; 
stroke:#000000; stroke-width:118; stroke-opacity:1; 
stroke-linecap:round; stroke-linejoin:round;">
<path d="M-845409 845142
L-845072 845142
" />
<path d="M-845241 -845199
L-845241 845142
" />
<path d="M-844876 -845199
L-844876 845339
" />
<path d="M-844876 845142
L-844904 845171
L-844876 845199
L-844847 845171
L-844876 845142
L-844876 845199
" />
<path d="M-844679 845339
L-844454 845339
" />
<path d="M-844595 845142
L-844595 -845283
L-844566 -845227
L-844510 -845199
L-844454 -845199
" />
<path d="M-844173 -845199
L-844229 -845227
L-844257 -845283
L-844257 845142
" />
<path d="M-843724 -845227
L-843780 -845199
L-843892 -845199
L-843948 -845227
L-843976 -845283
L-843976 845423
L-843948 845367
L-843892 845339
L-843780 845339
L-843724 845367
L-843696 845423
L-843696 -845451
L-843976 -845395
" />
<path d="M-843443 -845255
L-843415 -845227
L-843443 -845199
L-843471 -845227
L-843443 -845255
L-843443 -845199
" />
<path d="M-843443 845367
L-843415 845395
L-843443 845423
L-843471 845395
L-843443 845367
L-843443 845423
" />
</g>
<g style="fill:#000000; fill-opacity:0.0; 
stroke:#000000; stroke-width:39.3701; stroke-opacity:1; 
stroke-linecap:round; stroke-linejoin:round;">
<path d="M-845325 -845199
L-845325 845142
" />
<path d="M-844791 -845199
L-844791 845142
" />
<path d="M-844791 -845227
L-844847 -845199
L-844960 -845199
L-845016 -845227
L-845044 -845255
L-845072 -845311
L-845072 845451
L-845044 845395
L-845016 845367
L-844960 845339
L-844847 845339
L-844791 845367
" />
<path d="M-844510 -845255
L-844482 -845227
L-844510 -845199
L-844538 -845227
L-844510 -845255
L-844510 -845199
" />
<path d="M-844510 845367
L-844482 845395
L-844510 845423
L-844538 845395
L-844510 845367
L-844510 845423
" />
<path d="M-843471 -845199
L-843808 -845199
" />
<path d="M-843639 -845199
L-843639 845142
L-843696 845227
L-843752 845283
L-843808 845311
" />
<path d="M-842796 845114
L-843302 -845058
" />
<path d="M-842291 -845199
L-842628 -845199
" />
<path d="M-842459 -845199
L-842459 845142
L-842516 845227
L-842572 845283
L-842628 845311
" />
<path d="M-845353 -845227
L-845269 -845199
L-845128 -845199
L-845072 -845227
L-845044 -845255
L-845016 -845311
L-845016 -845367
L-845044 -845423
L-845072 -845451
L-845128 845451
L-845241 845423
L-845297 845395
L-845325 845367
L-845353 845311
L-845353 845255
L-845325 845199
L-845297 845171
L-845241 845142
L-845100 845142
L-845016 845171
" />
<path d="M-844763 -845199
L-844763 845339
" />
<path d="M-844763 845142
L-844791 845171
L-844763 845199
L-844735 845171
L-844763 845142
L-844763 845199
" />
<path d="M-844538 845339
L-844229 845339
L-844538 -845199
L-844229 -845199
" />
<path d="M-843780 -845227
L-843836 -845199
L-843948 -845199
L-844005 -845227
L-844033 -845283
L-844033 845423
L-844005 845367
L-843948 845339
L-843836 845339
L-843780 845367
L-843752 845423
L-843752 -845451
L-844033 -845395
" />
<path d="M-843499 -845255
L-843471 -845227
L-843499 -845199
L-843527 -845227
L-843499 -845255
L-843499 -845199
" />
<path d="M-843499 845367
L-843471 845395
L-843499 845423
L-843527 845395
L-843499 845367
L-843499 845423
" />
<path d="M-842796 -845367
L-842516 -845367
" />
<path d="M-842853 -845199
L-842656 845142
L-842459 -845199
" />
<path d="M-842010 845339
L-842010 -845199
" />
<path d="M-842150 845114
L-842291 -845395
L-841926 -845395
" />
</g>
<g style="fill:#000000; fill-opacity:0.0; 
stroke:#000000; stroke-width:118; stroke-opacity:1; 
stroke-linecap:round; stroke-linejoin:round;">
<path d="M-844988 -845199
L-845185 845451
" />
<path d="M-845325 -845199
L-845325 845142
L-845100 845142
L-845044 845171
L-845016 845199
L-844988 845255
L-844988 845339
L-845016 845395
L-845044 845423
L-845100 845451
L-845325 845451
" />
<path d="M-844510 -845227
L-844566 -845199
L-844679 -845199
L-844735 -845227
L-844763 -845283
L-844763 845423
L-844735 845367
L-844679 845339
L-844566 845339
L-844510 845367
L-844482 845423
L-844482 -845451
L-844763 -845395
" />
<path d="M-844286 845339
L-844145 -845199
L-844005 845339
" />
<path d="M-843780 -845255
L-843752 -845227
L-843780 -845199
L-843808 -845227
L-843780 -845255
L-843780 -845199
" />
<path d="M-843780 845367
L-843752 845395
L-843780 845423
L-843808 845395
L-843780 845367
L-843780 845423
" />
</g>
<g style="fill:#000000; fill-opacity:0.0; 
stroke:#000000; stroke-width:39.3701; stroke-opacity:1; 
stroke-linecap:round; stroke-linejoin:round;">
<path d="M-845325 -845199
L-845325 845142
" />
<path d="M-844988 -845199
L-845241 845395
" />
<path d="M-844988 845142
L-845325 -845451
" />
<path d="M-844735 -845199
L-844735 845339
" />
<path d="M-844735 845142
L-844763 845171
L-844735 845199
L-844707 845171
L-844735 845142
L-844735 845199
" />
<path d="M-844117 -845255
L-844145 -845227
L-844229 -845199
L-844286 -845199
L-844370 -845227
L-844426 -845283
L-844454 -845339
L-844482 -845451
L-844482 845395
L-844454 845283
L-844426 845227
L-844370 845171
L-844286 845142
L-844229 845142
L-844145 845171
L-844117 845199
" />
<path d="M-843611 -845199
L-843611 845423
L-843639 845367
L-843696 845339
L-843808 845339
L-843864 845367
" />
<path d="M-843611 -845227
L-843667 -845199
L-843808 -845199
L-843864 -845227
L-843892 -845283
L-843892 -845339
L-843864 -845395
L-843808 -845423
L-843667 -845423
L-843611 -845451
" />
<path d="M-843077 -845199
L-843077 845142
" />
<path d="M-843077 -845227
L-843134 -845199
L-843246 -845199
L-843302 -845227
L-843330 -845255
L-843358 -845311
L-843358 845451
L-843330 845395
L-843302 845367
L-843246 845339
L-843134 845339
L-843077 845367
" />
<path d="M-842347 845423
L-842150 845423
" />
<path d="M-842066 -845199
L-842347 -845199
L-842347 845142
L-842066 845142
" />
<path d="M-841813 -845255
L-841785 -845227
L-841813 -845199
L-841841 -845227
L-841813 -845255
L-841813 -845199
" />
<path d="M-841532 -845199
L-841532 845142
L-841392 845142
L-841307 845171
L-841251 845227
L-841223 845283
L-841195 845395
L-841195 -845451
L-841223 -845339
L-841251 -845283
L-841307 -845227
L-841392 -845199
L-841532 -845199
" />
<path d="M-840942 -845255
L-840914 -845227
L-840942 -845199
L-840970 -845227
L-840942 -845255
L-840942 -845199
" />
<path d="M-840689 -845367
L-840408 -845367
" />
<path d="M-840746 -845199
L-840549 845142
L-840352 -845199
" />
<path d="M-840156 -845255
L-840127 -845227
L-840156 -845199
L-840184 -845227
L-840156 -845255
L-840156 -845199
" />
<path d="M-838976 845339
L-838976 -845002
" />
<path d="M-838976 845367
L-838919 845339
L-838807 845339
L-838751 845367
L-838723 845395
L-838695 845451
L-838695 -845311
L-838723 -845255
L-838751 -845227
L-838807 -845199
L-838919 -845199
L-838976 -845227
" />
<path d="M-838189 -845227
L-838245 -845199
L-838357 -845199
L-838414 -845227
L-838442 -845255
L-838470 -845311
L-838470 845451
L-838442 845395
L-838414 845367
L-838357 845339
L-838245 845339
L-838189 845367
" />
<path d="M-837936 -845199
L-837936 845142
" />
<path d="M-837936 845367
L-837880 845339
L-837767 845339
L-837711 845367
L-837683 845395
L-837655 845451
L-837655 -845311
L-837683 -845255
L-837711 -845227
L-837767 -845199
L-837880 -845199
L-837936 -845227
" />
<path d="M-837402 845339
L-837402 -845199
" />
<path d="M-837402 845395
L-837374 845367
L-837318 845339
L-837234 845339
L-837177 845367
L-837149 845423
L-837149 -845199
" />
<path d="M-836644 -845227
L-836700 -845199
L-836812 -845199
L-836868 -845227
L-836896 -845283
L-836896 845423
L-836868 845367
L-836812 845339
L-836700 845339
L-836644 845367
L-836616 845423
L-836616 -845451
L-836896 -845395
" />
<path d="M-836419 845339
L-836306 -845199
L-836194 845451
L-836082 -845199
L-835969 845339
" />
<path d="M-835126 -844974
L-835155 -845002
L-835211 -845086
L-835239 -845142
L-835267 -845227
L-835295 -845367
L-835295 845451
L-835267 845311
L-835239 845227
L-835211 845171
L-835155 845086
L-835126 845058
" />
<path d="M-834930 845199
L-834902 845171
L-834846 845142
L-834705 845142
L-834649 845171
L-834621 845199
L-834593 845255
L-834593 845311
L-834621 845395
L-834958 -845199
L-834593 -845199
" />
<path d="M-834227 845142
L-834171 845142
L-834115 845171
L-834087 845199
L-834059 845255
L-834031 845367
L-834031 -845423
L-834059 -845311
L-834087 -845255
L-834115 -845227
L-834171 -845199
L-834227 -845199
L-834284 -845227
L-834312 -845255
L-834340 -845311
L-834368 -845423
L-834368 845367
L-834340 845255
L-834312 845199
L-834284 845171
L-834227 845142
" />
<path d="M-833469 -845199
L-833806 -845199
" />
<path d="M-833637 -845199
L-833637 845142
L-833694 845227
L-833750 845283
L-833806 845311
" />
<path d="M-833272 845142
L-832907 845142
L-833104 845367
L-833019 845367
L-832963 845395
L-832935 845423
L-832907 -845451
L-832907 -845311
L-832935 -845255
L-832963 -845227
L-833019 -845199
L-833188 -845199
L-833244 -845227
L-833272 -845255
" />
<path d="M-832654 -845423
L-832205 -845423
" />
<path d="M-831924 -845199
L-831924 845339
" />
<path d="M-831924 845395
L-831896 845367
L-831839 845339
L-831755 845339
L-831699 845367
L-831671 845423
L-831671 -845199
" />
<path d="M-831671 845423
L-831643 845367
L-831586 845339
L-831502 845339
L-831446 845367
L-831418 845423
L-831418 -845199
" />
<path d="M-830884 -845199
L-830884 845423
L-830912 845367
L-830968 845339
L-831081 845339
L-831137 845367
" />
<path d="M-830884 -845227
L-830940 -845199
L-831081 -845199
L-831137 -845227
L-831165 -845283
L-831165 -845339
L-831137 -845395
L-831081 -845423
L-830940 -845423
L-830884 -845451
" />
<path d="M-830603 -845199
L-830603 845339
" />
<path d="M-830603 845451
L-830575 845395
L-830547 845367
L-830491 845339
L-830435 845339
" />
<path d="M-830238 -845423
L-829788 -845423
" />
<path d="M-829198 -845199
L-829536 -845199
" />
<path d="M-829367 -845199
L-829367 845142
L-829423 845227
L-829479 845283
L-829536 845311
" />
<path d="M-829002 845142
L-828636 845142
L-828833 845367
L-828749 845367
L-828693 845395
L-828665 845423
L-828636 -845451
L-828636 -845311
L-828665 -845255
L-828693 -845227
L-828749 -845199
L-828917 -845199
L-828974 -845227
L-829002 -845255
" />
<path d="M-828440 -844974
L-828412 -845002
L-828356 -845086
L-828327 -845142
L-828299 -845227
L-828271 -845367
L-828271 845451
L-828299 845311
L-828327 845227
L-828356 845171
L-828412 845086
L-828440 845058
" />
<path d="M-827990 -845423
L-827541 -845423
" />
<path d="M-827344 845339
L-827119 845339
" />
<path d="M-827260 845142
L-827260 -845283
L-827232 -845227
L-827176 -845199
L-827119 -845199
" />
<path d="M-826698 -845227
L-826754 -845199
L-826866 -845199
L-826923 -845227
L-826951 -845283
L-826951 845423
L-826923 845367
L-826866 845339
L-826754 845339
L-826698 845367
L-826670 845423
L-826670 -845451
L-826951 -845395
" />
<path d="M-826445 -845227
L-826389 -845199
L-826276 -845199
L-826220 -845227
L-826192 -845283
L-826192 -845311
L-826220 -845367
L-826276 -845395
L-826361 -845395
L-826417 -845423
L-826445 845451
L-826445 845423
L-826417 845367
L-826361 845339
L-826276 845339
L-826220 845367
" />
<path d="M-826024 845339
L-825799 845339
" />
<path d="M-825939 845142
L-825939 -845283
L-825911 -845227
L-825855 -845199
L-825799 -845199
" />
<path d="M-825602 -845199
L-825602 845339
" />
<path d="M-825602 845142
L-825630 845171
L-825602 845199
L-825574 845171
L-825602 845142
L-825602 845199
" />
<path d="M-825321 845339
L-825321 -845199
" />
<path d="M-825321 845395
L-825293 845367
L-825237 845339
L-825153 845339
L-825096 845367
L-825068 845423
L-825068 -845199
" />
<path d="M-824535 845339
L-824535 -845114
L-824563 -845058
L-824591 -845030
L-824647 -845002
L-824731 -845002
L-824787 -845030
" />
<path d="M-824535 -845227
L-824591 -845199
L-824703 -845199
L-824759 -845227
L-824787 -845255
L-824816 -845311
L-824816 845451
L-824787 845395
L-824759 845367
L-824703 845339
L-824591 845339
L-824535 845367
" />
<path d="M-845325 -845199
L-845325 845142
L-845185 845142
L-845100 845171
L-845044 845227
L-845016 845283
L-844988 845395
L-844988 -845451
L-845016 -845339
L-845044 -845283
L-845100 -845227
L-845185 -845199
L-845325 -845199
" />
<path d="M-844482 -845199
L-844482 845423
L-844510 845367
L-844566 845339
L-844679 845339
L-844735 845367
" />
<path d="M-844482 -845227
L-844538 -845199
L-844679 -845199
L-844735 -845227
L-844763 -845283
L-844763 -845339
L-844735 -845395
L-844679 -845423
L-844538 -845423
L-844482 -845451
" />
<path d="M-844286 845339
L-844061 845339
" />
<path d="M-844201 845142
L-844201 -845283
L-844173 -845227
L-844117 -845199
L-844061 -845199
" />
<path d="M-843639 -845227
L-843696 -845199
L-843808 -845199
L-843864 -845227
L-843892 -845283
L-843892 845423
L-843864 845367
L-843808 845339
L-843696 845339
L-843639 845367
L-843611 845423
L-843611 -845451
L-843892 -845395
" />
<path d="M-843358 -845255
L-843330 -845227
L-843358 -845199
L-843386 -845227
L-843358 -845255
L-843358 -845199
" />
<path d="M-843358 845367
L-843330 845395
L-843358 845423
L-843386 845395
L-843358 845367
L-843358 845423
" />
<path d="M-842319 -845199
L-842656 -845199
" />
<path d="M-842487 -845199
L-842487 845142
L-842544 845227
L-842600 845283
L-842656 845311
" />
<path d="M-841364 -845199
L-841364 845423
L-841392 845367
L-841448 845339
L-841560 845339
L-841616 845367
" />
<path d="M-841364 -845227
L-841420 -845199
L-841560 -845199
L-841616 -845227
L-841645 -845283
L-841645 -845339
L-841616 -845395
L-841560 -845423
L-841420 -845423
L-841364 -845451
" />
<path d="M-840830 845339
L-840830 -845199
" />
<path d="M-841083 845339
L-841083 -845283
L-841055 -845227
L-840998 -845199
L-840914 -845199
L-840858 -845227
L-840830 -845255
" />
<path d="M-840296 845339
L-840296 -845114
L-840324 -845058
L-840352 -845030
L-840408 -845002
L-840493 -845002
L-840549 -845030
" />
<path d="M-840296 -845227
L-840352 -845199
L-840465 -845199
L-840521 -845227
L-840549 -845255
L-840577 -845311
L-840577 845451
L-840549 845395
L-840521 845367
L-840465 845339
L-840352 845339
L-840296 845367
" />
<path d="M-839594 845199
L-839566 845171
L-839509 845142
L-839369 845142
L-839313 845171
L-839285 845199
L-839256 845255
L-839256 845311
L-839285 845395
L-839622 -845199
L-839256 -845199
" />
<path d="M-838891 845142
L-838835 845142
L-838779 845171
L-838751 845199
L-838723 845255
L-838695 845367
L-838695 -845423
L-838723 -845311
L-838751 -845255
L-838779 -845227
L-838835 -845199
L-838891 -845199
L-838947 -845227
L-838976 -845255
L-839004 -845311
L-839032 -845423
L-839032 845367
L-839004 845255
L-838976 845199
L-838947 845171
L-838891 845142
" />
<path d="M-838133 -845199
L-838470 -845199
" />
<path d="M-838301 -845199
L-838301 845142
L-838357 845227
L-838414 845283
L-838470 845311
" />
<path d="M-837936 845142
L-837571 845142
L-837767 845367
L-837683 845367
L-837627 845395
L-837599 845423
L-837571 -845451
L-837571 -845311
L-837599 -845255
L-837627 -845227
L-837683 -845199
L-837852 -845199
L-837908 -845227
L-837936 -845255
" />
<path d="M-845466 -845466
L-845466 -845466
" />
<path d="M-845466 -845466
L-845466 -845466
" />
<path d="M-845466 -845466
L-845466 -845466
" />
</g>
<g style="fill:#C2C200; fill-opacity:0.0; 
stroke:#C2C200; stroke-width:150; stroke-opacity:1; 
stroke-linecap:round; stroke-linejoin:round;">
<circle cx="69000" cy="38500" r="1000" /> 
<circle cx="59000" cy="14500" r="1000" /> 
<circle cx="89000" cy="14500" r="1000" /> 
<circle cx="58250" cy="40500" r="0.655906" /> 
<path d="M58249 40500
L58250 40500
" />
<path d="M58250 40499
L58250 40500
" />
<circle cx="90000" cy="40500" r="0.655906" /> 
<path d="M89999 40500
L90000 40500
" />
<path d="M90000 40499
L90000 40500
" />
<circle cx="90000" cy="13250" r="0.655906" /> 
<path d="M89999 13250
L90000 13250
" />
<path d="M90000 13249
L90000 13250
" />
<circle cx="58500" cy="13750" r="0.655906" /> 
<path d="M58499 13750
L58500 13750
" />
<path d="M58500 13749
L58500 13750
" />
<path d="M91000 41500
L90000 41500
" />
<path d="M91000 12500
L91000 41500
" />
<path d="M57000 12500
L91000 12500
" />
<path d="M57000 41500
L57000 12500
" />
<path d="M90000 41500
L57000 41500
" />
</g>
<g style="fill:#008484; fill-opacity:0.0; 
stroke:#008484; stroke-width:80; stroke-opacity:1; 
stroke-linecap:round; stroke-linejoin:round;">
<path d="M82450 18871
L82430 18909
L82430 18966
L82450 19023
L82488 19061
L82526 19080
L82602 19099
L82659 19099
L82735 19080
L82773 19061
L82811 19023
L82830 18966
L82830 18928
L82811 18871
L82792 18852
L82659 18852
L82659 18928
" />
<path d="M82830 18623
L82811 18661
L82792 18680
L82754 18699
L82640 18699
L82602 18680
L82583 18661
L82564 18623
L82564 18566
L82583 18528
L82602 18509
L82640 18490
L82754 18490
L82792 18509
L82811 18528
L82830 18566
L82830 18623
" />
<path d="M82830 18319
L82430 18319
L82430 18166
L82450 18128
L82469 18109
L82507 18090
L82564 18090
L82602 18109
L82621 18128
L82640 18166
L82640 18319
" />
<path d="M82830 17919
L82564 17919
" />
<path d="M82640 17919
L82602 17899
L82583 17880
L82564 17842
L82564 17804
" />
<path d="M82830 17614
L82811 17652
L82792 17671
L82754 17690
L82640 17690
L82602 17671
L82583 17652
L82564 17614
L82564 17557
L82583 17519
L82602 17500
L82640 17480
L82754 17480
L82792 17500
L82811 17519
L82830 17557
L82830 17614
" />
<path d="M82564 17138
L82830 17138
" />
<path d="M82411 17233
L82697 17328
L82697 17080
" />
</g>
<g style="fill:#008484; fill-opacity:0.0; 
stroke:#008484; stroke-width:60; stroke-opacity:1; 
stroke-linecap:round; stroke-linejoin:round;">
<path d="M90030 36395
L90030 36166
" />
<path d="M90430 36280
L90030 36280
" />
<path d="M90411 36052
L90430 35995
L90430 35900
L90411 35861
L90392 35842
L90354 35823
L90316 35823
L90278 35842
L90259 35861
L90240 35900
L90221 35976
L90202 36014
L90183 36033
L90145 36052
L90107 36052
L90069 36033
L90050 36014
L90030 35976
L90030 35880
L90050 35823
" />
<path d="M90430 35423
L90240 35557
" />
<path d="M90430 35652
L90030 35652
L90030 35500
L90050 35461
L90069 35442
L90107 35423
L90164 35423
L90202 35442
L90221 35461
L90240 35500
L90240 35652
" />
<path d="M90030 35080
L90030 35157
L90050 35195
L90069 35214
L90126 35252
L90202 35271
L90354 35271
L90392 35252
L90411 35233
L90430 35195
L90430 35119
L90411 35080
L90392 35061
L90354 35042
L90259 35042
L90221 35061
L90202 35080
L90183 35119
L90183 35195
L90202 35233
L90221 35252
L90259 35271
" />
<path d="M90030 27395
L90030 27166
" />
<path d="M90430 27280
L90030 27280
" />
<path d="M90411 27052
L90430 26995
L90430 26900
L90411 26861
L90392 26842
L90354 26823
L90316 26823
L90278 26842
L90259 26861
L90240 26900
L90221 26976
L90202 27014
L90183 27033
L90145 27052
L90107 27052
L90069 27033
L90050 27014
L90030 26976
L90030 26880
L90050 26823
" />
<path d="M90430 26423
L90240 26557
" />
<path d="M90430 26652
L90030 26652
L90030 26500
L90050 26461
L90069 26442
L90107 26423
L90164 26423
L90202 26442
L90221 26461
L90240 26500
L90240 26652
" />
<path d="M90030 26061
L90030 26252
L90221 26271
L90202 26252
L90183 26214
L90183 26119
L90202 26080
L90221 26061
L90259 26042
L90354 26042
L90392 26061
L90411 26080
L90430 26119
L90430 26214
L90411 26252
L90392 26271
" />
<path d="M90030 18895
L90030 18666
" />
<path d="M90430 18780
L90030 18780
" />
<path d="M90411 18552
L90430 18495
L90430 18400
L90411 18361
L90392 18342
L90354 18323
L90316 18323
L90278 18342
L90259 18361
L90240 18400
L90221 18476
L90202 18514
L90183 18533
L90145 18552
L90107 18552
L90069 18533
L90050 18514
L90030 18476
L90030 18380
L90050 18323
" />
<path d="M90430 17923
L90240 18057
" />
<path d="M90430 18152
L90030 18152
L90030 18000
L90050 17961
L90069 17942
L90107 17923
L90164 17923
L90202 17942
L90221 17961
L90240 18000
L90240 18152
" />
<path d="M90164 17580
L90430 17580
" />
<path d="M90011 17676
L90297 17771
L90297 17523
" />
<path d="M57530 37245
L57530 37016
" />
<path d="M57930 37130
L57530 37130
" />
<path d="M57911 36902
L57930 36845
L57930 36750
L57911 36711
L57892 36692
L57854 36673
L57816 36673
L57778 36692
L57759 36711
L57740 36750
L57721 36826
L57702 36864
L57683 36883
L57645 36902
L57607 36902
L57569 36883
L57550 36864
L57530 36826
L57530 36730
L57550 36673
" />
<path d="M57930 36273
L57740 36407
" />
<path d="M57930 36502
L57530 36502
L57530 36350
L57550 36311
L57569 36292
L57607 36273
L57664 36273
L57702 36292
L57721 36311
L57740 36350
L57740 36502
" />
<path d="M57930 35892
L57930 36121
" />
<path d="M57930 36007
L57530 36007
L57588 36045
L57626 36083
L57645 36121
" />
<path d="M57530 18695
L57530 18466
" />
<path d="M57930 18580
L57530 18580
" />
<path d="M57911 18352
L57930 18295
L57930 18200
L57911 18161
L57892 18142
L57854 18123
L57816 18123
L57778 18142
L57759 18161
L57740 18200
L57721 18276
L57702 18314
L57683 18333
L57645 18352
L57607 18352
L57569 18333
L57550 18314
L57530 18276
L57530 18180
L57550 18123
" />
<path d="M57930 17723
L57740 17857
" />
<path d="M57930 17952
L57530 17952
L57530 17800
L57550 17761
L57569 17742
L57607 17723
L57664 17723
L57702 17742
L57721 17761
L57740 17800
L57740 17952
" />
<path d="M57530 17590
L57530 17342
L57683 17476
L57683 17419
L57702 17380
L57721 17361
L57759 17342
L57854 17342
L57892 17361
L57911 17380
L57930 17419
L57930 17533
L57911 17571
L57892 17590
" />
</g>
<g style="fill:#008484; fill-opacity:0.0; 
stroke:#008484; stroke-width:80; stroke-opacity:1; 
stroke-linecap:round; stroke-linejoin:round;">
<path d="M65150 37171
L65130 37209
L65130 37266
L65150 37323
L65188 37361
L65226 37380
L65302 37399
L65359 37399
L65435 37380
L65473 37361
L65511 37323
L65530 37266
L65530 37228
L65511 37171
L65492 37152
L65359 37152
L65359 37228
" />
<path d="M65530 36923
L65511 36961
L65492 36980
L65454 36999
L65340 36999
L65302 36980
L65283 36961
L65264 36923
L65264 36866
L65283 36828
L65302 36809
L65340 36790
L65454 36790
L65492 36809
L65511 36828
L65530 36866
L65530 36923
" />
<path d="M65530 36619
L65130 36619
L65130 36466
L65150 36428
L65169 36409
L65207 36390
L65264 36390
L65302 36409
L65321 36428
L65340 36466
L65340 36619
" />
<path d="M65530 36219
L65264 36219
" />
<path d="M65340 36219
L65302 36199
L65283 36180
L65264 36142
L65264 36104
" />
<path d="M65530 35914
L65511 35952
L65492 35971
L65454 35990
L65340 35990
L65302 35971
L65283 35952
L65264 35914
L65264 35857
L65283 35819
L65302 35800
L65340 35780
L65454 35780
L65492 35800
L65511 35819
L65530 35857
L65530 35914
" />
<path d="M65530 35400
L65530 35628
" />
<path d="M65530 35514
L65130 35514
L65188 35552
L65226 35590
L65245 35628
" />
<path d="M65150 27671
L65130 27709
L65130 27766
L65150 27823
L65188 27861
L65226 27880
L65302 27899
L65359 27899
L65435 27880
L65473 27861
L65511 27823
L65530 27766
L65530 27728
L65511 27671
L65492 27652
L65359 27652
L65359 27728
" />
<path d="M65530 27423
L65511 27461
L65492 27480
L65454 27499
L65340 27499
L65302 27480
L65283 27461
L65264 27423
L65264 27366
L65283 27328
L65302 27309
L65340 27290
L65454 27290
L65492 27309
L65511 27328
L65530 27366
L65530 27423
" />
<path d="M65530 27119
L65130 27119
L65130 26966
L65150 26928
L65169 26909
L65207 26890
L65264 26890
L65302 26909
L65321 26928
L65340 26966
L65340 27119
" />
<path d="M65530 26719
L65264 26719
" />
<path d="M65340 26719
L65302 26699
L65283 26680
L65264 26642
L65264 26604
" />
<path d="M65530 26414
L65511 26452
L65492 26471
L65454 26490
L65340 26490
L65302 26471
L65283 26452
L65264 26414
L65264 26357
L65283 26319
L65302 26300
L65340 26280
L65454 26280
L65492 26300
L65511 26319
L65530 26357
L65530 26414
" />
<path d="M65169 26128
L65150 26109
L65130 26071
L65130 25976
L65150 25938
L65169 25919
L65207 25900
L65245 25900
L65302 25919
L65530 26147
L65530 25900
" />
<path d="M65150 18421
L65130 18459
L65130 18516
L65150 18573
L65188 18611
L65226 18630
L65302 18649
L65359 18649
L65435 18630
L65473 18611
L65511 18573
L65530 18516
L65530 18478
L65511 18421
L65492 18402
L65359 18402
L65359 18478
" />
<path d="M65530 18173
L65511 18211
L65492 18230
L65454 18249
L65340 18249
L65302 18230
L65283 18211
L65264 18173
L65264 18116
L65283 18078
L65302 18059
L65340 18040
L65454 18040
L65492 18059
L65511 18078
L65530 18116
L65530 18173
" />
<path d="M65530 17869
L65130 17869
L65130 17716
L65150 17678
L65169 17659
L65207 17640
L65264 17640
L65302 17659
L65321 17678
L65340 17716
L65340 17869
" />
<path d="M65530 17469
L65264 17469
" />
<path d="M65340 17469
L65302 17449
L65283 17430
L65264 17392
L65264 17354
" />
<path d="M65530 17164
L65511 17202
L65492 17221
L65454 17240
L65340 17240
L65302 17221
L65283 17202
L65264 17164
L65264 17107
L65283 17069
L65302 17050
L65340 17030
L65454 17030
L65492 17050
L65511 17069
L65530 17107
L65530 17164
" />
<path d="M65130 16897
L65130 16650
L65283 16783
L65283 16726
L65302 16688
L65321 16669
L65359 16650
L65454 16650
L65492 16669
L65511 16688
L65530 16726
L65530 16840
L65511 16878
L65492 16897
" />
<path d="M82450 27871
L82430 27909
L82430 27966
L82450 28023
L82488 28061
L82526 28080
L82602 28099
L82659 28099
L82735 28080
L82773 28061
L82811 28023
L82830 27966
L82830 27928
L82811 27871
L82792 27852
L82659 27852
L82659 27928
" />
<path d="M82830 27623
L82811 27661
L82792 27680
L82754 27699
L82640 27699
L82602 27680
L82583 27661
L82564 27623
L82564 27566
L82583 27528
L82602 27509
L82640 27490
L82754 27490
L82792 27509
L82811 27528
L82830 27566
L82830 27623
" />
<path d="M82830 27319
L82430 27319
L82430 27166
L82450 27128
L82469 27109
L82507 27090
L82564 27090
L82602 27109
L82621 27128
L82640 27166
L82640 27319
" />
<path d="M82830 26919
L82564 26919
" />
<path d="M82640 26919
L82602 26899
L82583 26880
L82564 26842
L82564 26804
" />
<path d="M82830 26614
L82811 26652
L82792 26671
L82754 26690
L82640 26690
L82602 26671
L82583 26652
L82564 26614
L82564 26557
L82583 26519
L82602 26500
L82640 26480
L82754 26480
L82792 26500
L82811 26519
L82830 26557
L82830 26614
" />
<path d="M82430 26119
L82430 26309
L82621 26328
L82602 26309
L82583 26271
L82583 26176
L82602 26138
L82621 26119
L82659 26100
L82754 26100
L82792 26119
L82811 26138
L82830 26176
L82830 26271
L82811 26309
L82792 26328
" />
<path d="M82450 36871
L82430 36909
L82430 36966
L82450 37023
L82488 37061
L82526 37080
L82602 37099
L82659 37099
L82735 37080
L82773 37061
L82811 37023
L82830 36966
L82830 36928
L82811 36871
L82792 36852
L82659 36852
L82659 36928
" />
<path d="M82830 36623
L82811 36661
L82792 36680
L82754 36699
L82640 36699
L82602 36680
L82583 36661
L82564 36623
L82564 36566
L82583 36528
L82602 36509
L82640 36490
L82754 36490
L82792 36509
L82811 36528
L82830 36566
L82830 36623
" />
<path d="M82830 36319
L82430 36319
L82430 36166
L82450 36128
L82469 36109
L82507 36090
L82564 36090
L82602 36109
L82621 36128
L82640 36166
L82640 36319
" />
<path d="M82830 35919
L82564 35919
" />
<path d="M82640 35919
L82602 35899
L82583 35880
L82564 35842
L82564 35804
" />
<path d="M82830 35614
L82811 35652
L82792 35671
L82754 35690
L82640 35690
L82602 35671
L82583 35652
L82564 35614
L82564 35557
L82583 35519
L82602 35500
L82640 35480
L82754 35480
L82792 35500
L82811 35519
L82830 35557
L82830 35614
" />
<path d="M82430 35138
L82430 35214
L82450 35252
L82469 35271
L82526 35309
L82602 35328
L82754 35328
L82792 35309
L82811 35290
L82830 35252
L82830 35176
L82811 35138
L82792 35119
L82754 35100
L82659 35100
L82621 35119
L82602 35138
L82583 35176
L82583 35252
L82602 35290
L82621 35309
L82659 35328
" />
</g>
<g style="fill:#008484; fill-opacity:0.0; 
stroke:#008484; stroke-width:50; stroke-opacity:1; 
stroke-linecap:round; stroke-linejoin:round;">
<path d="M72436 20626
L72436 20126
" />
<path d="M72960 20578
L72936 20602
L72865 20626
L72817 20626
L72746 20602
L72698 20554
L72675 20507
L72651 20411
L72651 20340
L72675 20245
L72698 20197
L72746 20150
L72817 20126
L72865 20126
L72936 20150
L72960 20173
" />
<path d="M73436 20626
L73151 20626
" />
<path d="M73294 20626
L73294 20126
L73246 20197
L73198 20245
L73151 20269
" />
</g>
<g style="fill:#008484; fill-opacity:0.0; 
stroke:#008484; stroke-width:40; stroke-opacity:1; 
stroke-linecap:round; stroke-linejoin:round;">
<path d="M72008 29102
L72008 28864
" />
<path d="M72151 29150
L71651 28983
L72151 28816
" />
<path d="M72151 28364
L71913 28530
" />
<path d="M72151 28650
L71651 28650
L71651 28459
L71675 28411
L71698 28388
L71746 28364
L71817 28364
L71865 28388
L71889 28411
L71913 28459
L71913 28650
" />
<path d="M72151 28150
L71651 28150
L71651 28030
L71675 27959
L71722 27911
L71770 27888
L71865 27864
L71936 27864
L72032 27888
L72079 27911
L72127 27959
L72151 28030
L72151 28150
" />
<path d="M71651 27650
L72055 27650
L72103 27626
L72127 27602
L72151 27554
L72151 27459
L72127 27411
L72103 27388
L72055 27364
L71651 27364
" />
<path d="M72151 27126
L71651 27126
" />
<path d="M72151 26888
L71651 26888
L72151 26602
L71651 26602
" />
<path d="M71651 26269
L71651 26173
L71675 26126
L71722 26078
L71817 26054
L71984 26054
L72079 26078
L72127 26126
L72151 26173
L72151 26269
L72127 26316
L72079 26364
L71984 26388
L71817 26388
L71722 26364
L71675 26316
L71651 26269
" />
<path d="M72198 25959
L72198 25578
" />
<path d="M72151 25459
L71651 25459
L71651 25269
L71675 25221
L71698 25197
L71746 25173
L71817 25173
L71865 25197
L71889 25221
L71913 25269
L71913 25459
" />
<path d="M72151 24673
L71913 24840
" />
<path d="M72151 24959
L71651 24959
L71651 24769
L71675 24721
L71698 24697
L71746 24673
L71817 24673
L71865 24697
L71889 24721
L71913 24769
L71913 24959
" />
<path d="M71651 24364
L71651 24269
L71675 24221
L71722 24173
L71817 24150
L71984 24150
L72079 24173
L72127 24221
L72151 24269
L72151 24364
L72127 24411
L72079 24459
L71984 24483
L71817 24483
L71722 24459
L71675 24411
L71651 24364
" />
<path d="M72198 24054
L72198 23673
" />
<path d="M72151 23554
L71651 23554
L72008 23388
L71651 23221
L72151 23221
" />
<path d="M72151 22983
L71651 22983
" />
<path d="M72151 22745
L71651 22745
L72151 22459
L71651 22459
" />
<path d="M72151 22221
L71651 22221
" />
<path d="M72198 22102
L72198 21721
" />
<path d="M71651 21650
L71651 21340
L71841 21507
L71841 21435
L71865 21388
L71889 21364
L71936 21340
L72055 21340
L72103 21364
L72127 21388
L72151 21435
L72151 21578
L72127 21626
L72103 21650
" />
<path d="M72103 21126
L72127 21102
L72151 21126
L72127 21150
L72103 21126
L72151 21126
" />
<path d="M71651 20935
L71651 20626
L71841 20792
L71841 20721
L71865 20673
L71889 20650
L71936 20626
L72055 20626
L72103 20650
L72127 20673
L72151 20721
L72151 20864
L72127 20911
L72103 20935
" />
<path d="M71651 20483
L72151 20316
L71651 20150
" />
</g>
<g style="fill:#008484; fill-opacity:0.0; 
stroke:#008484; stroke-width:59.0551; stroke-opacity:1; 
stroke-linecap:round; stroke-linejoin:round;">
<path d="M72740 37327
L72721 37346
L72665 37365
L72628 37365
L72571 37346
L72534 37308
L72515 37271
L72496 37196
L72496 37140
L72515 37065
L72534 37027
L72571 36990
L72628 36971
L72665 36971
L72721 36990
L72740 37008
" />
<path d="M72984 36971
L73059 36971
L73096 36990
L73134 37027
L73152 37102
L73152 37233
L73134 37308
L73096 37346
L73059 37365
L72984 37365
L72946 37346
L72909 37308
L72890 37233
L72890 37102
L72909 37027
L72946 36990
L72984 36971
" />
<path d="M73321 37365
L73321 36971
L73546 37365
L73546 36971
" />
<path d="M73734 37365
L73734 36971
L73959 37365
L73959 36971
" />
<path d="M74052 37402
L74352 37402
" />
<path d="M74427 37008
L74446 36990
L74484 36971
L74577 36971
L74615 36990
L74634 37008
L74652 37046
L74652 37083
L74634 37140
L74409 37365
L74652 37365
" />
</g>
<g style="fill:#008484; fill-opacity:0.0; 
stroke:#008484; stroke-width:60; stroke-opacity:1; 
stroke-linecap:round; stroke-linejoin:round;">
<path d="M69125 36035
L69125 36250
L69110 36292
L69082 36321
L69039 36335
L69010 36335
" />
<path d="M69267 36335
L69267 36035
L69382 36035
L69410 36050
L69425 36064
L69439 36092
L69439 36135
L69425 36164
L69410 36178
L69382 36192
L69267 36192
" />
<path d="M69725 36335
L69553 36335
" />
<path d="M69639 36335
L69639 36035
L69610 36078
L69582 36107
L69553 36121
" />
<path d="M65285 31849
L65500 31849
L65542 31864
L65571 31892
L65585 31935
L65585 31964
" />
<path d="M65585 31707
L65285 31707
L65285 31592
L65300 31564
L65314 31550
L65342 31535
L65385 31535
L65414 31550
L65428 31564
L65442 31592
L65442 31707
" />
<path d="M65314 31421
L65300 31407
L65285 31378
L65285 31307
L65300 31278
L65314 31264
L65342 31250
L65371 31250
L65414 31264
L65585 31435
L65585 31250
" />
<path d="M68260 19974
L68475 19974
L68517 19989
L68546 20017
L68560 20060
L68560 20089
" />
<path d="M68560 19832
L68260 19832
L68260 19717
L68275 19689
L68289 19675
L68317 19660
L68360 19660
L68389 19675
L68403 19689
L68417 19717
L68417 19832
" />
<path d="M68260 19560
L68260 19375
L68375 19475
L68375 19432
L68389 19403
L68403 19389
L68432 19375
L68503 19375
L68532 19389
L68546 19403
L68560 19432
L68560 19517
L68546 19546
L68532 19560
" />
<path d="M78550 20185
L78550 20400
L78535 20442
L78507 20471
L78464 20485
L78435 20485
" />
<path d="M78692 20485
L78692 20185
L78807 20185
L78835 20200
L78850 20214
L78864 20242
L78864 20285
L78850 20314
L78835 20328
L78807 20342
L78692 20342
" />
<path d="M79121 20285
L79121 20485
" />
<path d="M79050 20171
L78978 20385
L79164 20385
" />
<path d="M78550 28785
L78550 29000
L78535 29042
L78507 29071
L78464 29085
L78435 29085
" />
<path d="M78692 29085
L78692 28785
L78807 28785
L78835 28800
L78850 28814
L78864 28842
L78864 28885
L78850 28914
L78835 28928
L78807 28942
L78692 28942
" />
<path d="M79135 28785
L78992 28785
L78978 28928
L78992 28914
L79021 28900
L79092 28900
L79121 28914
L79135 28928
L79150 28957
L79150 29028
L79135 29057
L79121 29071
L79092 29085
L79021 29085
L78992 29071
L78978 29057
" />
<path d="M78550 36185
L78550 36400
L78535 36442
L78507 36471
L78464 36485
L78435 36485
" />
<path d="M78692 36485
L78692 36185
L78807 36185
L78835 36200
L78850 36214
L78864 36242
L78864 36285
L78850 36314
L78835 36328
L78807 36342
L78692 36342
" />
<path d="M79121 36185
L79064 36185
L79035 36200
L79021 36214
L78992 36257
L78978 36314
L78978 36428
L78992 36457
L79007 36471
L79035 36485
L79092 36485
L79121 36471
L79135 36457
L79150 36428
L79150 36357
L79135 36328
L79121 36314
L79092 36300
L79035 36300
L79007 36314
L78992 36328
L78978 36357
" />
<path d="M57980 27795
L57980 27566
" />
<path d="M58380 27680
L57980 27680
" />
<path d="M58361 27452
L58380 27395
L58380 27300
L58361 27261
L58342 27242
L58304 27223
L58266 27223
L58228 27242
L58209 27261
L58190 27300
L58171 27376
L58152 27414
L58133 27433
L58095 27452
L58057 27452
L58019 27433
L58000 27414
L57980 27376
L57980 27280
L58000 27223
" />
<path d="M58380 26823
L58190 26957
" />
<path d="M58380 27052
L57980 27052
L57980 26900
L58000 26861
L58019 26842
L58057 26823
L58114 26823
L58152 26842
L58171 26861
L58190 26900
L58190 27052
" />
<path d="M58019 26671
L58000 26652
L57980 26614
L57980 26519
L58000 26480
L58019 26461
L58057 26442
L58095 26442
L58152 26461
L58380 26690
L58380 26442
" />
</g>
<g style="fill:#008484; fill-opacity:0.0; 
stroke:#008484; stroke-width:120; stroke-opacity:1; 
stroke-linecap:round; stroke-linejoin:round;">
<path d="M66753 40342
L66839 40371
L66982 40371
L67039 40342
L67067 40314
L67096 40257
L67096 40200
L67067 40142
L67039 40114
L66982 40085
L66867 40057
L66810 40028
L66782 40000
L66753 39942
L66753 39885
L66782 39828
L66810 39800
L66867 39771
L67010 39771
L67096 39800
" />
<path d="M67696 40314
L67667 40342
L67582 40371
L67525 40371
L67439 40342
L67382 40285
L67353 40228
L67325 40114
L67325 40028
L67353 39914
L67382 39857
L67439 39800
L67525 39771
L67582 39771
L67667 39800
L67696 39828
" />
<path d="M67953 40371
L67953 39771
" />
<path d="M67953 40057
L68296 40057
" />
<path d="M68296 40371
L68296 39771
" />
<path d="M68896 40371
L68553 40371
" />
<path d="M68725 40371
L68725 39771
L68667 39857
L68610 39914
L68553 39942
" />
<path d="M65360 42242
L65446 42271
L65589 42271
L65646 42242
L65675 42214
L65703 42157
L65703 42100
L65675 42042
L65646 42014
L65589 41985
L65475 41957
L65417 41928
L65389 41900
L65360 41842
L65360 41785
L65389 41728
L65417 41700
L65475 41671
L65617 41671
L65703 41700
" />
<path d="M66303 42214
L66275 42242
L66189 42271
L66132 42271
L66046 42242
L65989 42185
L65960 42128
L65932 42014
L65932 41928
L65960 41814
L65989 41757
L66046 41700
L66132 41671
L66189 41671
L66275 41700
L66303 41728
" />
<path d="M66560 42271
L66560 41671
" />
<path d="M66560 41957
L66903 41957
" />
<path d="M66903 42271
L66903 41671
" />
<path d="M67303 41671
L67417 41671
L67475 41700
L67532 41757
L67560 41871
L67560 42071
L67532 42185
L67475 42242
L67417 42271
L67303 42271
L67246 42242
L67189 42185
L67160 42071
L67160 41871
L67189 41757
L67246 41700
L67303 41671
" />
<path d="M67732 41671
L68075 41671
" />
<path d="M67903 42271
L67903 41671
" />
<path d="M68189 41671
L68532 41671
" />
<path d="M68360 42271
L68360 41671
" />
<path d="M68732 42271
L68732 41671
" />
<path d="M69075 42271
L68817 41928
" />
<path d="M69075 41671
L68732 42014
" />
<path d="M69446 41985
L69446 42271
" />
<path d="M69246 41671
L69446 41985
L69646 41671
" />
<path d="M79428 41167
L79514 41196
L79657 41196
L79714 41167
L79742 41139
L79771 41082
L79771 41025
L79742 40967
L79714 40939
L79657 40910
L79542 40882
L79485 40853
L79457 40825
L79428 40767
L79428 40710
L79457 40653
L79485 40625
L79542 40596
L79685 40596
L79771 40625
" />
<path d="M80371 41139
L80342 41167
L80257 41196
L80200 41196
L80114 41167
L80057 41110
L80028 41053
L80000 40939
L80000 40853
L80028 40739
L80057 40682
L80114 40625
L80200 40596
L80257 40596
L80342 40625
L80371 40653
" />
<path d="M80628 41196
L80628 40596
" />
<path d="M80628 40882
L80971 40882
" />
<path d="M80971 41196
L80971 40596
" />
<path d="M81228 40653
L81257 40625
L81314 40596
L81457 40596
L81514 40625
L81542 40653
L81571 40710
L81571 40767
L81542 40853
L81200 41196
L81571 41196
" />
<path d="M78735 39267
L78821 39296
L78964 39296
L79021 39267
L79050 39239
L79078 39182
L79078 39125
L79050 39067
L79021 39039
L78964 39010
L78850 38982
L78792 38953
L78764 38925
L78735 38867
L78735 38810
L78764 38753
L78792 38725
L78850 38696
L78992 38696
L79078 38725
" />
<path d="M79678 39239
L79650 39267
L79564 39296
L79507 39296
L79421 39267
L79364 39210
L79335 39153
L79307 39039
L79307 38953
L79335 38839
L79364 38782
L79421 38725
L79507 38696
L79564 38696
L79650 38725
L79678 38753
" />
<path d="M79935 39296
L79935 38696
" />
<path d="M79935 38982
L80278 38982
" />
<path d="M80278 39296
L80278 38696
" />
<path d="M80678 38696
L80792 38696
L80850 38725
L80907 38782
L80935 38896
L80935 39096
L80907 39210
L80850 39267
L80792 39296
L80678 39296
L80621 39267
L80564 39210
L80535 39096
L80535 38896
L80564 38782
L80621 38725
L80678 38696
" />
<path d="M81107 38696
L81450 38696
" />
<path d="M81278 39296
L81278 38696
" />
<path d="M81564 38696
L81907 38696
" />
<path d="M81735 39296
L81735 38696
" />
<path d="M82107 39296
L82107 38696
" />
<path d="M82450 39296
L82192 38953
" />
<path d="M82450 38696
L82107 39039
" />
<path d="M82821 39010
L82821 39296
" />
<path d="M82621 38696
L82821 39010
L83021 38696
" />
</g>
<g style="fill:#008484; fill-opacity:0.0; 
stroke:#008484; stroke-width:60; stroke-opacity:1; 
stroke-linecap:round; stroke-linejoin:round;">
<path d="M86750 14000
L86750 21975
" />
<path d="M86750 21975
L83150 21975
" />
<path d="M83150 21975
L83150 14000
" />
<path d="M83150 14000
L86750 14000
" />
<path d="M87750 38000
L90750 38000
" />
<path d="M90750 38000
L90750 33400
" />
<path d="M90750 33400
L87750 33400
" />
<path d="M87750 33400
L87750 38000
" />
<path d="M87750 29000
L90750 29000
" />
<path d="M90750 29000
L90750 24400
" />
<path d="M90750 24400
L87750 24400
" />
<path d="M87750 24400
L87750 29000
" />
<path d="M87750 20500
L90750 20500
" />
<path d="M90750 20500
L90750 15900
" />
<path d="M90750 15900
L87750 15900
" />
<path d="M87750 15900
L87750 20500
" />
<path d="M60250 34250
L57250 34250
" />
<path d="M57250 34250
L57250 38850
" />
<path d="M57250 38850
L60250 38850
" />
<path d="M60250 38850
L60250 34250
" />
<path d="M60250 15750
L57250 15750
" />
<path d="M57250 15750
L57250 20350
" />
<path d="M57250 20350
L60250 20350
" />
<path d="M60250 20350
L60250 15750
" />
<path d="M61250 40500
L61250 32525
" />
<path d="M61250 32525
L64850 32525
" />
<path d="M64850 32525
L64850 40500
" />
<path d="M64850 40500
L61250 40500
" />
<path d="M61250 31000
L61250 23025
" />
<path d="M61250 23025
L64850 23025
" />
<path d="M64850 23025
L64850 31000
" />
<path d="M64850 31000
L61250 31000
" />
<path d="M61250 21750
L61250 13775
" />
<path d="M61250 13775
L64850 13775
" />
<path d="M64850 13775
L64850 21750
" />
<path d="M64850 21750
L61250 21750
" />
<path d="M86750 23000
L86750 30975
" />
<path d="M86750 30975
L83150 30975
" />
<path d="M83150 30975
L83150 23000
" />
<path d="M83150 23000
L86750 23000
" />
<path d="M86750 32000
L86750 39975
" />
<path d="M86750 39975
L83150 39975
" />
<path d="M83150 39975
L83150 32000
" />
<path d="M83150 32000
L86750 32000
" />
</g>
<g style="fill:#008484; fill-opacity:0.0; 
stroke:#008484; stroke-width:150; stroke-opacity:1; 
stroke-linecap:round; stroke-linejoin:round;">
<path d="M72500 41500
L75850 41500
" />
<path d="M75850 41500
L75850 38650
" />
<path d="M75850 38650
L72500 38650
" />
<path d="M72500 38650
L72500 41500
" />
</g>
<g style="fill:#008484; fill-opacity:0.0; 
stroke:#008484; stroke-width:60; stroke-opacity:1; 
stroke-linecap:round; stroke-linejoin:round;">
<path d="M70375 34950
L70375 35950
" />
<path d="M70375 35950
L68375 35950
" />
<path d="M68375 35950
L68375 34950
" />
<path d="M68375 34950
L70375 34950
" />
<path d="M66700 32600
L65700 32600
" />
<path d="M65700 32600
L65700 30600
" />
<path d="M65700 30600
L66700 30600
" />
<path d="M66700 30600
L66700 32600
" />
<path d="M69675 20725
L68675 20725
" />
<path d="M68675 20725
L68675 18725
" />
<path d="M68675 18725
L69675 18725
" />
<path d="M69675 18725
L69675 20725
" />
<path d="M79800 19100
L79800 20100
" />
<path d="M79800 20100
L77800 20100
" />
<path d="M77800 20100
L77800 19100
" />
<path d="M77800 19100
L79800 19100
" />
<path d="M79800 27700
L79800 28700
" />
<path d="M79800 28700
L77800 28700
" />
<path d="M77800 28700
L77800 27700
" />
<path d="M77800 27700
L79800 27700
" />
<path d="M79800 35100
L79800 36100
" />
<path d="M79800 36100
L77800 36100
" />
<path d="M77800 36100
L77800 35100
" />
<path d="M77800 35100
L79800 35100
" />
<path d="M57200 29600
L60200 29600
" />
<path d="M60200 29600
L60200 25000
" />
<path d="M60200 25000
L57200 25000
" />
<path d="M57200 25000
L57200 29600
" />
</g>
<g style="fill:#008484; fill-opacity:0.0; 
stroke:#008484; stroke-width:150; stroke-opacity:1; 
stroke-linecap:round; stroke-linejoin:round;">
<path d="M69625 41500
L65975 41500
" />
<path d="M65975 41500
L65975 39500
" />
<path d="M65975 39500
L69625 39500
" />
<path d="M69625 39500
L69625 41450
" />
<path d="M69625 41450
L69625 41500
" />
<path d="M78700 39525
L82350 39525
" />
<path d="M82350 39525
L82350 41525
" />
<path d="M82350 41525
L78700 41525
" />
<path d="M78700 41525
L78700 39575
" />
<path d="M78700 39575
L78700 39525
" />
</g>
<g style="fill:#840000; fill-opacity:0.0; 
stroke:#840000; stroke-width:39.3701; stroke-opacity:1; 
stroke-linecap:round; stroke-linejoin:round;">
</g>
<g style="fill:#840000; fill-opacity:1.0; 
stroke:#840000; stroke-width:39.3701; stroke-opacity:1; 
stroke-linecap:round; stroke-linejoin:round;">
<polyline style="fill-rule:evenodd;"
points="84178,15705
84739,15705
84739,16266
84178,16266
84178,15705
" /> 
<circle cx="85459" cy="15986" r="319.685" /> 
<circle cx="84459" cy="16986" r="319.685" /> 
<circle cx="85459" cy="16986" r="319.685" /> 
<circle cx="84459" cy="17986" r="319.685" /> 
<circle cx="85459" cy="17986" r="319.685" /> 
<circle cx="84459" cy="18986" r="319.685" /> 
<circle cx="85459" cy="18986" r="319.685" /> 
<circle cx="84459" cy="19986" r="319.685" /> 
<circle cx="85459" cy="19986" r="319.685" /> 
<polyline style="fill-rule:evenodd;"
points="88830,36980
88269,36980
88269,36419
88830,36419
88830,36980
" /> 
<circle cx="88550" cy="35700" r="280.315" /> 
<circle cx="88550" cy="34700" r="280.315" /> 
<polyline style="fill-rule:evenodd;"
points="88830,27980
88269,27980
88269,27419
88830,27419
88830,27980
" /> 
<circle cx="88550" cy="26700" r="280.315" /> 
<circle cx="88550" cy="25700" r="280.315" /> 
<polyline style="fill-rule:evenodd;"
points="88830,19480
88269,19480
88269,18919
88830,18919
88830,19480
" /> 
<circle cx="88550" cy="18200" r="280.315" /> 
<circle cx="88550" cy="17200" r="280.315" /> 
<polyline style="fill-rule:evenodd;"
points="59169,35269
59730,35269
59730,35830
59169,35830
59169,35269
" /> 
<circle cx="59450" cy="36550" r="280.315" /> 
<circle cx="59450" cy="37550" r="280.315" /> 
<polyline style="fill-rule:evenodd;"
points="59169,16769
59730,16769
59730,17330
59169,17330
59169,16769
" /> 
<circle cx="59450" cy="18050" r="280.315" /> 
<circle cx="59450" cy="19050" r="280.315" /> 
<polyline style="fill-rule:evenodd;"
points="63821,38794
63260,38794
63260,38233
63821,38233
63821,38794
" /> 
<circle cx="62541" cy="38514" r="319.685" /> 
<circle cx="63541" cy="37514" r="319.685" /> 
<circle cx="62541" cy="37514" r="319.685" /> 
<circle cx="63541" cy="36514" r="319.685" /> 
<circle cx="62541" cy="36514" r="319.685" /> 
<circle cx="63541" cy="35514" r="319.685" /> 
<circle cx="62541" cy="35514" r="319.685" /> 
<circle cx="63541" cy="34514" r="319.685" /> 
<circle cx="62541" cy="34514" r="319.685" /> 
<polyline style="fill-rule:evenodd;"
points="63821,29294
63260,29294
63260,28733
63821,28733
63821,29294
" /> 
<circle cx="62541" cy="29014" r="319.685" /> 
<circle cx="63541" cy="28014" r="319.685" /> 
<circle cx="62541" cy="28014" r="319.685" /> 
<circle cx="63541" cy="27014" r="319.685" /> 
<circle cx="62541" cy="27014" r="319.685" /> 
<circle cx="63541" cy="26014" r="319.685" /> 
<circle cx="62541" cy="26014" r="319.685" /> 
<circle cx="63541" cy="25014" r="319.685" /> 
<circle cx="62541" cy="25014" r="319.685" /> 
<polyline style="fill-rule:evenodd;"
points="63821,20044
63260,20044
63260,19483
63821,19483
63821,20044
" /> 
<circle cx="62541" cy="19764" r="319.685" /> 
<circle cx="63541" cy="18764" r="319.685" /> 
<circle cx="62541" cy="18764" r="319.685" /> 
<circle cx="63541" cy="17764" r="319.685" /> 
<circle cx="62541" cy="17764" r="319.685" /> 
<circle cx="63541" cy="16764" r="319.685" /> 
<circle cx="62541" cy="16764" r="319.685" /> 
<circle cx="63541" cy="15764" r="319.685" /> 
<circle cx="62541" cy="15764" r="319.685" /> 
<polyline style="fill-rule:evenodd;"
points="84178,24705
84739,24705
84739,25266
84178,25266
84178,24705
" /> 
<circle cx="85459" cy="24986" r="319.685" /> 
<circle cx="84459" cy="25986" r="319.685" /> 
<circle cx="85459" cy="25986" r="319.685" /> 
<circle cx="84459" cy="26986" r="319.685" /> 
<circle cx="85459" cy="26986" r="319.685" /> 
<circle cx="84459" cy="27986" r="319.685" /> 
<circle cx="85459" cy="27986" r="319.685" /> 
<circle cx="84459" cy="28986" r="319.685" /> 
<circle cx="85459" cy="28986" r="319.685" /> 
<polyline style="fill-rule:evenodd;"
points="84178,33705
84739,33705
84739,34266
84178,34266
84178,33705
" /> 
<circle cx="85459" cy="33986" r="319.685" /> 
<circle cx="84459" cy="34986" r="319.685" /> 
<circle cx="85459" cy="34986" r="319.685" /> 
<circle cx="84459" cy="35986" r="319.685" /> 
<circle cx="85459" cy="35986" r="319.685" /> 
<circle cx="84459" cy="36986" r="319.685" /> 
<circle cx="85459" cy="36986" r="319.685" /> 
<circle cx="84459" cy="37986" r="319.685" /> 
<circle cx="85459" cy="37986" r="319.685" /> 
<polyline style="fill-rule:evenodd;"
points="73070,40161
73070,39374
73858,39374
73858,40161
73070,40161
" /> 
<circle cx="74783.5" cy="39767.7" r="393.701" /> 
<polyline style="fill-rule:evenodd;"
points="70155,35169
70155,35730
69594,35730
69594,35169
70155,35169
" /> 
<circle cx="68875" cy="35450" r="280.315" /> 
<polyline style="fill-rule:evenodd;"
points="66480,32380
65919,32380
65919,31819
66480,31819
66480,32380
" /> 
<circle cx="66200" cy="31100" r="280.315" /> 
<polyline style="fill-rule:evenodd;"
points="69455,20505
68894,20505
68894,19944
69455,19944
69455,20505
" /> 
<circle cx="69175" cy="19225" r="280.315" /> 
<polyline style="fill-rule:evenodd;"
points="79580,19319
79580,19880
79019,19880
79019,19319
79580,19319
" /> 
<circle cx="78300" cy="19600" r="280.315" /> 
<polyline style="fill-rule:evenodd;"
points="79580,27919
79580,28480
79019,28480
79019,27919
79580,27919
" /> 
<circle cx="78300" cy="28200" r="280.315" /> 
<polyline style="fill-rule:evenodd;"
points="79580,35319
79580,35880
79019,35880
79019,35319
79580,35319
" /> 
<circle cx="78300" cy="35600" r="280.315" /> 
<polyline style="fill-rule:evenodd;"
points="59692,28580
59132,28580
59132,28019
59692,28019
59692,28580
" /> 
<circle cx="59412.6" cy="27300" r="280.315" /> 
<circle cx="59412.6" cy="26300" r="280.315" /> 
<circle cx="70175" cy="40500" r="319.685" /> 
<circle cx="65425" cy="40500" r="319.685" /> 
<circle cx="78150" cy="40525" r="319.685" /> 
<circle cx="82900" cy="40525" r="319.685" /> 
</g> 
</svg>
