<?xml version="1.0" standalone="no"?>
 <!DOCTYPE svg PUBLIC "-//W3C//DTD SVG 1.1//EN" 
 "http://www.w3.org/Graphics/SVG/1.1/DTD/svg11.dtd"> 
<svg xmlns="http://www.w3.org/2000/svg" version="1.1" 
    width="29.7002cm" height="21.0007cm" viewBox="0 0 116930 82680 ">
<title>SVG Picture created as .kicad_pcb-Edge_Cuts.svg date 2013/10/07 21:43:23 </title>
  <desc>Picture generated by PCBNEW </desc>
<g style="fill:#000000; fill-opacity:1;stroke:#000000; stroke-opacity:1;
stroke-linecap:round; stroke-linejoin:round; "
 transform="translate(0 0) scale(1 1)">
</g>
<g style="fill:#000000; fill-opacity:0.0; 
stroke:#000000; stroke-width:39.3701; stroke-opacity:1; 
stroke-linecap:round; stroke-linejoin:round;">
<rect x="-845466" y="-845466" width="0" height="0" rx="0" />
<rect x="-845466" y="-845466" width="0" height="0" rx="0" />
<path d="M-845466 -845466
L-845466 -845466
" />
<path d="M-845466 -845466
L-845466 -845466
" />
<path d="M-845466 -845466
L-845466 -845466
" />
<path d="M-845466 -845466
L-845466 -845466
" />
<path d="M-845466 -845466
L-845466 -845466
" />
<path d="M-845353 -845227
L-845269 -845199
L-845128 -845199
L-845072 -845227
L-845044 -845255
L-845016 -845311
L-845016 -845367
L-845044 -845423
L-845072 -845451
L-845128 845451
L-845241 845423
L-845297 845395
L-845325 845367
L-845353 845311
L-845353 845255
L-845325 845199
L-845297 845171
L-845241 845142
L-845100 845142
L-845016 845171
" />
<path d="M-844763 -845199
L-844763 845142
" />
<path d="M-844510 -845199
L-844510 845423
L-844538 845367
L-844595 845339
L-844679 845339
L-844735 845367
L-844763 845395
" />
<path d="M-844005 -845227
L-844061 -845199
L-844173 -845199
L-844229 -845227
L-844257 -845283
L-844257 845423
L-844229 845367
L-844173 845339
L-844061 845339
L-844005 845367
L-843976 845423
L-843976 -845451
L-844257 -845395
" />
<path d="M-843499 -845227
L-843555 -845199
L-843667 -845199
L-843724 -845227
L-843752 -845283
L-843752 845423
L-843724 845367
L-843667 845339
L-843555 845339
L-843499 845367
L-843471 845423
L-843471 -845451
L-843752 -845395
" />
<path d="M-843302 845339
L-843077 845339
" />
<path d="M-843218 845142
L-843218 -845283
L-843190 -845227
L-843134 -845199
L-843077 -845199
" />
<path d="M-842881 -845255
L-842853 -845227
L-842881 -845199
L-842909 -845227
L-842881 -845255
L-842881 -845199
" />
<path d="M-842881 845367
L-842853 845395
L-842881 845423
L-842909 845395
L-842881 845367
L-842881 845423
" />
<path d="M-841729 845114
L-842235 -845058
" />
<path d="M-841532 -845199
L-841532 845142
" />
<path d="M-841279 -845199
L-841279 845423
L-841307 845367
L-841364 845339
L-841448 845339
L-841504 845367
L-841532 845395
" />
<path d="M-840914 -845199
L-840970 -845227
L-840998 -845255
L-841026 -845311
L-841026 845451
L-840998 845395
L-840970 845367
L-840914 845339
L-840830 845339
L-840774 845367
L-840746 845395
L-840717 845451
L-840717 -845311
L-840746 -845255
L-840774 -845227
L-840830 -845199
L-840914 -845199
" />
<path d="M-840465 -845199
L-840465 845339
" />
<path d="M-840465 845395
L-840436 845367
L-840380 845339
L-840296 845339
L-840240 845367
L-840212 845423
L-840212 -845199
" />
<path d="M-840212 845423
L-840184 845367
L-840127 845339
L-840043 845339
L-839987 845367
L-839959 845423
L-839959 -845199
" />
<path d="M-839453 -845227
L-839509 -845199
L-839622 -845199
L-839678 -845227
L-839706 -845283
L-839706 845423
L-839678 845367
L-839622 845339
L-839509 845339
L-839453 845367
L-839425 845423
L-839425 -845451
L-839706 -845395
" />
<path d="M-838751 845114
L-839256 -845058
" />
<path d="M-838554 -845199
L-838554 845142
" />
<path d="M-838554 845367
L-838498 845339
L-838386 845339
L-838329 845367
L-838301 845395
L-838273 845451
L-838273 -845311
L-838301 -845255
L-838329 -845227
L-838386 -845199
L-838498 -845199
L-838554 -845227
" />
<path d="M-837796 -845227
L-837852 -845199
L-837964 -845199
L-838020 -845227
L-838048 -845283
L-838048 845423
L-838020 845367
L-837964 845339
L-837852 845339
L-837796 845367
L-837767 845423
L-837767 -845451
L-838048 -845395
" />
<path d="M-837515 845339
L-837515 -845199
" />
<path d="M-837515 845395
L-837486 845367
L-837430 845339
L-837346 845339
L-837290 845367
L-837262 845423
L-837262 -845199
" />
<path d="M-836981 845339
L-836981 -845086
L-837009 -845030
L-837065 -845002
L-837093 -845002
" />
<path d="M-836981 845142
L-837009 845171
L-836981 845199
L-836953 845171
L-836981 845142
L-836981 845199
" />
<path d="M-836447 -845199
L-836447 845423
L-836475 845367
L-836531 845339
L-836644 845339
L-836700 845367
" />
<path d="M-836447 -845227
L-836503 -845199
L-836644 -845199
L-836700 -845227
L-836728 -845283
L-836728 -845339
L-836700 -845395
L-836644 -845423
L-836503 -845423
L-836447 -845451
" />
<path d="M-836166 -845199
L-836166 845339
" />
<path d="M-836166 845395
L-836138 845367
L-836082 845339
L-835997 845339
L-835941 845367
L-835913 845423
L-835913 -845199
" />
<path d="M-835913 845423
L-835885 845367
L-835829 845339
L-835745 845339
L-835688 845367
L-835660 845423
L-835660 -845199
" />
<path d="M-835379 -845199
L-835379 845339
" />
<path d="M-835379 845142
L-835407 845171
L-835379 845199
L-835351 845171
L-835379 845142
L-835379 845199
" />
<path d="M-835098 845339
L-835098 -845199
" />
<path d="M-835098 845395
L-835070 845367
L-835014 845339
L-834930 845339
L-834874 845367
L-834846 845423
L-834846 -845199
" />
<path d="M-834143 845114
L-834649 -845058
" />
<path d="M-833946 -845199
L-833946 845142
L-833806 845142
L-833722 845171
L-833666 845227
L-833637 845283
L-833609 845395
L-833609 -845451
L-833637 -845339
L-833666 -845283
L-833722 -845227
L-833806 -845199
L-833946 -845199
" />
<path d="M-833272 -845199
L-833328 -845227
L-833356 -845255
L-833385 -845311
L-833385 845451
L-833356 845395
L-833328 845367
L-833272 845339
L-833188 845339
L-833132 845367
L-833104 845395
L-833076 845451
L-833076 -845311
L-833104 -845255
L-833132 -845227
L-833188 -845199
L-833272 -845199
" />
<path d="M-832570 -845227
L-832626 -845199
L-832738 -845199
L-832795 -845227
L-832823 -845255
L-832851 -845311
L-832851 845451
L-832823 845395
L-832795 845367
L-832738 845339
L-832626 845339
L-832570 845367
" />
<path d="M-832064 845339
L-832064 -845199
" />
<path d="M-832317 845339
L-832317 -845283
L-832289 -845227
L-832233 -845199
L-832148 -845199
L-832092 -845227
L-832064 -845255
" />
<path d="M-831783 -845199
L-831783 845339
" />
<path d="M-831783 845395
L-831755 845367
L-831699 845339
L-831615 845339
L-831558 845367
L-831530 845423
L-831530 -845199
" />
<path d="M-831530 845423
L-831502 845367
L-831446 845339
L-831362 845339
L-831306 845367
L-831277 845423
L-831277 -845199
" />
<path d="M-830772 -845227
L-830828 -845199
L-830940 -845199
L-830996 -845227
L-831025 -845283
L-831025 845423
L-830996 845367
L-830940 845339
L-830828 845339
L-830772 845367
L-830744 845423
L-830744 -845451
L-831025 -845395
" />
<path d="M-830491 845339
L-830491 -845199
" />
<path d="M-830491 845395
L-830463 845367
L-830406 845339
L-830322 845339
L-830266 845367
L-830238 845423
L-830238 -845199
" />
<path d="M-830041 845339
L-829816 845339
" />
<path d="M-829957 845142
L-829957 -845283
L-829929 -845227
L-829873 -845199
L-829816 -845199
" />
<path d="M-829648 -845227
L-829592 -845199
L-829479 -845199
L-829423 -845227
L-829395 -845283
L-829395 -845311
L-829423 -845367
L-829479 -845395
L-829564 -845395
L-829620 -845423
L-829648 845451
L-829648 845423
L-829620 845367
L-829564 845339
L-829479 845339
L-829423 845367
" />
<path d="M-828721 845114
L-829226 -845058
" />
<path d="M-828440 -845199
L-828496 -845227
L-828524 -845255
L-828552 -845311
L-828552 845451
L-828524 845395
L-828496 845367
L-828440 845339
L-828356 845339
L-828299 845367
L-828271 845395
L-828243 845451
L-828243 -845311
L-828271 -845255
L-828299 -845227
L-828356 -845199
L-828440 -845199
" />
<path d="M-827990 845339
L-827990 -845002
" />
<path d="M-827990 845367
L-827934 845339
L-827822 845339
L-827766 845367
L-827737 845395
L-827709 845451
L-827709 -845311
L-827737 -845255
L-827766 -845227
L-827822 -845199
L-827934 -845199
L-827990 -845227
" />
<path d="M-827232 -845227
L-827288 -845199
L-827400 -845199
L-827456 -845227
L-827485 -845283
L-827485 845423
L-827456 845367
L-827400 845339
L-827288 845339
L-827232 845367
L-827204 845423
L-827204 -845451
L-827485 -845395
" />
<path d="M-826951 845339
L-826951 -845199
" />
<path d="M-826951 845395
L-826923 845367
L-826866 845339
L-826782 845339
L-826726 845367
L-826698 845423
L-826698 -845199
" />
<path d="M-826445 -845227
L-826389 -845199
L-826276 -845199
L-826220 -845227
L-826192 -845283
L-826192 -845311
L-826220 -845367
L-826276 -845395
L-826361 -845395
L-826417 -845423
L-826445 845451
L-826445 845423
L-826417 845367
L-826361 845339
L-826276 845339
L-826220 845367
" />
<path d="M-826024 845339
L-825799 845339
" />
<path d="M-825939 845142
L-825939 -845283
L-825911 -845227
L-825855 -845199
L-825799 -845199
" />
<path d="M-825602 -845199
L-825602 845339
" />
<path d="M-825602 845451
L-825574 845395
L-825546 845367
L-825490 845339
L-825434 845339
" />
<path d="M-825012 -845227
L-825068 -845199
L-825181 -845199
L-825237 -845227
L-825265 -845283
L-825265 845423
L-825237 845367
L-825181 845339
L-825068 845339
L-825012 845367
L-824984 845423
L-824984 -845451
L-825265 -845395
" />
<path d="M-824506 -845227
L-824563 -845199
L-824675 -845199
L-824731 -845227
L-824759 -845283
L-824759 845423
L-824731 845367
L-824675 845339
L-824563 845339
L-824506 845367
L-824478 845423
L-824478 -845451
L-824759 -845395
" />
<path d="M-824310 845339
L-824085 845339
" />
<path d="M-824226 845142
L-824226 -845283
L-824197 -845227
L-824141 -845199
L-824085 -845199
" />
<path d="M-823945 845339
L-823804 -845199
L-823664 845339
" />
<path d="M-823439 -845199
L-823439 845339
" />
<path d="M-823439 845142
L-823467 845171
L-823439 845199
L-823411 845171
L-823439 845142
L-823439 845199
" />
<path d="M-822933 -845227
L-822989 -845199
L-823102 -845199
L-823158 -845227
L-823186 -845283
L-823186 845423
L-823158 845367
L-823102 845339
L-822989 845339
L-822933 845367
L-822905 845423
L-822905 -845451
L-823186 -845395
" />
<path d="M-822708 845339
L-822596 -845199
L-822484 845451
L-822371 -845199
L-822259 845339
" />
<path d="M-821613 845114
L-822118 -845058
" />
<path d="M-821191 -845227
L-821247 -845199
L-821360 -845199
L-821416 -845227
L-821444 -845283
L-821444 845423
L-821416 845367
L-821360 845339
L-821247 845339
L-821191 845367
L-821163 845423
L-821163 -845451
L-821444 -845395
" />
<path d="M-821247 845114
L-821332 845199
" />
<path d="M-820826 -845199
L-820882 -845227
L-820910 -845283
L-820910 845142
" />
<path d="M-820376 -845227
L-820433 -845199
L-820545 -845199
L-820601 -845227
L-820629 -845283
L-820629 845423
L-820601 845367
L-820545 845339
L-820433 845339
L-820376 845367
L-820348 845423
L-820348 -845451
L-820629 -845395
" />
<path d="M-819843 -845227
L-819899 -845199
L-820011 -845199
L-820067 -845227
L-820096 -845255
L-820124 -845311
L-820124 845451
L-820096 845395
L-820067 845367
L-820011 845339
L-819899 845339
L-819843 845367
" />
<path d="M-819674 845339
L-819449 845339
" />
<path d="M-819590 845142
L-819590 -845283
L-819562 -845227
L-819506 -845199
L-819449 -845199
" />
<path d="M-819253 -845199
L-819253 845339
" />
<path d="M-819253 845451
L-819225 845395
L-819196 845367
L-819140 845339
L-819084 845339
" />
<path d="M-818803 -845199
L-818859 -845227
L-818887 -845255
L-818916 -845311
L-818916 845451
L-818887 845395
L-818859 845367
L-818803 845339
L-818719 845339
L-818663 845367
L-818635 845395
L-818606 845451
L-818606 -845311
L-818635 -845255
L-818663 -845227
L-818719 -845199
L-818803 -845199
" />
<path d="M-818354 845339
L-818354 -845199
" />
<path d="M-818354 845395
L-818326 845367
L-818269 845339
L-818185 845339
L-818129 845367
L-818101 845423
L-818101 -845199
" />
<path d="M-817820 -845199
L-817820 845339
" />
<path d="M-817820 845142
L-817848 845171
L-817820 845199
L-817792 845171
L-817820 845142
L-817820 845199
" />
<path d="M-817286 845339
L-817286 -845002
" />
<path d="M-817286 -845227
L-817342 -845199
L-817455 -845199
L-817511 -845227
L-817539 -845255
L-817567 -845311
L-817567 845451
L-817539 845395
L-817511 845367
L-817455 845339
L-817342 845339
L-817286 845367
" />
<path d="M-816752 845339
L-816752 -845199
" />
<path d="M-817005 845339
L-817005 -845283
L-816977 -845227
L-816921 -845199
L-816836 -845199
L-816780 -845227
L-816752 -845255
" />
<path d="M-816246 -845227
L-816303 -845199
L-816415 -845199
L-816471 -845227
L-816499 -845283
L-816499 845423
L-816471 845367
L-816415 845339
L-816303 845339
L-816246 845367
L-816218 845423
L-816218 -845451
L-816499 -845395
" />
<path d="M-815544 845114
L-816050 -845058
" />
<path d="M-815347 -845199
L-815347 845142
L-815123 845142
L-815066 845171
L-815038 845199
L-815010 845255
L-815010 845339
L-815038 845395
L-815066 845423
L-815123 845451
L-815347 845451
" />
<path d="M-814420 -845255
L-814448 -845227
L-814533 -845199
L-814589 -845199
L-814673 -845227
L-814729 -845283
L-814757 -845339
L-814786 -845451
L-814786 845395
L-814757 845283
L-814729 845227
L-814673 845171
L-814589 845142
L-814533 845142
L-814448 845171
L-814420 845199
" />
<path d="M-813971 845423
L-813886 845451
L-813858 -845451
L-813830 -845395
L-813830 -845311
L-813858 -845255
L-813886 -845227
L-813943 -845199
L-814167 -845199
L-814167 845142
L-813971 845142
L-813915 845171
L-813886 845199
L-813858 845255
L-813858 845311
L-813886 845367
L-813915 845395
L-813971 845423
L-814167 845423
" />
<path d="M-813718 -845142
L-813268 -845142
" />
<path d="M-813212 845142
L-813016 -845199
L-812819 845142
" />
<path d="M-812650 845199
L-812622 845171
L-812566 845142
L-812426 845142
L-812369 845171
L-812341 845199
L-812313 845255
L-812313 845311
L-812341 845395
L-812678 -845199
L-812313 -845199
" />
<path d="M-812060 -845255
L-812032 -845227
L-812060 -845199
L-812088 -845227
L-812060 -845255
L-812060 -845199
" />
<path d="M-811807 845199
L-811779 845171
L-811723 845142
L-811583 845142
L-811526 845171
L-811498 845199
L-811470 845255
L-811470 845311
L-811498 845395
L-811836 -845199
L-811470 -845199
" />
<path d="M-810796 845114
L-811302 -845058
" />
<path d="M-810599 -845199
L-810599 845142
L-810375 845142
L-810318 845171
L-810290 845199
L-810262 845255
L-810262 845339
L-810290 845395
L-810318 845423
L-810375 845451
L-810599 845451
" />
<path d="M-809672 -845255
L-809700 -845227
L-809785 -845199
L-809841 -845199
L-809925 -845227
L-809981 -845283
L-810009 -845339
L-810037 -845451
L-810037 845395
L-810009 845283
L-809981 845227
L-809925 845171
L-809841 845142
L-809785 845142
L-809700 845171
L-809672 845199
" />
<path d="M-809223 845423
L-809138 845451
L-809110 -845451
L-809082 -845395
L-809082 -845311
L-809110 -845255
L-809138 -845227
L-809195 -845199
L-809419 -845199
L-809419 845142
L-809223 845142
L-809166 845171
L-809138 845199
L-809110 845255
L-809110 845311
L-809138 845367
L-809166 845395
L-809223 845423
L-809419 845423
" />
<path d="M-808886 845339
L-808745 -845199
L-808605 845339
" />
<path d="M-808408 845199
L-808380 845171
L-808324 845142
L-808183 845142
L-808127 845171
L-808099 845199
L-808071 845255
L-808071 845311
L-808099 845395
L-808436 -845199
L-808071 -845199
" />
<path d="M-807818 -845255
L-807790 -845227
L-807818 -845199
L-807846 -845227
L-807818 -845255
L-807818 -845199
" />
<path d="M-807565 845199
L-807537 845171
L-807481 845142
L-807340 845142
L-807284 845171
L-807256 845199
L-807228 845255
L-807228 845311
L-807256 845395
L-807593 -845199
L-807228 -845199
" />
<path d="M-806554 845114
L-807059 -845058
" />
<path d="M-806357 -845255
L-806329 -845227
L-806357 -845199
L-806385 -845227
L-806357 -845255
L-806357 -845199
" />
<path d="M-806076 -845199
L-806076 845142
" />
<path d="M-806020 -845423
L-805851 -845199
" />
<path d="M-805851 845339
L-806076 -845367
" />
<path d="M-805598 -845199
L-805598 845339
" />
<path d="M-805598 845142
L-805626 845171
L-805598 845199
L-805570 845171
L-805598 845142
L-805598 845199
" />
<path d="M-805065 -845227
L-805121 -845199
L-805233 -845199
L-805289 -845227
L-805317 -845255
L-805346 -845311
L-805346 845451
L-805317 845395
L-805289 845367
L-805233 845339
L-805121 845339
L-805065 845367
" />
<path d="M-804559 -845199
L-804559 845423
L-804587 845367
L-804643 845339
L-804756 845339
L-804812 845367
" />
<path d="M-804559 -845227
L-804615 -845199
L-804756 -845199
L-804812 -845227
L-804840 -845283
L-804840 -845339
L-804812 -845395
L-804756 -845423
L-804615 -845423
L-804559 -845451
" />
<path d="M-804025 -845199
L-804025 845142
" />
<path d="M-804025 -845227
L-804081 -845199
L-804194 -845199
L-804250 -845227
L-804278 -845255
L-804306 -845311
L-804306 845451
L-804278 845395
L-804250 845367
L-804194 845339
L-804081 845339
L-804025 845367
" />
<path d="M-803885 -845142
L-803435 -845142
" />
<path d="M-803295 845339
L-803295 -845002
" />
<path d="M-803295 845367
L-803238 845339
L-803126 845339
L-803070 845367
L-803042 845395
L-803014 845451
L-803014 -845311
L-803042 -845255
L-803070 -845227
L-803126 -845199
L-803238 -845199
L-803295 -845227
" />
<path d="M-802508 -845227
L-802564 -845199
L-802676 -845199
L-802733 -845227
L-802761 -845255
L-802789 -845311
L-802789 845451
L-802761 845395
L-802733 845367
L-802676 845339
L-802564 845339
L-802508 845367
" />
<path d="M-802255 -845199
L-802255 845142
" />
<path d="M-802255 845367
L-802199 845339
L-802086 845339
L-802030 845367
L-802002 845395
L-801974 845451
L-801974 -845311
L-802002 -845255
L-802030 -845227
L-802086 -845199
L-802199 -845199
L-802255 -845227
" />
<path d="M-845128 845423
L-845325 845423
" />
<path d="M-845325 -845199
L-845325 845142
L-845044 845142
" />
<path d="M-844819 -845199
L-844819 845339
" />
<path d="M-844819 845142
L-844847 845171
L-844819 845199
L-844791 845171
L-844819 845142
L-844819 845199
" />
<path d="M-844454 -845199
L-844510 -845227
L-844538 -845283
L-844538 845142
" />
<path d="M-844005 -845227
L-844061 -845199
L-844173 -845199
L-844229 -845227
L-844257 -845283
L-844257 845423
L-844229 845367
L-844173 845339
L-844061 845339
L-844005 845367
L-843976 845423
L-843976 -845451
L-844257 -845395
" />
<path d="M-843724 -845255
L-843696 -845227
L-843724 -845199
L-843752 -845227
L-843724 -845255
L-843724 -845199
" />
<path d="M-843724 845367
L-843696 845395
L-843724 845423
L-843752 845395
L-843724 845367
L-843724 845423
" />
</g>
<g style="fill:#000000; fill-opacity:0.0; 
stroke:#000000; stroke-width:118; stroke-opacity:1; 
stroke-linecap:round; stroke-linejoin:round;">
<path d="M-845409 845142
L-845072 845142
" />
<path d="M-845241 -845199
L-845241 845142
" />
<path d="M-844876 -845199
L-844876 845339
" />
<path d="M-844876 845142
L-844904 845171
L-844876 845199
L-844847 845171
L-844876 845142
L-844876 845199
" />
<path d="M-844679 845339
L-844454 845339
" />
<path d="M-844595 845142
L-844595 -845283
L-844566 -845227
L-844510 -845199
L-844454 -845199
" />
<path d="M-844173 -845199
L-844229 -845227
L-844257 -845283
L-844257 845142
" />
<path d="M-843724 -845227
L-843780 -845199
L-843892 -845199
L-843948 -845227
L-843976 -845283
L-843976 845423
L-843948 845367
L-843892 845339
L-843780 845339
L-843724 845367
L-843696 845423
L-843696 -845451
L-843976 -845395
" />
<path d="M-843443 -845255
L-843415 -845227
L-843443 -845199
L-843471 -845227
L-843443 -845255
L-843443 -845199
" />
<path d="M-843443 845367
L-843415 845395
L-843443 845423
L-843471 845395
L-843443 845367
L-843443 845423
" />
</g>
<g style="fill:#000000; fill-opacity:0.0; 
stroke:#000000; stroke-width:39.3701; stroke-opacity:1; 
stroke-linecap:round; stroke-linejoin:round;">
<path d="M-845325 -845199
L-845325 845142
" />
<path d="M-844791 -845199
L-844791 845142
" />
<path d="M-844791 -845227
L-844847 -845199
L-844960 -845199
L-845016 -845227
L-845044 -845255
L-845072 -845311
L-845072 845451
L-845044 845395
L-845016 845367
L-844960 845339
L-844847 845339
L-844791 845367
" />
<path d="M-844510 -845255
L-844482 -845227
L-844510 -845199
L-844538 -845227
L-844510 -845255
L-844510 -845199
" />
<path d="M-844510 845367
L-844482 845395
L-844510 845423
L-844538 845395
L-844510 845367
L-844510 845423
" />
<path d="M-843471 -845199
L-843808 -845199
" />
<path d="M-843639 -845199
L-843639 845142
L-843696 845227
L-843752 845283
L-843808 845311
" />
<path d="M-842796 845114
L-843302 -845058
" />
<path d="M-842291 -845199
L-842628 -845199
" />
<path d="M-842459 -845199
L-842459 845142
L-842516 845227
L-842572 845283
L-842628 845311
" />
<path d="M-845353 -845227
L-845269 -845199
L-845128 -845199
L-845072 -845227
L-845044 -845255
L-845016 -845311
L-845016 -845367
L-845044 -845423
L-845072 -845451
L-845128 845451
L-845241 845423
L-845297 845395
L-845325 845367
L-845353 845311
L-845353 845255
L-845325 845199
L-845297 845171
L-845241 845142
L-845100 845142
L-845016 845171
" />
<path d="M-844763 -845199
L-844763 845339
" />
<path d="M-844763 845142
L-844791 845171
L-844763 845199
L-844735 845171
L-844763 845142
L-844763 845199
" />
<path d="M-844538 845339
L-844229 845339
L-844538 -845199
L-844229 -845199
" />
<path d="M-843780 -845227
L-843836 -845199
L-843948 -845199
L-844005 -845227
L-844033 -845283
L-844033 845423
L-844005 845367
L-843948 845339
L-843836 845339
L-843780 845367
L-843752 845423
L-843752 -845451
L-844033 -845395
" />
<path d="M-843499 -845255
L-843471 -845227
L-843499 -845199
L-843527 -845227
L-843499 -845255
L-843499 -845199
" />
<path d="M-843499 845367
L-843471 845395
L-843499 845423
L-843527 845395
L-843499 845367
L-843499 845423
" />
<path d="M-842796 -845367
L-842516 -845367
" />
<path d="M-842853 -845199
L-842656 845142
L-842459 -845199
" />
<path d="M-842010 845339
L-842010 -845199
" />
<path d="M-842150 845114
L-842291 -845395
L-841926 -845395
" />
</g>
<g style="fill:#000000; fill-opacity:0.0; 
stroke:#000000; stroke-width:118; stroke-opacity:1; 
stroke-linecap:round; stroke-linejoin:round;">
<path d="M-844988 -845199
L-845185 845451
" />
<path d="M-845325 -845199
L-845325 845142
L-845100 845142
L-845044 845171
L-845016 845199
L-844988 845255
L-844988 845339
L-845016 845395
L-845044 845423
L-845100 845451
L-845325 845451
" />
<path d="M-844510 -845227
L-844566 -845199
L-844679 -845199
L-844735 -845227
L-844763 -845283
L-844763 845423
L-844735 845367
L-844679 845339
L-844566 845339
L-844510 845367
L-844482 845423
L-844482 -845451
L-844763 -845395
" />
<path d="M-844286 845339
L-844145 -845199
L-844005 845339
" />
<path d="M-843780 -845255
L-843752 -845227
L-843780 -845199
L-843808 -845227
L-843780 -845255
L-843780 -845199
" />
<path d="M-843780 845367
L-843752 845395
L-843780 845423
L-843808 845395
L-843780 845367
L-843780 845423
" />
</g>
<g style="fill:#000000; fill-opacity:0.0; 
stroke:#000000; stroke-width:39.3701; stroke-opacity:1; 
stroke-linecap:round; stroke-linejoin:round;">
<path d="M-845325 -845199
L-845325 845142
" />
<path d="M-844988 -845199
L-845241 845395
" />
<path d="M-844988 845142
L-845325 -845451
" />
<path d="M-844735 -845199
L-844735 845339
" />
<path d="M-844735 845142
L-844763 845171
L-844735 845199
L-844707 845171
L-844735 845142
L-844735 845199
" />
<path d="M-844117 -845255
L-844145 -845227
L-844229 -845199
L-844286 -845199
L-844370 -845227
L-844426 -845283
L-844454 -845339
L-844482 -845451
L-844482 845395
L-844454 845283
L-844426 845227
L-844370 845171
L-844286 845142
L-844229 845142
L-844145 845171
L-844117 845199
" />
<path d="M-843611 -845199
L-843611 845423
L-843639 845367
L-843696 845339
L-843808 845339
L-843864 845367
" />
<path d="M-843611 -845227
L-843667 -845199
L-843808 -845199
L-843864 -845227
L-843892 -845283
L-843892 -845339
L-843864 -845395
L-843808 -845423
L-843667 -845423
L-843611 -845451
" />
<path d="M-843077 -845199
L-843077 845142
" />
<path d="M-843077 -845227
L-843134 -845199
L-843246 -845199
L-843302 -845227
L-843330 -845255
L-843358 -845311
L-843358 845451
L-843330 845395
L-843302 845367
L-843246 845339
L-843134 845339
L-843077 845367
" />
<path d="M-842347 845423
L-842150 845423
" />
<path d="M-842066 -845199
L-842347 -845199
L-842347 845142
L-842066 845142
" />
<path d="M-841813 -845255
L-841785 -845227
L-841813 -845199
L-841841 -845227
L-841813 -845255
L-841813 -845199
" />
<path d="M-841532 -845199
L-841532 845142
L-841392 845142
L-841307 845171
L-841251 845227
L-841223 845283
L-841195 845395
L-841195 -845451
L-841223 -845339
L-841251 -845283
L-841307 -845227
L-841392 -845199
L-841532 -845199
" />
<path d="M-840942 -845255
L-840914 -845227
L-840942 -845199
L-840970 -845227
L-840942 -845255
L-840942 -845199
" />
<path d="M-840689 -845367
L-840408 -845367
" />
<path d="M-840746 -845199
L-840549 845142
L-840352 -845199
" />
<path d="M-840156 -845255
L-840127 -845227
L-840156 -845199
L-840184 -845227
L-840156 -845255
L-840156 -845199
" />
<path d="M-838976 845339
L-838976 -845002
" />
<path d="M-838976 845367
L-838919 845339
L-838807 845339
L-838751 845367
L-838723 845395
L-838695 845451
L-838695 -845311
L-838723 -845255
L-838751 -845227
L-838807 -845199
L-838919 -845199
L-838976 -845227
" />
<path d="M-838189 -845227
L-838245 -845199
L-838357 -845199
L-838414 -845227
L-838442 -845255
L-838470 -845311
L-838470 845451
L-838442 845395
L-838414 845367
L-838357 845339
L-838245 845339
L-838189 845367
" />
<path d="M-837936 -845199
L-837936 845142
" />
<path d="M-837936 845367
L-837880 845339
L-837767 845339
L-837711 845367
L-837683 845395
L-837655 845451
L-837655 -845311
L-837683 -845255
L-837711 -845227
L-837767 -845199
L-837880 -845199
L-837936 -845227
" />
<path d="M-837402 845339
L-837402 -845199
" />
<path d="M-837402 845395
L-837374 845367
L-837318 845339
L-837234 845339
L-837177 845367
L-837149 845423
L-837149 -845199
" />
<path d="M-836644 -845227
L-836700 -845199
L-836812 -845199
L-836868 -845227
L-836896 -845283
L-836896 845423
L-836868 845367
L-836812 845339
L-836700 845339
L-836644 845367
L-836616 845423
L-836616 -845451
L-836896 -845395
" />
<path d="M-836419 845339
L-836306 -845199
L-836194 845451
L-836082 -845199
L-835969 845339
" />
<path d="M-835126 -844974
L-835155 -845002
L-835211 -845086
L-835239 -845142
L-835267 -845227
L-835295 -845367
L-835295 845451
L-835267 845311
L-835239 845227
L-835211 845171
L-835155 845086
L-835126 845058
" />
<path d="M-834930 845199
L-834902 845171
L-834846 845142
L-834705 845142
L-834649 845171
L-834621 845199
L-834593 845255
L-834593 845311
L-834621 845395
L-834958 -845199
L-834593 -845199
" />
<path d="M-834227 845142
L-834171 845142
L-834115 845171
L-834087 845199
L-834059 845255
L-834031 845367
L-834031 -845423
L-834059 -845311
L-834087 -845255
L-834115 -845227
L-834171 -845199
L-834227 -845199
L-834284 -845227
L-834312 -845255
L-834340 -845311
L-834368 -845423
L-834368 845367
L-834340 845255
L-834312 845199
L-834284 845171
L-834227 845142
" />
<path d="M-833469 -845199
L-833806 -845199
" />
<path d="M-833637 -845199
L-833637 845142
L-833694 845227
L-833750 845283
L-833806 845311
" />
<path d="M-833272 845142
L-832907 845142
L-833104 845367
L-833019 845367
L-832963 845395
L-832935 845423
L-832907 -845451
L-832907 -845311
L-832935 -845255
L-832963 -845227
L-833019 -845199
L-833188 -845199
L-833244 -845227
L-833272 -845255
" />
<path d="M-832654 -845423
L-832205 -845423
" />
<path d="M-831924 -845199
L-831924 845339
" />
<path d="M-831924 845395
L-831896 845367
L-831839 845339
L-831755 845339
L-831699 845367
L-831671 845423
L-831671 -845199
" />
<path d="M-831671 845423
L-831643 845367
L-831586 845339
L-831502 845339
L-831446 845367
L-831418 845423
L-831418 -845199
" />
<path d="M-830884 -845199
L-830884 845423
L-830912 845367
L-830968 845339
L-831081 845339
L-831137 845367
" />
<path d="M-830884 -845227
L-830940 -845199
L-831081 -845199
L-831137 -845227
L-831165 -845283
L-831165 -845339
L-831137 -845395
L-831081 -845423
L-830940 -845423
L-830884 -845451
" />
<path d="M-830603 -845199
L-830603 845339
" />
<path d="M-830603 845451
L-830575 845395
L-830547 845367
L-830491 845339
L-830435 845339
" />
<path d="M-830238 -845423
L-829788 -845423
" />
<path d="M-829198 -845199
L-829536 -845199
" />
<path d="M-829367 -845199
L-829367 845142
L-829423 845227
L-829479 845283
L-829536 845311
" />
<path d="M-829002 845142
L-828636 845142
L-828833 845367
L-828749 845367
L-828693 845395
L-828665 845423
L-828636 -845451
L-828636 -845311
L-828665 -845255
L-828693 -845227
L-828749 -845199
L-828917 -845199
L-828974 -845227
L-829002 -845255
" />
<path d="M-828440 -844974
L-828412 -845002
L-828356 -845086
L-828327 -845142
L-828299 -845227
L-828271 -845367
L-828271 845451
L-828299 845311
L-828327 845227
L-828356 845171
L-828412 845086
L-828440 845058
" />
<path d="M-827990 -845423
L-827541 -845423
" />
<path d="M-827344 845339
L-827119 845339
" />
<path d="M-827260 845142
L-827260 -845283
L-827232 -845227
L-827176 -845199
L-827119 -845199
" />
<path d="M-826698 -845227
L-826754 -845199
L-826866 -845199
L-826923 -845227
L-826951 -845283
L-826951 845423
L-826923 845367
L-826866 845339
L-826754 845339
L-826698 845367
L-826670 845423
L-826670 -845451
L-826951 -845395
" />
<path d="M-826445 -845227
L-826389 -845199
L-826276 -845199
L-826220 -845227
L-826192 -845283
L-826192 -845311
L-826220 -845367
L-826276 -845395
L-826361 -845395
L-826417 -845423
L-826445 845451
L-826445 845423
L-826417 845367
L-826361 845339
L-826276 845339
L-826220 845367
" />
<path d="M-826024 845339
L-825799 845339
" />
<path d="M-825939 845142
L-825939 -845283
L-825911 -845227
L-825855 -845199
L-825799 -845199
" />
<path d="M-825602 -845199
L-825602 845339
" />
<path d="M-825602 845142
L-825630 845171
L-825602 845199
L-825574 845171
L-825602 845142
L-825602 845199
" />
<path d="M-825321 845339
L-825321 -845199
" />
<path d="M-825321 845395
L-825293 845367
L-825237 845339
L-825153 845339
L-825096 845367
L-825068 845423
L-825068 -845199
" />
<path d="M-824535 845339
L-824535 -845114
L-824563 -845058
L-824591 -845030
L-824647 -845002
L-824731 -845002
L-824787 -845030
" />
<path d="M-824535 -845227
L-824591 -845199
L-824703 -845199
L-824759 -845227
L-824787 -845255
L-824816 -845311
L-824816 845451
L-824787 845395
L-824759 845367
L-824703 845339
L-824591 845339
L-824535 845367
" />
<path d="M-845325 -845199
L-845325 845142
L-845185 845142
L-845100 845171
L-845044 845227
L-845016 845283
L-844988 845395
L-844988 -845451
L-845016 -845339
L-845044 -845283
L-845100 -845227
L-845185 -845199
L-845325 -845199
" />
<path d="M-844482 -845199
L-844482 845423
L-844510 845367
L-844566 845339
L-844679 845339
L-844735 845367
" />
<path d="M-844482 -845227
L-844538 -845199
L-844679 -845199
L-844735 -845227
L-844763 -845283
L-844763 -845339
L-844735 -845395
L-844679 -845423
L-844538 -845423
L-844482 -845451
" />
<path d="M-844286 845339
L-844061 845339
" />
<path d="M-844201 845142
L-844201 -845283
L-844173 -845227
L-844117 -845199
L-844061 -845199
" />
<path d="M-843639 -845227
L-843696 -845199
L-843808 -845199
L-843864 -845227
L-843892 -845283
L-843892 845423
L-843864 845367
L-843808 845339
L-843696 845339
L-843639 845367
L-843611 845423
L-843611 -845451
L-843892 -845395
" />
<path d="M-843358 -845255
L-843330 -845227
L-843358 -845199
L-843386 -845227
L-843358 -845255
L-843358 -845199
" />
<path d="M-843358 845367
L-843330 845395
L-843358 845423
L-843386 845395
L-843358 845367
L-843358 845423
" />
<path d="M-842319 -845199
L-842656 -845199
" />
<path d="M-842487 -845199
L-842487 845142
L-842544 845227
L-842600 845283
L-842656 845311
" />
<path d="M-841364 -845199
L-841364 845423
L-841392 845367
L-841448 845339
L-841560 845339
L-841616 845367
" />
<path d="M-841364 -845227
L-841420 -845199
L-841560 -845199
L-841616 -845227
L-841645 -845283
L-841645 -845339
L-841616 -845395
L-841560 -845423
L-841420 -845423
L-841364 -845451
" />
<path d="M-840830 845339
L-840830 -845199
" />
<path d="M-841083 845339
L-841083 -845283
L-841055 -845227
L-840998 -845199
L-840914 -845199
L-840858 -845227
L-840830 -845255
" />
<path d="M-840296 845339
L-840296 -845114
L-840324 -845058
L-840352 -845030
L-840408 -845002
L-840493 -845002
L-840549 -845030
" />
<path d="M-840296 -845227
L-840352 -845199
L-840465 -845199
L-840521 -845227
L-840549 -845255
L-840577 -845311
L-840577 845451
L-840549 845395
L-840521 845367
L-840465 845339
L-840352 845339
L-840296 845367
" />
<path d="M-839594 845199
L-839566 845171
L-839509 845142
L-839369 845142
L-839313 845171
L-839285 845199
L-839256 845255
L-839256 845311
L-839285 845395
L-839622 -845199
L-839256 -845199
" />
<path d="M-838891 845142
L-838835 845142
L-838779 845171
L-838751 845199
L-838723 845255
L-838695 845367
L-838695 -845423
L-838723 -845311
L-838751 -845255
L-838779 -845227
L-838835 -845199
L-838891 -845199
L-838947 -845227
L-838976 -845255
L-839004 -845311
L-839032 -845423
L-839032 845367
L-839004 845255
L-838976 845199
L-838947 845171
L-838891 845142
" />
<path d="M-838133 -845199
L-838470 -845199
" />
<path d="M-838301 -845199
L-838301 845142
L-838357 845227
L-838414 845283
L-838470 845311
" />
<path d="M-837936 845142
L-837571 845142
L-837767 845367
L-837683 845367
L-837627 845395
L-837599 845423
L-837571 -845451
L-837571 -845311
L-837599 -845255
L-837627 -845227
L-837683 -845199
L-837852 -845199
L-837908 -845227
L-837936 -845255
" />
<path d="M-845466 -845466
L-845466 -845466
" />
<path d="M-845466 -845466
L-845466 -845466
" />
<path d="M-845466 -845466
L-845466 -845466
" />
</g>
<g style="fill:#C2C200; fill-opacity:0.0; 
stroke:#C2C200; stroke-width:150; stroke-opacity:1; 
stroke-linecap:round; stroke-linejoin:round;">
<circle cx="69000" cy="38500" r="1000" /> 
<circle cx="59000" cy="14500" r="1000" /> 
<circle cx="89000" cy="14500" r="1000" /> 
<circle cx="58250" cy="40500" r="0.655906" /> 
<path d="M58249 40500
L58250 40500
" />
<path d="M58250 40499
L58250 40500
" />
<circle cx="90000" cy="40500" r="0.655906" /> 
<path d="M89999 40500
L90000 40500
" />
<path d="M90000 40499
L90000 40500
" />
<circle cx="90000" cy="13250" r="0.655906" /> 
<path d="M89999 13250
L90000 13250
" />
<path d="M90000 13249
L90000 13250
" />
<circle cx="58500" cy="13750" r="0.655906" /> 
<path d="M58499 13750
L58500 13750
" />
<path d="M58500 13749
L58500 13750
" />
<path d="M91000 41500
L90000 41500
" />
<path d="M91000 12500
L91000 41500
" />
<path d="M57000 12500
L91000 12500
" />
<path d="M57000 41500
L57000 12500
" />
<path d="M90000 41500
L57000 41500
" />
</g> 
</svg>
