G04 (created by PCBNEW (2013-mar-13)-testing) date jeu. 10 oct. 2013 21:07:35 CEST*
%MOIN*%
G04 Gerber Fmt 3.4, Leading zero omitted, Abs format*
%FSLAX34Y34*%
G01*
G70*
G90*
G04 APERTURE LIST*
%ADD10C,0.005000*%
%ADD11C,0.015000*%
%ADD12C,0.007874*%
%ADD13C,0.011811*%
G04 APERTURE END LIST*
G54D10*
G54D11*
X70000Y-38500D02*
G75*
G03X70000Y-38500I-1000J0D01*
G74*
G01*
X60000Y-14500D02*
G75*
G03X60000Y-14500I-1000J0D01*
G74*
G01*
X90000Y-14500D02*
G75*
G03X90000Y-14500I-1000J0D01*
G74*
G01*
X91000Y-41500D02*
X90000Y-41500D01*
X91000Y-12500D02*
X91000Y-41500D01*
X57000Y-12500D02*
X91000Y-12500D01*
X57000Y-41500D02*
X57000Y-12500D01*
X90000Y-41500D02*
X57000Y-41500D01*
G54D12*
X61125Y-17625D02*
X61375Y-17875D01*
X61375Y-17625D02*
X61125Y-17875D01*
X61125Y-26875D02*
X61375Y-27125D01*
X61375Y-26875D02*
X61125Y-27125D01*
X61125Y-36375D02*
X61375Y-36625D01*
X61375Y-36375D02*
X61125Y-36625D01*
X61625Y-18625D02*
X61875Y-18875D01*
X61875Y-18625D02*
X61625Y-18875D01*
X61625Y-27875D02*
X61875Y-28125D01*
X61875Y-27875D02*
X61625Y-28125D01*
X61625Y-37375D02*
X61875Y-37625D01*
X61875Y-37375D02*
X61625Y-37625D01*
X64125Y-36875D02*
X64375Y-37125D01*
X64375Y-36875D02*
X64125Y-37125D01*
X64375Y-18625D02*
X64625Y-18875D01*
X64625Y-18625D02*
X64375Y-18875D01*
X64375Y-27875D02*
X64625Y-28125D01*
X64625Y-27875D02*
X64375Y-28125D01*
X64875Y-16875D02*
X65125Y-17125D01*
X65125Y-16875D02*
X64875Y-17125D01*
X64875Y-25875D02*
X65125Y-26125D01*
X65125Y-25875D02*
X64875Y-26125D01*
X64875Y-35375D02*
X65125Y-35625D01*
X65125Y-35375D02*
X64875Y-35625D01*
X65650Y-17300D02*
X65900Y-17550D01*
X65900Y-17300D02*
X65650Y-17550D01*
X65675Y-19050D02*
X65925Y-19300D01*
X65925Y-19050D02*
X65675Y-19300D01*
X65725Y-26375D02*
X65975Y-26625D01*
X65975Y-26375D02*
X65725Y-26625D01*
X65725Y-29225D02*
X65975Y-29475D01*
X65975Y-29225D02*
X65725Y-29475D01*
X66875Y-35875D02*
X67125Y-36125D01*
X67125Y-35875D02*
X66875Y-36125D01*
X66875Y-36875D02*
X67125Y-37125D01*
X67125Y-36875D02*
X66875Y-37125D01*
X66925Y-18300D02*
X67175Y-18550D01*
X67175Y-18300D02*
X66925Y-18550D01*
X67350Y-27850D02*
X67600Y-28100D01*
X67600Y-27850D02*
X67350Y-28100D01*
X67375Y-33575D02*
X67625Y-33825D01*
X67625Y-33575D02*
X67375Y-33825D01*
X67500Y-26750D02*
X67750Y-27000D01*
X67750Y-26750D02*
X67500Y-27000D01*
X68375Y-26750D02*
X68625Y-27000D01*
X68625Y-26750D02*
X68375Y-27000D01*
X68525Y-27875D02*
X68775Y-28125D01*
X68775Y-27875D02*
X68525Y-28125D01*
X73875Y-16375D02*
X74125Y-16625D01*
X74125Y-16375D02*
X73875Y-16625D01*
X73875Y-26375D02*
X74125Y-26625D01*
X74125Y-26375D02*
X73875Y-26625D01*
X74375Y-28375D02*
X74625Y-28625D01*
X74625Y-28375D02*
X74375Y-28625D01*
X74875Y-13625D02*
X75125Y-13875D01*
X75125Y-13625D02*
X74875Y-13875D01*
X74875Y-15625D02*
X75125Y-15875D01*
X75125Y-15625D02*
X74875Y-15875D01*
X74875Y-27625D02*
X75125Y-27875D01*
X75125Y-27625D02*
X74875Y-27875D01*
X77375Y-23775D02*
X77625Y-24025D01*
X77625Y-23775D02*
X77375Y-24025D01*
X77950Y-22775D02*
X78200Y-23025D01*
X78200Y-22775D02*
X77950Y-23025D01*
X77950Y-26875D02*
X78200Y-27125D01*
X78200Y-26875D02*
X77950Y-27125D01*
X80025Y-20550D02*
X80275Y-20800D01*
X80275Y-20550D02*
X80025Y-20800D01*
X80025Y-29100D02*
X80275Y-29350D01*
X80275Y-29100D02*
X80025Y-29350D01*
X81275Y-20575D02*
X81525Y-20825D01*
X81525Y-20575D02*
X81275Y-20825D01*
X81300Y-25225D02*
X81550Y-25475D01*
X81550Y-25225D02*
X81300Y-25475D01*
X81300Y-29225D02*
X81550Y-29475D01*
X81550Y-29225D02*
X81300Y-29475D01*
X81400Y-15875D02*
X81650Y-16125D01*
X81650Y-15875D02*
X81400Y-16125D01*
X81900Y-34625D02*
X82150Y-34875D01*
X82150Y-34625D02*
X81900Y-34875D01*
X82375Y-16375D02*
X82625Y-16625D01*
X82625Y-16375D02*
X82375Y-16625D01*
X82375Y-18875D02*
X82625Y-19125D01*
X82625Y-18875D02*
X82375Y-19125D01*
X82375Y-27875D02*
X82625Y-28125D01*
X82625Y-27875D02*
X82375Y-28125D01*
X82375Y-36875D02*
X82625Y-37125D01*
X82625Y-36875D02*
X82375Y-37125D01*
X83125Y-16875D02*
X83375Y-17125D01*
X83375Y-16875D02*
X83125Y-17125D01*
X83125Y-24775D02*
X83375Y-25025D01*
X83375Y-24775D02*
X83125Y-25025D01*
X83125Y-25875D02*
X83375Y-26125D01*
X83375Y-25875D02*
X83125Y-26125D01*
X83125Y-34875D02*
X83375Y-35125D01*
X83375Y-34875D02*
X83125Y-35125D01*
X86125Y-16875D02*
X86375Y-17125D01*
X86375Y-16875D02*
X86125Y-17125D01*
X86125Y-25875D02*
X86375Y-26125D01*
X86375Y-25875D02*
X86125Y-26125D01*
X86125Y-34875D02*
X86375Y-35125D01*
X86375Y-34875D02*
X86125Y-35125D01*
X86625Y-17875D02*
X86875Y-18125D01*
X86875Y-17875D02*
X86625Y-18125D01*
X86625Y-26875D02*
X86875Y-27125D01*
X86875Y-26875D02*
X86625Y-27125D01*
X86625Y-35875D02*
X86875Y-36125D01*
X86875Y-35875D02*
X86625Y-36125D01*
X59612Y-26300D02*
G75*
G03X59612Y-26300I-200J0D01*
G74*
G01*
X59612Y-27300D02*
G75*
G03X59612Y-27300I-200J0D01*
G74*
G01*
X59612Y-28300D02*
G75*
G03X59612Y-28300I-200J0D01*
G74*
G01*
X59650Y-17050D02*
G75*
G03X59650Y-17050I-200J0D01*
G74*
G01*
X59650Y-18050D02*
G75*
G03X59650Y-18050I-200J0D01*
G74*
G01*
X59650Y-19050D02*
G75*
G03X59650Y-19050I-200J0D01*
G74*
G01*
X59650Y-35550D02*
G75*
G03X59650Y-35550I-200J0D01*
G74*
G01*
X59650Y-36550D02*
G75*
G03X59650Y-36550I-200J0D01*
G74*
G01*
X59650Y-37550D02*
G75*
G03X59650Y-37550I-200J0D01*
G74*
G01*
X62741Y-15764D02*
G75*
G03X62741Y-15764I-200J0D01*
G74*
G01*
X62741Y-16764D02*
G75*
G03X62741Y-16764I-200J0D01*
G74*
G01*
X62741Y-17764D02*
G75*
G03X62741Y-17764I-200J0D01*
G74*
G01*
X62741Y-18764D02*
G75*
G03X62741Y-18764I-200J0D01*
G74*
G01*
X62741Y-19764D02*
G75*
G03X62741Y-19764I-200J0D01*
G74*
G01*
X62741Y-25014D02*
G75*
G03X62741Y-25014I-200J0D01*
G74*
G01*
X62741Y-26014D02*
G75*
G03X62741Y-26014I-200J0D01*
G74*
G01*
X62741Y-27014D02*
G75*
G03X62741Y-27014I-200J0D01*
G74*
G01*
X62741Y-28014D02*
G75*
G03X62741Y-28014I-200J0D01*
G74*
G01*
X62741Y-29014D02*
G75*
G03X62741Y-29014I-200J0D01*
G74*
G01*
X62741Y-34514D02*
G75*
G03X62741Y-34514I-200J0D01*
G74*
G01*
X62741Y-35514D02*
G75*
G03X62741Y-35514I-200J0D01*
G74*
G01*
X62741Y-36514D02*
G75*
G03X62741Y-36514I-200J0D01*
G74*
G01*
X62741Y-37514D02*
G75*
G03X62741Y-37514I-200J0D01*
G74*
G01*
X62741Y-38514D02*
G75*
G03X62741Y-38514I-200J0D01*
G74*
G01*
X63741Y-15764D02*
G75*
G03X63741Y-15764I-200J0D01*
G74*
G01*
X63741Y-16764D02*
G75*
G03X63741Y-16764I-200J0D01*
G74*
G01*
X63741Y-17764D02*
G75*
G03X63741Y-17764I-200J0D01*
G74*
G01*
X63741Y-18764D02*
G75*
G03X63741Y-18764I-200J0D01*
G74*
G01*
X63741Y-19764D02*
G75*
G03X63741Y-19764I-200J0D01*
G74*
G01*
X63741Y-25014D02*
G75*
G03X63741Y-25014I-200J0D01*
G74*
G01*
X63741Y-26014D02*
G75*
G03X63741Y-26014I-200J0D01*
G74*
G01*
X63741Y-27014D02*
G75*
G03X63741Y-27014I-200J0D01*
G74*
G01*
X63741Y-28014D02*
G75*
G03X63741Y-28014I-200J0D01*
G74*
G01*
X63741Y-29014D02*
G75*
G03X63741Y-29014I-200J0D01*
G74*
G01*
X63741Y-34514D02*
G75*
G03X63741Y-34514I-200J0D01*
G74*
G01*
X63741Y-35514D02*
G75*
G03X63741Y-35514I-200J0D01*
G74*
G01*
X63741Y-36514D02*
G75*
G03X63741Y-36514I-200J0D01*
G74*
G01*
X63741Y-37514D02*
G75*
G03X63741Y-37514I-200J0D01*
G74*
G01*
X63741Y-38514D02*
G75*
G03X63741Y-38514I-200J0D01*
G74*
G01*
X65625Y-40500D02*
G75*
G03X65625Y-40500I-200J0D01*
G74*
G01*
X66400Y-31100D02*
G75*
G03X66400Y-31100I-200J0D01*
G74*
G01*
X66400Y-32100D02*
G75*
G03X66400Y-32100I-200J0D01*
G74*
G01*
X69075Y-35450D02*
G75*
G03X69075Y-35450I-200J0D01*
G74*
G01*
X69375Y-19225D02*
G75*
G03X69375Y-19225I-200J0D01*
G74*
G01*
X69375Y-20225D02*
G75*
G03X69375Y-20225I-200J0D01*
G74*
G01*
X70075Y-35450D02*
G75*
G03X70075Y-35450I-200J0D01*
G74*
G01*
X70375Y-40500D02*
G75*
G03X70375Y-40500I-200J0D01*
G74*
G01*
X70625Y-21900D02*
G75*
G03X70625Y-21900I-200J0D01*
G74*
G01*
X70625Y-22900D02*
G75*
G03X70625Y-22900I-200J0D01*
G74*
G01*
X70625Y-23900D02*
G75*
G03X70625Y-23900I-200J0D01*
G74*
G01*
X70625Y-24900D02*
G75*
G03X70625Y-24900I-200J0D01*
G74*
G01*
X70625Y-25900D02*
G75*
G03X70625Y-25900I-200J0D01*
G74*
G01*
X70625Y-26900D02*
G75*
G03X70625Y-26900I-200J0D01*
G74*
G01*
X70625Y-27900D02*
G75*
G03X70625Y-27900I-200J0D01*
G74*
G01*
X70625Y-28900D02*
G75*
G03X70625Y-28900I-200J0D01*
G74*
G01*
X70625Y-29900D02*
G75*
G03X70625Y-29900I-200J0D01*
G74*
G01*
X70625Y-30900D02*
G75*
G03X70625Y-30900I-200J0D01*
G74*
G01*
X70625Y-31900D02*
G75*
G03X70625Y-31900I-200J0D01*
G74*
G01*
X70625Y-32900D02*
G75*
G03X70625Y-32900I-200J0D01*
G74*
G01*
X76625Y-21900D02*
G75*
G03X76625Y-21900I-200J0D01*
G74*
G01*
X76625Y-22900D02*
G75*
G03X76625Y-22900I-200J0D01*
G74*
G01*
X76625Y-23900D02*
G75*
G03X76625Y-23900I-200J0D01*
G74*
G01*
X76625Y-24900D02*
G75*
G03X76625Y-24900I-200J0D01*
G74*
G01*
X76625Y-25900D02*
G75*
G03X76625Y-25900I-200J0D01*
G74*
G01*
X76625Y-26900D02*
G75*
G03X76625Y-26900I-200J0D01*
G74*
G01*
X76625Y-27900D02*
G75*
G03X76625Y-27900I-200J0D01*
G74*
G01*
X76625Y-28900D02*
G75*
G03X76625Y-28900I-200J0D01*
G74*
G01*
X76625Y-29900D02*
G75*
G03X76625Y-29900I-200J0D01*
G74*
G01*
X76625Y-30900D02*
G75*
G03X76625Y-30900I-200J0D01*
G74*
G01*
X76625Y-31900D02*
G75*
G03X76625Y-31900I-200J0D01*
G74*
G01*
X76625Y-32900D02*
G75*
G03X76625Y-32900I-200J0D01*
G74*
G01*
X78350Y-40525D02*
G75*
G03X78350Y-40525I-200J0D01*
G74*
G01*
X78500Y-19600D02*
G75*
G03X78500Y-19600I-200J0D01*
G74*
G01*
X78500Y-28200D02*
G75*
G03X78500Y-28200I-200J0D01*
G74*
G01*
X78500Y-35600D02*
G75*
G03X78500Y-35600I-200J0D01*
G74*
G01*
X79500Y-19600D02*
G75*
G03X79500Y-19600I-200J0D01*
G74*
G01*
X79500Y-28200D02*
G75*
G03X79500Y-28200I-200J0D01*
G74*
G01*
X79500Y-35600D02*
G75*
G03X79500Y-35600I-200J0D01*
G74*
G01*
X83100Y-40525D02*
G75*
G03X83100Y-40525I-200J0D01*
G74*
G01*
X84659Y-15986D02*
G75*
G03X84659Y-15986I-200J0D01*
G74*
G01*
X84659Y-16986D02*
G75*
G03X84659Y-16986I-200J0D01*
G74*
G01*
X84659Y-17986D02*
G75*
G03X84659Y-17986I-200J0D01*
G74*
G01*
X84659Y-18986D02*
G75*
G03X84659Y-18986I-200J0D01*
G74*
G01*
X84659Y-19986D02*
G75*
G03X84659Y-19986I-200J0D01*
G74*
G01*
X84659Y-24986D02*
G75*
G03X84659Y-24986I-200J0D01*
G74*
G01*
X84659Y-25986D02*
G75*
G03X84659Y-25986I-200J0D01*
G74*
G01*
X84659Y-26986D02*
G75*
G03X84659Y-26986I-200J0D01*
G74*
G01*
X84659Y-27986D02*
G75*
G03X84659Y-27986I-200J0D01*
G74*
G01*
X84659Y-28986D02*
G75*
G03X84659Y-28986I-200J0D01*
G74*
G01*
X84659Y-33986D02*
G75*
G03X84659Y-33986I-200J0D01*
G74*
G01*
X84659Y-34986D02*
G75*
G03X84659Y-34986I-200J0D01*
G74*
G01*
X84659Y-35986D02*
G75*
G03X84659Y-35986I-200J0D01*
G74*
G01*
X84659Y-36986D02*
G75*
G03X84659Y-36986I-200J0D01*
G74*
G01*
X84659Y-37986D02*
G75*
G03X84659Y-37986I-200J0D01*
G74*
G01*
X85659Y-15986D02*
G75*
G03X85659Y-15986I-200J0D01*
G74*
G01*
X85659Y-16986D02*
G75*
G03X85659Y-16986I-200J0D01*
G74*
G01*
X85659Y-17986D02*
G75*
G03X85659Y-17986I-200J0D01*
G74*
G01*
X85659Y-18986D02*
G75*
G03X85659Y-18986I-200J0D01*
G74*
G01*
X85659Y-19986D02*
G75*
G03X85659Y-19986I-200J0D01*
G74*
G01*
X85659Y-24986D02*
G75*
G03X85659Y-24986I-200J0D01*
G74*
G01*
X85659Y-25986D02*
G75*
G03X85659Y-25986I-200J0D01*
G74*
G01*
X85659Y-26986D02*
G75*
G03X85659Y-26986I-200J0D01*
G74*
G01*
X85659Y-27986D02*
G75*
G03X85659Y-27986I-200J0D01*
G74*
G01*
X85659Y-28986D02*
G75*
G03X85659Y-28986I-200J0D01*
G74*
G01*
X85659Y-33986D02*
G75*
G03X85659Y-33986I-200J0D01*
G74*
G01*
X85659Y-34986D02*
G75*
G03X85659Y-34986I-200J0D01*
G74*
G01*
X85659Y-35986D02*
G75*
G03X85659Y-35986I-200J0D01*
G74*
G01*
X85659Y-36986D02*
G75*
G03X85659Y-36986I-200J0D01*
G74*
G01*
X85659Y-37986D02*
G75*
G03X85659Y-37986I-200J0D01*
G74*
G01*
X88750Y-17200D02*
G75*
G03X88750Y-17200I-200J0D01*
G74*
G01*
X88750Y-18200D02*
G75*
G03X88750Y-18200I-200J0D01*
G74*
G01*
X88750Y-19200D02*
G75*
G03X88750Y-19200I-200J0D01*
G74*
G01*
X88750Y-25700D02*
G75*
G03X88750Y-25700I-200J0D01*
G74*
G01*
X88750Y-26700D02*
G75*
G03X88750Y-26700I-200J0D01*
G74*
G01*
X88750Y-27700D02*
G75*
G03X88750Y-27700I-200J0D01*
G74*
G01*
X88750Y-34700D02*
G75*
G03X88750Y-34700I-200J0D01*
G74*
G01*
X88750Y-35700D02*
G75*
G03X88750Y-35700I-200J0D01*
G74*
G01*
X88750Y-36700D02*
G75*
G03X88750Y-36700I-200J0D01*
G74*
G01*
X73464Y-39492D02*
X73464Y-40043D01*
X73188Y-39767D02*
X73740Y-39767D01*
X74783Y-39492D02*
X74783Y-40043D01*
X74507Y-39767D02*
X75059Y-39767D01*
G54D13*
X57993Y-43408D02*
X57993Y-42227D01*
X58274Y-42227D01*
X58443Y-42283D01*
X58556Y-42396D01*
X58612Y-42508D01*
X58668Y-42733D01*
X58668Y-42902D01*
X58612Y-43127D01*
X58556Y-43239D01*
X58443Y-43352D01*
X58274Y-43408D01*
X57993Y-43408D01*
X59174Y-43408D02*
X59174Y-42621D01*
X59174Y-42846D02*
X59230Y-42733D01*
X59287Y-42677D01*
X59399Y-42621D01*
X59512Y-42621D01*
X59905Y-43408D02*
X59905Y-42621D01*
X59905Y-42227D02*
X59849Y-42283D01*
X59905Y-42339D01*
X59962Y-42283D01*
X59905Y-42227D01*
X59905Y-42339D01*
X60637Y-43408D02*
X60524Y-43352D01*
X60468Y-43239D01*
X60468Y-42227D01*
X61255Y-43408D02*
X61143Y-43352D01*
X61086Y-43239D01*
X61086Y-42227D01*
X62605Y-43408D02*
X62605Y-42227D01*
X62999Y-43071D01*
X63392Y-42227D01*
X63392Y-43408D01*
X64461Y-43408D02*
X64461Y-42789D01*
X64405Y-42677D01*
X64292Y-42621D01*
X64067Y-42621D01*
X63955Y-42677D01*
X64461Y-43352D02*
X64349Y-43408D01*
X64067Y-43408D01*
X63955Y-43352D01*
X63899Y-43239D01*
X63899Y-43127D01*
X63955Y-43014D01*
X64067Y-42958D01*
X64349Y-42958D01*
X64461Y-42902D01*
X65023Y-42621D02*
X65023Y-43802D01*
X65023Y-42677D02*
X65136Y-42621D01*
X65361Y-42621D01*
X65473Y-42677D01*
X65530Y-42733D01*
X65586Y-42846D01*
X65586Y-43183D01*
X65530Y-43296D01*
X65473Y-43352D01*
X65361Y-43408D01*
X65136Y-43408D01*
X65023Y-43352D01*
X66092Y-43296D02*
X66148Y-43352D01*
X66092Y-43408D01*
X66036Y-43352D01*
X66092Y-43296D01*
X66092Y-43408D01*
X66092Y-42677D02*
X66148Y-42733D01*
X66092Y-42789D01*
X66036Y-42733D01*
X66092Y-42677D01*
X66092Y-42789D01*
X56674Y-45229D02*
X56924Y-45479D01*
X56924Y-45229D02*
X56674Y-45479D01*
X58218Y-44707D02*
X58331Y-44707D01*
X58443Y-44763D01*
X58499Y-44820D01*
X58556Y-44932D01*
X58612Y-45157D01*
X58612Y-45438D01*
X58556Y-45663D01*
X58499Y-45776D01*
X58443Y-45832D01*
X58331Y-45888D01*
X58218Y-45888D01*
X58106Y-45832D01*
X58049Y-45776D01*
X57993Y-45663D01*
X57937Y-45438D01*
X57937Y-45157D01*
X57993Y-44932D01*
X58049Y-44820D01*
X58106Y-44763D01*
X58218Y-44707D01*
X59118Y-45776D02*
X59174Y-45832D01*
X59118Y-45888D01*
X59062Y-45832D01*
X59118Y-45776D01*
X59118Y-45888D01*
X60187Y-44707D02*
X59962Y-44707D01*
X59849Y-44763D01*
X59793Y-44820D01*
X59680Y-44988D01*
X59624Y-45213D01*
X59624Y-45663D01*
X59680Y-45776D01*
X59737Y-45832D01*
X59849Y-45888D01*
X60074Y-45888D01*
X60187Y-45832D01*
X60243Y-45776D01*
X60299Y-45663D01*
X60299Y-45382D01*
X60243Y-45270D01*
X60187Y-45213D01*
X60074Y-45157D01*
X59849Y-45157D01*
X59737Y-45213D01*
X59680Y-45270D01*
X59624Y-45382D01*
X61311Y-45101D02*
X61311Y-45888D01*
X61030Y-44651D02*
X60749Y-45495D01*
X61480Y-45495D01*
X61930Y-45888D02*
X61930Y-45101D01*
X61930Y-45213D02*
X61986Y-45157D01*
X62099Y-45101D01*
X62268Y-45101D01*
X62380Y-45157D01*
X62436Y-45270D01*
X62436Y-45888D01*
X62436Y-45270D02*
X62493Y-45157D01*
X62605Y-45101D01*
X62774Y-45101D01*
X62886Y-45157D01*
X62942Y-45270D01*
X62942Y-45888D01*
X63505Y-45888D02*
X63505Y-45101D01*
X63505Y-45213D02*
X63561Y-45157D01*
X63674Y-45101D01*
X63842Y-45101D01*
X63955Y-45157D01*
X64011Y-45270D01*
X64011Y-45888D01*
X64011Y-45270D02*
X64067Y-45157D01*
X64180Y-45101D01*
X64349Y-45101D01*
X64461Y-45157D01*
X64517Y-45270D01*
X64517Y-45888D01*
X66823Y-44651D02*
X65811Y-46170D01*
X68342Y-44707D02*
X68454Y-44707D01*
X68567Y-44763D01*
X68623Y-44820D01*
X68679Y-44932D01*
X68736Y-45157D01*
X68736Y-45438D01*
X68679Y-45663D01*
X68623Y-45776D01*
X68567Y-45832D01*
X68454Y-45888D01*
X68342Y-45888D01*
X68229Y-45832D01*
X68173Y-45776D01*
X68117Y-45663D01*
X68061Y-45438D01*
X68061Y-45157D01*
X68117Y-44932D01*
X68173Y-44820D01*
X68229Y-44763D01*
X68342Y-44707D01*
X69242Y-45776D02*
X69298Y-45832D01*
X69242Y-45888D01*
X69185Y-45832D01*
X69242Y-45776D01*
X69242Y-45888D01*
X70029Y-44707D02*
X70142Y-44707D01*
X70254Y-44763D01*
X70310Y-44820D01*
X70367Y-44932D01*
X70423Y-45157D01*
X70423Y-45438D01*
X70367Y-45663D01*
X70310Y-45776D01*
X70254Y-45832D01*
X70142Y-45888D01*
X70029Y-45888D01*
X69917Y-45832D01*
X69860Y-45776D01*
X69804Y-45663D01*
X69748Y-45438D01*
X69748Y-45157D01*
X69804Y-44932D01*
X69860Y-44820D01*
X69917Y-44763D01*
X70029Y-44707D01*
X70873Y-44820D02*
X70929Y-44763D01*
X71041Y-44707D01*
X71323Y-44707D01*
X71435Y-44763D01*
X71491Y-44820D01*
X71548Y-44932D01*
X71548Y-45045D01*
X71491Y-45213D01*
X70817Y-45888D01*
X71548Y-45888D01*
X72616Y-44707D02*
X72054Y-44707D01*
X71998Y-45270D01*
X72054Y-45213D01*
X72166Y-45157D01*
X72448Y-45157D01*
X72560Y-45213D01*
X72616Y-45270D01*
X72673Y-45382D01*
X72673Y-45663D01*
X72616Y-45776D01*
X72560Y-45832D01*
X72448Y-45888D01*
X72166Y-45888D01*
X72054Y-45832D01*
X71998Y-45776D01*
X73122Y-44707D02*
X73122Y-44932D01*
X73572Y-44707D02*
X73572Y-44932D01*
X75316Y-46338D02*
X75260Y-46282D01*
X75147Y-46113D01*
X75091Y-46001D01*
X75035Y-45832D01*
X74978Y-45551D01*
X74978Y-45326D01*
X75035Y-45045D01*
X75091Y-44876D01*
X75147Y-44763D01*
X75260Y-44595D01*
X75316Y-44539D01*
X76328Y-44707D02*
X75766Y-44707D01*
X75710Y-45270D01*
X75766Y-45213D01*
X75878Y-45157D01*
X76160Y-45157D01*
X76272Y-45213D01*
X76328Y-45270D01*
X76385Y-45382D01*
X76385Y-45663D01*
X76328Y-45776D01*
X76272Y-45832D01*
X76160Y-45888D01*
X75878Y-45888D01*
X75766Y-45832D01*
X75710Y-45776D01*
X77397Y-45101D02*
X77397Y-45888D01*
X77116Y-44651D02*
X76835Y-45495D01*
X77566Y-45495D01*
X78916Y-45888D02*
X78916Y-44707D01*
X79422Y-45888D02*
X79422Y-45270D01*
X79365Y-45157D01*
X79253Y-45101D01*
X79084Y-45101D01*
X78972Y-45157D01*
X78916Y-45213D01*
X80153Y-45888D02*
X80040Y-45832D01*
X79984Y-45776D01*
X79928Y-45663D01*
X79928Y-45326D01*
X79984Y-45213D01*
X80040Y-45157D01*
X80153Y-45101D01*
X80322Y-45101D01*
X80434Y-45157D01*
X80490Y-45213D01*
X80547Y-45326D01*
X80547Y-45663D01*
X80490Y-45776D01*
X80434Y-45832D01*
X80322Y-45888D01*
X80153Y-45888D01*
X81221Y-45888D02*
X81109Y-45832D01*
X81053Y-45720D01*
X81053Y-44707D01*
X82121Y-45832D02*
X82009Y-45888D01*
X81784Y-45888D01*
X81671Y-45832D01*
X81615Y-45720D01*
X81615Y-45270D01*
X81671Y-45157D01*
X81784Y-45101D01*
X82009Y-45101D01*
X82121Y-45157D01*
X82178Y-45270D01*
X82178Y-45382D01*
X81615Y-45495D01*
X82628Y-45832D02*
X82740Y-45888D01*
X82965Y-45888D01*
X83077Y-45832D01*
X83134Y-45720D01*
X83134Y-45663D01*
X83077Y-45551D01*
X82965Y-45495D01*
X82796Y-45495D01*
X82684Y-45438D01*
X82628Y-45326D01*
X82628Y-45270D01*
X82684Y-45157D01*
X82796Y-45101D01*
X82965Y-45101D01*
X83077Y-45157D01*
X83527Y-46338D02*
X83584Y-46282D01*
X83696Y-46113D01*
X83752Y-46001D01*
X83809Y-45832D01*
X83865Y-45551D01*
X83865Y-45326D01*
X83809Y-45045D01*
X83752Y-44876D01*
X83696Y-44763D01*
X83584Y-44595D01*
X83527Y-44539D01*
G54D12*
X56924Y-46913D02*
G75*
G03X56924Y-46913I-200J0D01*
G74*
G01*
G54D13*
X58612Y-47447D02*
X57937Y-47447D01*
X58274Y-47447D02*
X58274Y-46266D01*
X58162Y-46435D01*
X58049Y-46548D01*
X57937Y-46604D01*
X59118Y-47335D02*
X59174Y-47391D01*
X59118Y-47447D01*
X59062Y-47391D01*
X59118Y-47335D01*
X59118Y-47447D01*
X59905Y-46266D02*
X60018Y-46266D01*
X60130Y-46323D01*
X60187Y-46379D01*
X60243Y-46491D01*
X60299Y-46716D01*
X60299Y-46997D01*
X60243Y-47222D01*
X60187Y-47335D01*
X60130Y-47391D01*
X60018Y-47447D01*
X59905Y-47447D01*
X59793Y-47391D01*
X59737Y-47335D01*
X59680Y-47222D01*
X59624Y-46997D01*
X59624Y-46716D01*
X59680Y-46491D01*
X59737Y-46379D01*
X59793Y-46323D01*
X59905Y-46266D01*
X60749Y-46379D02*
X60805Y-46323D01*
X60918Y-46266D01*
X61199Y-46266D01*
X61311Y-46323D01*
X61368Y-46379D01*
X61424Y-46491D01*
X61424Y-46604D01*
X61368Y-46772D01*
X60693Y-47447D01*
X61424Y-47447D01*
X61930Y-47447D02*
X61930Y-46660D01*
X61930Y-46772D02*
X61986Y-46716D01*
X62099Y-46660D01*
X62268Y-46660D01*
X62380Y-46716D01*
X62436Y-46829D01*
X62436Y-47447D01*
X62436Y-46829D02*
X62493Y-46716D01*
X62605Y-46660D01*
X62774Y-46660D01*
X62886Y-46716D01*
X62942Y-46829D01*
X62942Y-47447D01*
X63505Y-47447D02*
X63505Y-46660D01*
X63505Y-46772D02*
X63561Y-46716D01*
X63674Y-46660D01*
X63842Y-46660D01*
X63955Y-46716D01*
X64011Y-46829D01*
X64011Y-47447D01*
X64011Y-46829D02*
X64067Y-46716D01*
X64180Y-46660D01*
X64349Y-46660D01*
X64461Y-46716D01*
X64517Y-46829D01*
X64517Y-47447D01*
X66823Y-46210D02*
X65811Y-47729D01*
X68342Y-46266D02*
X68454Y-46266D01*
X68567Y-46323D01*
X68623Y-46379D01*
X68679Y-46491D01*
X68736Y-46716D01*
X68736Y-46997D01*
X68679Y-47222D01*
X68623Y-47335D01*
X68567Y-47391D01*
X68454Y-47447D01*
X68342Y-47447D01*
X68229Y-47391D01*
X68173Y-47335D01*
X68117Y-47222D01*
X68061Y-46997D01*
X68061Y-46716D01*
X68117Y-46491D01*
X68173Y-46379D01*
X68229Y-46323D01*
X68342Y-46266D01*
X69242Y-47335D02*
X69298Y-47391D01*
X69242Y-47447D01*
X69185Y-47391D01*
X69242Y-47335D01*
X69242Y-47447D01*
X70029Y-46266D02*
X70142Y-46266D01*
X70254Y-46323D01*
X70310Y-46379D01*
X70367Y-46491D01*
X70423Y-46716D01*
X70423Y-46997D01*
X70367Y-47222D01*
X70310Y-47335D01*
X70254Y-47391D01*
X70142Y-47447D01*
X70029Y-47447D01*
X69917Y-47391D01*
X69860Y-47335D01*
X69804Y-47222D01*
X69748Y-46997D01*
X69748Y-46716D01*
X69804Y-46491D01*
X69860Y-46379D01*
X69917Y-46323D01*
X70029Y-46266D01*
X71435Y-46660D02*
X71435Y-47447D01*
X71154Y-46210D02*
X70873Y-47054D01*
X71604Y-47054D01*
X72279Y-46266D02*
X72391Y-46266D01*
X72504Y-46323D01*
X72560Y-46379D01*
X72616Y-46491D01*
X72673Y-46716D01*
X72673Y-46997D01*
X72616Y-47222D01*
X72560Y-47335D01*
X72504Y-47391D01*
X72391Y-47447D01*
X72279Y-47447D01*
X72166Y-47391D01*
X72110Y-47335D01*
X72054Y-47222D01*
X71998Y-46997D01*
X71998Y-46716D01*
X72054Y-46491D01*
X72110Y-46379D01*
X72166Y-46323D01*
X72279Y-46266D01*
X73122Y-46266D02*
X73122Y-46491D01*
X73572Y-46266D02*
X73572Y-46491D01*
X75316Y-47897D02*
X75260Y-47841D01*
X75147Y-47672D01*
X75091Y-47560D01*
X75035Y-47391D01*
X74978Y-47110D01*
X74978Y-46885D01*
X75035Y-46604D01*
X75091Y-46435D01*
X75147Y-46323D01*
X75260Y-46154D01*
X75316Y-46098D01*
X76385Y-47447D02*
X75710Y-47447D01*
X76047Y-47447D02*
X76047Y-46266D01*
X75935Y-46435D01*
X75822Y-46548D01*
X75710Y-46604D01*
X77509Y-47447D02*
X76835Y-47447D01*
X77172Y-47447D02*
X77172Y-46266D01*
X77059Y-46435D01*
X76947Y-46548D01*
X76835Y-46604D01*
X78184Y-46772D02*
X78072Y-46716D01*
X78016Y-46660D01*
X77959Y-46548D01*
X77959Y-46491D01*
X78016Y-46379D01*
X78072Y-46323D01*
X78184Y-46266D01*
X78409Y-46266D01*
X78522Y-46323D01*
X78578Y-46379D01*
X78634Y-46491D01*
X78634Y-46548D01*
X78578Y-46660D01*
X78522Y-46716D01*
X78409Y-46772D01*
X78184Y-46772D01*
X78072Y-46829D01*
X78016Y-46885D01*
X77959Y-46997D01*
X77959Y-47222D01*
X78016Y-47335D01*
X78072Y-47391D01*
X78184Y-47447D01*
X78409Y-47447D01*
X78522Y-47391D01*
X78578Y-47335D01*
X78634Y-47222D01*
X78634Y-46997D01*
X78578Y-46885D01*
X78522Y-46829D01*
X78409Y-46772D01*
X80040Y-47447D02*
X80040Y-46266D01*
X80547Y-47447D02*
X80547Y-46829D01*
X80490Y-46716D01*
X80378Y-46660D01*
X80209Y-46660D01*
X80097Y-46716D01*
X80040Y-46772D01*
X81278Y-47447D02*
X81165Y-47391D01*
X81109Y-47335D01*
X81053Y-47222D01*
X81053Y-46885D01*
X81109Y-46772D01*
X81165Y-46716D01*
X81278Y-46660D01*
X81446Y-46660D01*
X81559Y-46716D01*
X81615Y-46772D01*
X81671Y-46885D01*
X81671Y-47222D01*
X81615Y-47335D01*
X81559Y-47391D01*
X81446Y-47447D01*
X81278Y-47447D01*
X82346Y-47447D02*
X82234Y-47391D01*
X82178Y-47279D01*
X82178Y-46266D01*
X83246Y-47391D02*
X83134Y-47447D01*
X82909Y-47447D01*
X82796Y-47391D01*
X82740Y-47279D01*
X82740Y-46829D01*
X82796Y-46716D01*
X82909Y-46660D01*
X83134Y-46660D01*
X83246Y-46716D01*
X83302Y-46829D01*
X83302Y-46941D01*
X82740Y-47054D01*
X83752Y-47391D02*
X83865Y-47447D01*
X84090Y-47447D01*
X84202Y-47391D01*
X84259Y-47279D01*
X84259Y-47222D01*
X84202Y-47110D01*
X84090Y-47054D01*
X83921Y-47054D01*
X83809Y-46997D01*
X83752Y-46885D01*
X83752Y-46829D01*
X83809Y-46716D01*
X83921Y-46660D01*
X84090Y-46660D01*
X84202Y-46716D01*
X84652Y-47897D02*
X84709Y-47841D01*
X84821Y-47672D01*
X84877Y-47560D01*
X84933Y-47391D01*
X84990Y-47110D01*
X84990Y-46885D01*
X84933Y-46604D01*
X84877Y-46435D01*
X84821Y-46323D01*
X84709Y-46154D01*
X84652Y-46098D01*
X56649Y-48197D02*
X56649Y-48748D01*
X56373Y-48472D02*
X56924Y-48472D01*
X58612Y-49006D02*
X57937Y-49006D01*
X58274Y-49006D02*
X58274Y-47825D01*
X58162Y-47994D01*
X58049Y-48107D01*
X57937Y-48163D01*
X59118Y-48894D02*
X59174Y-48950D01*
X59118Y-49006D01*
X59062Y-48950D01*
X59118Y-48894D01*
X59118Y-49006D01*
X60187Y-48219D02*
X60187Y-49006D01*
X59905Y-47769D02*
X59624Y-48613D01*
X60355Y-48613D01*
X61030Y-47825D02*
X61143Y-47825D01*
X61255Y-47882D01*
X61311Y-47938D01*
X61368Y-48050D01*
X61424Y-48275D01*
X61424Y-48557D01*
X61368Y-48781D01*
X61311Y-48894D01*
X61255Y-48950D01*
X61143Y-49006D01*
X61030Y-49006D01*
X60918Y-48950D01*
X60862Y-48894D01*
X60805Y-48781D01*
X60749Y-48557D01*
X60749Y-48275D01*
X60805Y-48050D01*
X60862Y-47938D01*
X60918Y-47882D01*
X61030Y-47825D01*
X61930Y-49006D02*
X61930Y-48219D01*
X61930Y-48332D02*
X61986Y-48275D01*
X62099Y-48219D01*
X62268Y-48219D01*
X62380Y-48275D01*
X62436Y-48388D01*
X62436Y-49006D01*
X62436Y-48388D02*
X62493Y-48275D01*
X62605Y-48219D01*
X62774Y-48219D01*
X62886Y-48275D01*
X62942Y-48388D01*
X62942Y-49006D01*
X63505Y-49006D02*
X63505Y-48219D01*
X63505Y-48332D02*
X63561Y-48275D01*
X63674Y-48219D01*
X63842Y-48219D01*
X63955Y-48275D01*
X64011Y-48388D01*
X64011Y-49006D01*
X64011Y-48388D02*
X64067Y-48275D01*
X64180Y-48219D01*
X64349Y-48219D01*
X64461Y-48275D01*
X64517Y-48388D01*
X64517Y-49006D01*
X66823Y-47769D02*
X65811Y-49288D01*
X68342Y-47825D02*
X68454Y-47825D01*
X68567Y-47882D01*
X68623Y-47938D01*
X68679Y-48050D01*
X68736Y-48275D01*
X68736Y-48557D01*
X68679Y-48781D01*
X68623Y-48894D01*
X68567Y-48950D01*
X68454Y-49006D01*
X68342Y-49006D01*
X68229Y-48950D01*
X68173Y-48894D01*
X68117Y-48781D01*
X68061Y-48557D01*
X68061Y-48275D01*
X68117Y-48050D01*
X68173Y-47938D01*
X68229Y-47882D01*
X68342Y-47825D01*
X69242Y-48894D02*
X69298Y-48950D01*
X69242Y-49006D01*
X69185Y-48950D01*
X69242Y-48894D01*
X69242Y-49006D01*
X70029Y-47825D02*
X70142Y-47825D01*
X70254Y-47882D01*
X70310Y-47938D01*
X70367Y-48050D01*
X70423Y-48275D01*
X70423Y-48557D01*
X70367Y-48781D01*
X70310Y-48894D01*
X70254Y-48950D01*
X70142Y-49006D01*
X70029Y-49006D01*
X69917Y-48950D01*
X69860Y-48894D01*
X69804Y-48781D01*
X69748Y-48557D01*
X69748Y-48275D01*
X69804Y-48050D01*
X69860Y-47938D01*
X69917Y-47882D01*
X70029Y-47825D01*
X71491Y-47825D02*
X70929Y-47825D01*
X70873Y-48388D01*
X70929Y-48332D01*
X71041Y-48275D01*
X71323Y-48275D01*
X71435Y-48332D01*
X71491Y-48388D01*
X71548Y-48500D01*
X71548Y-48781D01*
X71491Y-48894D01*
X71435Y-48950D01*
X71323Y-49006D01*
X71041Y-49006D01*
X70929Y-48950D01*
X70873Y-48894D01*
X72616Y-47825D02*
X72054Y-47825D01*
X71998Y-48388D01*
X72054Y-48332D01*
X72166Y-48275D01*
X72448Y-48275D01*
X72560Y-48332D01*
X72616Y-48388D01*
X72673Y-48500D01*
X72673Y-48781D01*
X72616Y-48894D01*
X72560Y-48950D01*
X72448Y-49006D01*
X72166Y-49006D01*
X72054Y-48950D01*
X71998Y-48894D01*
X73122Y-47825D02*
X73122Y-48050D01*
X73572Y-47825D02*
X73572Y-48050D01*
X75316Y-49456D02*
X75260Y-49400D01*
X75147Y-49231D01*
X75091Y-49119D01*
X75035Y-48950D01*
X74978Y-48669D01*
X74978Y-48444D01*
X75035Y-48163D01*
X75091Y-47994D01*
X75147Y-47882D01*
X75260Y-47713D01*
X75316Y-47657D01*
X75710Y-47938D02*
X75766Y-47882D01*
X75878Y-47825D01*
X76160Y-47825D01*
X76272Y-47882D01*
X76328Y-47938D01*
X76385Y-48050D01*
X76385Y-48163D01*
X76328Y-48332D01*
X75653Y-49006D01*
X76385Y-49006D01*
X77791Y-49006D02*
X77791Y-47825D01*
X78297Y-49006D02*
X78297Y-48388D01*
X78241Y-48275D01*
X78128Y-48219D01*
X77959Y-48219D01*
X77847Y-48275D01*
X77791Y-48332D01*
X79028Y-49006D02*
X78916Y-48950D01*
X78859Y-48894D01*
X78803Y-48781D01*
X78803Y-48444D01*
X78859Y-48332D01*
X78916Y-48275D01*
X79028Y-48219D01*
X79197Y-48219D01*
X79309Y-48275D01*
X79365Y-48332D01*
X79422Y-48444D01*
X79422Y-48781D01*
X79365Y-48894D01*
X79309Y-48950D01*
X79197Y-49006D01*
X79028Y-49006D01*
X80097Y-49006D02*
X79984Y-48950D01*
X79928Y-48838D01*
X79928Y-47825D01*
X80996Y-48950D02*
X80884Y-49006D01*
X80659Y-49006D01*
X80547Y-48950D01*
X80490Y-48838D01*
X80490Y-48388D01*
X80547Y-48275D01*
X80659Y-48219D01*
X80884Y-48219D01*
X80996Y-48275D01*
X81053Y-48388D01*
X81053Y-48500D01*
X80490Y-48613D01*
X81503Y-48950D02*
X81615Y-49006D01*
X81840Y-49006D01*
X81953Y-48950D01*
X82009Y-48838D01*
X82009Y-48781D01*
X81953Y-48669D01*
X81840Y-48613D01*
X81671Y-48613D01*
X81559Y-48557D01*
X81503Y-48444D01*
X81503Y-48388D01*
X81559Y-48275D01*
X81671Y-48219D01*
X81840Y-48219D01*
X81953Y-48275D01*
X82403Y-49456D02*
X82459Y-49400D01*
X82571Y-49231D01*
X82628Y-49119D01*
X82684Y-48950D01*
X82740Y-48669D01*
X82740Y-48444D01*
X82684Y-48163D01*
X82628Y-47994D01*
X82571Y-47882D01*
X82459Y-47713D01*
X82403Y-47657D01*
M02*
