G04 (created by PCBNEW (2013-mar-13)-testing) date jeu. 10 oct. 2013 21:07:33 CEST*
%MOIN*%
G04 Gerber Fmt 3.4, Leading zero omitted, Abs format*
%FSLAX34Y34*%
G01*
G70*
G90*
G04 APERTURE LIST*
%ADD10C,0.005906*%
%ADD11C,0.008000*%
%ADD12C,0.003900*%
%ADD13C,0.005000*%
%ADD14C,0.004300*%
G04 APERTURE END LIST*
G54D10*
G54D11*
X70925Y-27150D02*
X70925Y-26650D01*
X70925Y-26650D02*
X70675Y-26400D01*
X70175Y-26400D02*
X69925Y-26650D01*
X70675Y-28400D02*
X70925Y-28150D01*
X70925Y-28150D02*
X70925Y-27650D01*
X70925Y-27650D02*
X70675Y-27400D01*
X70175Y-27400D02*
X69925Y-27650D01*
X69925Y-27650D02*
X69925Y-28150D01*
X69925Y-28150D02*
X70175Y-28400D01*
X70925Y-27150D02*
X70675Y-27400D01*
X70175Y-27400D02*
X69925Y-27150D01*
X69925Y-26650D02*
X69925Y-27150D01*
X70925Y-30150D02*
X70925Y-29650D01*
X70925Y-29650D02*
X70675Y-29400D01*
X70175Y-29400D02*
X69925Y-29650D01*
X70675Y-29400D02*
X70925Y-29150D01*
X70925Y-29150D02*
X70925Y-28650D01*
X70925Y-28650D02*
X70675Y-28400D01*
X70175Y-28400D02*
X69925Y-28650D01*
X69925Y-28650D02*
X69925Y-29150D01*
X69925Y-29150D02*
X70175Y-29400D01*
X70675Y-31400D02*
X70925Y-31150D01*
X70925Y-31150D02*
X70925Y-30650D01*
X70925Y-30650D02*
X70675Y-30400D01*
X70175Y-30400D02*
X69925Y-30650D01*
X69925Y-30650D02*
X69925Y-31150D01*
X69925Y-31150D02*
X70175Y-31400D01*
X70925Y-30150D02*
X70675Y-30400D01*
X70175Y-30400D02*
X69925Y-30150D01*
X69925Y-29650D02*
X69925Y-30150D01*
X70925Y-33150D02*
X70925Y-32650D01*
X70925Y-32650D02*
X70675Y-32400D01*
X70175Y-32400D02*
X69925Y-32650D01*
X70675Y-32400D02*
X70925Y-32150D01*
X70925Y-32150D02*
X70925Y-31650D01*
X70925Y-31650D02*
X70675Y-31400D01*
X70175Y-31400D02*
X69925Y-31650D01*
X69925Y-31650D02*
X69925Y-32150D01*
X69925Y-32150D02*
X70175Y-32400D01*
X70675Y-33400D02*
X70175Y-33400D01*
X70925Y-33150D02*
X70675Y-33400D01*
X70175Y-33400D02*
X69925Y-33150D01*
X69925Y-32650D02*
X69925Y-33150D01*
X70925Y-26150D02*
X70925Y-25650D01*
X70925Y-25650D02*
X70675Y-25400D01*
X70175Y-25400D02*
X69925Y-25650D01*
X70925Y-26150D02*
X70675Y-26400D01*
X70175Y-26400D02*
X69925Y-26150D01*
X69925Y-25650D02*
X69925Y-26150D01*
X70925Y-25150D02*
X70925Y-24650D01*
X70925Y-24650D02*
X70675Y-24400D01*
X70175Y-24400D02*
X69925Y-24650D01*
X70925Y-25150D02*
X70675Y-25400D01*
X70175Y-25400D02*
X69925Y-25150D01*
X69925Y-24650D02*
X69925Y-25150D01*
X70925Y-24150D02*
X70925Y-23650D01*
X70925Y-23650D02*
X70675Y-23400D01*
X70175Y-23400D02*
X69925Y-23650D01*
X70925Y-24150D02*
X70675Y-24400D01*
X70175Y-24400D02*
X69925Y-24150D01*
X69925Y-23650D02*
X69925Y-24150D01*
X70925Y-23150D02*
X70925Y-22650D01*
X70925Y-22650D02*
X70675Y-22400D01*
X70175Y-22400D02*
X69925Y-22650D01*
X70925Y-23150D02*
X70675Y-23400D01*
X70175Y-23400D02*
X69925Y-23150D01*
X69925Y-22650D02*
X69925Y-23150D01*
X70925Y-22150D02*
X70925Y-21650D01*
X70925Y-21650D02*
X70675Y-21400D01*
X70675Y-21400D02*
X70175Y-21400D01*
X70175Y-21400D02*
X69925Y-21650D01*
X70925Y-22150D02*
X70675Y-22400D01*
X70175Y-22400D02*
X69925Y-22150D01*
X69925Y-21650D02*
X69925Y-22150D01*
X75925Y-27650D02*
X75925Y-28150D01*
X75925Y-28150D02*
X76175Y-28400D01*
X76675Y-28400D02*
X76925Y-28150D01*
X76175Y-26400D02*
X75925Y-26650D01*
X75925Y-26650D02*
X75925Y-27150D01*
X75925Y-27150D02*
X76175Y-27400D01*
X76675Y-27400D02*
X76925Y-27150D01*
X76925Y-27150D02*
X76925Y-26650D01*
X76925Y-26650D02*
X76675Y-26400D01*
X75925Y-27650D02*
X76175Y-27400D01*
X76675Y-27400D02*
X76925Y-27650D01*
X76925Y-28150D02*
X76925Y-27650D01*
X75925Y-24650D02*
X75925Y-25150D01*
X75925Y-25150D02*
X76175Y-25400D01*
X76675Y-25400D02*
X76925Y-25150D01*
X76175Y-25400D02*
X75925Y-25650D01*
X75925Y-25650D02*
X75925Y-26150D01*
X75925Y-26150D02*
X76175Y-26400D01*
X76675Y-26400D02*
X76925Y-26150D01*
X76925Y-26150D02*
X76925Y-25650D01*
X76925Y-25650D02*
X76675Y-25400D01*
X76175Y-23400D02*
X75925Y-23650D01*
X75925Y-23650D02*
X75925Y-24150D01*
X75925Y-24150D02*
X76175Y-24400D01*
X76675Y-24400D02*
X76925Y-24150D01*
X76925Y-24150D02*
X76925Y-23650D01*
X76925Y-23650D02*
X76675Y-23400D01*
X75925Y-24650D02*
X76175Y-24400D01*
X76675Y-24400D02*
X76925Y-24650D01*
X76925Y-25150D02*
X76925Y-24650D01*
X75925Y-21650D02*
X75925Y-22150D01*
X75925Y-22150D02*
X76175Y-22400D01*
X76675Y-22400D02*
X76925Y-22150D01*
X76175Y-22400D02*
X75925Y-22650D01*
X75925Y-22650D02*
X75925Y-23150D01*
X75925Y-23150D02*
X76175Y-23400D01*
X76675Y-23400D02*
X76925Y-23150D01*
X76925Y-23150D02*
X76925Y-22650D01*
X76925Y-22650D02*
X76675Y-22400D01*
X76175Y-21400D02*
X76675Y-21400D01*
X75925Y-21650D02*
X76175Y-21400D01*
X76675Y-21400D02*
X76925Y-21650D01*
X76925Y-22150D02*
X76925Y-21650D01*
X75925Y-28650D02*
X75925Y-29150D01*
X75925Y-29150D02*
X76175Y-29400D01*
X76675Y-29400D02*
X76925Y-29150D01*
X75925Y-28650D02*
X76175Y-28400D01*
X76675Y-28400D02*
X76925Y-28650D01*
X76925Y-29150D02*
X76925Y-28650D01*
X75925Y-29650D02*
X75925Y-30150D01*
X75925Y-30150D02*
X76175Y-30400D01*
X76675Y-30400D02*
X76925Y-30150D01*
X75925Y-29650D02*
X76175Y-29400D01*
X76675Y-29400D02*
X76925Y-29650D01*
X76925Y-30150D02*
X76925Y-29650D01*
X75925Y-30650D02*
X75925Y-31150D01*
X75925Y-31150D02*
X76175Y-31400D01*
X76675Y-31400D02*
X76925Y-31150D01*
X75925Y-30650D02*
X76175Y-30400D01*
X76675Y-30400D02*
X76925Y-30650D01*
X76925Y-31150D02*
X76925Y-30650D01*
X75925Y-31650D02*
X75925Y-32150D01*
X75925Y-32150D02*
X76175Y-32400D01*
X76675Y-32400D02*
X76925Y-32150D01*
X75925Y-31650D02*
X76175Y-31400D01*
X76675Y-31400D02*
X76925Y-31650D01*
X76925Y-32150D02*
X76925Y-31650D01*
X75925Y-32650D02*
X75925Y-33150D01*
X75925Y-33150D02*
X76175Y-33400D01*
X76175Y-33400D02*
X76675Y-33400D01*
X76675Y-33400D02*
X76925Y-33150D01*
X75925Y-32650D02*
X76175Y-32400D01*
X76675Y-32400D02*
X76925Y-32650D01*
X76925Y-33150D02*
X76925Y-32650D01*
G54D12*
X62400Y-32700D02*
G75*
G03X62400Y-32700I-50J0D01*
G74*
G01*
X62800Y-32700D02*
X62400Y-32700D01*
X62400Y-32700D02*
X62400Y-33300D01*
X62400Y-33300D02*
X62800Y-33300D01*
X63200Y-33300D02*
X63600Y-33300D01*
X63600Y-33300D02*
X63600Y-32700D01*
X63600Y-32700D02*
X63200Y-32700D01*
X62650Y-23200D02*
G75*
G03X62650Y-23200I-50J0D01*
G74*
G01*
X63050Y-23200D02*
X62650Y-23200D01*
X62650Y-23200D02*
X62650Y-23800D01*
X62650Y-23800D02*
X63050Y-23800D01*
X63450Y-23800D02*
X63850Y-23800D01*
X63850Y-23800D02*
X63850Y-23200D01*
X63850Y-23200D02*
X63450Y-23200D01*
X62400Y-13950D02*
G75*
G03X62400Y-13950I-50J0D01*
G74*
G01*
X62800Y-13950D02*
X62400Y-13950D01*
X62400Y-13950D02*
X62400Y-14550D01*
X62400Y-14550D02*
X62800Y-14550D01*
X63200Y-14550D02*
X63600Y-14550D01*
X63600Y-14550D02*
X63600Y-13950D01*
X63600Y-13950D02*
X63200Y-13950D01*
X85700Y-22050D02*
G75*
G03X85700Y-22050I-50J0D01*
G74*
G01*
X85200Y-22050D02*
X85600Y-22050D01*
X85600Y-22050D02*
X85600Y-21450D01*
X85600Y-21450D02*
X85200Y-21450D01*
X84800Y-21450D02*
X84400Y-21450D01*
X84400Y-21450D02*
X84400Y-22050D01*
X84400Y-22050D02*
X84800Y-22050D01*
X85700Y-30800D02*
G75*
G03X85700Y-30800I-50J0D01*
G74*
G01*
X85200Y-30800D02*
X85600Y-30800D01*
X85600Y-30800D02*
X85600Y-30200D01*
X85600Y-30200D02*
X85200Y-30200D01*
X84800Y-30200D02*
X84400Y-30200D01*
X84400Y-30200D02*
X84400Y-30800D01*
X84400Y-30800D02*
X84800Y-30800D01*
X85700Y-39550D02*
G75*
G03X85700Y-39550I-50J0D01*
G74*
G01*
X85200Y-39550D02*
X85600Y-39550D01*
X85600Y-39550D02*
X85600Y-38950D01*
X85600Y-38950D02*
X85200Y-38950D01*
X84800Y-38950D02*
X84400Y-38950D01*
X84400Y-38950D02*
X84400Y-39550D01*
X84400Y-39550D02*
X84800Y-39550D01*
G54D13*
X67350Y-34900D02*
X66650Y-34900D01*
X66650Y-34900D02*
X66650Y-36100D01*
X66650Y-36100D02*
X67350Y-36100D01*
X67350Y-36100D02*
X67350Y-34900D01*
X67350Y-28375D02*
X66650Y-28375D01*
X66650Y-28375D02*
X66650Y-29575D01*
X66650Y-29575D02*
X67350Y-29575D01*
X67350Y-29575D02*
X67350Y-28375D01*
X67350Y-18200D02*
X66650Y-18200D01*
X66650Y-18200D02*
X66650Y-19400D01*
X66650Y-19400D02*
X67350Y-19400D01*
X67350Y-19400D02*
X67350Y-18200D01*
X81000Y-20900D02*
X81700Y-20900D01*
X81700Y-20900D02*
X81700Y-19700D01*
X81700Y-19700D02*
X81000Y-19700D01*
X81000Y-19700D02*
X81000Y-20900D01*
X81000Y-29700D02*
X81700Y-29700D01*
X81700Y-29700D02*
X81700Y-28500D01*
X81700Y-28500D02*
X81000Y-28500D01*
X81000Y-28500D02*
X81000Y-29700D01*
X80875Y-36575D02*
X81575Y-36575D01*
X81575Y-36575D02*
X81575Y-35375D01*
X81575Y-35375D02*
X80875Y-35375D01*
X80875Y-35375D02*
X80875Y-36575D01*
G54D14*
X63032Y-33214D02*
X63098Y-33120D01*
X63145Y-33214D02*
X63145Y-33017D01*
X63070Y-33017D01*
X63051Y-33026D01*
X63042Y-33035D01*
X63032Y-33054D01*
X63032Y-33082D01*
X63042Y-33101D01*
X63051Y-33110D01*
X63070Y-33120D01*
X63145Y-33120D01*
X62845Y-33214D02*
X62957Y-33214D01*
X62901Y-33214D02*
X62901Y-33017D01*
X62920Y-33045D01*
X62939Y-33064D01*
X62957Y-33073D01*
X63023Y-32939D02*
X63136Y-32939D01*
X63079Y-32939D02*
X63079Y-32742D01*
X63098Y-32770D01*
X63117Y-32789D01*
X63136Y-32798D01*
X62939Y-32939D02*
X62939Y-32742D01*
X62920Y-32864D02*
X62863Y-32939D01*
X62863Y-32807D02*
X62939Y-32882D01*
X63282Y-23714D02*
X63348Y-23620D01*
X63395Y-23714D02*
X63395Y-23517D01*
X63320Y-23517D01*
X63301Y-23526D01*
X63292Y-23535D01*
X63282Y-23554D01*
X63282Y-23582D01*
X63292Y-23601D01*
X63301Y-23610D01*
X63320Y-23620D01*
X63395Y-23620D01*
X63207Y-23535D02*
X63198Y-23526D01*
X63179Y-23517D01*
X63132Y-23517D01*
X63113Y-23526D01*
X63104Y-23535D01*
X63095Y-23554D01*
X63095Y-23573D01*
X63104Y-23601D01*
X63217Y-23714D01*
X63095Y-23714D01*
X63273Y-23439D02*
X63386Y-23439D01*
X63329Y-23439D02*
X63329Y-23242D01*
X63348Y-23270D01*
X63367Y-23289D01*
X63386Y-23298D01*
X63189Y-23439D02*
X63189Y-23242D01*
X63170Y-23364D02*
X63113Y-23439D01*
X63113Y-23307D02*
X63189Y-23382D01*
X63032Y-14464D02*
X63098Y-14370D01*
X63145Y-14464D02*
X63145Y-14267D01*
X63070Y-14267D01*
X63051Y-14276D01*
X63042Y-14285D01*
X63032Y-14304D01*
X63032Y-14332D01*
X63042Y-14351D01*
X63051Y-14360D01*
X63070Y-14370D01*
X63145Y-14370D01*
X62967Y-14267D02*
X62845Y-14267D01*
X62910Y-14342D01*
X62882Y-14342D01*
X62863Y-14351D01*
X62854Y-14360D01*
X62845Y-14379D01*
X62845Y-14426D01*
X62854Y-14445D01*
X62863Y-14454D01*
X62882Y-14464D01*
X62939Y-14464D01*
X62957Y-14454D01*
X62967Y-14445D01*
X63023Y-14189D02*
X63136Y-14189D01*
X63079Y-14189D02*
X63079Y-13992D01*
X63098Y-14020D01*
X63117Y-14039D01*
X63136Y-14048D01*
X62939Y-14189D02*
X62939Y-13992D01*
X62920Y-14114D02*
X62863Y-14189D01*
X62863Y-14057D02*
X62939Y-14132D01*
X85032Y-21714D02*
X85098Y-21620D01*
X85145Y-21714D02*
X85145Y-21517D01*
X85070Y-21517D01*
X85051Y-21526D01*
X85042Y-21535D01*
X85032Y-21554D01*
X85032Y-21582D01*
X85042Y-21601D01*
X85051Y-21610D01*
X85070Y-21620D01*
X85145Y-21620D01*
X84863Y-21582D02*
X84863Y-21714D01*
X84910Y-21507D02*
X84957Y-21648D01*
X84835Y-21648D01*
X85023Y-21989D02*
X85136Y-21989D01*
X85079Y-21989D02*
X85079Y-21792D01*
X85098Y-21820D01*
X85117Y-21839D01*
X85136Y-21848D01*
X84939Y-21989D02*
X84939Y-21792D01*
X84920Y-21914D02*
X84863Y-21989D01*
X84863Y-21857D02*
X84939Y-21932D01*
X84982Y-30389D02*
X85048Y-30295D01*
X85095Y-30389D02*
X85095Y-30192D01*
X85020Y-30192D01*
X85001Y-30201D01*
X84992Y-30210D01*
X84982Y-30229D01*
X84982Y-30257D01*
X84992Y-30276D01*
X85001Y-30285D01*
X85020Y-30295D01*
X85095Y-30295D01*
X84804Y-30192D02*
X84898Y-30192D01*
X84907Y-30285D01*
X84898Y-30276D01*
X84879Y-30267D01*
X84832Y-30267D01*
X84813Y-30276D01*
X84804Y-30285D01*
X84795Y-30304D01*
X84795Y-30351D01*
X84804Y-30370D01*
X84813Y-30379D01*
X84832Y-30389D01*
X84879Y-30389D01*
X84898Y-30379D01*
X84907Y-30370D01*
X85023Y-30739D02*
X85136Y-30739D01*
X85079Y-30739D02*
X85079Y-30542D01*
X85098Y-30570D01*
X85117Y-30589D01*
X85136Y-30598D01*
X84939Y-30739D02*
X84939Y-30542D01*
X84920Y-30664D02*
X84863Y-30739D01*
X84863Y-30607D02*
X84939Y-30682D01*
X85032Y-39214D02*
X85098Y-39120D01*
X85145Y-39214D02*
X85145Y-39017D01*
X85070Y-39017D01*
X85051Y-39026D01*
X85042Y-39035D01*
X85032Y-39054D01*
X85032Y-39082D01*
X85042Y-39101D01*
X85051Y-39110D01*
X85070Y-39120D01*
X85145Y-39120D01*
X84863Y-39017D02*
X84901Y-39017D01*
X84920Y-39026D01*
X84929Y-39035D01*
X84948Y-39064D01*
X84957Y-39101D01*
X84957Y-39176D01*
X84948Y-39195D01*
X84939Y-39204D01*
X84920Y-39214D01*
X84882Y-39214D01*
X84863Y-39204D01*
X84854Y-39195D01*
X84845Y-39176D01*
X84845Y-39129D01*
X84854Y-39110D01*
X84863Y-39101D01*
X84882Y-39092D01*
X84920Y-39092D01*
X84939Y-39101D01*
X84948Y-39110D01*
X84957Y-39129D01*
X85023Y-39489D02*
X85136Y-39489D01*
X85079Y-39489D02*
X85079Y-39292D01*
X85098Y-39320D01*
X85117Y-39339D01*
X85136Y-39348D01*
X84939Y-39489D02*
X84939Y-39292D01*
X84920Y-39414D02*
X84863Y-39489D01*
X84863Y-39357D02*
X84939Y-39432D01*
G54D13*
X67308Y-34497D02*
X67308Y-34699D01*
X67296Y-34723D01*
X67284Y-34735D01*
X67260Y-34747D01*
X67213Y-34747D01*
X67189Y-34735D01*
X67177Y-34723D01*
X67165Y-34699D01*
X67165Y-34497D01*
X66915Y-34747D02*
X67058Y-34747D01*
X66987Y-34747D02*
X66987Y-34497D01*
X67010Y-34532D01*
X67034Y-34556D01*
X67058Y-34568D01*
X66886Y-34845D02*
X66875Y-34857D01*
X66863Y-34880D01*
X66863Y-34940D01*
X66875Y-34964D01*
X66886Y-34976D01*
X66910Y-34988D01*
X66934Y-34988D01*
X66970Y-34976D01*
X67113Y-34833D01*
X67113Y-34988D01*
X66946Y-35202D02*
X67113Y-35202D01*
X66851Y-35142D02*
X67029Y-35083D01*
X67029Y-35238D01*
X67113Y-35452D02*
X67113Y-35333D01*
X66863Y-35333D01*
X67089Y-35678D02*
X67101Y-35666D01*
X67113Y-35630D01*
X67113Y-35607D01*
X67101Y-35571D01*
X67077Y-35547D01*
X67053Y-35535D01*
X67005Y-35523D01*
X66970Y-35523D01*
X66922Y-35535D01*
X66898Y-35547D01*
X66875Y-35571D01*
X66863Y-35607D01*
X66863Y-35630D01*
X66875Y-35666D01*
X66886Y-35678D01*
X66863Y-35833D02*
X66863Y-35857D01*
X66875Y-35880D01*
X66886Y-35892D01*
X66910Y-35904D01*
X66958Y-35916D01*
X67017Y-35916D01*
X67065Y-35904D01*
X67089Y-35892D01*
X67101Y-35880D01*
X67113Y-35857D01*
X67113Y-35833D01*
X67101Y-35809D01*
X67089Y-35797D01*
X67065Y-35785D01*
X67017Y-35773D01*
X66958Y-35773D01*
X66910Y-35785D01*
X66886Y-35797D01*
X66875Y-35809D01*
X66863Y-35833D01*
X67113Y-36154D02*
X67113Y-36011D01*
X67113Y-36083D02*
X66863Y-36083D01*
X66898Y-36059D01*
X66922Y-36035D01*
X66934Y-36011D01*
X67308Y-27972D02*
X67308Y-28174D01*
X67296Y-28198D01*
X67284Y-28210D01*
X67260Y-28222D01*
X67213Y-28222D01*
X67189Y-28210D01*
X67177Y-28198D01*
X67165Y-28174D01*
X67165Y-27972D01*
X67058Y-27995D02*
X67046Y-27984D01*
X67022Y-27972D01*
X66963Y-27972D01*
X66939Y-27984D01*
X66927Y-27995D01*
X66915Y-28019D01*
X66915Y-28043D01*
X66927Y-28079D01*
X67070Y-28222D01*
X66915Y-28222D01*
X66886Y-28320D02*
X66875Y-28332D01*
X66863Y-28355D01*
X66863Y-28415D01*
X66875Y-28439D01*
X66886Y-28451D01*
X66910Y-28463D01*
X66934Y-28463D01*
X66970Y-28451D01*
X67113Y-28308D01*
X67113Y-28463D01*
X66946Y-28677D02*
X67113Y-28677D01*
X66851Y-28617D02*
X67029Y-28558D01*
X67029Y-28713D01*
X67113Y-28927D02*
X67113Y-28808D01*
X66863Y-28808D01*
X67089Y-29153D02*
X67101Y-29141D01*
X67113Y-29105D01*
X67113Y-29082D01*
X67101Y-29046D01*
X67077Y-29022D01*
X67053Y-29010D01*
X67005Y-28998D01*
X66970Y-28998D01*
X66922Y-29010D01*
X66898Y-29022D01*
X66875Y-29046D01*
X66863Y-29082D01*
X66863Y-29105D01*
X66875Y-29141D01*
X66886Y-29153D01*
X66863Y-29308D02*
X66863Y-29332D01*
X66875Y-29355D01*
X66886Y-29367D01*
X66910Y-29379D01*
X66958Y-29391D01*
X67017Y-29391D01*
X67065Y-29379D01*
X67089Y-29367D01*
X67101Y-29355D01*
X67113Y-29332D01*
X67113Y-29308D01*
X67101Y-29284D01*
X67089Y-29272D01*
X67065Y-29260D01*
X67017Y-29248D01*
X66958Y-29248D01*
X66910Y-29260D01*
X66886Y-29272D01*
X66875Y-29284D01*
X66863Y-29308D01*
X67113Y-29629D02*
X67113Y-29486D01*
X67113Y-29558D02*
X66863Y-29558D01*
X66898Y-29534D01*
X66922Y-29510D01*
X66934Y-29486D01*
X67308Y-17797D02*
X67308Y-17999D01*
X67296Y-18023D01*
X67284Y-18035D01*
X67260Y-18047D01*
X67213Y-18047D01*
X67189Y-18035D01*
X67177Y-18023D01*
X67165Y-17999D01*
X67165Y-17797D01*
X67070Y-17797D02*
X66915Y-17797D01*
X66998Y-17892D01*
X66963Y-17892D01*
X66939Y-17904D01*
X66927Y-17916D01*
X66915Y-17939D01*
X66915Y-17999D01*
X66927Y-18023D01*
X66939Y-18035D01*
X66963Y-18047D01*
X67034Y-18047D01*
X67058Y-18035D01*
X67070Y-18023D01*
X66886Y-18145D02*
X66875Y-18157D01*
X66863Y-18180D01*
X66863Y-18240D01*
X66875Y-18264D01*
X66886Y-18276D01*
X66910Y-18288D01*
X66934Y-18288D01*
X66970Y-18276D01*
X67113Y-18133D01*
X67113Y-18288D01*
X66946Y-18502D02*
X67113Y-18502D01*
X66851Y-18442D02*
X67029Y-18383D01*
X67029Y-18538D01*
X67113Y-18752D02*
X67113Y-18633D01*
X66863Y-18633D01*
X67089Y-18978D02*
X67101Y-18966D01*
X67113Y-18930D01*
X67113Y-18907D01*
X67101Y-18871D01*
X67077Y-18847D01*
X67053Y-18835D01*
X67005Y-18823D01*
X66970Y-18823D01*
X66922Y-18835D01*
X66898Y-18847D01*
X66875Y-18871D01*
X66863Y-18907D01*
X66863Y-18930D01*
X66875Y-18966D01*
X66886Y-18978D01*
X66863Y-19133D02*
X66863Y-19157D01*
X66875Y-19180D01*
X66886Y-19192D01*
X66910Y-19204D01*
X66958Y-19216D01*
X67017Y-19216D01*
X67065Y-19204D01*
X67089Y-19192D01*
X67101Y-19180D01*
X67113Y-19157D01*
X67113Y-19133D01*
X67101Y-19109D01*
X67089Y-19097D01*
X67065Y-19085D01*
X67017Y-19073D01*
X66958Y-19073D01*
X66910Y-19085D01*
X66886Y-19097D01*
X66875Y-19109D01*
X66863Y-19133D01*
X67113Y-19454D02*
X67113Y-19311D01*
X67113Y-19383D02*
X66863Y-19383D01*
X66898Y-19359D01*
X66922Y-19335D01*
X66934Y-19311D01*
X81422Y-21029D02*
X81422Y-21231D01*
X81410Y-21255D01*
X81398Y-21267D01*
X81374Y-21279D01*
X81327Y-21279D01*
X81303Y-21267D01*
X81291Y-21255D01*
X81279Y-21231D01*
X81279Y-21029D01*
X81053Y-21112D02*
X81053Y-21279D01*
X81112Y-21017D02*
X81172Y-21195D01*
X81017Y-21195D01*
X81236Y-19645D02*
X81225Y-19657D01*
X81213Y-19680D01*
X81213Y-19740D01*
X81225Y-19764D01*
X81236Y-19776D01*
X81260Y-19788D01*
X81284Y-19788D01*
X81320Y-19776D01*
X81463Y-19633D01*
X81463Y-19788D01*
X81296Y-20002D02*
X81463Y-20002D01*
X81201Y-19942D02*
X81379Y-19883D01*
X81379Y-20038D01*
X81463Y-20252D02*
X81463Y-20133D01*
X81213Y-20133D01*
X81439Y-20478D02*
X81451Y-20466D01*
X81463Y-20430D01*
X81463Y-20407D01*
X81451Y-20371D01*
X81427Y-20347D01*
X81403Y-20335D01*
X81355Y-20323D01*
X81320Y-20323D01*
X81272Y-20335D01*
X81248Y-20347D01*
X81225Y-20371D01*
X81213Y-20407D01*
X81213Y-20430D01*
X81225Y-20466D01*
X81236Y-20478D01*
X81213Y-20633D02*
X81213Y-20657D01*
X81225Y-20680D01*
X81236Y-20692D01*
X81260Y-20704D01*
X81308Y-20716D01*
X81367Y-20716D01*
X81415Y-20704D01*
X81439Y-20692D01*
X81451Y-20680D01*
X81463Y-20657D01*
X81463Y-20633D01*
X81451Y-20609D01*
X81439Y-20597D01*
X81415Y-20585D01*
X81367Y-20573D01*
X81308Y-20573D01*
X81260Y-20585D01*
X81236Y-20597D01*
X81225Y-20609D01*
X81213Y-20633D01*
X81463Y-20954D02*
X81463Y-20811D01*
X81463Y-20883D02*
X81213Y-20883D01*
X81248Y-20859D01*
X81272Y-20835D01*
X81284Y-20811D01*
X81422Y-29829D02*
X81422Y-30031D01*
X81410Y-30055D01*
X81398Y-30067D01*
X81374Y-30079D01*
X81327Y-30079D01*
X81303Y-30067D01*
X81291Y-30055D01*
X81279Y-30031D01*
X81279Y-29829D01*
X81041Y-29829D02*
X81160Y-29829D01*
X81172Y-29948D01*
X81160Y-29936D01*
X81136Y-29924D01*
X81077Y-29924D01*
X81053Y-29936D01*
X81041Y-29948D01*
X81029Y-29971D01*
X81029Y-30031D01*
X81041Y-30055D01*
X81053Y-30067D01*
X81077Y-30079D01*
X81136Y-30079D01*
X81160Y-30067D01*
X81172Y-30055D01*
X81236Y-28445D02*
X81225Y-28457D01*
X81213Y-28480D01*
X81213Y-28540D01*
X81225Y-28564D01*
X81236Y-28576D01*
X81260Y-28588D01*
X81284Y-28588D01*
X81320Y-28576D01*
X81463Y-28433D01*
X81463Y-28588D01*
X81296Y-28802D02*
X81463Y-28802D01*
X81201Y-28742D02*
X81379Y-28683D01*
X81379Y-28838D01*
X81463Y-29052D02*
X81463Y-28933D01*
X81213Y-28933D01*
X81439Y-29278D02*
X81451Y-29266D01*
X81463Y-29230D01*
X81463Y-29207D01*
X81451Y-29171D01*
X81427Y-29147D01*
X81403Y-29135D01*
X81355Y-29123D01*
X81320Y-29123D01*
X81272Y-29135D01*
X81248Y-29147D01*
X81225Y-29171D01*
X81213Y-29207D01*
X81213Y-29230D01*
X81225Y-29266D01*
X81236Y-29278D01*
X81213Y-29433D02*
X81213Y-29457D01*
X81225Y-29480D01*
X81236Y-29492D01*
X81260Y-29504D01*
X81308Y-29516D01*
X81367Y-29516D01*
X81415Y-29504D01*
X81439Y-29492D01*
X81451Y-29480D01*
X81463Y-29457D01*
X81463Y-29433D01*
X81451Y-29409D01*
X81439Y-29397D01*
X81415Y-29385D01*
X81367Y-29373D01*
X81308Y-29373D01*
X81260Y-29385D01*
X81236Y-29397D01*
X81225Y-29409D01*
X81213Y-29433D01*
X81463Y-29754D02*
X81463Y-29611D01*
X81463Y-29683D02*
X81213Y-29683D01*
X81248Y-29659D01*
X81272Y-29635D01*
X81284Y-29611D01*
X81297Y-36704D02*
X81297Y-36906D01*
X81285Y-36930D01*
X81273Y-36942D01*
X81249Y-36954D01*
X81202Y-36954D01*
X81178Y-36942D01*
X81166Y-36930D01*
X81154Y-36906D01*
X81154Y-36704D01*
X80928Y-36704D02*
X80976Y-36704D01*
X80999Y-36716D01*
X81011Y-36727D01*
X81035Y-36763D01*
X81047Y-36811D01*
X81047Y-36906D01*
X81035Y-36930D01*
X81023Y-36942D01*
X80999Y-36954D01*
X80952Y-36954D01*
X80928Y-36942D01*
X80916Y-36930D01*
X80904Y-36906D01*
X80904Y-36846D01*
X80916Y-36823D01*
X80928Y-36811D01*
X80952Y-36799D01*
X80999Y-36799D01*
X81023Y-36811D01*
X81035Y-36823D01*
X81047Y-36846D01*
X81111Y-35320D02*
X81100Y-35332D01*
X81088Y-35355D01*
X81088Y-35415D01*
X81100Y-35439D01*
X81111Y-35451D01*
X81135Y-35463D01*
X81159Y-35463D01*
X81195Y-35451D01*
X81338Y-35308D01*
X81338Y-35463D01*
X81171Y-35677D02*
X81338Y-35677D01*
X81076Y-35617D02*
X81254Y-35558D01*
X81254Y-35713D01*
X81338Y-35927D02*
X81338Y-35808D01*
X81088Y-35808D01*
X81314Y-36153D02*
X81326Y-36141D01*
X81338Y-36105D01*
X81338Y-36082D01*
X81326Y-36046D01*
X81302Y-36022D01*
X81278Y-36010D01*
X81230Y-35998D01*
X81195Y-35998D01*
X81147Y-36010D01*
X81123Y-36022D01*
X81100Y-36046D01*
X81088Y-36082D01*
X81088Y-36105D01*
X81100Y-36141D01*
X81111Y-36153D01*
X81088Y-36308D02*
X81088Y-36332D01*
X81100Y-36355D01*
X81111Y-36367D01*
X81135Y-36379D01*
X81183Y-36391D01*
X81242Y-36391D01*
X81290Y-36379D01*
X81314Y-36367D01*
X81326Y-36355D01*
X81338Y-36332D01*
X81338Y-36308D01*
X81326Y-36284D01*
X81314Y-36272D01*
X81290Y-36260D01*
X81242Y-36248D01*
X81183Y-36248D01*
X81135Y-36260D01*
X81111Y-36272D01*
X81100Y-36284D01*
X81088Y-36308D01*
X81338Y-36629D02*
X81338Y-36486D01*
X81338Y-36558D02*
X81088Y-36558D01*
X81123Y-36534D01*
X81147Y-36510D01*
X81159Y-36486D01*
M02*
