G04 (created by PCBNEW (2013-mar-13)-testing) date jeu. 10 oct. 2013 21:07:33 CEST*
%MOIN*%
G04 Gerber Fmt 3.4, Leading zero omitted, Abs format*
%FSLAX34Y34*%
G01*
G70*
G90*
G04 APERTURE LIST*
%ADD10C,0.005906*%
%ADD11R,0.060000X0.060000*%
%ADD12C,0.067874*%
%ADD13C,0.060000*%
%ADD14O,0.074000X0.074000*%
%ADD15R,0.035000X0.055000*%
%ADD16R,0.030000X0.020000*%
%ADD17R,0.082677X0.082677*%
%ADD18C,0.082677*%
%ADD19C,0.039370*%
%ADD20C,0.055118*%
%ADD21C,0.015748*%
%ADD22C,0.008000*%
%ADD23C,0.013780*%
%ADD24C,0.010000*%
G04 APERTURE END LIST*
G54D10*
G54D11*
X84459Y-15986D03*
G54D12*
X85459Y-15986D03*
X84459Y-16986D03*
X85459Y-16986D03*
X84459Y-17986D03*
X85459Y-17986D03*
X84459Y-18986D03*
X85459Y-18986D03*
X84459Y-19986D03*
X85459Y-19986D03*
G54D11*
X88550Y-36700D03*
G54D13*
X88550Y-35700D03*
X88550Y-34700D03*
G54D11*
X88550Y-27700D03*
G54D13*
X88550Y-26700D03*
X88550Y-25700D03*
G54D11*
X88550Y-19200D03*
G54D13*
X88550Y-18200D03*
X88550Y-17200D03*
G54D11*
X59450Y-35550D03*
G54D13*
X59450Y-36550D03*
X59450Y-37550D03*
G54D11*
X59450Y-17050D03*
G54D13*
X59450Y-18050D03*
X59450Y-19050D03*
G54D11*
X63541Y-38514D03*
G54D12*
X62541Y-38514D03*
X63541Y-37514D03*
X62541Y-37514D03*
X63541Y-36514D03*
X62541Y-36514D03*
X63541Y-35514D03*
X62541Y-35514D03*
X63541Y-34514D03*
X62541Y-34514D03*
G54D11*
X63541Y-29014D03*
G54D12*
X62541Y-29014D03*
X63541Y-28014D03*
X62541Y-28014D03*
X63541Y-27014D03*
X62541Y-27014D03*
X63541Y-26014D03*
X62541Y-26014D03*
X63541Y-25014D03*
X62541Y-25014D03*
G54D11*
X63541Y-19764D03*
G54D12*
X62541Y-19764D03*
X63541Y-18764D03*
X62541Y-18764D03*
X63541Y-17764D03*
X62541Y-17764D03*
X63541Y-16764D03*
X62541Y-16764D03*
X63541Y-15764D03*
X62541Y-15764D03*
G54D11*
X84459Y-24986D03*
G54D12*
X85459Y-24986D03*
X84459Y-25986D03*
X85459Y-25986D03*
X84459Y-26986D03*
X85459Y-26986D03*
X84459Y-27986D03*
X85459Y-27986D03*
X84459Y-28986D03*
X85459Y-28986D03*
G54D11*
X84459Y-33986D03*
G54D12*
X85459Y-33986D03*
X84459Y-34986D03*
X85459Y-34986D03*
X84459Y-35986D03*
X85459Y-35986D03*
X84459Y-36986D03*
X85459Y-36986D03*
X84459Y-37986D03*
X85459Y-37986D03*
G54D14*
X70425Y-32900D03*
X70425Y-31900D03*
X70425Y-30900D03*
X70425Y-29900D03*
X70425Y-28900D03*
X70425Y-27900D03*
X70425Y-26900D03*
X70425Y-25900D03*
X70425Y-24900D03*
X70425Y-23900D03*
X70425Y-22900D03*
X70425Y-21900D03*
X76425Y-21900D03*
X76425Y-22900D03*
X76425Y-23900D03*
X76425Y-24900D03*
X76425Y-25900D03*
X76425Y-26900D03*
X76425Y-27900D03*
X76425Y-28900D03*
X76425Y-29900D03*
X76425Y-30900D03*
X76425Y-31900D03*
X76425Y-32900D03*
G54D15*
X62625Y-33000D03*
X63375Y-33000D03*
X62875Y-23500D03*
X63625Y-23500D03*
X62625Y-14250D03*
X63375Y-14250D03*
X85375Y-21750D03*
X84625Y-21750D03*
X85375Y-30500D03*
X84625Y-30500D03*
X85375Y-39250D03*
X84625Y-39250D03*
G54D16*
X66500Y-35875D03*
X66500Y-35125D03*
X67500Y-35875D03*
X66500Y-35500D03*
X67500Y-35125D03*
X66500Y-29350D03*
X66500Y-28600D03*
X67500Y-29350D03*
X66500Y-28975D03*
X67500Y-28600D03*
X66500Y-19175D03*
X66500Y-18425D03*
X67500Y-19175D03*
X66500Y-18800D03*
X67500Y-18425D03*
X81850Y-19925D03*
X81850Y-20675D03*
X80850Y-19925D03*
X81850Y-20300D03*
X80850Y-20675D03*
X81850Y-28725D03*
X81850Y-29475D03*
X80850Y-28725D03*
X81850Y-29100D03*
X80850Y-29475D03*
X81725Y-35600D03*
X81725Y-36350D03*
X80725Y-35600D03*
X81725Y-35975D03*
X80725Y-36350D03*
G54D17*
X73464Y-39767D03*
G54D18*
X74783Y-39767D03*
G54D11*
X69875Y-35450D03*
G54D13*
X68875Y-35450D03*
G54D11*
X66200Y-32100D03*
G54D13*
X66200Y-31100D03*
G54D11*
X69175Y-20225D03*
G54D13*
X69175Y-19225D03*
G54D11*
X79300Y-19600D03*
G54D13*
X78300Y-19600D03*
G54D11*
X79300Y-28200D03*
G54D13*
X78300Y-28200D03*
G54D11*
X79300Y-35600D03*
G54D13*
X78300Y-35600D03*
G54D11*
X59412Y-28300D03*
G54D13*
X59412Y-27300D03*
X59412Y-26300D03*
G54D12*
X70175Y-40500D03*
X65425Y-40500D03*
X78150Y-40525D03*
X82900Y-40525D03*
G54D19*
X78075Y-22900D03*
X78075Y-27000D03*
X77500Y-23900D03*
X82025Y-34750D03*
X75000Y-13750D03*
X75000Y-15750D03*
X75000Y-27750D03*
X61250Y-17750D03*
X61250Y-27000D03*
X61250Y-36500D03*
X86750Y-18000D03*
X86750Y-27000D03*
X86750Y-36000D03*
X74000Y-16500D03*
X82500Y-16500D03*
X82500Y-19000D03*
X82500Y-28000D03*
X82500Y-37000D03*
X74000Y-26500D03*
X65000Y-17000D03*
X65000Y-26000D03*
X65000Y-35500D03*
X68500Y-26875D03*
X67625Y-26875D03*
X64250Y-37000D03*
X64500Y-28000D03*
X64500Y-18750D03*
X83250Y-24900D03*
X83250Y-35000D03*
X83250Y-26000D03*
X83250Y-17000D03*
X74500Y-28500D03*
X86250Y-35000D03*
X86250Y-17000D03*
X86250Y-26000D03*
X61750Y-18750D03*
X61750Y-28000D03*
X61750Y-37500D03*
X81400Y-20700D03*
X81525Y-16000D03*
X65850Y-26500D03*
X65850Y-29350D03*
X81425Y-29350D03*
X81425Y-25350D03*
X67000Y-36000D03*
X67000Y-37000D03*
X65800Y-19175D03*
X65775Y-17425D03*
X80150Y-20675D03*
X80150Y-29225D03*
X67050Y-18425D03*
X67500Y-33700D03*
X68650Y-28000D03*
X67475Y-27975D03*
G54D20*
X82900Y-40525D02*
X89900Y-40525D01*
X89950Y-40475D02*
X89950Y-34700D01*
X89900Y-40525D02*
X89950Y-40475D01*
X65425Y-40500D02*
X58475Y-40500D01*
X58475Y-40500D02*
X58250Y-40275D01*
X58300Y-28300D02*
X58250Y-28250D01*
X59412Y-28300D02*
X58300Y-28300D01*
X59450Y-37550D02*
X58250Y-37550D01*
X58250Y-37550D02*
X58250Y-37500D01*
X58250Y-37500D02*
X58250Y-40275D01*
X58250Y-40275D02*
X58250Y-40500D01*
X89950Y-25800D02*
X89950Y-17300D01*
X89950Y-17300D02*
X89850Y-17200D01*
X89850Y-17200D02*
X88550Y-17200D01*
X89950Y-34700D02*
X89950Y-25800D01*
X89850Y-25700D02*
X88550Y-25700D01*
G54D21*
X89950Y-25800D02*
X89850Y-25700D01*
G54D20*
X89950Y-34700D02*
X88550Y-34700D01*
X58250Y-28250D02*
X58250Y-19000D01*
X58250Y-19000D02*
X58300Y-19050D01*
X58300Y-19050D02*
X59450Y-19050D01*
X58250Y-37500D02*
X58250Y-28250D01*
G54D21*
X58250Y-28250D02*
X58300Y-28300D01*
X58250Y-37500D02*
X58300Y-37550D01*
G54D22*
X67475Y-36514D02*
X71114Y-36514D01*
X68150Y-34300D02*
X68000Y-34150D01*
X70775Y-34300D02*
X68150Y-34300D01*
X71125Y-34650D02*
X70775Y-34300D01*
X71125Y-36503D02*
X71125Y-34650D01*
X71114Y-36514D02*
X71125Y-36503D01*
X68000Y-34150D02*
X68000Y-25500D01*
X64986Y-36514D02*
X67475Y-36514D01*
X68000Y-25500D02*
X69600Y-23900D01*
X70425Y-23900D02*
X69600Y-23900D01*
X64986Y-36514D02*
X63541Y-36514D01*
X63541Y-27014D02*
X65986Y-27014D01*
X70100Y-22900D02*
X70425Y-22900D01*
X65986Y-27014D02*
X70100Y-22900D01*
X63541Y-17764D02*
X69264Y-17764D01*
X70425Y-18925D02*
X70425Y-21900D01*
X69264Y-17764D02*
X70425Y-18925D01*
X76425Y-21900D02*
X76425Y-19075D01*
X77514Y-17986D02*
X84459Y-17986D01*
X76425Y-19075D02*
X77514Y-17986D01*
X84459Y-26986D02*
X78089Y-26986D01*
X78075Y-22900D02*
X76425Y-22900D01*
X78089Y-26986D02*
X78075Y-27000D01*
X84459Y-35986D02*
X83886Y-35986D01*
X77500Y-23900D02*
X76425Y-23900D01*
X82625Y-35350D02*
X82025Y-34750D01*
X83250Y-35350D02*
X82625Y-35350D01*
X83886Y-35986D02*
X83250Y-35350D01*
X76425Y-27900D02*
X75150Y-27900D01*
X75000Y-15750D02*
X75000Y-13750D01*
X75150Y-27900D02*
X75000Y-27750D01*
X62541Y-17764D02*
X61264Y-17764D01*
X61264Y-17764D02*
X61250Y-17750D01*
X62541Y-36514D02*
X61264Y-36514D01*
X61264Y-27014D02*
X62541Y-27014D01*
X61250Y-27000D02*
X61264Y-27014D01*
X61264Y-36514D02*
X61250Y-36500D01*
X85459Y-17986D02*
X86736Y-17986D01*
X86736Y-17986D02*
X86750Y-18000D01*
X85459Y-35986D02*
X86736Y-35986D01*
X86736Y-26986D02*
X85459Y-26986D01*
X86750Y-27000D02*
X86736Y-26986D01*
X86736Y-35986D02*
X86750Y-36000D01*
X82500Y-16500D02*
X74000Y-16500D01*
X84459Y-18986D02*
X82514Y-18986D01*
X82514Y-18986D02*
X82500Y-19000D01*
X84459Y-36986D02*
X82514Y-36986D01*
X82514Y-27986D02*
X84459Y-27986D01*
X82500Y-28000D02*
X82514Y-27986D01*
X82514Y-36986D02*
X82500Y-37000D01*
X74400Y-26900D02*
X74000Y-26500D01*
X74400Y-26900D02*
X76425Y-26900D01*
X63541Y-16764D02*
X64764Y-16764D01*
X64764Y-16764D02*
X65000Y-17000D01*
X63541Y-35514D02*
X64986Y-35514D01*
X64986Y-26014D02*
X63541Y-26014D01*
X65000Y-26000D02*
X64986Y-26014D01*
X64986Y-35514D02*
X65000Y-35500D01*
X65500Y-28000D02*
X66525Y-28000D01*
X69600Y-24900D02*
X68500Y-26000D01*
X64500Y-28000D02*
X65500Y-28000D01*
X69600Y-24900D02*
X70425Y-24900D01*
X68500Y-26875D02*
X68500Y-26000D01*
X67625Y-26900D02*
X67625Y-26875D01*
X66525Y-28000D02*
X67625Y-26900D01*
X63541Y-37514D02*
X63736Y-37514D01*
X63736Y-37514D02*
X64250Y-37000D01*
X63541Y-18764D02*
X64486Y-18764D01*
X64486Y-28014D02*
X63541Y-28014D01*
X64500Y-28000D02*
X64486Y-28014D01*
X64486Y-18764D02*
X64500Y-18750D01*
X76425Y-24900D02*
X83250Y-24900D01*
X84459Y-34986D02*
X83264Y-34986D01*
X83264Y-34986D02*
X83250Y-35000D01*
X84459Y-16986D02*
X83264Y-16986D01*
X83264Y-25986D02*
X84459Y-25986D01*
X83250Y-26000D02*
X83264Y-25986D01*
X83264Y-16986D02*
X83250Y-17000D01*
X76425Y-28900D02*
X74900Y-28900D01*
X74900Y-28900D02*
X74500Y-28500D01*
X85459Y-34986D02*
X86236Y-34986D01*
X86236Y-34986D02*
X86250Y-35000D01*
X85459Y-16986D02*
X86236Y-16986D01*
X86236Y-16986D02*
X86250Y-17000D01*
X86236Y-25986D02*
X85459Y-25986D01*
X86250Y-26000D02*
X86236Y-25986D01*
X62541Y-18764D02*
X61764Y-18764D01*
X61764Y-18764D02*
X61750Y-18750D01*
X62541Y-37514D02*
X61764Y-37514D01*
X61764Y-28014D02*
X62541Y-28014D01*
X61750Y-28000D02*
X61764Y-28014D01*
X61764Y-37514D02*
X61750Y-37500D01*
X63541Y-34514D02*
X63541Y-33166D01*
X63541Y-33166D02*
X63375Y-33000D01*
X63541Y-33166D02*
X63375Y-33000D01*
X63541Y-25014D02*
X63541Y-23584D01*
X63541Y-23584D02*
X63625Y-23500D01*
X84459Y-15986D02*
X81539Y-15986D01*
X81425Y-20675D02*
X81850Y-20675D01*
X81400Y-20700D02*
X81425Y-20675D01*
X81539Y-15986D02*
X81525Y-16000D01*
G54D23*
X62541Y-29014D02*
X60814Y-29014D01*
X60300Y-26300D02*
X59412Y-26300D01*
X60400Y-26400D02*
X60300Y-26300D01*
X60400Y-28600D02*
X60400Y-26400D01*
X60814Y-29014D02*
X60400Y-28600D01*
G54D22*
X62541Y-26016D02*
X63025Y-26500D01*
X63025Y-26500D02*
X65850Y-26500D01*
X62541Y-26014D02*
X62541Y-26016D01*
X65850Y-29350D02*
X66500Y-29350D01*
G54D23*
X62541Y-38514D02*
X60514Y-38514D01*
X60514Y-38514D02*
X60500Y-38500D01*
X60500Y-38500D02*
X60500Y-35750D01*
X60500Y-35750D02*
X60300Y-35550D01*
X60300Y-35550D02*
X59450Y-35550D01*
G54D22*
X80850Y-19925D02*
X79625Y-19925D01*
X79625Y-19925D02*
X79300Y-19600D01*
X67500Y-35875D02*
X68450Y-35875D01*
X68450Y-35875D02*
X68875Y-35450D01*
X80725Y-35600D02*
X79300Y-35600D01*
G54D23*
X62541Y-19764D02*
X60514Y-19764D01*
X60300Y-17050D02*
X59450Y-17050D01*
X60500Y-17250D02*
X60300Y-17050D01*
X60500Y-19750D02*
X60500Y-17250D01*
X60514Y-19764D02*
X60500Y-19750D01*
G54D22*
X85459Y-36986D02*
X85459Y-36984D01*
X82825Y-35600D02*
X81725Y-35600D01*
X83700Y-36475D02*
X82825Y-35600D01*
X84950Y-36475D02*
X83700Y-36475D01*
X85459Y-36984D02*
X84950Y-36475D01*
X79300Y-28200D02*
X80800Y-28200D01*
X80850Y-28250D02*
X80850Y-28725D01*
X80800Y-28200D02*
X80850Y-28250D01*
X84459Y-24986D02*
X83964Y-24986D01*
X81550Y-29475D02*
X81850Y-29475D01*
X81425Y-29350D02*
X81550Y-29475D01*
X83600Y-25350D02*
X81425Y-25350D01*
X83964Y-24986D02*
X83600Y-25350D01*
G54D21*
X88550Y-19200D02*
X87550Y-19200D01*
X87486Y-15986D02*
X85459Y-15986D01*
X87500Y-16000D02*
X87486Y-15986D01*
G54D23*
X87500Y-19150D02*
X87500Y-16000D01*
G54D21*
X87550Y-19200D02*
X87500Y-19150D01*
G54D22*
X85459Y-18986D02*
X85439Y-18986D01*
X82425Y-19925D02*
X81850Y-19925D01*
X82850Y-19500D02*
X82425Y-19925D01*
X84925Y-19500D02*
X82850Y-19500D01*
X85439Y-18986D02*
X84925Y-19500D01*
X85459Y-27986D02*
X85459Y-27991D01*
X82350Y-28725D02*
X81850Y-28725D01*
X82575Y-28500D02*
X82350Y-28725D01*
X84950Y-28500D02*
X82575Y-28500D01*
X85459Y-27991D02*
X84950Y-28500D01*
G54D23*
X88550Y-27700D02*
X87700Y-27700D01*
X87700Y-27700D02*
X87500Y-27500D01*
X87500Y-27500D02*
X87500Y-25000D01*
X87500Y-25000D02*
X87486Y-24986D01*
X87486Y-24986D02*
X85459Y-24986D01*
G54D22*
X84459Y-28986D02*
X84459Y-30334D01*
X84459Y-30334D02*
X84625Y-30500D01*
X63541Y-15764D02*
X63541Y-14416D01*
X63541Y-14416D02*
X63375Y-14250D01*
X69175Y-19225D02*
X67600Y-19275D01*
X67600Y-19275D02*
X67500Y-19175D01*
X67500Y-29350D02*
X67500Y-29700D01*
X66200Y-30200D02*
X66200Y-31100D01*
X67000Y-30200D02*
X66200Y-30200D01*
X67500Y-29700D02*
X67000Y-30200D01*
X63541Y-38514D02*
X65486Y-38514D01*
X66625Y-35125D02*
X66500Y-35125D01*
X67000Y-35500D02*
X66625Y-35125D01*
X67000Y-36000D02*
X67000Y-35500D01*
X65486Y-38514D02*
X67000Y-37000D01*
X62541Y-35514D02*
X62541Y-35541D01*
X66375Y-36000D02*
X66500Y-35875D01*
X63000Y-36000D02*
X66375Y-36000D01*
X62541Y-35541D02*
X63000Y-36000D01*
X63541Y-29014D02*
X64086Y-29014D01*
X64500Y-28600D02*
X66500Y-28600D01*
X64086Y-29014D02*
X64500Y-28600D01*
X84459Y-37986D02*
X84459Y-39084D01*
X84459Y-39084D02*
X84625Y-39250D01*
X62541Y-16764D02*
X62541Y-16766D01*
X65800Y-19175D02*
X66500Y-19175D01*
X64350Y-17425D02*
X65775Y-17425D01*
X64175Y-17250D02*
X64350Y-17425D01*
X63025Y-17250D02*
X64175Y-17250D01*
X62541Y-16766D02*
X63025Y-17250D01*
X63541Y-19764D02*
X64011Y-19764D01*
X65350Y-18425D02*
X66500Y-18425D01*
X64011Y-19764D02*
X65350Y-18425D01*
X81725Y-36350D02*
X81525Y-36350D01*
X81939Y-33986D02*
X84459Y-33986D01*
X81350Y-34575D02*
X81939Y-33986D01*
X81350Y-36175D02*
X81350Y-34575D01*
X81525Y-36350D02*
X81350Y-36175D01*
G54D21*
X88550Y-36700D02*
X87700Y-36700D01*
X87486Y-33986D02*
X85459Y-33986D01*
X87500Y-34000D02*
X87486Y-33986D01*
G54D23*
X87500Y-36500D02*
X87500Y-34000D01*
G54D21*
X87700Y-36700D02*
X87500Y-36500D01*
G54D20*
X73464Y-39767D02*
X73464Y-38114D01*
X73464Y-38114D02*
X73504Y-38075D01*
X77450Y-40525D02*
X78150Y-40525D01*
X77225Y-40300D02*
X77450Y-40525D01*
X77225Y-38125D02*
X77225Y-40300D01*
X77275Y-38075D02*
X77225Y-38125D01*
X73504Y-38075D02*
X77275Y-38075D01*
X70175Y-40500D02*
X71575Y-40500D01*
X73375Y-38025D02*
X73464Y-38114D01*
X71525Y-38025D02*
X73375Y-38025D01*
X71500Y-38050D02*
X71525Y-38025D01*
X71500Y-40425D02*
X71500Y-38050D01*
X71575Y-40500D02*
X71500Y-40425D01*
G54D22*
X84459Y-19986D02*
X84459Y-21584D01*
X84459Y-21584D02*
X84625Y-21750D01*
X70425Y-29900D02*
X71400Y-29900D01*
X71400Y-29900D02*
X71875Y-30375D01*
X71875Y-30375D02*
X71875Y-35675D01*
X71875Y-35675D02*
X72550Y-36350D01*
X72550Y-36350D02*
X80725Y-36350D01*
X80850Y-29475D02*
X80400Y-29475D01*
X80150Y-20675D02*
X80850Y-20675D01*
X80400Y-29475D02*
X80150Y-29225D01*
X80725Y-36350D02*
X80950Y-36350D01*
X81125Y-29750D02*
X80850Y-29475D01*
X81125Y-36175D02*
X81125Y-29750D01*
X80950Y-36350D02*
X81125Y-36175D01*
X67050Y-18425D02*
X67500Y-18425D01*
X67500Y-35125D02*
X67500Y-33700D01*
X67500Y-28600D02*
X67500Y-28000D01*
X69425Y-29900D02*
X70425Y-29900D01*
X68650Y-28000D02*
X68650Y-29125D01*
X68650Y-29125D02*
X69425Y-29900D01*
X67500Y-28000D02*
X67475Y-27975D01*
G54D10*
G36*
X70835Y-36224D02*
X70425Y-36224D01*
X70425Y-35799D01*
X70425Y-35700D01*
X70425Y-35562D01*
X70425Y-35337D01*
X70425Y-35199D01*
X70425Y-35100D01*
X70386Y-35008D01*
X70316Y-34938D01*
X70224Y-34900D01*
X69987Y-34900D01*
X69925Y-34962D01*
X69925Y-35400D01*
X70362Y-35400D01*
X70425Y-35337D01*
X70425Y-35562D01*
X70362Y-35500D01*
X69925Y-35500D01*
X69925Y-35937D01*
X69987Y-36000D01*
X70224Y-36000D01*
X70316Y-35961D01*
X70386Y-35891D01*
X70425Y-35799D01*
X70425Y-36224D01*
X67702Y-36224D01*
X67791Y-36186D01*
X67813Y-36165D01*
X68450Y-36165D01*
X68560Y-36142D01*
X68655Y-36080D01*
X68743Y-35991D01*
X68765Y-35999D01*
X68983Y-36000D01*
X69186Y-35916D01*
X69325Y-35777D01*
X69325Y-35799D01*
X69363Y-35891D01*
X69433Y-35961D01*
X69525Y-36000D01*
X69762Y-36000D01*
X69825Y-35937D01*
X69825Y-35500D01*
X69817Y-35500D01*
X69817Y-35400D01*
X69825Y-35400D01*
X69825Y-34962D01*
X69762Y-34900D01*
X69525Y-34900D01*
X69433Y-34938D01*
X69363Y-35008D01*
X69325Y-35100D01*
X69325Y-35122D01*
X69186Y-34984D01*
X68984Y-34900D01*
X68766Y-34899D01*
X68563Y-34983D01*
X68409Y-35138D01*
X68325Y-35340D01*
X68324Y-35558D01*
X68333Y-35580D01*
X68329Y-35585D01*
X67813Y-35585D01*
X67791Y-35563D01*
X67699Y-35525D01*
X67600Y-35525D01*
X67300Y-35525D01*
X67290Y-35529D01*
X67290Y-35500D01*
X67283Y-35468D01*
X67300Y-35475D01*
X67399Y-35475D01*
X67699Y-35475D01*
X67791Y-35436D01*
X67861Y-35366D01*
X67900Y-35274D01*
X67900Y-35175D01*
X67900Y-34975D01*
X67861Y-34883D01*
X67791Y-34813D01*
X67790Y-34812D01*
X67790Y-34347D01*
X67794Y-34355D01*
X67944Y-34505D01*
X68039Y-34567D01*
X68150Y-34590D01*
X70654Y-34590D01*
X70835Y-34770D01*
X70835Y-36224D01*
X70835Y-36224D01*
G37*
G54D24*
X70835Y-36224D02*
X70425Y-36224D01*
X70425Y-35799D01*
X70425Y-35700D01*
X70425Y-35562D01*
X70425Y-35337D01*
X70425Y-35199D01*
X70425Y-35100D01*
X70386Y-35008D01*
X70316Y-34938D01*
X70224Y-34900D01*
X69987Y-34900D01*
X69925Y-34962D01*
X69925Y-35400D01*
X70362Y-35400D01*
X70425Y-35337D01*
X70425Y-35562D01*
X70362Y-35500D01*
X69925Y-35500D01*
X69925Y-35937D01*
X69987Y-36000D01*
X70224Y-36000D01*
X70316Y-35961D01*
X70386Y-35891D01*
X70425Y-35799D01*
X70425Y-36224D01*
X67702Y-36224D01*
X67791Y-36186D01*
X67813Y-36165D01*
X68450Y-36165D01*
X68560Y-36142D01*
X68655Y-36080D01*
X68743Y-35991D01*
X68765Y-35999D01*
X68983Y-36000D01*
X69186Y-35916D01*
X69325Y-35777D01*
X69325Y-35799D01*
X69363Y-35891D01*
X69433Y-35961D01*
X69525Y-36000D01*
X69762Y-36000D01*
X69825Y-35937D01*
X69825Y-35500D01*
X69817Y-35500D01*
X69817Y-35400D01*
X69825Y-35400D01*
X69825Y-34962D01*
X69762Y-34900D01*
X69525Y-34900D01*
X69433Y-34938D01*
X69363Y-35008D01*
X69325Y-35100D01*
X69325Y-35122D01*
X69186Y-34984D01*
X68984Y-34900D01*
X68766Y-34899D01*
X68563Y-34983D01*
X68409Y-35138D01*
X68325Y-35340D01*
X68324Y-35558D01*
X68333Y-35580D01*
X68329Y-35585D01*
X67813Y-35585D01*
X67791Y-35563D01*
X67699Y-35525D01*
X67600Y-35525D01*
X67300Y-35525D01*
X67290Y-35529D01*
X67290Y-35500D01*
X67283Y-35468D01*
X67300Y-35475D01*
X67399Y-35475D01*
X67699Y-35475D01*
X67791Y-35436D01*
X67861Y-35366D01*
X67900Y-35274D01*
X67900Y-35175D01*
X67900Y-34975D01*
X67861Y-34883D01*
X67791Y-34813D01*
X67790Y-34812D01*
X67790Y-34347D01*
X67794Y-34355D01*
X67944Y-34505D01*
X68039Y-34567D01*
X68150Y-34590D01*
X70654Y-34590D01*
X70835Y-34770D01*
X70835Y-36224D01*
G54D10*
G36*
X90675Y-41175D02*
X90475Y-41175D01*
X90475Y-40475D01*
X90475Y-40474D01*
X90475Y-34700D01*
X90475Y-25800D01*
X90475Y-17300D01*
X90435Y-17098D01*
X90435Y-17098D01*
X90389Y-17030D01*
X90325Y-16933D01*
X90325Y-14500D01*
X90224Y-13992D01*
X89936Y-13563D01*
X89507Y-13275D01*
X89000Y-13175D01*
X88492Y-13275D01*
X88063Y-13563D01*
X87775Y-13992D01*
X87675Y-14500D01*
X87775Y-15007D01*
X88063Y-15436D01*
X88492Y-15724D01*
X89000Y-15825D01*
X89507Y-15724D01*
X89936Y-15436D01*
X90224Y-15007D01*
X90325Y-14500D01*
X90325Y-16933D01*
X90321Y-16928D01*
X90321Y-16928D01*
X90221Y-16828D01*
X90051Y-16714D01*
X89850Y-16674D01*
X89849Y-16674D01*
X88718Y-16674D01*
X88659Y-16650D01*
X88441Y-16649D01*
X88238Y-16733D01*
X88084Y-16888D01*
X88000Y-17090D01*
X87999Y-17308D01*
X88083Y-17511D01*
X88238Y-17665D01*
X88313Y-17697D01*
X88262Y-17718D01*
X88234Y-17814D01*
X88550Y-18129D01*
X88865Y-17814D01*
X88839Y-17725D01*
X89424Y-17725D01*
X89424Y-25174D01*
X89104Y-25174D01*
X89104Y-18281D01*
X89093Y-18063D01*
X89031Y-17912D01*
X88935Y-17884D01*
X88620Y-18200D01*
X88935Y-18515D01*
X89031Y-18487D01*
X89104Y-18281D01*
X89104Y-25174D01*
X88718Y-25174D01*
X88659Y-25150D01*
X88441Y-25149D01*
X88238Y-25233D01*
X88084Y-25388D01*
X88000Y-25590D01*
X87999Y-25808D01*
X88083Y-26011D01*
X88238Y-26165D01*
X88313Y-26197D01*
X88262Y-26218D01*
X88234Y-26314D01*
X88550Y-26629D01*
X88865Y-26314D01*
X88839Y-26225D01*
X89424Y-26225D01*
X89424Y-34174D01*
X89104Y-34174D01*
X89104Y-26781D01*
X89093Y-26563D01*
X89031Y-26412D01*
X88935Y-26384D01*
X88620Y-26700D01*
X88935Y-27015D01*
X89031Y-26987D01*
X89104Y-26781D01*
X89104Y-34174D01*
X88718Y-34174D01*
X88659Y-34150D01*
X88441Y-34149D01*
X88238Y-34233D01*
X88084Y-34388D01*
X88000Y-34590D01*
X87999Y-34808D01*
X88083Y-35011D01*
X88238Y-35165D01*
X88313Y-35197D01*
X88262Y-35218D01*
X88234Y-35314D01*
X88550Y-35629D01*
X88865Y-35314D01*
X88839Y-35225D01*
X89424Y-35225D01*
X89424Y-39999D01*
X89104Y-39999D01*
X89104Y-35781D01*
X89093Y-35563D01*
X89031Y-35412D01*
X88935Y-35384D01*
X88620Y-35700D01*
X88935Y-36015D01*
X89031Y-35987D01*
X89104Y-35781D01*
X89104Y-39999D01*
X89100Y-39999D01*
X89100Y-37049D01*
X89100Y-36950D01*
X89100Y-36350D01*
X89061Y-36258D01*
X88991Y-36188D01*
X88899Y-36150D01*
X88846Y-36150D01*
X88865Y-36085D01*
X88550Y-35770D01*
X88479Y-35841D01*
X88479Y-35700D01*
X88164Y-35384D01*
X88068Y-35412D01*
X87995Y-35618D01*
X88006Y-35836D01*
X88068Y-35987D01*
X88164Y-36015D01*
X88479Y-35700D01*
X88479Y-35841D01*
X88234Y-36085D01*
X88253Y-36150D01*
X88200Y-36150D01*
X88108Y-36188D01*
X88038Y-36258D01*
X88000Y-36350D01*
X88000Y-36371D01*
X87836Y-36371D01*
X87818Y-36353D01*
X87818Y-34049D01*
X87828Y-34000D01*
X87803Y-33874D01*
X87732Y-33767D01*
X87718Y-33753D01*
X87611Y-33682D01*
X87486Y-33657D01*
X86052Y-33657D01*
X86052Y-29077D01*
X86042Y-28842D01*
X85972Y-28674D01*
X85873Y-28642D01*
X85529Y-28986D01*
X85873Y-29329D01*
X85972Y-29297D01*
X86052Y-29077D01*
X86052Y-33657D01*
X85960Y-33657D01*
X85958Y-33652D01*
X85802Y-33496D01*
X85802Y-29400D01*
X85459Y-29056D01*
X85115Y-29400D01*
X85147Y-29499D01*
X85367Y-29579D01*
X85602Y-29569D01*
X85770Y-29499D01*
X85802Y-29400D01*
X85802Y-33496D01*
X85800Y-33493D01*
X85800Y-30824D01*
X85800Y-30725D01*
X85800Y-30612D01*
X85800Y-30387D01*
X85800Y-30274D01*
X85800Y-30175D01*
X85761Y-30083D01*
X85691Y-30013D01*
X85599Y-29975D01*
X85487Y-29975D01*
X85425Y-30037D01*
X85425Y-30450D01*
X85737Y-30450D01*
X85800Y-30387D01*
X85800Y-30612D01*
X85737Y-30550D01*
X85425Y-30550D01*
X85425Y-30962D01*
X85487Y-31025D01*
X85599Y-31025D01*
X85691Y-30986D01*
X85761Y-30916D01*
X85800Y-30824D01*
X85800Y-33493D01*
X85793Y-33486D01*
X85576Y-33396D01*
X85342Y-33396D01*
X85125Y-33486D01*
X84999Y-33612D01*
X84970Y-33544D01*
X84900Y-33474D01*
X84808Y-33436D01*
X84709Y-33436D01*
X84109Y-33436D01*
X84017Y-33474D01*
X83947Y-33544D01*
X83909Y-33636D01*
X83909Y-33696D01*
X81939Y-33696D01*
X81828Y-33718D01*
X81733Y-33780D01*
X81415Y-34099D01*
X81415Y-29796D01*
X81513Y-29796D01*
X81552Y-29780D01*
X81558Y-29786D01*
X81650Y-29825D01*
X81749Y-29825D01*
X82049Y-29825D01*
X82141Y-29786D01*
X82211Y-29716D01*
X82250Y-29624D01*
X82250Y-29525D01*
X82250Y-29325D01*
X82234Y-29287D01*
X82250Y-29249D01*
X82250Y-29212D01*
X82187Y-29150D01*
X82110Y-29150D01*
X82049Y-29125D01*
X81950Y-29125D01*
X81815Y-29125D01*
X81804Y-29097D01*
X81792Y-29085D01*
X81792Y-29075D01*
X82049Y-29075D01*
X82110Y-29050D01*
X82187Y-29050D01*
X82222Y-29015D01*
X82350Y-29015D01*
X82460Y-28992D01*
X82555Y-28930D01*
X82695Y-28790D01*
X83902Y-28790D01*
X83869Y-28868D01*
X83869Y-29102D01*
X83959Y-29319D01*
X84124Y-29485D01*
X84169Y-29503D01*
X84169Y-30334D01*
X84191Y-30444D01*
X84200Y-30458D01*
X84200Y-30824D01*
X84238Y-30916D01*
X84308Y-30986D01*
X84400Y-31025D01*
X84499Y-31025D01*
X84849Y-31025D01*
X84941Y-30986D01*
X85000Y-30928D01*
X85058Y-30986D01*
X85150Y-31025D01*
X85262Y-31025D01*
X85325Y-30962D01*
X85325Y-30550D01*
X85317Y-30550D01*
X85317Y-30450D01*
X85325Y-30450D01*
X85325Y-30037D01*
X85262Y-29975D01*
X85150Y-29975D01*
X85058Y-30013D01*
X84999Y-30071D01*
X84941Y-30013D01*
X84849Y-29975D01*
X84750Y-29975D01*
X84749Y-29975D01*
X84749Y-29503D01*
X84792Y-29485D01*
X84958Y-29320D01*
X84965Y-29303D01*
X85044Y-29329D01*
X85388Y-28986D01*
X85382Y-28980D01*
X85453Y-28909D01*
X85459Y-28915D01*
X85802Y-28571D01*
X85777Y-28492D01*
X85792Y-28485D01*
X85958Y-28320D01*
X86048Y-28103D01*
X86048Y-27869D01*
X85958Y-27652D01*
X85793Y-27486D01*
X85791Y-27486D01*
X85792Y-27485D01*
X85958Y-27320D01*
X85976Y-27276D01*
X86394Y-27276D01*
X86496Y-27378D01*
X86660Y-27446D01*
X86838Y-27446D01*
X87002Y-27379D01*
X87128Y-27253D01*
X87181Y-27127D01*
X87181Y-27500D01*
X87205Y-27622D01*
X87274Y-27725D01*
X87474Y-27925D01*
X87474Y-27925D01*
X87526Y-27960D01*
X87577Y-27994D01*
X87577Y-27994D01*
X87700Y-28018D01*
X88000Y-28018D01*
X88000Y-28049D01*
X88038Y-28141D01*
X88108Y-28211D01*
X88200Y-28250D01*
X88299Y-28250D01*
X88899Y-28250D01*
X88991Y-28211D01*
X89061Y-28141D01*
X89100Y-28049D01*
X89100Y-27950D01*
X89100Y-27350D01*
X89061Y-27258D01*
X88991Y-27188D01*
X88899Y-27150D01*
X88846Y-27150D01*
X88865Y-27085D01*
X88550Y-26770D01*
X88479Y-26841D01*
X88479Y-26700D01*
X88164Y-26384D01*
X88068Y-26412D01*
X87995Y-26618D01*
X88006Y-26836D01*
X88068Y-26987D01*
X88164Y-27015D01*
X88479Y-26700D01*
X88479Y-26841D01*
X88234Y-27085D01*
X88253Y-27150D01*
X88200Y-27150D01*
X88108Y-27188D01*
X88038Y-27258D01*
X88000Y-27350D01*
X88000Y-27381D01*
X87832Y-27381D01*
X87818Y-27367D01*
X87818Y-25000D01*
X87794Y-24877D01*
X87794Y-24877D01*
X87760Y-24826D01*
X87725Y-24774D01*
X87725Y-24774D01*
X87711Y-24760D01*
X87608Y-24691D01*
X87486Y-24667D01*
X86052Y-24667D01*
X86052Y-20077D01*
X86042Y-19842D01*
X85972Y-19674D01*
X85873Y-19642D01*
X85529Y-19986D01*
X85873Y-20329D01*
X85972Y-20297D01*
X86052Y-20077D01*
X86052Y-24667D01*
X85964Y-24667D01*
X85958Y-24652D01*
X85802Y-24496D01*
X85802Y-20400D01*
X85459Y-20056D01*
X85115Y-20400D01*
X85147Y-20499D01*
X85367Y-20579D01*
X85602Y-20569D01*
X85770Y-20499D01*
X85802Y-20400D01*
X85802Y-24496D01*
X85800Y-24493D01*
X85800Y-22074D01*
X85800Y-21975D01*
X85800Y-21862D01*
X85800Y-21637D01*
X85800Y-21524D01*
X85800Y-21425D01*
X85761Y-21333D01*
X85691Y-21263D01*
X85599Y-21225D01*
X85487Y-21225D01*
X85425Y-21287D01*
X85425Y-21700D01*
X85737Y-21700D01*
X85800Y-21637D01*
X85800Y-21862D01*
X85737Y-21800D01*
X85425Y-21800D01*
X85425Y-22212D01*
X85487Y-22275D01*
X85599Y-22275D01*
X85691Y-22236D01*
X85761Y-22166D01*
X85800Y-22074D01*
X85800Y-24493D01*
X85793Y-24486D01*
X85576Y-24396D01*
X85342Y-24396D01*
X85125Y-24486D01*
X84999Y-24612D01*
X84970Y-24544D01*
X84900Y-24474D01*
X84808Y-24436D01*
X84709Y-24436D01*
X84109Y-24436D01*
X84017Y-24474D01*
X83947Y-24544D01*
X83909Y-24636D01*
X83909Y-24706D01*
X83853Y-24718D01*
X83758Y-24780D01*
X83696Y-24842D01*
X83696Y-24811D01*
X83629Y-24647D01*
X83503Y-24521D01*
X83339Y-24453D01*
X83161Y-24453D01*
X82997Y-24520D01*
X82908Y-24610D01*
X82250Y-24610D01*
X78615Y-24610D01*
X78615Y-19985D01*
X78300Y-19670D01*
X78229Y-19741D01*
X78229Y-19600D01*
X77914Y-19284D01*
X77818Y-19312D01*
X77745Y-19518D01*
X77756Y-19736D01*
X77818Y-19887D01*
X77914Y-19915D01*
X78229Y-19600D01*
X78229Y-19741D01*
X77984Y-19985D01*
X78012Y-20081D01*
X78218Y-20154D01*
X78436Y-20143D01*
X78587Y-20081D01*
X78615Y-19985D01*
X78615Y-24610D01*
X76974Y-24610D01*
X76875Y-24461D01*
X76783Y-24399D01*
X76875Y-24338D01*
X76974Y-24190D01*
X77158Y-24190D01*
X77246Y-24278D01*
X77410Y-24346D01*
X77588Y-24346D01*
X77752Y-24279D01*
X77878Y-24153D01*
X77946Y-23989D01*
X77946Y-23811D01*
X77879Y-23647D01*
X77753Y-23521D01*
X77589Y-23453D01*
X77411Y-23453D01*
X77247Y-23520D01*
X77158Y-23610D01*
X76974Y-23610D01*
X76875Y-23461D01*
X76783Y-23399D01*
X76875Y-23338D01*
X76974Y-23190D01*
X77733Y-23190D01*
X77821Y-23278D01*
X77985Y-23346D01*
X78163Y-23346D01*
X78327Y-23279D01*
X78453Y-23153D01*
X78521Y-22989D01*
X78521Y-22811D01*
X78454Y-22647D01*
X78328Y-22521D01*
X78164Y-22453D01*
X77986Y-22453D01*
X77822Y-22520D01*
X77733Y-22610D01*
X76974Y-22610D01*
X76875Y-22461D01*
X76783Y-22399D01*
X76875Y-22338D01*
X77009Y-22137D01*
X77057Y-21900D01*
X77009Y-21662D01*
X76875Y-21461D01*
X76715Y-21354D01*
X76715Y-19195D01*
X77634Y-18276D01*
X83941Y-18276D01*
X83959Y-18319D01*
X84124Y-18485D01*
X84126Y-18485D01*
X84125Y-18486D01*
X83959Y-18651D01*
X83941Y-18696D01*
X82827Y-18696D01*
X82753Y-18621D01*
X82589Y-18553D01*
X82411Y-18553D01*
X82247Y-18620D01*
X82121Y-18746D01*
X82053Y-18910D01*
X82053Y-19088D01*
X82120Y-19252D01*
X82246Y-19378D01*
X82410Y-19446D01*
X82493Y-19446D01*
X82304Y-19635D01*
X82163Y-19635D01*
X82141Y-19613D01*
X82049Y-19575D01*
X81950Y-19575D01*
X81650Y-19575D01*
X81558Y-19613D01*
X81488Y-19683D01*
X81450Y-19775D01*
X81450Y-19874D01*
X81450Y-20074D01*
X81465Y-20112D01*
X81450Y-20150D01*
X81450Y-20187D01*
X81512Y-20249D01*
X81450Y-20249D01*
X81450Y-20253D01*
X81311Y-20253D01*
X81250Y-20278D01*
X81250Y-20074D01*
X81250Y-19975D01*
X81250Y-19775D01*
X81211Y-19683D01*
X81141Y-19613D01*
X81049Y-19575D01*
X80950Y-19575D01*
X80650Y-19575D01*
X80558Y-19613D01*
X80536Y-19635D01*
X79850Y-19635D01*
X79850Y-19250D01*
X79811Y-19158D01*
X79741Y-19088D01*
X79649Y-19050D01*
X79550Y-19050D01*
X78950Y-19050D01*
X78858Y-19088D01*
X78788Y-19158D01*
X78750Y-19250D01*
X78750Y-19303D01*
X78685Y-19284D01*
X78615Y-19355D01*
X78615Y-19214D01*
X78587Y-19118D01*
X78381Y-19045D01*
X78163Y-19056D01*
X78012Y-19118D01*
X77984Y-19214D01*
X78300Y-19529D01*
X78615Y-19214D01*
X78615Y-19355D01*
X78370Y-19600D01*
X78685Y-19915D01*
X78750Y-19896D01*
X78750Y-19949D01*
X78788Y-20041D01*
X78858Y-20111D01*
X78950Y-20150D01*
X79049Y-20150D01*
X79449Y-20150D01*
X79514Y-20192D01*
X79625Y-20215D01*
X80536Y-20215D01*
X80558Y-20236D01*
X80650Y-20275D01*
X80749Y-20275D01*
X81049Y-20275D01*
X81141Y-20236D01*
X81211Y-20166D01*
X81250Y-20074D01*
X81250Y-20278D01*
X81147Y-20320D01*
X81115Y-20352D01*
X81049Y-20325D01*
X80950Y-20325D01*
X80650Y-20325D01*
X80558Y-20363D01*
X80536Y-20385D01*
X80491Y-20385D01*
X80403Y-20296D01*
X80239Y-20228D01*
X80061Y-20228D01*
X79897Y-20295D01*
X79771Y-20421D01*
X79703Y-20585D01*
X79703Y-20763D01*
X79770Y-20927D01*
X79896Y-21053D01*
X80060Y-21121D01*
X80238Y-21121D01*
X80402Y-21054D01*
X80491Y-20965D01*
X80536Y-20965D01*
X80558Y-20986D01*
X80650Y-21025D01*
X80749Y-21025D01*
X81049Y-21025D01*
X81080Y-21012D01*
X81146Y-21078D01*
X81310Y-21146D01*
X81488Y-21146D01*
X81652Y-21079D01*
X81706Y-21025D01*
X81749Y-21025D01*
X82049Y-21025D01*
X82141Y-20986D01*
X82211Y-20916D01*
X82250Y-20824D01*
X82250Y-20725D01*
X82250Y-20525D01*
X82234Y-20487D01*
X82250Y-20449D01*
X82250Y-20412D01*
X82187Y-20350D01*
X82110Y-20350D01*
X82049Y-20325D01*
X81950Y-20325D01*
X81792Y-20325D01*
X81792Y-20275D01*
X82049Y-20275D01*
X82110Y-20250D01*
X82187Y-20250D01*
X82222Y-20215D01*
X82425Y-20215D01*
X82535Y-20192D01*
X82630Y-20130D01*
X82970Y-19790D01*
X83902Y-19790D01*
X83869Y-19868D01*
X83869Y-20102D01*
X83959Y-20319D01*
X84124Y-20485D01*
X84169Y-20503D01*
X84169Y-21584D01*
X84191Y-21694D01*
X84200Y-21708D01*
X84200Y-22074D01*
X84238Y-22166D01*
X84308Y-22236D01*
X84400Y-22275D01*
X84499Y-22275D01*
X84849Y-22275D01*
X84941Y-22236D01*
X85000Y-22178D01*
X85058Y-22236D01*
X85150Y-22275D01*
X85262Y-22275D01*
X85325Y-22212D01*
X85325Y-21800D01*
X85317Y-21800D01*
X85317Y-21700D01*
X85325Y-21700D01*
X85325Y-21287D01*
X85262Y-21225D01*
X85150Y-21225D01*
X85058Y-21263D01*
X84999Y-21321D01*
X84941Y-21263D01*
X84849Y-21225D01*
X84750Y-21225D01*
X84749Y-21225D01*
X84749Y-20503D01*
X84792Y-20485D01*
X84958Y-20320D01*
X84965Y-20303D01*
X85044Y-20329D01*
X85388Y-19986D01*
X85382Y-19980D01*
X85453Y-19909D01*
X85459Y-19915D01*
X85802Y-19571D01*
X85777Y-19492D01*
X85792Y-19485D01*
X85958Y-19320D01*
X86048Y-19103D01*
X86048Y-18869D01*
X85958Y-18652D01*
X85793Y-18486D01*
X85791Y-18486D01*
X85792Y-18485D01*
X85958Y-18320D01*
X85976Y-18276D01*
X86394Y-18276D01*
X86496Y-18378D01*
X86660Y-18446D01*
X86838Y-18446D01*
X87002Y-18379D01*
X87128Y-18253D01*
X87181Y-18127D01*
X87181Y-19100D01*
X87171Y-19150D01*
X87196Y-19275D01*
X87267Y-19382D01*
X87317Y-19432D01*
X87424Y-19503D01*
X87424Y-19503D01*
X87550Y-19528D01*
X88000Y-19528D01*
X88000Y-19549D01*
X88038Y-19641D01*
X88108Y-19711D01*
X88200Y-19750D01*
X88299Y-19750D01*
X88899Y-19750D01*
X88991Y-19711D01*
X89061Y-19641D01*
X89100Y-19549D01*
X89100Y-19450D01*
X89100Y-18850D01*
X89061Y-18758D01*
X88991Y-18688D01*
X88899Y-18650D01*
X88846Y-18650D01*
X88865Y-18585D01*
X88550Y-18270D01*
X88479Y-18341D01*
X88479Y-18200D01*
X88164Y-17884D01*
X88068Y-17912D01*
X87995Y-18118D01*
X88006Y-18336D01*
X88068Y-18487D01*
X88164Y-18515D01*
X88479Y-18200D01*
X88479Y-18341D01*
X88234Y-18585D01*
X88253Y-18650D01*
X88200Y-18650D01*
X88108Y-18688D01*
X88038Y-18758D01*
X88000Y-18850D01*
X88000Y-18871D01*
X87818Y-18871D01*
X87818Y-16049D01*
X87828Y-16000D01*
X87803Y-15874D01*
X87732Y-15767D01*
X87718Y-15753D01*
X87611Y-15682D01*
X87486Y-15657D01*
X85960Y-15657D01*
X85958Y-15652D01*
X85793Y-15486D01*
X85576Y-15396D01*
X85342Y-15396D01*
X85125Y-15486D01*
X84999Y-15612D01*
X84970Y-15544D01*
X84900Y-15474D01*
X84808Y-15436D01*
X84709Y-15436D01*
X84109Y-15436D01*
X84017Y-15474D01*
X83947Y-15544D01*
X83909Y-15636D01*
X83909Y-15696D01*
X81852Y-15696D01*
X81778Y-15621D01*
X81614Y-15553D01*
X81436Y-15553D01*
X81272Y-15620D01*
X81146Y-15746D01*
X81078Y-15910D01*
X81078Y-16088D01*
X81128Y-16210D01*
X75446Y-16210D01*
X75446Y-15661D01*
X75379Y-15497D01*
X75290Y-15408D01*
X75290Y-14091D01*
X75378Y-14003D01*
X75446Y-13839D01*
X75446Y-13661D01*
X75379Y-13497D01*
X75253Y-13371D01*
X75089Y-13303D01*
X74911Y-13303D01*
X74747Y-13370D01*
X74621Y-13496D01*
X74553Y-13660D01*
X74553Y-13838D01*
X74620Y-14002D01*
X74710Y-14091D01*
X74710Y-15408D01*
X74621Y-15496D01*
X74553Y-15660D01*
X74553Y-15838D01*
X74620Y-16002D01*
X74746Y-16128D01*
X74910Y-16196D01*
X75088Y-16196D01*
X75252Y-16129D01*
X75378Y-16003D01*
X75446Y-15839D01*
X75446Y-15661D01*
X75446Y-16210D01*
X74341Y-16210D01*
X74253Y-16121D01*
X74089Y-16053D01*
X73911Y-16053D01*
X73747Y-16120D01*
X73621Y-16246D01*
X73553Y-16410D01*
X73553Y-16588D01*
X73620Y-16752D01*
X73746Y-16878D01*
X73910Y-16946D01*
X74088Y-16946D01*
X74252Y-16879D01*
X74341Y-16790D01*
X82158Y-16790D01*
X82246Y-16878D01*
X82410Y-16946D01*
X82588Y-16946D01*
X82752Y-16879D01*
X82861Y-16770D01*
X82803Y-16910D01*
X82803Y-17088D01*
X82870Y-17252D01*
X82996Y-17378D01*
X83160Y-17446D01*
X83338Y-17446D01*
X83502Y-17379D01*
X83606Y-17276D01*
X83941Y-17276D01*
X83959Y-17319D01*
X84124Y-17485D01*
X84126Y-17485D01*
X84125Y-17486D01*
X83959Y-17651D01*
X83941Y-17696D01*
X77514Y-17696D01*
X77514Y-17695D01*
X77421Y-17714D01*
X77403Y-17718D01*
X77308Y-17780D01*
X76219Y-18869D01*
X76157Y-18964D01*
X76135Y-19075D01*
X76135Y-21354D01*
X75974Y-21461D01*
X75840Y-21662D01*
X75792Y-21900D01*
X75840Y-22137D01*
X75974Y-22338D01*
X76066Y-22400D01*
X75974Y-22461D01*
X75840Y-22662D01*
X75792Y-22900D01*
X75840Y-23137D01*
X75974Y-23338D01*
X76066Y-23400D01*
X75974Y-23461D01*
X75840Y-23662D01*
X75792Y-23900D01*
X75840Y-24137D01*
X75974Y-24338D01*
X76066Y-24400D01*
X75974Y-24461D01*
X75840Y-24662D01*
X75792Y-24900D01*
X75840Y-25137D01*
X75974Y-25338D01*
X76066Y-25400D01*
X75974Y-25461D01*
X75840Y-25662D01*
X75792Y-25900D01*
X75840Y-26137D01*
X75974Y-26338D01*
X76066Y-26400D01*
X75974Y-26461D01*
X75875Y-26610D01*
X74520Y-26610D01*
X74446Y-26536D01*
X74446Y-26411D01*
X74379Y-26247D01*
X74253Y-26121D01*
X74089Y-26053D01*
X73911Y-26053D01*
X73747Y-26120D01*
X73621Y-26246D01*
X73553Y-26410D01*
X73553Y-26588D01*
X73620Y-26752D01*
X73746Y-26878D01*
X73910Y-26946D01*
X74036Y-26946D01*
X74194Y-27105D01*
X74289Y-27167D01*
X74400Y-27190D01*
X75875Y-27190D01*
X75974Y-27338D01*
X76066Y-27400D01*
X75974Y-27461D01*
X75875Y-27610D01*
X75425Y-27610D01*
X75379Y-27497D01*
X75253Y-27371D01*
X75089Y-27303D01*
X74911Y-27303D01*
X74747Y-27370D01*
X74621Y-27496D01*
X74553Y-27660D01*
X74553Y-27838D01*
X74620Y-28002D01*
X74729Y-28111D01*
X74589Y-28053D01*
X74411Y-28053D01*
X74247Y-28120D01*
X74121Y-28246D01*
X74053Y-28410D01*
X74053Y-28588D01*
X74120Y-28752D01*
X74246Y-28878D01*
X74410Y-28946D01*
X74536Y-28946D01*
X74694Y-29105D01*
X74789Y-29167D01*
X74900Y-29190D01*
X75875Y-29190D01*
X75974Y-29338D01*
X76066Y-29400D01*
X75974Y-29461D01*
X75840Y-29662D01*
X75792Y-29900D01*
X75840Y-30137D01*
X75974Y-30338D01*
X76066Y-30400D01*
X75974Y-30461D01*
X75840Y-30662D01*
X75792Y-30900D01*
X75840Y-31137D01*
X75974Y-31338D01*
X76066Y-31400D01*
X75974Y-31461D01*
X75840Y-31662D01*
X75792Y-31900D01*
X75840Y-32137D01*
X75974Y-32338D01*
X76066Y-32400D01*
X75974Y-32461D01*
X75840Y-32662D01*
X75792Y-32900D01*
X75840Y-33137D01*
X75974Y-33338D01*
X76175Y-33472D01*
X76412Y-33520D01*
X76437Y-33520D01*
X76674Y-33472D01*
X76875Y-33338D01*
X77009Y-33137D01*
X77057Y-32900D01*
X77009Y-32662D01*
X76875Y-32461D01*
X76783Y-32399D01*
X76875Y-32338D01*
X77009Y-32137D01*
X77057Y-31900D01*
X77009Y-31662D01*
X76875Y-31461D01*
X76783Y-31399D01*
X76875Y-31338D01*
X77009Y-31137D01*
X77057Y-30900D01*
X77009Y-30662D01*
X76875Y-30461D01*
X76783Y-30399D01*
X76875Y-30338D01*
X77009Y-30137D01*
X77057Y-29900D01*
X77009Y-29662D01*
X76875Y-29461D01*
X76783Y-29399D01*
X76875Y-29338D01*
X77009Y-29137D01*
X77057Y-28900D01*
X77009Y-28662D01*
X76875Y-28461D01*
X76783Y-28399D01*
X76875Y-28338D01*
X77009Y-28137D01*
X77057Y-27900D01*
X77009Y-27662D01*
X76875Y-27461D01*
X76783Y-27399D01*
X76875Y-27338D01*
X77009Y-27137D01*
X77057Y-26900D01*
X77009Y-26662D01*
X76875Y-26461D01*
X76783Y-26399D01*
X76875Y-26338D01*
X77009Y-26137D01*
X77057Y-25900D01*
X77009Y-25662D01*
X76875Y-25461D01*
X76783Y-25399D01*
X76875Y-25338D01*
X76974Y-25190D01*
X81007Y-25190D01*
X80978Y-25260D01*
X80978Y-25438D01*
X81045Y-25602D01*
X81171Y-25728D01*
X81335Y-25796D01*
X81513Y-25796D01*
X81677Y-25729D01*
X81766Y-25640D01*
X82978Y-25640D01*
X82871Y-25746D01*
X82803Y-25910D01*
X82803Y-26088D01*
X82870Y-26252D01*
X82996Y-26378D01*
X83160Y-26446D01*
X83338Y-26446D01*
X83502Y-26379D01*
X83606Y-26276D01*
X83941Y-26276D01*
X83959Y-26319D01*
X84124Y-26485D01*
X84126Y-26485D01*
X84125Y-26486D01*
X83959Y-26651D01*
X83941Y-26696D01*
X78402Y-26696D01*
X78328Y-26621D01*
X78164Y-26553D01*
X77986Y-26553D01*
X77822Y-26620D01*
X77696Y-26746D01*
X77628Y-26910D01*
X77628Y-27088D01*
X77695Y-27252D01*
X77821Y-27378D01*
X77985Y-27446D01*
X78163Y-27446D01*
X78327Y-27379D01*
X78431Y-27276D01*
X83941Y-27276D01*
X83959Y-27319D01*
X84124Y-27485D01*
X84126Y-27485D01*
X84125Y-27486D01*
X83959Y-27651D01*
X83941Y-27696D01*
X82827Y-27696D01*
X82753Y-27621D01*
X82589Y-27553D01*
X82411Y-27553D01*
X82247Y-27620D01*
X82121Y-27746D01*
X82053Y-27910D01*
X82053Y-28088D01*
X82120Y-28252D01*
X82246Y-28378D01*
X82274Y-28390D01*
X82229Y-28435D01*
X82163Y-28435D01*
X82141Y-28413D01*
X82049Y-28375D01*
X81950Y-28375D01*
X81650Y-28375D01*
X81558Y-28413D01*
X81488Y-28483D01*
X81450Y-28575D01*
X81450Y-28674D01*
X81450Y-28874D01*
X81461Y-28903D01*
X81336Y-28903D01*
X81217Y-28952D01*
X81250Y-28874D01*
X81250Y-28775D01*
X81250Y-28575D01*
X81211Y-28483D01*
X81141Y-28413D01*
X81140Y-28412D01*
X81140Y-28250D01*
X81117Y-28139D01*
X81055Y-28044D01*
X81005Y-27994D01*
X80910Y-27932D01*
X80800Y-27910D01*
X79850Y-27910D01*
X79850Y-27850D01*
X79811Y-27758D01*
X79741Y-27688D01*
X79649Y-27650D01*
X79550Y-27650D01*
X78950Y-27650D01*
X78858Y-27688D01*
X78788Y-27758D01*
X78750Y-27850D01*
X78750Y-27903D01*
X78685Y-27884D01*
X78615Y-27955D01*
X78615Y-27814D01*
X78587Y-27718D01*
X78381Y-27645D01*
X78163Y-27656D01*
X78012Y-27718D01*
X77984Y-27814D01*
X78300Y-28129D01*
X78615Y-27814D01*
X78615Y-27955D01*
X78370Y-28200D01*
X78685Y-28515D01*
X78750Y-28496D01*
X78750Y-28549D01*
X78788Y-28641D01*
X78858Y-28711D01*
X78950Y-28750D01*
X79049Y-28750D01*
X79649Y-28750D01*
X79741Y-28711D01*
X79811Y-28641D01*
X79850Y-28549D01*
X79850Y-28490D01*
X80485Y-28490D01*
X80450Y-28575D01*
X80450Y-28674D01*
X80450Y-28874D01*
X80462Y-28906D01*
X80403Y-28846D01*
X80239Y-28778D01*
X80061Y-28778D01*
X79897Y-28845D01*
X79771Y-28971D01*
X79703Y-29135D01*
X79703Y-29313D01*
X79770Y-29477D01*
X79896Y-29603D01*
X80060Y-29671D01*
X80186Y-29671D01*
X80194Y-29680D01*
X80289Y-29742D01*
X80289Y-29742D01*
X80400Y-29765D01*
X80536Y-29765D01*
X80558Y-29786D01*
X80650Y-29825D01*
X80749Y-29825D01*
X80789Y-29825D01*
X80835Y-29870D01*
X80835Y-35250D01*
X80825Y-35250D01*
X80525Y-35250D01*
X80433Y-35288D01*
X80411Y-35310D01*
X79850Y-35310D01*
X79850Y-35250D01*
X79811Y-35158D01*
X79741Y-35088D01*
X79649Y-35050D01*
X79550Y-35050D01*
X78950Y-35050D01*
X78858Y-35088D01*
X78788Y-35158D01*
X78750Y-35250D01*
X78750Y-35303D01*
X78685Y-35284D01*
X78615Y-35355D01*
X78615Y-35214D01*
X78615Y-28585D01*
X78300Y-28270D01*
X78229Y-28341D01*
X78229Y-28200D01*
X77914Y-27884D01*
X77818Y-27912D01*
X77745Y-28118D01*
X77756Y-28336D01*
X77818Y-28487D01*
X77914Y-28515D01*
X78229Y-28200D01*
X78229Y-28341D01*
X77984Y-28585D01*
X78012Y-28681D01*
X78218Y-28754D01*
X78436Y-28743D01*
X78587Y-28681D01*
X78615Y-28585D01*
X78615Y-35214D01*
X78587Y-35118D01*
X78381Y-35045D01*
X78163Y-35056D01*
X78012Y-35118D01*
X77984Y-35214D01*
X78300Y-35529D01*
X78615Y-35214D01*
X78615Y-35355D01*
X78370Y-35600D01*
X78685Y-35915D01*
X78750Y-35896D01*
X78750Y-35949D01*
X78788Y-36041D01*
X78806Y-36060D01*
X78593Y-36060D01*
X78615Y-35985D01*
X78300Y-35670D01*
X78229Y-35741D01*
X78229Y-35600D01*
X77914Y-35284D01*
X77818Y-35312D01*
X77745Y-35518D01*
X77756Y-35736D01*
X77818Y-35887D01*
X77914Y-35915D01*
X78229Y-35600D01*
X78229Y-35741D01*
X77984Y-35985D01*
X78006Y-36060D01*
X72670Y-36060D01*
X72165Y-35554D01*
X72165Y-30375D01*
X72142Y-30264D01*
X72142Y-30264D01*
X72080Y-30169D01*
X71605Y-29694D01*
X71510Y-29632D01*
X71400Y-29610D01*
X70974Y-29610D01*
X70875Y-29461D01*
X70783Y-29399D01*
X70875Y-29338D01*
X71009Y-29137D01*
X71057Y-28900D01*
X71009Y-28662D01*
X70875Y-28461D01*
X70783Y-28399D01*
X70875Y-28338D01*
X71009Y-28137D01*
X71057Y-27900D01*
X71009Y-27662D01*
X70875Y-27461D01*
X70783Y-27399D01*
X70875Y-27338D01*
X71009Y-27137D01*
X71057Y-26900D01*
X71009Y-26662D01*
X70875Y-26461D01*
X70783Y-26399D01*
X70875Y-26338D01*
X71009Y-26137D01*
X71057Y-25900D01*
X71009Y-25662D01*
X70875Y-25461D01*
X70783Y-25399D01*
X70875Y-25338D01*
X71009Y-25137D01*
X71057Y-24900D01*
X71009Y-24662D01*
X70875Y-24461D01*
X70783Y-24399D01*
X70875Y-24338D01*
X71009Y-24137D01*
X71057Y-23900D01*
X71009Y-23662D01*
X70875Y-23461D01*
X70783Y-23399D01*
X70875Y-23338D01*
X71009Y-23137D01*
X71057Y-22900D01*
X71009Y-22662D01*
X70875Y-22461D01*
X70783Y-22399D01*
X70875Y-22338D01*
X71009Y-22137D01*
X71057Y-21900D01*
X71009Y-21662D01*
X70875Y-21461D01*
X70715Y-21354D01*
X70715Y-18925D01*
X70692Y-18814D01*
X70630Y-18719D01*
X69469Y-17558D01*
X69374Y-17496D01*
X69264Y-17474D01*
X66221Y-17474D01*
X66221Y-17336D01*
X66154Y-17172D01*
X66028Y-17046D01*
X65864Y-16978D01*
X65686Y-16978D01*
X65522Y-17045D01*
X65433Y-17135D01*
X65427Y-17135D01*
X65446Y-17089D01*
X65446Y-16911D01*
X65379Y-16747D01*
X65253Y-16621D01*
X65089Y-16553D01*
X64960Y-16553D01*
X64874Y-16496D01*
X64764Y-16474D01*
X64058Y-16474D01*
X64040Y-16430D01*
X63875Y-16264D01*
X63873Y-16264D01*
X63874Y-16263D01*
X64040Y-16098D01*
X64130Y-15881D01*
X64130Y-15647D01*
X64040Y-15430D01*
X63875Y-15264D01*
X63831Y-15246D01*
X63831Y-14416D01*
X63808Y-14305D01*
X63800Y-14291D01*
X63800Y-13925D01*
X63761Y-13833D01*
X63691Y-13763D01*
X63599Y-13725D01*
X63500Y-13725D01*
X63150Y-13725D01*
X63058Y-13763D01*
X63000Y-13821D01*
X62941Y-13763D01*
X62849Y-13725D01*
X62737Y-13725D01*
X62675Y-13787D01*
X62675Y-14200D01*
X62682Y-14200D01*
X62682Y-14300D01*
X62675Y-14300D01*
X62675Y-14712D01*
X62737Y-14775D01*
X62849Y-14775D01*
X62941Y-14736D01*
X63000Y-14678D01*
X63058Y-14736D01*
X63150Y-14775D01*
X63249Y-14775D01*
X63251Y-14775D01*
X63251Y-15246D01*
X63207Y-15264D01*
X63041Y-15429D01*
X63034Y-15446D01*
X62955Y-15420D01*
X62884Y-15490D01*
X62884Y-15349D01*
X62852Y-15250D01*
X62632Y-15170D01*
X62575Y-15172D01*
X62575Y-14712D01*
X62575Y-14300D01*
X62575Y-14200D01*
X62575Y-13787D01*
X62512Y-13725D01*
X62400Y-13725D01*
X62308Y-13763D01*
X62238Y-13833D01*
X62200Y-13925D01*
X62200Y-14024D01*
X62200Y-14137D01*
X62262Y-14200D01*
X62575Y-14200D01*
X62575Y-14300D01*
X62262Y-14300D01*
X62200Y-14362D01*
X62200Y-14475D01*
X62200Y-14574D01*
X62238Y-14666D01*
X62308Y-14736D01*
X62400Y-14775D01*
X62512Y-14775D01*
X62575Y-14712D01*
X62575Y-15172D01*
X62397Y-15180D01*
X62229Y-15250D01*
X62197Y-15349D01*
X62541Y-15693D01*
X62884Y-15349D01*
X62884Y-15490D01*
X62611Y-15764D01*
X62955Y-16107D01*
X63034Y-16082D01*
X63041Y-16097D01*
X63206Y-16263D01*
X63208Y-16263D01*
X63207Y-16264D01*
X63041Y-16429D01*
X63041Y-16431D01*
X63040Y-16430D01*
X62875Y-16264D01*
X62858Y-16257D01*
X62884Y-16178D01*
X62541Y-15834D01*
X62470Y-15905D01*
X62470Y-15764D01*
X62126Y-15420D01*
X62027Y-15452D01*
X61947Y-15672D01*
X61957Y-15907D01*
X62027Y-16075D01*
X62126Y-16107D01*
X62470Y-15764D01*
X62470Y-15905D01*
X62197Y-16178D01*
X62222Y-16257D01*
X62207Y-16264D01*
X62041Y-16429D01*
X61951Y-16646D01*
X61951Y-16880D01*
X62041Y-17097D01*
X62206Y-17263D01*
X62208Y-17263D01*
X62207Y-17264D01*
X62041Y-17429D01*
X62023Y-17474D01*
X61605Y-17474D01*
X61503Y-17371D01*
X61339Y-17303D01*
X61161Y-17303D01*
X60997Y-17370D01*
X60871Y-17496D01*
X60818Y-17622D01*
X60818Y-17250D01*
X60794Y-17127D01*
X60794Y-17127D01*
X60760Y-17076D01*
X60725Y-17024D01*
X60725Y-17024D01*
X60525Y-16824D01*
X60422Y-16755D01*
X60325Y-16736D01*
X60325Y-14500D01*
X60224Y-13992D01*
X59936Y-13563D01*
X59507Y-13275D01*
X59000Y-13175D01*
X58492Y-13275D01*
X58063Y-13563D01*
X57775Y-13992D01*
X57675Y-14500D01*
X57775Y-15007D01*
X58063Y-15436D01*
X58492Y-15724D01*
X59000Y-15825D01*
X59507Y-15724D01*
X59936Y-15436D01*
X60224Y-15007D01*
X60325Y-14500D01*
X60325Y-16736D01*
X60300Y-16731D01*
X60000Y-16731D01*
X60000Y-16700D01*
X59961Y-16608D01*
X59891Y-16538D01*
X59799Y-16500D01*
X59700Y-16500D01*
X59100Y-16500D01*
X59008Y-16538D01*
X58938Y-16608D01*
X58900Y-16700D01*
X58900Y-16799D01*
X58900Y-17399D01*
X58938Y-17491D01*
X59008Y-17561D01*
X59100Y-17600D01*
X59153Y-17600D01*
X59134Y-17664D01*
X59450Y-17979D01*
X59765Y-17664D01*
X59746Y-17600D01*
X59799Y-17600D01*
X59891Y-17561D01*
X59961Y-17491D01*
X60000Y-17399D01*
X60000Y-17368D01*
X60167Y-17368D01*
X60181Y-17382D01*
X60181Y-19750D01*
X60205Y-19872D01*
X60274Y-19975D01*
X60288Y-19989D01*
X60288Y-19989D01*
X60340Y-20024D01*
X60391Y-20058D01*
X60391Y-20058D01*
X60514Y-20082D01*
X62035Y-20082D01*
X62041Y-20097D01*
X62206Y-20263D01*
X62423Y-20353D01*
X62657Y-20353D01*
X62874Y-20263D01*
X63000Y-20137D01*
X63029Y-20205D01*
X63099Y-20275D01*
X63191Y-20314D01*
X63290Y-20314D01*
X63890Y-20314D01*
X63982Y-20275D01*
X64052Y-20205D01*
X64091Y-20113D01*
X64091Y-20038D01*
X64121Y-20031D01*
X64216Y-19969D01*
X65470Y-18715D01*
X66127Y-18715D01*
X66162Y-18750D01*
X66239Y-18750D01*
X66300Y-18775D01*
X66399Y-18775D01*
X66557Y-18775D01*
X66557Y-18825D01*
X66300Y-18825D01*
X66239Y-18850D01*
X66162Y-18850D01*
X66134Y-18877D01*
X66053Y-18796D01*
X65889Y-18728D01*
X65711Y-18728D01*
X65547Y-18795D01*
X65421Y-18921D01*
X65353Y-19085D01*
X65353Y-19263D01*
X65420Y-19427D01*
X65546Y-19553D01*
X65710Y-19621D01*
X65888Y-19621D01*
X66052Y-19554D01*
X66141Y-19465D01*
X66186Y-19465D01*
X66208Y-19486D01*
X66300Y-19525D01*
X66399Y-19525D01*
X66699Y-19525D01*
X66791Y-19486D01*
X66861Y-19416D01*
X66900Y-19324D01*
X66900Y-19225D01*
X66900Y-19025D01*
X66884Y-18987D01*
X66900Y-18949D01*
X66900Y-18912D01*
X66837Y-18850D01*
X66900Y-18850D01*
X66900Y-18822D01*
X66965Y-18849D01*
X67134Y-18850D01*
X67290Y-18785D01*
X67300Y-18775D01*
X67399Y-18775D01*
X67699Y-18775D01*
X67791Y-18736D01*
X67861Y-18666D01*
X67900Y-18574D01*
X67900Y-18475D01*
X67900Y-18275D01*
X67861Y-18183D01*
X67791Y-18113D01*
X67699Y-18075D01*
X67600Y-18075D01*
X67301Y-18075D01*
X67291Y-18064D01*
X67264Y-18054D01*
X69143Y-18054D01*
X70135Y-19045D01*
X70135Y-21354D01*
X69974Y-21461D01*
X69840Y-21662D01*
X69792Y-21900D01*
X69840Y-22137D01*
X69974Y-22338D01*
X70066Y-22400D01*
X69974Y-22461D01*
X69840Y-22662D01*
X69818Y-22771D01*
X69725Y-22864D01*
X69725Y-19116D01*
X69641Y-18913D01*
X69486Y-18759D01*
X69284Y-18675D01*
X69066Y-18674D01*
X68863Y-18758D01*
X68709Y-18913D01*
X68693Y-18950D01*
X67879Y-18975D01*
X67861Y-18933D01*
X67791Y-18863D01*
X67699Y-18825D01*
X67600Y-18825D01*
X67300Y-18825D01*
X67208Y-18863D01*
X67138Y-18933D01*
X67100Y-19025D01*
X67100Y-19124D01*
X67100Y-19324D01*
X67138Y-19416D01*
X67208Y-19486D01*
X67300Y-19525D01*
X67399Y-19525D01*
X67462Y-19525D01*
X67489Y-19542D01*
X67493Y-19543D01*
X67497Y-19546D01*
X67548Y-19554D01*
X67600Y-19565D01*
X67604Y-19564D01*
X67609Y-19564D01*
X68705Y-19530D01*
X68708Y-19536D01*
X68847Y-19675D01*
X68825Y-19675D01*
X68733Y-19713D01*
X68663Y-19783D01*
X68625Y-19875D01*
X68625Y-20112D01*
X68687Y-20175D01*
X69125Y-20175D01*
X69125Y-20167D01*
X69225Y-20167D01*
X69225Y-20175D01*
X69662Y-20175D01*
X69725Y-20112D01*
X69725Y-19875D01*
X69686Y-19783D01*
X69616Y-19713D01*
X69524Y-19675D01*
X69502Y-19675D01*
X69640Y-19536D01*
X69724Y-19334D01*
X69725Y-19116D01*
X69725Y-22864D01*
X69725Y-22864D01*
X69725Y-20574D01*
X69725Y-20337D01*
X69662Y-20275D01*
X69225Y-20275D01*
X69225Y-20712D01*
X69287Y-20775D01*
X69425Y-20775D01*
X69524Y-20775D01*
X69616Y-20736D01*
X69686Y-20666D01*
X69725Y-20574D01*
X69725Y-22864D01*
X69125Y-23464D01*
X69125Y-20712D01*
X69125Y-20275D01*
X68687Y-20275D01*
X68625Y-20337D01*
X68625Y-20574D01*
X68663Y-20666D01*
X68733Y-20736D01*
X68825Y-20775D01*
X68924Y-20775D01*
X69062Y-20775D01*
X69125Y-20712D01*
X69125Y-23464D01*
X66900Y-25689D01*
X66262Y-26327D01*
X66229Y-26247D01*
X66103Y-26121D01*
X65939Y-26053D01*
X65761Y-26053D01*
X65597Y-26120D01*
X65508Y-26210D01*
X65396Y-26210D01*
X65446Y-26089D01*
X65446Y-25911D01*
X65379Y-25747D01*
X65253Y-25621D01*
X65089Y-25553D01*
X64911Y-25553D01*
X64747Y-25620D01*
X64643Y-25724D01*
X64058Y-25724D01*
X64040Y-25680D01*
X63875Y-25514D01*
X63873Y-25514D01*
X63874Y-25513D01*
X64040Y-25348D01*
X64130Y-25131D01*
X64130Y-24897D01*
X64040Y-24680D01*
X63875Y-24514D01*
X63831Y-24496D01*
X63831Y-24025D01*
X63849Y-24025D01*
X63941Y-23986D01*
X64011Y-23916D01*
X64050Y-23824D01*
X64050Y-23725D01*
X64050Y-23175D01*
X64011Y-23083D01*
X63941Y-23013D01*
X63849Y-22975D01*
X63750Y-22975D01*
X63400Y-22975D01*
X63308Y-23013D01*
X63250Y-23071D01*
X63191Y-23013D01*
X63099Y-22975D01*
X62987Y-22975D01*
X62925Y-23037D01*
X62925Y-23450D01*
X62932Y-23450D01*
X62932Y-23550D01*
X62925Y-23550D01*
X62925Y-23962D01*
X62987Y-24025D01*
X63099Y-24025D01*
X63191Y-23986D01*
X63250Y-23928D01*
X63251Y-23929D01*
X63251Y-24496D01*
X63207Y-24514D01*
X63041Y-24679D01*
X63034Y-24696D01*
X62955Y-24670D01*
X62884Y-24740D01*
X62884Y-24599D01*
X62852Y-24500D01*
X62825Y-24490D01*
X62825Y-23962D01*
X62825Y-23550D01*
X62825Y-23450D01*
X62825Y-23037D01*
X62762Y-22975D01*
X62650Y-22975D01*
X62558Y-23013D01*
X62488Y-23083D01*
X62450Y-23175D01*
X62450Y-23274D01*
X62450Y-23387D01*
X62512Y-23450D01*
X62825Y-23450D01*
X62825Y-23550D01*
X62512Y-23550D01*
X62450Y-23612D01*
X62450Y-23725D01*
X62450Y-23824D01*
X62488Y-23916D01*
X62558Y-23986D01*
X62650Y-24025D01*
X62762Y-24025D01*
X62825Y-23962D01*
X62825Y-24490D01*
X62632Y-24420D01*
X62397Y-24430D01*
X62229Y-24500D01*
X62197Y-24599D01*
X62541Y-24943D01*
X62884Y-24599D01*
X62884Y-24740D01*
X62611Y-25014D01*
X62955Y-25357D01*
X63034Y-25332D01*
X63041Y-25347D01*
X63206Y-25513D01*
X63208Y-25513D01*
X63207Y-25514D01*
X63041Y-25679D01*
X63041Y-25681D01*
X63040Y-25680D01*
X62875Y-25514D01*
X62858Y-25507D01*
X62884Y-25428D01*
X62541Y-25084D01*
X62470Y-25155D01*
X62470Y-25014D01*
X62126Y-24670D01*
X62027Y-24702D01*
X61947Y-24922D01*
X61957Y-25157D01*
X62027Y-25325D01*
X62126Y-25357D01*
X62470Y-25014D01*
X62470Y-25155D01*
X62197Y-25428D01*
X62222Y-25507D01*
X62207Y-25514D01*
X62041Y-25679D01*
X61951Y-25896D01*
X61951Y-26130D01*
X62041Y-26347D01*
X62206Y-26513D01*
X62208Y-26513D01*
X62207Y-26514D01*
X62041Y-26679D01*
X62023Y-26724D01*
X61605Y-26724D01*
X61503Y-26621D01*
X61339Y-26553D01*
X61161Y-26553D01*
X60997Y-26620D01*
X60871Y-26746D01*
X60803Y-26910D01*
X60803Y-27088D01*
X60870Y-27252D01*
X60996Y-27378D01*
X61160Y-27446D01*
X61338Y-27446D01*
X61502Y-27379D01*
X61577Y-27304D01*
X62023Y-27304D01*
X62041Y-27347D01*
X62206Y-27513D01*
X62208Y-27513D01*
X62207Y-27514D01*
X62051Y-27669D01*
X62003Y-27621D01*
X61839Y-27553D01*
X61661Y-27553D01*
X61497Y-27620D01*
X61371Y-27746D01*
X61303Y-27910D01*
X61303Y-28088D01*
X61370Y-28252D01*
X61496Y-28378D01*
X61660Y-28446D01*
X61838Y-28446D01*
X62002Y-28379D01*
X62039Y-28342D01*
X62041Y-28347D01*
X62206Y-28513D01*
X62208Y-28513D01*
X62207Y-28514D01*
X62041Y-28679D01*
X62035Y-28695D01*
X60946Y-28695D01*
X60718Y-28467D01*
X60718Y-26400D01*
X60694Y-26277D01*
X60694Y-26277D01*
X60660Y-26226D01*
X60625Y-26174D01*
X60625Y-26174D01*
X60525Y-26074D01*
X60422Y-26005D01*
X60300Y-25981D01*
X60004Y-25981D01*
X60004Y-18131D01*
X59993Y-17913D01*
X59931Y-17762D01*
X59835Y-17734D01*
X59520Y-18050D01*
X59835Y-18365D01*
X59931Y-18337D01*
X60004Y-18131D01*
X60004Y-25981D01*
X59871Y-25981D01*
X59724Y-25834D01*
X59522Y-25750D01*
X59303Y-25749D01*
X59101Y-25833D01*
X58946Y-25988D01*
X58862Y-26190D01*
X58862Y-26408D01*
X58946Y-26611D01*
X59100Y-26765D01*
X59176Y-26797D01*
X59124Y-26818D01*
X59097Y-26914D01*
X59412Y-27229D01*
X59727Y-26914D01*
X59700Y-26818D01*
X59645Y-26799D01*
X59723Y-26766D01*
X59871Y-26618D01*
X60081Y-26618D01*
X60081Y-28600D01*
X60105Y-28722D01*
X60174Y-28825D01*
X60588Y-29239D01*
X60588Y-29239D01*
X60640Y-29274D01*
X60691Y-29308D01*
X60691Y-29308D01*
X60814Y-29332D01*
X62035Y-29332D01*
X62041Y-29347D01*
X62206Y-29513D01*
X62423Y-29603D01*
X62657Y-29603D01*
X62874Y-29513D01*
X63000Y-29387D01*
X63029Y-29455D01*
X63099Y-29525D01*
X63191Y-29564D01*
X63290Y-29564D01*
X63890Y-29564D01*
X63982Y-29525D01*
X64052Y-29455D01*
X64091Y-29363D01*
X64091Y-29303D01*
X64196Y-29281D01*
X64291Y-29219D01*
X64620Y-28890D01*
X66127Y-28890D01*
X66162Y-28924D01*
X66100Y-28924D01*
X66100Y-28969D01*
X65939Y-28903D01*
X65761Y-28903D01*
X65597Y-28970D01*
X65471Y-29096D01*
X65403Y-29260D01*
X65403Y-29438D01*
X65470Y-29602D01*
X65596Y-29728D01*
X65760Y-29796D01*
X65938Y-29796D01*
X66102Y-29729D01*
X66189Y-29642D01*
X66208Y-29661D01*
X66300Y-29700D01*
X66399Y-29700D01*
X66699Y-29700D01*
X66791Y-29661D01*
X66861Y-29591D01*
X66900Y-29499D01*
X66900Y-29400D01*
X66900Y-29200D01*
X66884Y-29162D01*
X66900Y-29124D01*
X66900Y-29087D01*
X66837Y-29025D01*
X66760Y-29025D01*
X66699Y-29000D01*
X66600Y-29000D01*
X66442Y-29000D01*
X66442Y-28950D01*
X66699Y-28950D01*
X66760Y-28925D01*
X66837Y-28925D01*
X66900Y-28862D01*
X66900Y-28825D01*
X66884Y-28787D01*
X66900Y-28749D01*
X66900Y-28650D01*
X66900Y-28450D01*
X66861Y-28358D01*
X66791Y-28288D01*
X66699Y-28250D01*
X66662Y-28250D01*
X66730Y-28205D01*
X67028Y-27906D01*
X67028Y-28063D01*
X67095Y-28227D01*
X67182Y-28314D01*
X67138Y-28358D01*
X67100Y-28450D01*
X67100Y-28549D01*
X67100Y-28749D01*
X67138Y-28841D01*
X67208Y-28911D01*
X67300Y-28950D01*
X67399Y-28950D01*
X67699Y-28950D01*
X67710Y-28945D01*
X67710Y-29004D01*
X67699Y-29000D01*
X67600Y-29000D01*
X67300Y-29000D01*
X67208Y-29038D01*
X67138Y-29108D01*
X67100Y-29200D01*
X67100Y-29299D01*
X67100Y-29499D01*
X67138Y-29591D01*
X67168Y-29621D01*
X66900Y-29889D01*
X66879Y-29910D01*
X66200Y-29910D01*
X66089Y-29932D01*
X65994Y-29994D01*
X65932Y-30089D01*
X65910Y-30200D01*
X65910Y-30624D01*
X65888Y-30633D01*
X65734Y-30788D01*
X65650Y-30990D01*
X65649Y-31208D01*
X65733Y-31411D01*
X65872Y-31550D01*
X65850Y-31550D01*
X65758Y-31588D01*
X65688Y-31658D01*
X65650Y-31750D01*
X65650Y-31987D01*
X65712Y-32050D01*
X66150Y-32050D01*
X66150Y-32042D01*
X66250Y-32042D01*
X66250Y-32050D01*
X66687Y-32050D01*
X66750Y-31987D01*
X66750Y-31750D01*
X66711Y-31658D01*
X66641Y-31588D01*
X66549Y-31550D01*
X66527Y-31550D01*
X66665Y-31411D01*
X66749Y-31209D01*
X66750Y-30991D01*
X66666Y-30788D01*
X66511Y-30634D01*
X66490Y-30624D01*
X66490Y-30490D01*
X67000Y-30490D01*
X67110Y-30467D01*
X67205Y-30405D01*
X67705Y-29905D01*
X67710Y-29897D01*
X67710Y-33327D01*
X67584Y-33275D01*
X67415Y-33274D01*
X67259Y-33339D01*
X67139Y-33458D01*
X67075Y-33615D01*
X67074Y-33784D01*
X67139Y-33940D01*
X67210Y-34011D01*
X67210Y-34812D01*
X67208Y-34813D01*
X67138Y-34883D01*
X67100Y-34975D01*
X67100Y-35074D01*
X67100Y-35189D01*
X66900Y-34989D01*
X66900Y-34975D01*
X66861Y-34883D01*
X66791Y-34813D01*
X66750Y-34795D01*
X66750Y-32449D01*
X66750Y-32212D01*
X66687Y-32150D01*
X66250Y-32150D01*
X66250Y-32587D01*
X66312Y-32650D01*
X66450Y-32650D01*
X66549Y-32650D01*
X66641Y-32611D01*
X66711Y-32541D01*
X66750Y-32449D01*
X66750Y-34795D01*
X66699Y-34775D01*
X66600Y-34775D01*
X66300Y-34775D01*
X66208Y-34813D01*
X66150Y-34871D01*
X66150Y-32587D01*
X66150Y-32150D01*
X65712Y-32150D01*
X65650Y-32212D01*
X65650Y-32449D01*
X65688Y-32541D01*
X65758Y-32611D01*
X65850Y-32650D01*
X65949Y-32650D01*
X66087Y-32650D01*
X66150Y-32587D01*
X66150Y-34871D01*
X66138Y-34883D01*
X66100Y-34975D01*
X66100Y-35074D01*
X66100Y-35274D01*
X66115Y-35312D01*
X66100Y-35350D01*
X66100Y-35387D01*
X66162Y-35450D01*
X66239Y-35450D01*
X66300Y-35475D01*
X66399Y-35475D01*
X66557Y-35475D01*
X66557Y-35525D01*
X66300Y-35525D01*
X66239Y-35550D01*
X66162Y-35550D01*
X66100Y-35612D01*
X66100Y-35649D01*
X66115Y-35687D01*
X66106Y-35710D01*
X65396Y-35710D01*
X65446Y-35589D01*
X65446Y-35411D01*
X65379Y-35247D01*
X65253Y-35121D01*
X65089Y-35053D01*
X64911Y-35053D01*
X64747Y-35120D01*
X64643Y-35224D01*
X64058Y-35224D01*
X64040Y-35180D01*
X63875Y-35014D01*
X63873Y-35014D01*
X63874Y-35013D01*
X64040Y-34848D01*
X64130Y-34631D01*
X64130Y-34397D01*
X64040Y-34180D01*
X63875Y-34014D01*
X63831Y-33996D01*
X63831Y-33166D01*
X63808Y-33055D01*
X63800Y-33041D01*
X63800Y-32675D01*
X63761Y-32583D01*
X63691Y-32513D01*
X63599Y-32475D01*
X63500Y-32475D01*
X63150Y-32475D01*
X63058Y-32513D01*
X63000Y-32571D01*
X62941Y-32513D01*
X62849Y-32475D01*
X62737Y-32475D01*
X62675Y-32537D01*
X62675Y-32950D01*
X62682Y-32950D01*
X62682Y-33050D01*
X62675Y-33050D01*
X62675Y-33462D01*
X62737Y-33525D01*
X62849Y-33525D01*
X62941Y-33486D01*
X63000Y-33428D01*
X63058Y-33486D01*
X63150Y-33525D01*
X63249Y-33525D01*
X63251Y-33525D01*
X63251Y-33996D01*
X63207Y-34014D01*
X63041Y-34179D01*
X63034Y-34196D01*
X62955Y-34170D01*
X62884Y-34240D01*
X62884Y-34099D01*
X62852Y-34000D01*
X62632Y-33920D01*
X62575Y-33922D01*
X62575Y-33462D01*
X62575Y-33050D01*
X62575Y-32950D01*
X62575Y-32537D01*
X62512Y-32475D01*
X62400Y-32475D01*
X62308Y-32513D01*
X62238Y-32583D01*
X62200Y-32675D01*
X62200Y-32774D01*
X62200Y-32887D01*
X62262Y-32950D01*
X62575Y-32950D01*
X62575Y-33050D01*
X62262Y-33050D01*
X62200Y-33112D01*
X62200Y-33225D01*
X62200Y-33324D01*
X62238Y-33416D01*
X62308Y-33486D01*
X62400Y-33525D01*
X62512Y-33525D01*
X62575Y-33462D01*
X62575Y-33922D01*
X62397Y-33930D01*
X62229Y-34000D01*
X62197Y-34099D01*
X62541Y-34443D01*
X62884Y-34099D01*
X62884Y-34240D01*
X62611Y-34514D01*
X62955Y-34857D01*
X63034Y-34832D01*
X63041Y-34847D01*
X63206Y-35013D01*
X63208Y-35013D01*
X63207Y-35014D01*
X63041Y-35179D01*
X63041Y-35181D01*
X63040Y-35180D01*
X62875Y-35014D01*
X62858Y-35007D01*
X62884Y-34928D01*
X62541Y-34584D01*
X62470Y-34655D01*
X62470Y-34514D01*
X62126Y-34170D01*
X62027Y-34202D01*
X61947Y-34422D01*
X61957Y-34657D01*
X62027Y-34825D01*
X62126Y-34857D01*
X62470Y-34514D01*
X62470Y-34655D01*
X62197Y-34928D01*
X62222Y-35007D01*
X62207Y-35014D01*
X62041Y-35179D01*
X61951Y-35396D01*
X61951Y-35630D01*
X62041Y-35847D01*
X62206Y-36013D01*
X62208Y-36013D01*
X62207Y-36014D01*
X62041Y-36179D01*
X62023Y-36224D01*
X61605Y-36224D01*
X61503Y-36121D01*
X61339Y-36053D01*
X61161Y-36053D01*
X60997Y-36120D01*
X60871Y-36246D01*
X60818Y-36372D01*
X60818Y-35750D01*
X60794Y-35627D01*
X60794Y-35627D01*
X60760Y-35576D01*
X60725Y-35524D01*
X60725Y-35524D01*
X60525Y-35324D01*
X60422Y-35255D01*
X60300Y-35231D01*
X60000Y-35231D01*
X60000Y-35200D01*
X59967Y-35121D01*
X59967Y-27381D01*
X59956Y-27163D01*
X59893Y-27012D01*
X59798Y-26984D01*
X59483Y-27300D01*
X59798Y-27615D01*
X59893Y-27587D01*
X59967Y-27381D01*
X59967Y-35121D01*
X59961Y-35108D01*
X59891Y-35038D01*
X59799Y-35000D01*
X59700Y-35000D01*
X59100Y-35000D01*
X59008Y-35038D01*
X58938Y-35108D01*
X58900Y-35200D01*
X58900Y-35299D01*
X58900Y-35899D01*
X58938Y-35991D01*
X59008Y-36061D01*
X59100Y-36100D01*
X59153Y-36100D01*
X59134Y-36164D01*
X59450Y-36479D01*
X59765Y-36164D01*
X59746Y-36100D01*
X59799Y-36100D01*
X59891Y-36061D01*
X59961Y-35991D01*
X60000Y-35899D01*
X60000Y-35868D01*
X60167Y-35868D01*
X60181Y-35882D01*
X60181Y-38500D01*
X60205Y-38622D01*
X60274Y-38725D01*
X60288Y-38739D01*
X60288Y-38739D01*
X60340Y-38774D01*
X60391Y-38808D01*
X60391Y-38808D01*
X60514Y-38832D01*
X62035Y-38832D01*
X62041Y-38847D01*
X62206Y-39013D01*
X62423Y-39103D01*
X62657Y-39103D01*
X62874Y-39013D01*
X63000Y-38887D01*
X63029Y-38955D01*
X63099Y-39025D01*
X63191Y-39064D01*
X63290Y-39064D01*
X63890Y-39064D01*
X63982Y-39025D01*
X64052Y-38955D01*
X64091Y-38863D01*
X64091Y-38804D01*
X65486Y-38804D01*
X65596Y-38781D01*
X65691Y-38719D01*
X66963Y-37446D01*
X67088Y-37446D01*
X67252Y-37379D01*
X67378Y-37253D01*
X67446Y-37089D01*
X67446Y-36911D01*
X67402Y-36804D01*
X67475Y-36804D01*
X71114Y-36804D01*
X71224Y-36781D01*
X71319Y-36719D01*
X71330Y-36708D01*
X71392Y-36613D01*
X71415Y-36503D01*
X71415Y-34650D01*
X71392Y-34539D01*
X71392Y-34539D01*
X71330Y-34444D01*
X71057Y-34172D01*
X71057Y-32900D01*
X71009Y-32662D01*
X70875Y-32461D01*
X70787Y-32402D01*
X70790Y-32400D01*
X70954Y-32222D01*
X71027Y-32046D01*
X70980Y-31950D01*
X70475Y-31950D01*
X70475Y-31957D01*
X70375Y-31957D01*
X70375Y-31950D01*
X69869Y-31950D01*
X69822Y-32046D01*
X69895Y-32222D01*
X70059Y-32400D01*
X70062Y-32402D01*
X69974Y-32461D01*
X69840Y-32662D01*
X69792Y-32900D01*
X69840Y-33137D01*
X69974Y-33338D01*
X70175Y-33472D01*
X70412Y-33520D01*
X70437Y-33520D01*
X70674Y-33472D01*
X70875Y-33338D01*
X71009Y-33137D01*
X71057Y-32900D01*
X71057Y-34172D01*
X70980Y-34094D01*
X70885Y-34032D01*
X70775Y-34010D01*
X68290Y-34010D01*
X68290Y-28271D01*
X68360Y-28341D01*
X68360Y-29125D01*
X68382Y-29235D01*
X68444Y-29330D01*
X69219Y-30105D01*
X69314Y-30167D01*
X69425Y-30190D01*
X69875Y-30190D01*
X69974Y-30338D01*
X70066Y-30400D01*
X69974Y-30461D01*
X69840Y-30662D01*
X69792Y-30900D01*
X69840Y-31137D01*
X69974Y-31338D01*
X70062Y-31397D01*
X70059Y-31399D01*
X69895Y-31577D01*
X69822Y-31753D01*
X69869Y-31850D01*
X70375Y-31850D01*
X70375Y-31842D01*
X70475Y-31842D01*
X70475Y-31850D01*
X70980Y-31850D01*
X71027Y-31753D01*
X70954Y-31577D01*
X70790Y-31399D01*
X70787Y-31397D01*
X70875Y-31338D01*
X71009Y-31137D01*
X71057Y-30900D01*
X71009Y-30662D01*
X70875Y-30461D01*
X70783Y-30399D01*
X70875Y-30338D01*
X70974Y-30190D01*
X71279Y-30190D01*
X71585Y-30495D01*
X71585Y-35675D01*
X71607Y-35785D01*
X71669Y-35880D01*
X72344Y-36555D01*
X72439Y-36617D01*
X72550Y-36640D01*
X80411Y-36640D01*
X80433Y-36661D01*
X80525Y-36700D01*
X80624Y-36700D01*
X80924Y-36700D01*
X81016Y-36661D01*
X81060Y-36618D01*
X81060Y-36617D01*
X81155Y-36555D01*
X81237Y-36472D01*
X81319Y-36555D01*
X81358Y-36580D01*
X81363Y-36591D01*
X81433Y-36661D01*
X81525Y-36700D01*
X81624Y-36700D01*
X81924Y-36700D01*
X82016Y-36661D01*
X82086Y-36591D01*
X82125Y-36499D01*
X82125Y-36400D01*
X82125Y-36200D01*
X82109Y-36162D01*
X82125Y-36124D01*
X82125Y-36087D01*
X82062Y-36025D01*
X81985Y-36025D01*
X81924Y-36000D01*
X81825Y-36000D01*
X81667Y-36000D01*
X81667Y-35950D01*
X81924Y-35950D01*
X81985Y-35925D01*
X82062Y-35925D01*
X82097Y-35890D01*
X82704Y-35890D01*
X83494Y-36680D01*
X83518Y-36696D01*
X82827Y-36696D01*
X82753Y-36621D01*
X82589Y-36553D01*
X82411Y-36553D01*
X82247Y-36620D01*
X82121Y-36746D01*
X82053Y-36910D01*
X82053Y-37088D01*
X82120Y-37252D01*
X82246Y-37378D01*
X82410Y-37446D01*
X82588Y-37446D01*
X82752Y-37379D01*
X82856Y-37276D01*
X83941Y-37276D01*
X83959Y-37319D01*
X84124Y-37485D01*
X84126Y-37485D01*
X84125Y-37486D01*
X83959Y-37651D01*
X83869Y-37868D01*
X83869Y-38102D01*
X83959Y-38319D01*
X84124Y-38485D01*
X84169Y-38503D01*
X84169Y-39084D01*
X84191Y-39194D01*
X84200Y-39208D01*
X84200Y-39574D01*
X84238Y-39666D01*
X84308Y-39736D01*
X84400Y-39775D01*
X84499Y-39775D01*
X84849Y-39775D01*
X84941Y-39736D01*
X85000Y-39678D01*
X85058Y-39736D01*
X85150Y-39775D01*
X85262Y-39775D01*
X85325Y-39712D01*
X85325Y-39300D01*
X85317Y-39300D01*
X85317Y-39200D01*
X85325Y-39200D01*
X85325Y-38787D01*
X85262Y-38725D01*
X85150Y-38725D01*
X85058Y-38763D01*
X84999Y-38821D01*
X84941Y-38763D01*
X84849Y-38725D01*
X84750Y-38725D01*
X84749Y-38725D01*
X84749Y-38503D01*
X84792Y-38485D01*
X84958Y-38320D01*
X84965Y-38303D01*
X85044Y-38329D01*
X85388Y-37986D01*
X85044Y-37642D01*
X84965Y-37667D01*
X84958Y-37652D01*
X84793Y-37486D01*
X84791Y-37486D01*
X84792Y-37485D01*
X84958Y-37320D01*
X84958Y-37318D01*
X84959Y-37319D01*
X85124Y-37485D01*
X85141Y-37492D01*
X85115Y-37571D01*
X85459Y-37915D01*
X85802Y-37571D01*
X85777Y-37492D01*
X85792Y-37485D01*
X85958Y-37320D01*
X86048Y-37103D01*
X86048Y-36869D01*
X85958Y-36652D01*
X85793Y-36486D01*
X85791Y-36486D01*
X85792Y-36485D01*
X85958Y-36320D01*
X85976Y-36276D01*
X86394Y-36276D01*
X86496Y-36378D01*
X86660Y-36446D01*
X86838Y-36446D01*
X87002Y-36379D01*
X87128Y-36253D01*
X87181Y-36127D01*
X87181Y-36450D01*
X87171Y-36500D01*
X87196Y-36625D01*
X87267Y-36732D01*
X87467Y-36932D01*
X87467Y-36932D01*
X87520Y-36968D01*
X87574Y-37003D01*
X87574Y-37003D01*
X87700Y-37028D01*
X88000Y-37028D01*
X88000Y-37049D01*
X88038Y-37141D01*
X88108Y-37211D01*
X88200Y-37250D01*
X88299Y-37250D01*
X88899Y-37250D01*
X88991Y-37211D01*
X89061Y-37141D01*
X89100Y-37049D01*
X89100Y-39999D01*
X86052Y-39999D01*
X86052Y-38077D01*
X86042Y-37842D01*
X85972Y-37674D01*
X85873Y-37642D01*
X85529Y-37986D01*
X85873Y-38329D01*
X85972Y-38297D01*
X86052Y-38077D01*
X86052Y-39999D01*
X85802Y-39999D01*
X85802Y-38400D01*
X85459Y-38056D01*
X85115Y-38400D01*
X85147Y-38499D01*
X85367Y-38579D01*
X85602Y-38569D01*
X85770Y-38499D01*
X85802Y-38400D01*
X85802Y-39999D01*
X85800Y-39999D01*
X85800Y-39574D01*
X85800Y-39475D01*
X85800Y-39362D01*
X85800Y-39137D01*
X85800Y-39024D01*
X85800Y-38925D01*
X85761Y-38833D01*
X85691Y-38763D01*
X85599Y-38725D01*
X85487Y-38725D01*
X85425Y-38787D01*
X85425Y-39200D01*
X85737Y-39200D01*
X85800Y-39137D01*
X85800Y-39362D01*
X85737Y-39300D01*
X85425Y-39300D01*
X85425Y-39712D01*
X85487Y-39775D01*
X85599Y-39775D01*
X85691Y-39736D01*
X85761Y-39666D01*
X85800Y-39574D01*
X85800Y-39999D01*
X83171Y-39999D01*
X83017Y-39935D01*
X82783Y-39935D01*
X82566Y-40025D01*
X82400Y-40190D01*
X82310Y-40407D01*
X82310Y-40641D01*
X82400Y-40858D01*
X82565Y-41024D01*
X82782Y-41114D01*
X83016Y-41114D01*
X83171Y-41050D01*
X89899Y-41050D01*
X89900Y-41050D01*
X89900Y-41050D01*
X90101Y-41010D01*
X90101Y-41010D01*
X90271Y-40896D01*
X90321Y-40846D01*
X90321Y-40846D01*
X90321Y-40846D01*
X90389Y-40744D01*
X90435Y-40676D01*
X90435Y-40676D01*
X90475Y-40475D01*
X90475Y-40475D01*
X90475Y-41175D01*
X90000Y-41175D01*
X78739Y-41175D01*
X78739Y-40408D01*
X78649Y-40191D01*
X78484Y-40025D01*
X78267Y-39935D01*
X78033Y-39935D01*
X77878Y-39999D01*
X77750Y-39999D01*
X77750Y-38291D01*
X77750Y-38291D01*
X77760Y-38276D01*
X77760Y-38276D01*
X77800Y-38075D01*
X77800Y-38075D01*
X77760Y-37873D01*
X77646Y-37703D01*
X77476Y-37589D01*
X77275Y-37549D01*
X77274Y-37549D01*
X73591Y-37549D01*
X73576Y-37539D01*
X73375Y-37499D01*
X73374Y-37499D01*
X71525Y-37499D01*
X71525Y-37499D01*
X71323Y-37539D01*
X71153Y-37653D01*
X71153Y-37653D01*
X71128Y-37678D01*
X71014Y-37848D01*
X70974Y-38050D01*
X70974Y-38050D01*
X70974Y-39974D01*
X70446Y-39974D01*
X70325Y-39924D01*
X70325Y-38500D01*
X70224Y-37992D01*
X69936Y-37563D01*
X69507Y-37275D01*
X69000Y-37175D01*
X68492Y-37275D01*
X68063Y-37563D01*
X67775Y-37992D01*
X67675Y-38500D01*
X67775Y-39007D01*
X68063Y-39436D01*
X68492Y-39724D01*
X69000Y-39825D01*
X69507Y-39724D01*
X69936Y-39436D01*
X70224Y-39007D01*
X70325Y-38500D01*
X70325Y-39924D01*
X70292Y-39910D01*
X70058Y-39910D01*
X69841Y-40000D01*
X69675Y-40165D01*
X69585Y-40382D01*
X69585Y-40616D01*
X69675Y-40833D01*
X69840Y-40999D01*
X70057Y-41089D01*
X70291Y-41089D01*
X70446Y-41025D01*
X71574Y-41025D01*
X71575Y-41025D01*
X71575Y-41025D01*
X71776Y-40985D01*
X71776Y-40985D01*
X71946Y-40871D01*
X72060Y-40701D01*
X72060Y-40701D01*
X72100Y-40500D01*
X72100Y-40500D01*
X72060Y-40298D01*
X72025Y-40246D01*
X72025Y-38550D01*
X72938Y-38550D01*
X72938Y-39130D01*
X72909Y-39142D01*
X72839Y-39212D01*
X72801Y-39304D01*
X72801Y-39404D01*
X72801Y-40230D01*
X72839Y-40322D01*
X72909Y-40393D01*
X73001Y-40431D01*
X73100Y-40431D01*
X73927Y-40431D01*
X74019Y-40393D01*
X74089Y-40322D01*
X74127Y-40230D01*
X74127Y-40131D01*
X74127Y-39929D01*
X74208Y-40123D01*
X74315Y-40164D01*
X74712Y-39767D01*
X74315Y-39370D01*
X74208Y-39411D01*
X74127Y-39626D01*
X74127Y-39304D01*
X74089Y-39212D01*
X74019Y-39142D01*
X73990Y-39130D01*
X73990Y-38600D01*
X76699Y-38600D01*
X76699Y-40299D01*
X76699Y-40300D01*
X76739Y-40501D01*
X76853Y-40671D01*
X77078Y-40896D01*
X77248Y-41010D01*
X77248Y-41010D01*
X77450Y-41050D01*
X77450Y-41050D01*
X77450Y-41050D01*
X77878Y-41050D01*
X78032Y-41114D01*
X78266Y-41114D01*
X78483Y-41024D01*
X78649Y-40859D01*
X78739Y-40642D01*
X78739Y-40408D01*
X78739Y-41175D01*
X75451Y-41175D01*
X75451Y-39876D01*
X75441Y-39612D01*
X75358Y-39411D01*
X75251Y-39370D01*
X75180Y-39441D01*
X75180Y-39299D01*
X75139Y-39192D01*
X74892Y-39100D01*
X74628Y-39109D01*
X74427Y-39192D01*
X74386Y-39299D01*
X74783Y-39697D01*
X75180Y-39299D01*
X75180Y-39441D01*
X74854Y-39767D01*
X75251Y-40164D01*
X75358Y-40123D01*
X75451Y-39876D01*
X75451Y-41175D01*
X75180Y-41175D01*
X75180Y-40235D01*
X74783Y-39838D01*
X74386Y-40235D01*
X74427Y-40342D01*
X74674Y-40435D01*
X74938Y-40426D01*
X75139Y-40342D01*
X75180Y-40235D01*
X75180Y-41175D01*
X66014Y-41175D01*
X66014Y-40383D01*
X65924Y-40166D01*
X65759Y-40000D01*
X65542Y-39910D01*
X65308Y-39910D01*
X65153Y-39974D01*
X60004Y-39974D01*
X60004Y-36631D01*
X59993Y-36413D01*
X59931Y-36262D01*
X59835Y-36234D01*
X59520Y-36550D01*
X59835Y-36865D01*
X59931Y-36837D01*
X60004Y-36631D01*
X60004Y-39974D01*
X58775Y-39974D01*
X58775Y-38075D01*
X59281Y-38075D01*
X59340Y-38099D01*
X59558Y-38100D01*
X59761Y-38016D01*
X59915Y-37861D01*
X59999Y-37659D01*
X60000Y-37441D01*
X59916Y-37238D01*
X59761Y-37084D01*
X59686Y-37052D01*
X59737Y-37031D01*
X59765Y-36935D01*
X59450Y-36620D01*
X59379Y-36691D01*
X59379Y-36550D01*
X59064Y-36234D01*
X58968Y-36262D01*
X58895Y-36468D01*
X58906Y-36686D01*
X58968Y-36837D01*
X59064Y-36865D01*
X59379Y-36550D01*
X59379Y-36691D01*
X59134Y-36935D01*
X59160Y-37024D01*
X58775Y-37024D01*
X58775Y-28825D01*
X59003Y-28825D01*
X59062Y-28850D01*
X59162Y-28850D01*
X59762Y-28850D01*
X59854Y-28811D01*
X59924Y-28741D01*
X59962Y-28649D01*
X59962Y-28550D01*
X59962Y-27950D01*
X59924Y-27858D01*
X59854Y-27788D01*
X59762Y-27750D01*
X59709Y-27750D01*
X59727Y-27685D01*
X59412Y-27370D01*
X59341Y-27441D01*
X59341Y-27300D01*
X59026Y-26984D01*
X58931Y-27012D01*
X58857Y-27218D01*
X58868Y-27436D01*
X58931Y-27587D01*
X59026Y-27615D01*
X59341Y-27300D01*
X59341Y-27441D01*
X59097Y-27685D01*
X59115Y-27750D01*
X59062Y-27750D01*
X59003Y-27774D01*
X58775Y-27774D01*
X58775Y-19575D01*
X59281Y-19575D01*
X59340Y-19599D01*
X59558Y-19600D01*
X59761Y-19516D01*
X59915Y-19361D01*
X59999Y-19159D01*
X60000Y-18941D01*
X59916Y-18738D01*
X59761Y-18584D01*
X59686Y-18552D01*
X59737Y-18531D01*
X59765Y-18435D01*
X59450Y-18120D01*
X59379Y-18191D01*
X59379Y-18050D01*
X59064Y-17734D01*
X58968Y-17762D01*
X58895Y-17968D01*
X58906Y-18186D01*
X58968Y-18337D01*
X59064Y-18365D01*
X59379Y-18050D01*
X59379Y-18191D01*
X59134Y-18435D01*
X59160Y-18524D01*
X58466Y-18524D01*
X58451Y-18514D01*
X58250Y-18474D01*
X58048Y-18514D01*
X57878Y-18628D01*
X57764Y-18798D01*
X57724Y-19000D01*
X57724Y-19000D01*
X57724Y-28249D01*
X57724Y-28250D01*
X57724Y-28250D01*
X57724Y-37500D01*
X57724Y-37550D01*
X57724Y-40274D01*
X57724Y-40275D01*
X57724Y-40275D01*
X57724Y-40500D01*
X57764Y-40701D01*
X57878Y-40871D01*
X58048Y-40985D01*
X58250Y-41025D01*
X58362Y-41003D01*
X58475Y-41025D01*
X58475Y-41025D01*
X58475Y-41025D01*
X65153Y-41025D01*
X65307Y-41089D01*
X65541Y-41089D01*
X65758Y-40999D01*
X65924Y-40834D01*
X66014Y-40617D01*
X66014Y-40383D01*
X66014Y-41175D01*
X57325Y-41175D01*
X57325Y-12825D01*
X90675Y-12825D01*
X90675Y-41175D01*
X90675Y-41175D01*
G37*
G54D24*
X90675Y-41175D02*
X90475Y-41175D01*
X90475Y-40475D01*
X90475Y-40474D01*
X90475Y-34700D01*
X90475Y-25800D01*
X90475Y-17300D01*
X90435Y-17098D01*
X90435Y-17098D01*
X90389Y-17030D01*
X90325Y-16933D01*
X90325Y-14500D01*
X90224Y-13992D01*
X89936Y-13563D01*
X89507Y-13275D01*
X89000Y-13175D01*
X88492Y-13275D01*
X88063Y-13563D01*
X87775Y-13992D01*
X87675Y-14500D01*
X87775Y-15007D01*
X88063Y-15436D01*
X88492Y-15724D01*
X89000Y-15825D01*
X89507Y-15724D01*
X89936Y-15436D01*
X90224Y-15007D01*
X90325Y-14500D01*
X90325Y-16933D01*
X90321Y-16928D01*
X90321Y-16928D01*
X90221Y-16828D01*
X90051Y-16714D01*
X89850Y-16674D01*
X89849Y-16674D01*
X88718Y-16674D01*
X88659Y-16650D01*
X88441Y-16649D01*
X88238Y-16733D01*
X88084Y-16888D01*
X88000Y-17090D01*
X87999Y-17308D01*
X88083Y-17511D01*
X88238Y-17665D01*
X88313Y-17697D01*
X88262Y-17718D01*
X88234Y-17814D01*
X88550Y-18129D01*
X88865Y-17814D01*
X88839Y-17725D01*
X89424Y-17725D01*
X89424Y-25174D01*
X89104Y-25174D01*
X89104Y-18281D01*
X89093Y-18063D01*
X89031Y-17912D01*
X88935Y-17884D01*
X88620Y-18200D01*
X88935Y-18515D01*
X89031Y-18487D01*
X89104Y-18281D01*
X89104Y-25174D01*
X88718Y-25174D01*
X88659Y-25150D01*
X88441Y-25149D01*
X88238Y-25233D01*
X88084Y-25388D01*
X88000Y-25590D01*
X87999Y-25808D01*
X88083Y-26011D01*
X88238Y-26165D01*
X88313Y-26197D01*
X88262Y-26218D01*
X88234Y-26314D01*
X88550Y-26629D01*
X88865Y-26314D01*
X88839Y-26225D01*
X89424Y-26225D01*
X89424Y-34174D01*
X89104Y-34174D01*
X89104Y-26781D01*
X89093Y-26563D01*
X89031Y-26412D01*
X88935Y-26384D01*
X88620Y-26700D01*
X88935Y-27015D01*
X89031Y-26987D01*
X89104Y-26781D01*
X89104Y-34174D01*
X88718Y-34174D01*
X88659Y-34150D01*
X88441Y-34149D01*
X88238Y-34233D01*
X88084Y-34388D01*
X88000Y-34590D01*
X87999Y-34808D01*
X88083Y-35011D01*
X88238Y-35165D01*
X88313Y-35197D01*
X88262Y-35218D01*
X88234Y-35314D01*
X88550Y-35629D01*
X88865Y-35314D01*
X88839Y-35225D01*
X89424Y-35225D01*
X89424Y-39999D01*
X89104Y-39999D01*
X89104Y-35781D01*
X89093Y-35563D01*
X89031Y-35412D01*
X88935Y-35384D01*
X88620Y-35700D01*
X88935Y-36015D01*
X89031Y-35987D01*
X89104Y-35781D01*
X89104Y-39999D01*
X89100Y-39999D01*
X89100Y-37049D01*
X89100Y-36950D01*
X89100Y-36350D01*
X89061Y-36258D01*
X88991Y-36188D01*
X88899Y-36150D01*
X88846Y-36150D01*
X88865Y-36085D01*
X88550Y-35770D01*
X88479Y-35841D01*
X88479Y-35700D01*
X88164Y-35384D01*
X88068Y-35412D01*
X87995Y-35618D01*
X88006Y-35836D01*
X88068Y-35987D01*
X88164Y-36015D01*
X88479Y-35700D01*
X88479Y-35841D01*
X88234Y-36085D01*
X88253Y-36150D01*
X88200Y-36150D01*
X88108Y-36188D01*
X88038Y-36258D01*
X88000Y-36350D01*
X88000Y-36371D01*
X87836Y-36371D01*
X87818Y-36353D01*
X87818Y-34049D01*
X87828Y-34000D01*
X87803Y-33874D01*
X87732Y-33767D01*
X87718Y-33753D01*
X87611Y-33682D01*
X87486Y-33657D01*
X86052Y-33657D01*
X86052Y-29077D01*
X86042Y-28842D01*
X85972Y-28674D01*
X85873Y-28642D01*
X85529Y-28986D01*
X85873Y-29329D01*
X85972Y-29297D01*
X86052Y-29077D01*
X86052Y-33657D01*
X85960Y-33657D01*
X85958Y-33652D01*
X85802Y-33496D01*
X85802Y-29400D01*
X85459Y-29056D01*
X85115Y-29400D01*
X85147Y-29499D01*
X85367Y-29579D01*
X85602Y-29569D01*
X85770Y-29499D01*
X85802Y-29400D01*
X85802Y-33496D01*
X85800Y-33493D01*
X85800Y-30824D01*
X85800Y-30725D01*
X85800Y-30612D01*
X85800Y-30387D01*
X85800Y-30274D01*
X85800Y-30175D01*
X85761Y-30083D01*
X85691Y-30013D01*
X85599Y-29975D01*
X85487Y-29975D01*
X85425Y-30037D01*
X85425Y-30450D01*
X85737Y-30450D01*
X85800Y-30387D01*
X85800Y-30612D01*
X85737Y-30550D01*
X85425Y-30550D01*
X85425Y-30962D01*
X85487Y-31025D01*
X85599Y-31025D01*
X85691Y-30986D01*
X85761Y-30916D01*
X85800Y-30824D01*
X85800Y-33493D01*
X85793Y-33486D01*
X85576Y-33396D01*
X85342Y-33396D01*
X85125Y-33486D01*
X84999Y-33612D01*
X84970Y-33544D01*
X84900Y-33474D01*
X84808Y-33436D01*
X84709Y-33436D01*
X84109Y-33436D01*
X84017Y-33474D01*
X83947Y-33544D01*
X83909Y-33636D01*
X83909Y-33696D01*
X81939Y-33696D01*
X81828Y-33718D01*
X81733Y-33780D01*
X81415Y-34099D01*
X81415Y-29796D01*
X81513Y-29796D01*
X81552Y-29780D01*
X81558Y-29786D01*
X81650Y-29825D01*
X81749Y-29825D01*
X82049Y-29825D01*
X82141Y-29786D01*
X82211Y-29716D01*
X82250Y-29624D01*
X82250Y-29525D01*
X82250Y-29325D01*
X82234Y-29287D01*
X82250Y-29249D01*
X82250Y-29212D01*
X82187Y-29150D01*
X82110Y-29150D01*
X82049Y-29125D01*
X81950Y-29125D01*
X81815Y-29125D01*
X81804Y-29097D01*
X81792Y-29085D01*
X81792Y-29075D01*
X82049Y-29075D01*
X82110Y-29050D01*
X82187Y-29050D01*
X82222Y-29015D01*
X82350Y-29015D01*
X82460Y-28992D01*
X82555Y-28930D01*
X82695Y-28790D01*
X83902Y-28790D01*
X83869Y-28868D01*
X83869Y-29102D01*
X83959Y-29319D01*
X84124Y-29485D01*
X84169Y-29503D01*
X84169Y-30334D01*
X84191Y-30444D01*
X84200Y-30458D01*
X84200Y-30824D01*
X84238Y-30916D01*
X84308Y-30986D01*
X84400Y-31025D01*
X84499Y-31025D01*
X84849Y-31025D01*
X84941Y-30986D01*
X85000Y-30928D01*
X85058Y-30986D01*
X85150Y-31025D01*
X85262Y-31025D01*
X85325Y-30962D01*
X85325Y-30550D01*
X85317Y-30550D01*
X85317Y-30450D01*
X85325Y-30450D01*
X85325Y-30037D01*
X85262Y-29975D01*
X85150Y-29975D01*
X85058Y-30013D01*
X84999Y-30071D01*
X84941Y-30013D01*
X84849Y-29975D01*
X84750Y-29975D01*
X84749Y-29975D01*
X84749Y-29503D01*
X84792Y-29485D01*
X84958Y-29320D01*
X84965Y-29303D01*
X85044Y-29329D01*
X85388Y-28986D01*
X85382Y-28980D01*
X85453Y-28909D01*
X85459Y-28915D01*
X85802Y-28571D01*
X85777Y-28492D01*
X85792Y-28485D01*
X85958Y-28320D01*
X86048Y-28103D01*
X86048Y-27869D01*
X85958Y-27652D01*
X85793Y-27486D01*
X85791Y-27486D01*
X85792Y-27485D01*
X85958Y-27320D01*
X85976Y-27276D01*
X86394Y-27276D01*
X86496Y-27378D01*
X86660Y-27446D01*
X86838Y-27446D01*
X87002Y-27379D01*
X87128Y-27253D01*
X87181Y-27127D01*
X87181Y-27500D01*
X87205Y-27622D01*
X87274Y-27725D01*
X87474Y-27925D01*
X87474Y-27925D01*
X87526Y-27960D01*
X87577Y-27994D01*
X87577Y-27994D01*
X87700Y-28018D01*
X88000Y-28018D01*
X88000Y-28049D01*
X88038Y-28141D01*
X88108Y-28211D01*
X88200Y-28250D01*
X88299Y-28250D01*
X88899Y-28250D01*
X88991Y-28211D01*
X89061Y-28141D01*
X89100Y-28049D01*
X89100Y-27950D01*
X89100Y-27350D01*
X89061Y-27258D01*
X88991Y-27188D01*
X88899Y-27150D01*
X88846Y-27150D01*
X88865Y-27085D01*
X88550Y-26770D01*
X88479Y-26841D01*
X88479Y-26700D01*
X88164Y-26384D01*
X88068Y-26412D01*
X87995Y-26618D01*
X88006Y-26836D01*
X88068Y-26987D01*
X88164Y-27015D01*
X88479Y-26700D01*
X88479Y-26841D01*
X88234Y-27085D01*
X88253Y-27150D01*
X88200Y-27150D01*
X88108Y-27188D01*
X88038Y-27258D01*
X88000Y-27350D01*
X88000Y-27381D01*
X87832Y-27381D01*
X87818Y-27367D01*
X87818Y-25000D01*
X87794Y-24877D01*
X87794Y-24877D01*
X87760Y-24826D01*
X87725Y-24774D01*
X87725Y-24774D01*
X87711Y-24760D01*
X87608Y-24691D01*
X87486Y-24667D01*
X86052Y-24667D01*
X86052Y-20077D01*
X86042Y-19842D01*
X85972Y-19674D01*
X85873Y-19642D01*
X85529Y-19986D01*
X85873Y-20329D01*
X85972Y-20297D01*
X86052Y-20077D01*
X86052Y-24667D01*
X85964Y-24667D01*
X85958Y-24652D01*
X85802Y-24496D01*
X85802Y-20400D01*
X85459Y-20056D01*
X85115Y-20400D01*
X85147Y-20499D01*
X85367Y-20579D01*
X85602Y-20569D01*
X85770Y-20499D01*
X85802Y-20400D01*
X85802Y-24496D01*
X85800Y-24493D01*
X85800Y-22074D01*
X85800Y-21975D01*
X85800Y-21862D01*
X85800Y-21637D01*
X85800Y-21524D01*
X85800Y-21425D01*
X85761Y-21333D01*
X85691Y-21263D01*
X85599Y-21225D01*
X85487Y-21225D01*
X85425Y-21287D01*
X85425Y-21700D01*
X85737Y-21700D01*
X85800Y-21637D01*
X85800Y-21862D01*
X85737Y-21800D01*
X85425Y-21800D01*
X85425Y-22212D01*
X85487Y-22275D01*
X85599Y-22275D01*
X85691Y-22236D01*
X85761Y-22166D01*
X85800Y-22074D01*
X85800Y-24493D01*
X85793Y-24486D01*
X85576Y-24396D01*
X85342Y-24396D01*
X85125Y-24486D01*
X84999Y-24612D01*
X84970Y-24544D01*
X84900Y-24474D01*
X84808Y-24436D01*
X84709Y-24436D01*
X84109Y-24436D01*
X84017Y-24474D01*
X83947Y-24544D01*
X83909Y-24636D01*
X83909Y-24706D01*
X83853Y-24718D01*
X83758Y-24780D01*
X83696Y-24842D01*
X83696Y-24811D01*
X83629Y-24647D01*
X83503Y-24521D01*
X83339Y-24453D01*
X83161Y-24453D01*
X82997Y-24520D01*
X82908Y-24610D01*
X82250Y-24610D01*
X78615Y-24610D01*
X78615Y-19985D01*
X78300Y-19670D01*
X78229Y-19741D01*
X78229Y-19600D01*
X77914Y-19284D01*
X77818Y-19312D01*
X77745Y-19518D01*
X77756Y-19736D01*
X77818Y-19887D01*
X77914Y-19915D01*
X78229Y-19600D01*
X78229Y-19741D01*
X77984Y-19985D01*
X78012Y-20081D01*
X78218Y-20154D01*
X78436Y-20143D01*
X78587Y-20081D01*
X78615Y-19985D01*
X78615Y-24610D01*
X76974Y-24610D01*
X76875Y-24461D01*
X76783Y-24399D01*
X76875Y-24338D01*
X76974Y-24190D01*
X77158Y-24190D01*
X77246Y-24278D01*
X77410Y-24346D01*
X77588Y-24346D01*
X77752Y-24279D01*
X77878Y-24153D01*
X77946Y-23989D01*
X77946Y-23811D01*
X77879Y-23647D01*
X77753Y-23521D01*
X77589Y-23453D01*
X77411Y-23453D01*
X77247Y-23520D01*
X77158Y-23610D01*
X76974Y-23610D01*
X76875Y-23461D01*
X76783Y-23399D01*
X76875Y-23338D01*
X76974Y-23190D01*
X77733Y-23190D01*
X77821Y-23278D01*
X77985Y-23346D01*
X78163Y-23346D01*
X78327Y-23279D01*
X78453Y-23153D01*
X78521Y-22989D01*
X78521Y-22811D01*
X78454Y-22647D01*
X78328Y-22521D01*
X78164Y-22453D01*
X77986Y-22453D01*
X77822Y-22520D01*
X77733Y-22610D01*
X76974Y-22610D01*
X76875Y-22461D01*
X76783Y-22399D01*
X76875Y-22338D01*
X77009Y-22137D01*
X77057Y-21900D01*
X77009Y-21662D01*
X76875Y-21461D01*
X76715Y-21354D01*
X76715Y-19195D01*
X77634Y-18276D01*
X83941Y-18276D01*
X83959Y-18319D01*
X84124Y-18485D01*
X84126Y-18485D01*
X84125Y-18486D01*
X83959Y-18651D01*
X83941Y-18696D01*
X82827Y-18696D01*
X82753Y-18621D01*
X82589Y-18553D01*
X82411Y-18553D01*
X82247Y-18620D01*
X82121Y-18746D01*
X82053Y-18910D01*
X82053Y-19088D01*
X82120Y-19252D01*
X82246Y-19378D01*
X82410Y-19446D01*
X82493Y-19446D01*
X82304Y-19635D01*
X82163Y-19635D01*
X82141Y-19613D01*
X82049Y-19575D01*
X81950Y-19575D01*
X81650Y-19575D01*
X81558Y-19613D01*
X81488Y-19683D01*
X81450Y-19775D01*
X81450Y-19874D01*
X81450Y-20074D01*
X81465Y-20112D01*
X81450Y-20150D01*
X81450Y-20187D01*
X81512Y-20249D01*
X81450Y-20249D01*
X81450Y-20253D01*
X81311Y-20253D01*
X81250Y-20278D01*
X81250Y-20074D01*
X81250Y-19975D01*
X81250Y-19775D01*
X81211Y-19683D01*
X81141Y-19613D01*
X81049Y-19575D01*
X80950Y-19575D01*
X80650Y-19575D01*
X80558Y-19613D01*
X80536Y-19635D01*
X79850Y-19635D01*
X79850Y-19250D01*
X79811Y-19158D01*
X79741Y-19088D01*
X79649Y-19050D01*
X79550Y-19050D01*
X78950Y-19050D01*
X78858Y-19088D01*
X78788Y-19158D01*
X78750Y-19250D01*
X78750Y-19303D01*
X78685Y-19284D01*
X78615Y-19355D01*
X78615Y-19214D01*
X78587Y-19118D01*
X78381Y-19045D01*
X78163Y-19056D01*
X78012Y-19118D01*
X77984Y-19214D01*
X78300Y-19529D01*
X78615Y-19214D01*
X78615Y-19355D01*
X78370Y-19600D01*
X78685Y-19915D01*
X78750Y-19896D01*
X78750Y-19949D01*
X78788Y-20041D01*
X78858Y-20111D01*
X78950Y-20150D01*
X79049Y-20150D01*
X79449Y-20150D01*
X79514Y-20192D01*
X79625Y-20215D01*
X80536Y-20215D01*
X80558Y-20236D01*
X80650Y-20275D01*
X80749Y-20275D01*
X81049Y-20275D01*
X81141Y-20236D01*
X81211Y-20166D01*
X81250Y-20074D01*
X81250Y-20278D01*
X81147Y-20320D01*
X81115Y-20352D01*
X81049Y-20325D01*
X80950Y-20325D01*
X80650Y-20325D01*
X80558Y-20363D01*
X80536Y-20385D01*
X80491Y-20385D01*
X80403Y-20296D01*
X80239Y-20228D01*
X80061Y-20228D01*
X79897Y-20295D01*
X79771Y-20421D01*
X79703Y-20585D01*
X79703Y-20763D01*
X79770Y-20927D01*
X79896Y-21053D01*
X80060Y-21121D01*
X80238Y-21121D01*
X80402Y-21054D01*
X80491Y-20965D01*
X80536Y-20965D01*
X80558Y-20986D01*
X80650Y-21025D01*
X80749Y-21025D01*
X81049Y-21025D01*
X81080Y-21012D01*
X81146Y-21078D01*
X81310Y-21146D01*
X81488Y-21146D01*
X81652Y-21079D01*
X81706Y-21025D01*
X81749Y-21025D01*
X82049Y-21025D01*
X82141Y-20986D01*
X82211Y-20916D01*
X82250Y-20824D01*
X82250Y-20725D01*
X82250Y-20525D01*
X82234Y-20487D01*
X82250Y-20449D01*
X82250Y-20412D01*
X82187Y-20350D01*
X82110Y-20350D01*
X82049Y-20325D01*
X81950Y-20325D01*
X81792Y-20325D01*
X81792Y-20275D01*
X82049Y-20275D01*
X82110Y-20250D01*
X82187Y-20250D01*
X82222Y-20215D01*
X82425Y-20215D01*
X82535Y-20192D01*
X82630Y-20130D01*
X82970Y-19790D01*
X83902Y-19790D01*
X83869Y-19868D01*
X83869Y-20102D01*
X83959Y-20319D01*
X84124Y-20485D01*
X84169Y-20503D01*
X84169Y-21584D01*
X84191Y-21694D01*
X84200Y-21708D01*
X84200Y-22074D01*
X84238Y-22166D01*
X84308Y-22236D01*
X84400Y-22275D01*
X84499Y-22275D01*
X84849Y-22275D01*
X84941Y-22236D01*
X85000Y-22178D01*
X85058Y-22236D01*
X85150Y-22275D01*
X85262Y-22275D01*
X85325Y-22212D01*
X85325Y-21800D01*
X85317Y-21800D01*
X85317Y-21700D01*
X85325Y-21700D01*
X85325Y-21287D01*
X85262Y-21225D01*
X85150Y-21225D01*
X85058Y-21263D01*
X84999Y-21321D01*
X84941Y-21263D01*
X84849Y-21225D01*
X84750Y-21225D01*
X84749Y-21225D01*
X84749Y-20503D01*
X84792Y-20485D01*
X84958Y-20320D01*
X84965Y-20303D01*
X85044Y-20329D01*
X85388Y-19986D01*
X85382Y-19980D01*
X85453Y-19909D01*
X85459Y-19915D01*
X85802Y-19571D01*
X85777Y-19492D01*
X85792Y-19485D01*
X85958Y-19320D01*
X86048Y-19103D01*
X86048Y-18869D01*
X85958Y-18652D01*
X85793Y-18486D01*
X85791Y-18486D01*
X85792Y-18485D01*
X85958Y-18320D01*
X85976Y-18276D01*
X86394Y-18276D01*
X86496Y-18378D01*
X86660Y-18446D01*
X86838Y-18446D01*
X87002Y-18379D01*
X87128Y-18253D01*
X87181Y-18127D01*
X87181Y-19100D01*
X87171Y-19150D01*
X87196Y-19275D01*
X87267Y-19382D01*
X87317Y-19432D01*
X87424Y-19503D01*
X87424Y-19503D01*
X87550Y-19528D01*
X88000Y-19528D01*
X88000Y-19549D01*
X88038Y-19641D01*
X88108Y-19711D01*
X88200Y-19750D01*
X88299Y-19750D01*
X88899Y-19750D01*
X88991Y-19711D01*
X89061Y-19641D01*
X89100Y-19549D01*
X89100Y-19450D01*
X89100Y-18850D01*
X89061Y-18758D01*
X88991Y-18688D01*
X88899Y-18650D01*
X88846Y-18650D01*
X88865Y-18585D01*
X88550Y-18270D01*
X88479Y-18341D01*
X88479Y-18200D01*
X88164Y-17884D01*
X88068Y-17912D01*
X87995Y-18118D01*
X88006Y-18336D01*
X88068Y-18487D01*
X88164Y-18515D01*
X88479Y-18200D01*
X88479Y-18341D01*
X88234Y-18585D01*
X88253Y-18650D01*
X88200Y-18650D01*
X88108Y-18688D01*
X88038Y-18758D01*
X88000Y-18850D01*
X88000Y-18871D01*
X87818Y-18871D01*
X87818Y-16049D01*
X87828Y-16000D01*
X87803Y-15874D01*
X87732Y-15767D01*
X87718Y-15753D01*
X87611Y-15682D01*
X87486Y-15657D01*
X85960Y-15657D01*
X85958Y-15652D01*
X85793Y-15486D01*
X85576Y-15396D01*
X85342Y-15396D01*
X85125Y-15486D01*
X84999Y-15612D01*
X84970Y-15544D01*
X84900Y-15474D01*
X84808Y-15436D01*
X84709Y-15436D01*
X84109Y-15436D01*
X84017Y-15474D01*
X83947Y-15544D01*
X83909Y-15636D01*
X83909Y-15696D01*
X81852Y-15696D01*
X81778Y-15621D01*
X81614Y-15553D01*
X81436Y-15553D01*
X81272Y-15620D01*
X81146Y-15746D01*
X81078Y-15910D01*
X81078Y-16088D01*
X81128Y-16210D01*
X75446Y-16210D01*
X75446Y-15661D01*
X75379Y-15497D01*
X75290Y-15408D01*
X75290Y-14091D01*
X75378Y-14003D01*
X75446Y-13839D01*
X75446Y-13661D01*
X75379Y-13497D01*
X75253Y-13371D01*
X75089Y-13303D01*
X74911Y-13303D01*
X74747Y-13370D01*
X74621Y-13496D01*
X74553Y-13660D01*
X74553Y-13838D01*
X74620Y-14002D01*
X74710Y-14091D01*
X74710Y-15408D01*
X74621Y-15496D01*
X74553Y-15660D01*
X74553Y-15838D01*
X74620Y-16002D01*
X74746Y-16128D01*
X74910Y-16196D01*
X75088Y-16196D01*
X75252Y-16129D01*
X75378Y-16003D01*
X75446Y-15839D01*
X75446Y-15661D01*
X75446Y-16210D01*
X74341Y-16210D01*
X74253Y-16121D01*
X74089Y-16053D01*
X73911Y-16053D01*
X73747Y-16120D01*
X73621Y-16246D01*
X73553Y-16410D01*
X73553Y-16588D01*
X73620Y-16752D01*
X73746Y-16878D01*
X73910Y-16946D01*
X74088Y-16946D01*
X74252Y-16879D01*
X74341Y-16790D01*
X82158Y-16790D01*
X82246Y-16878D01*
X82410Y-16946D01*
X82588Y-16946D01*
X82752Y-16879D01*
X82861Y-16770D01*
X82803Y-16910D01*
X82803Y-17088D01*
X82870Y-17252D01*
X82996Y-17378D01*
X83160Y-17446D01*
X83338Y-17446D01*
X83502Y-17379D01*
X83606Y-17276D01*
X83941Y-17276D01*
X83959Y-17319D01*
X84124Y-17485D01*
X84126Y-17485D01*
X84125Y-17486D01*
X83959Y-17651D01*
X83941Y-17696D01*
X77514Y-17696D01*
X77514Y-17695D01*
X77421Y-17714D01*
X77403Y-17718D01*
X77308Y-17780D01*
X76219Y-18869D01*
X76157Y-18964D01*
X76135Y-19075D01*
X76135Y-21354D01*
X75974Y-21461D01*
X75840Y-21662D01*
X75792Y-21900D01*
X75840Y-22137D01*
X75974Y-22338D01*
X76066Y-22400D01*
X75974Y-22461D01*
X75840Y-22662D01*
X75792Y-22900D01*
X75840Y-23137D01*
X75974Y-23338D01*
X76066Y-23400D01*
X75974Y-23461D01*
X75840Y-23662D01*
X75792Y-23900D01*
X75840Y-24137D01*
X75974Y-24338D01*
X76066Y-24400D01*
X75974Y-24461D01*
X75840Y-24662D01*
X75792Y-24900D01*
X75840Y-25137D01*
X75974Y-25338D01*
X76066Y-25400D01*
X75974Y-25461D01*
X75840Y-25662D01*
X75792Y-25900D01*
X75840Y-26137D01*
X75974Y-26338D01*
X76066Y-26400D01*
X75974Y-26461D01*
X75875Y-26610D01*
X74520Y-26610D01*
X74446Y-26536D01*
X74446Y-26411D01*
X74379Y-26247D01*
X74253Y-26121D01*
X74089Y-26053D01*
X73911Y-26053D01*
X73747Y-26120D01*
X73621Y-26246D01*
X73553Y-26410D01*
X73553Y-26588D01*
X73620Y-26752D01*
X73746Y-26878D01*
X73910Y-26946D01*
X74036Y-26946D01*
X74194Y-27105D01*
X74289Y-27167D01*
X74400Y-27190D01*
X75875Y-27190D01*
X75974Y-27338D01*
X76066Y-27400D01*
X75974Y-27461D01*
X75875Y-27610D01*
X75425Y-27610D01*
X75379Y-27497D01*
X75253Y-27371D01*
X75089Y-27303D01*
X74911Y-27303D01*
X74747Y-27370D01*
X74621Y-27496D01*
X74553Y-27660D01*
X74553Y-27838D01*
X74620Y-28002D01*
X74729Y-28111D01*
X74589Y-28053D01*
X74411Y-28053D01*
X74247Y-28120D01*
X74121Y-28246D01*
X74053Y-28410D01*
X74053Y-28588D01*
X74120Y-28752D01*
X74246Y-28878D01*
X74410Y-28946D01*
X74536Y-28946D01*
X74694Y-29105D01*
X74789Y-29167D01*
X74900Y-29190D01*
X75875Y-29190D01*
X75974Y-29338D01*
X76066Y-29400D01*
X75974Y-29461D01*
X75840Y-29662D01*
X75792Y-29900D01*
X75840Y-30137D01*
X75974Y-30338D01*
X76066Y-30400D01*
X75974Y-30461D01*
X75840Y-30662D01*
X75792Y-30900D01*
X75840Y-31137D01*
X75974Y-31338D01*
X76066Y-31400D01*
X75974Y-31461D01*
X75840Y-31662D01*
X75792Y-31900D01*
X75840Y-32137D01*
X75974Y-32338D01*
X76066Y-32400D01*
X75974Y-32461D01*
X75840Y-32662D01*
X75792Y-32900D01*
X75840Y-33137D01*
X75974Y-33338D01*
X76175Y-33472D01*
X76412Y-33520D01*
X76437Y-33520D01*
X76674Y-33472D01*
X76875Y-33338D01*
X77009Y-33137D01*
X77057Y-32900D01*
X77009Y-32662D01*
X76875Y-32461D01*
X76783Y-32399D01*
X76875Y-32338D01*
X77009Y-32137D01*
X77057Y-31900D01*
X77009Y-31662D01*
X76875Y-31461D01*
X76783Y-31399D01*
X76875Y-31338D01*
X77009Y-31137D01*
X77057Y-30900D01*
X77009Y-30662D01*
X76875Y-30461D01*
X76783Y-30399D01*
X76875Y-30338D01*
X77009Y-30137D01*
X77057Y-29900D01*
X77009Y-29662D01*
X76875Y-29461D01*
X76783Y-29399D01*
X76875Y-29338D01*
X77009Y-29137D01*
X77057Y-28900D01*
X77009Y-28662D01*
X76875Y-28461D01*
X76783Y-28399D01*
X76875Y-28338D01*
X77009Y-28137D01*
X77057Y-27900D01*
X77009Y-27662D01*
X76875Y-27461D01*
X76783Y-27399D01*
X76875Y-27338D01*
X77009Y-27137D01*
X77057Y-26900D01*
X77009Y-26662D01*
X76875Y-26461D01*
X76783Y-26399D01*
X76875Y-26338D01*
X77009Y-26137D01*
X77057Y-25900D01*
X77009Y-25662D01*
X76875Y-25461D01*
X76783Y-25399D01*
X76875Y-25338D01*
X76974Y-25190D01*
X81007Y-25190D01*
X80978Y-25260D01*
X80978Y-25438D01*
X81045Y-25602D01*
X81171Y-25728D01*
X81335Y-25796D01*
X81513Y-25796D01*
X81677Y-25729D01*
X81766Y-25640D01*
X82978Y-25640D01*
X82871Y-25746D01*
X82803Y-25910D01*
X82803Y-26088D01*
X82870Y-26252D01*
X82996Y-26378D01*
X83160Y-26446D01*
X83338Y-26446D01*
X83502Y-26379D01*
X83606Y-26276D01*
X83941Y-26276D01*
X83959Y-26319D01*
X84124Y-26485D01*
X84126Y-26485D01*
X84125Y-26486D01*
X83959Y-26651D01*
X83941Y-26696D01*
X78402Y-26696D01*
X78328Y-26621D01*
X78164Y-26553D01*
X77986Y-26553D01*
X77822Y-26620D01*
X77696Y-26746D01*
X77628Y-26910D01*
X77628Y-27088D01*
X77695Y-27252D01*
X77821Y-27378D01*
X77985Y-27446D01*
X78163Y-27446D01*
X78327Y-27379D01*
X78431Y-27276D01*
X83941Y-27276D01*
X83959Y-27319D01*
X84124Y-27485D01*
X84126Y-27485D01*
X84125Y-27486D01*
X83959Y-27651D01*
X83941Y-27696D01*
X82827Y-27696D01*
X82753Y-27621D01*
X82589Y-27553D01*
X82411Y-27553D01*
X82247Y-27620D01*
X82121Y-27746D01*
X82053Y-27910D01*
X82053Y-28088D01*
X82120Y-28252D01*
X82246Y-28378D01*
X82274Y-28390D01*
X82229Y-28435D01*
X82163Y-28435D01*
X82141Y-28413D01*
X82049Y-28375D01*
X81950Y-28375D01*
X81650Y-28375D01*
X81558Y-28413D01*
X81488Y-28483D01*
X81450Y-28575D01*
X81450Y-28674D01*
X81450Y-28874D01*
X81461Y-28903D01*
X81336Y-28903D01*
X81217Y-28952D01*
X81250Y-28874D01*
X81250Y-28775D01*
X81250Y-28575D01*
X81211Y-28483D01*
X81141Y-28413D01*
X81140Y-28412D01*
X81140Y-28250D01*
X81117Y-28139D01*
X81055Y-28044D01*
X81005Y-27994D01*
X80910Y-27932D01*
X80800Y-27910D01*
X79850Y-27910D01*
X79850Y-27850D01*
X79811Y-27758D01*
X79741Y-27688D01*
X79649Y-27650D01*
X79550Y-27650D01*
X78950Y-27650D01*
X78858Y-27688D01*
X78788Y-27758D01*
X78750Y-27850D01*
X78750Y-27903D01*
X78685Y-27884D01*
X78615Y-27955D01*
X78615Y-27814D01*
X78587Y-27718D01*
X78381Y-27645D01*
X78163Y-27656D01*
X78012Y-27718D01*
X77984Y-27814D01*
X78300Y-28129D01*
X78615Y-27814D01*
X78615Y-27955D01*
X78370Y-28200D01*
X78685Y-28515D01*
X78750Y-28496D01*
X78750Y-28549D01*
X78788Y-28641D01*
X78858Y-28711D01*
X78950Y-28750D01*
X79049Y-28750D01*
X79649Y-28750D01*
X79741Y-28711D01*
X79811Y-28641D01*
X79850Y-28549D01*
X79850Y-28490D01*
X80485Y-28490D01*
X80450Y-28575D01*
X80450Y-28674D01*
X80450Y-28874D01*
X80462Y-28906D01*
X80403Y-28846D01*
X80239Y-28778D01*
X80061Y-28778D01*
X79897Y-28845D01*
X79771Y-28971D01*
X79703Y-29135D01*
X79703Y-29313D01*
X79770Y-29477D01*
X79896Y-29603D01*
X80060Y-29671D01*
X80186Y-29671D01*
X80194Y-29680D01*
X80289Y-29742D01*
X80289Y-29742D01*
X80400Y-29765D01*
X80536Y-29765D01*
X80558Y-29786D01*
X80650Y-29825D01*
X80749Y-29825D01*
X80789Y-29825D01*
X80835Y-29870D01*
X80835Y-35250D01*
X80825Y-35250D01*
X80525Y-35250D01*
X80433Y-35288D01*
X80411Y-35310D01*
X79850Y-35310D01*
X79850Y-35250D01*
X79811Y-35158D01*
X79741Y-35088D01*
X79649Y-35050D01*
X79550Y-35050D01*
X78950Y-35050D01*
X78858Y-35088D01*
X78788Y-35158D01*
X78750Y-35250D01*
X78750Y-35303D01*
X78685Y-35284D01*
X78615Y-35355D01*
X78615Y-35214D01*
X78615Y-28585D01*
X78300Y-28270D01*
X78229Y-28341D01*
X78229Y-28200D01*
X77914Y-27884D01*
X77818Y-27912D01*
X77745Y-28118D01*
X77756Y-28336D01*
X77818Y-28487D01*
X77914Y-28515D01*
X78229Y-28200D01*
X78229Y-28341D01*
X77984Y-28585D01*
X78012Y-28681D01*
X78218Y-28754D01*
X78436Y-28743D01*
X78587Y-28681D01*
X78615Y-28585D01*
X78615Y-35214D01*
X78587Y-35118D01*
X78381Y-35045D01*
X78163Y-35056D01*
X78012Y-35118D01*
X77984Y-35214D01*
X78300Y-35529D01*
X78615Y-35214D01*
X78615Y-35355D01*
X78370Y-35600D01*
X78685Y-35915D01*
X78750Y-35896D01*
X78750Y-35949D01*
X78788Y-36041D01*
X78806Y-36060D01*
X78593Y-36060D01*
X78615Y-35985D01*
X78300Y-35670D01*
X78229Y-35741D01*
X78229Y-35600D01*
X77914Y-35284D01*
X77818Y-35312D01*
X77745Y-35518D01*
X77756Y-35736D01*
X77818Y-35887D01*
X77914Y-35915D01*
X78229Y-35600D01*
X78229Y-35741D01*
X77984Y-35985D01*
X78006Y-36060D01*
X72670Y-36060D01*
X72165Y-35554D01*
X72165Y-30375D01*
X72142Y-30264D01*
X72142Y-30264D01*
X72080Y-30169D01*
X71605Y-29694D01*
X71510Y-29632D01*
X71400Y-29610D01*
X70974Y-29610D01*
X70875Y-29461D01*
X70783Y-29399D01*
X70875Y-29338D01*
X71009Y-29137D01*
X71057Y-28900D01*
X71009Y-28662D01*
X70875Y-28461D01*
X70783Y-28399D01*
X70875Y-28338D01*
X71009Y-28137D01*
X71057Y-27900D01*
X71009Y-27662D01*
X70875Y-27461D01*
X70783Y-27399D01*
X70875Y-27338D01*
X71009Y-27137D01*
X71057Y-26900D01*
X71009Y-26662D01*
X70875Y-26461D01*
X70783Y-26399D01*
X70875Y-26338D01*
X71009Y-26137D01*
X71057Y-25900D01*
X71009Y-25662D01*
X70875Y-25461D01*
X70783Y-25399D01*
X70875Y-25338D01*
X71009Y-25137D01*
X71057Y-24900D01*
X71009Y-24662D01*
X70875Y-24461D01*
X70783Y-24399D01*
X70875Y-24338D01*
X71009Y-24137D01*
X71057Y-23900D01*
X71009Y-23662D01*
X70875Y-23461D01*
X70783Y-23399D01*
X70875Y-23338D01*
X71009Y-23137D01*
X71057Y-22900D01*
X71009Y-22662D01*
X70875Y-22461D01*
X70783Y-22399D01*
X70875Y-22338D01*
X71009Y-22137D01*
X71057Y-21900D01*
X71009Y-21662D01*
X70875Y-21461D01*
X70715Y-21354D01*
X70715Y-18925D01*
X70692Y-18814D01*
X70630Y-18719D01*
X69469Y-17558D01*
X69374Y-17496D01*
X69264Y-17474D01*
X66221Y-17474D01*
X66221Y-17336D01*
X66154Y-17172D01*
X66028Y-17046D01*
X65864Y-16978D01*
X65686Y-16978D01*
X65522Y-17045D01*
X65433Y-17135D01*
X65427Y-17135D01*
X65446Y-17089D01*
X65446Y-16911D01*
X65379Y-16747D01*
X65253Y-16621D01*
X65089Y-16553D01*
X64960Y-16553D01*
X64874Y-16496D01*
X64764Y-16474D01*
X64058Y-16474D01*
X64040Y-16430D01*
X63875Y-16264D01*
X63873Y-16264D01*
X63874Y-16263D01*
X64040Y-16098D01*
X64130Y-15881D01*
X64130Y-15647D01*
X64040Y-15430D01*
X63875Y-15264D01*
X63831Y-15246D01*
X63831Y-14416D01*
X63808Y-14305D01*
X63800Y-14291D01*
X63800Y-13925D01*
X63761Y-13833D01*
X63691Y-13763D01*
X63599Y-13725D01*
X63500Y-13725D01*
X63150Y-13725D01*
X63058Y-13763D01*
X63000Y-13821D01*
X62941Y-13763D01*
X62849Y-13725D01*
X62737Y-13725D01*
X62675Y-13787D01*
X62675Y-14200D01*
X62682Y-14200D01*
X62682Y-14300D01*
X62675Y-14300D01*
X62675Y-14712D01*
X62737Y-14775D01*
X62849Y-14775D01*
X62941Y-14736D01*
X63000Y-14678D01*
X63058Y-14736D01*
X63150Y-14775D01*
X63249Y-14775D01*
X63251Y-14775D01*
X63251Y-15246D01*
X63207Y-15264D01*
X63041Y-15429D01*
X63034Y-15446D01*
X62955Y-15420D01*
X62884Y-15490D01*
X62884Y-15349D01*
X62852Y-15250D01*
X62632Y-15170D01*
X62575Y-15172D01*
X62575Y-14712D01*
X62575Y-14300D01*
X62575Y-14200D01*
X62575Y-13787D01*
X62512Y-13725D01*
X62400Y-13725D01*
X62308Y-13763D01*
X62238Y-13833D01*
X62200Y-13925D01*
X62200Y-14024D01*
X62200Y-14137D01*
X62262Y-14200D01*
X62575Y-14200D01*
X62575Y-14300D01*
X62262Y-14300D01*
X62200Y-14362D01*
X62200Y-14475D01*
X62200Y-14574D01*
X62238Y-14666D01*
X62308Y-14736D01*
X62400Y-14775D01*
X62512Y-14775D01*
X62575Y-14712D01*
X62575Y-15172D01*
X62397Y-15180D01*
X62229Y-15250D01*
X62197Y-15349D01*
X62541Y-15693D01*
X62884Y-15349D01*
X62884Y-15490D01*
X62611Y-15764D01*
X62955Y-16107D01*
X63034Y-16082D01*
X63041Y-16097D01*
X63206Y-16263D01*
X63208Y-16263D01*
X63207Y-16264D01*
X63041Y-16429D01*
X63041Y-16431D01*
X63040Y-16430D01*
X62875Y-16264D01*
X62858Y-16257D01*
X62884Y-16178D01*
X62541Y-15834D01*
X62470Y-15905D01*
X62470Y-15764D01*
X62126Y-15420D01*
X62027Y-15452D01*
X61947Y-15672D01*
X61957Y-15907D01*
X62027Y-16075D01*
X62126Y-16107D01*
X62470Y-15764D01*
X62470Y-15905D01*
X62197Y-16178D01*
X62222Y-16257D01*
X62207Y-16264D01*
X62041Y-16429D01*
X61951Y-16646D01*
X61951Y-16880D01*
X62041Y-17097D01*
X62206Y-17263D01*
X62208Y-17263D01*
X62207Y-17264D01*
X62041Y-17429D01*
X62023Y-17474D01*
X61605Y-17474D01*
X61503Y-17371D01*
X61339Y-17303D01*
X61161Y-17303D01*
X60997Y-17370D01*
X60871Y-17496D01*
X60818Y-17622D01*
X60818Y-17250D01*
X60794Y-17127D01*
X60794Y-17127D01*
X60760Y-17076D01*
X60725Y-17024D01*
X60725Y-17024D01*
X60525Y-16824D01*
X60422Y-16755D01*
X60325Y-16736D01*
X60325Y-14500D01*
X60224Y-13992D01*
X59936Y-13563D01*
X59507Y-13275D01*
X59000Y-13175D01*
X58492Y-13275D01*
X58063Y-13563D01*
X57775Y-13992D01*
X57675Y-14500D01*
X57775Y-15007D01*
X58063Y-15436D01*
X58492Y-15724D01*
X59000Y-15825D01*
X59507Y-15724D01*
X59936Y-15436D01*
X60224Y-15007D01*
X60325Y-14500D01*
X60325Y-16736D01*
X60300Y-16731D01*
X60000Y-16731D01*
X60000Y-16700D01*
X59961Y-16608D01*
X59891Y-16538D01*
X59799Y-16500D01*
X59700Y-16500D01*
X59100Y-16500D01*
X59008Y-16538D01*
X58938Y-16608D01*
X58900Y-16700D01*
X58900Y-16799D01*
X58900Y-17399D01*
X58938Y-17491D01*
X59008Y-17561D01*
X59100Y-17600D01*
X59153Y-17600D01*
X59134Y-17664D01*
X59450Y-17979D01*
X59765Y-17664D01*
X59746Y-17600D01*
X59799Y-17600D01*
X59891Y-17561D01*
X59961Y-17491D01*
X60000Y-17399D01*
X60000Y-17368D01*
X60167Y-17368D01*
X60181Y-17382D01*
X60181Y-19750D01*
X60205Y-19872D01*
X60274Y-19975D01*
X60288Y-19989D01*
X60288Y-19989D01*
X60340Y-20024D01*
X60391Y-20058D01*
X60391Y-20058D01*
X60514Y-20082D01*
X62035Y-20082D01*
X62041Y-20097D01*
X62206Y-20263D01*
X62423Y-20353D01*
X62657Y-20353D01*
X62874Y-20263D01*
X63000Y-20137D01*
X63029Y-20205D01*
X63099Y-20275D01*
X63191Y-20314D01*
X63290Y-20314D01*
X63890Y-20314D01*
X63982Y-20275D01*
X64052Y-20205D01*
X64091Y-20113D01*
X64091Y-20038D01*
X64121Y-20031D01*
X64216Y-19969D01*
X65470Y-18715D01*
X66127Y-18715D01*
X66162Y-18750D01*
X66239Y-18750D01*
X66300Y-18775D01*
X66399Y-18775D01*
X66557Y-18775D01*
X66557Y-18825D01*
X66300Y-18825D01*
X66239Y-18850D01*
X66162Y-18850D01*
X66134Y-18877D01*
X66053Y-18796D01*
X65889Y-18728D01*
X65711Y-18728D01*
X65547Y-18795D01*
X65421Y-18921D01*
X65353Y-19085D01*
X65353Y-19263D01*
X65420Y-19427D01*
X65546Y-19553D01*
X65710Y-19621D01*
X65888Y-19621D01*
X66052Y-19554D01*
X66141Y-19465D01*
X66186Y-19465D01*
X66208Y-19486D01*
X66300Y-19525D01*
X66399Y-19525D01*
X66699Y-19525D01*
X66791Y-19486D01*
X66861Y-19416D01*
X66900Y-19324D01*
X66900Y-19225D01*
X66900Y-19025D01*
X66884Y-18987D01*
X66900Y-18949D01*
X66900Y-18912D01*
X66837Y-18850D01*
X66900Y-18850D01*
X66900Y-18822D01*
X66965Y-18849D01*
X67134Y-18850D01*
X67290Y-18785D01*
X67300Y-18775D01*
X67399Y-18775D01*
X67699Y-18775D01*
X67791Y-18736D01*
X67861Y-18666D01*
X67900Y-18574D01*
X67900Y-18475D01*
X67900Y-18275D01*
X67861Y-18183D01*
X67791Y-18113D01*
X67699Y-18075D01*
X67600Y-18075D01*
X67301Y-18075D01*
X67291Y-18064D01*
X67264Y-18054D01*
X69143Y-18054D01*
X70135Y-19045D01*
X70135Y-21354D01*
X69974Y-21461D01*
X69840Y-21662D01*
X69792Y-21900D01*
X69840Y-22137D01*
X69974Y-22338D01*
X70066Y-22400D01*
X69974Y-22461D01*
X69840Y-22662D01*
X69818Y-22771D01*
X69725Y-22864D01*
X69725Y-19116D01*
X69641Y-18913D01*
X69486Y-18759D01*
X69284Y-18675D01*
X69066Y-18674D01*
X68863Y-18758D01*
X68709Y-18913D01*
X68693Y-18950D01*
X67879Y-18975D01*
X67861Y-18933D01*
X67791Y-18863D01*
X67699Y-18825D01*
X67600Y-18825D01*
X67300Y-18825D01*
X67208Y-18863D01*
X67138Y-18933D01*
X67100Y-19025D01*
X67100Y-19124D01*
X67100Y-19324D01*
X67138Y-19416D01*
X67208Y-19486D01*
X67300Y-19525D01*
X67399Y-19525D01*
X67462Y-19525D01*
X67489Y-19542D01*
X67493Y-19543D01*
X67497Y-19546D01*
X67548Y-19554D01*
X67600Y-19565D01*
X67604Y-19564D01*
X67609Y-19564D01*
X68705Y-19530D01*
X68708Y-19536D01*
X68847Y-19675D01*
X68825Y-19675D01*
X68733Y-19713D01*
X68663Y-19783D01*
X68625Y-19875D01*
X68625Y-20112D01*
X68687Y-20175D01*
X69125Y-20175D01*
X69125Y-20167D01*
X69225Y-20167D01*
X69225Y-20175D01*
X69662Y-20175D01*
X69725Y-20112D01*
X69725Y-19875D01*
X69686Y-19783D01*
X69616Y-19713D01*
X69524Y-19675D01*
X69502Y-19675D01*
X69640Y-19536D01*
X69724Y-19334D01*
X69725Y-19116D01*
X69725Y-22864D01*
X69725Y-22864D01*
X69725Y-20574D01*
X69725Y-20337D01*
X69662Y-20275D01*
X69225Y-20275D01*
X69225Y-20712D01*
X69287Y-20775D01*
X69425Y-20775D01*
X69524Y-20775D01*
X69616Y-20736D01*
X69686Y-20666D01*
X69725Y-20574D01*
X69725Y-22864D01*
X69125Y-23464D01*
X69125Y-20712D01*
X69125Y-20275D01*
X68687Y-20275D01*
X68625Y-20337D01*
X68625Y-20574D01*
X68663Y-20666D01*
X68733Y-20736D01*
X68825Y-20775D01*
X68924Y-20775D01*
X69062Y-20775D01*
X69125Y-20712D01*
X69125Y-23464D01*
X66900Y-25689D01*
X66262Y-26327D01*
X66229Y-26247D01*
X66103Y-26121D01*
X65939Y-26053D01*
X65761Y-26053D01*
X65597Y-26120D01*
X65508Y-26210D01*
X65396Y-26210D01*
X65446Y-26089D01*
X65446Y-25911D01*
X65379Y-25747D01*
X65253Y-25621D01*
X65089Y-25553D01*
X64911Y-25553D01*
X64747Y-25620D01*
X64643Y-25724D01*
X64058Y-25724D01*
X64040Y-25680D01*
X63875Y-25514D01*
X63873Y-25514D01*
X63874Y-25513D01*
X64040Y-25348D01*
X64130Y-25131D01*
X64130Y-24897D01*
X64040Y-24680D01*
X63875Y-24514D01*
X63831Y-24496D01*
X63831Y-24025D01*
X63849Y-24025D01*
X63941Y-23986D01*
X64011Y-23916D01*
X64050Y-23824D01*
X64050Y-23725D01*
X64050Y-23175D01*
X64011Y-23083D01*
X63941Y-23013D01*
X63849Y-22975D01*
X63750Y-22975D01*
X63400Y-22975D01*
X63308Y-23013D01*
X63250Y-23071D01*
X63191Y-23013D01*
X63099Y-22975D01*
X62987Y-22975D01*
X62925Y-23037D01*
X62925Y-23450D01*
X62932Y-23450D01*
X62932Y-23550D01*
X62925Y-23550D01*
X62925Y-23962D01*
X62987Y-24025D01*
X63099Y-24025D01*
X63191Y-23986D01*
X63250Y-23928D01*
X63251Y-23929D01*
X63251Y-24496D01*
X63207Y-24514D01*
X63041Y-24679D01*
X63034Y-24696D01*
X62955Y-24670D01*
X62884Y-24740D01*
X62884Y-24599D01*
X62852Y-24500D01*
X62825Y-24490D01*
X62825Y-23962D01*
X62825Y-23550D01*
X62825Y-23450D01*
X62825Y-23037D01*
X62762Y-22975D01*
X62650Y-22975D01*
X62558Y-23013D01*
X62488Y-23083D01*
X62450Y-23175D01*
X62450Y-23274D01*
X62450Y-23387D01*
X62512Y-23450D01*
X62825Y-23450D01*
X62825Y-23550D01*
X62512Y-23550D01*
X62450Y-23612D01*
X62450Y-23725D01*
X62450Y-23824D01*
X62488Y-23916D01*
X62558Y-23986D01*
X62650Y-24025D01*
X62762Y-24025D01*
X62825Y-23962D01*
X62825Y-24490D01*
X62632Y-24420D01*
X62397Y-24430D01*
X62229Y-24500D01*
X62197Y-24599D01*
X62541Y-24943D01*
X62884Y-24599D01*
X62884Y-24740D01*
X62611Y-25014D01*
X62955Y-25357D01*
X63034Y-25332D01*
X63041Y-25347D01*
X63206Y-25513D01*
X63208Y-25513D01*
X63207Y-25514D01*
X63041Y-25679D01*
X63041Y-25681D01*
X63040Y-25680D01*
X62875Y-25514D01*
X62858Y-25507D01*
X62884Y-25428D01*
X62541Y-25084D01*
X62470Y-25155D01*
X62470Y-25014D01*
X62126Y-24670D01*
X62027Y-24702D01*
X61947Y-24922D01*
X61957Y-25157D01*
X62027Y-25325D01*
X62126Y-25357D01*
X62470Y-25014D01*
X62470Y-25155D01*
X62197Y-25428D01*
X62222Y-25507D01*
X62207Y-25514D01*
X62041Y-25679D01*
X61951Y-25896D01*
X61951Y-26130D01*
X62041Y-26347D01*
X62206Y-26513D01*
X62208Y-26513D01*
X62207Y-26514D01*
X62041Y-26679D01*
X62023Y-26724D01*
X61605Y-26724D01*
X61503Y-26621D01*
X61339Y-26553D01*
X61161Y-26553D01*
X60997Y-26620D01*
X60871Y-26746D01*
X60803Y-26910D01*
X60803Y-27088D01*
X60870Y-27252D01*
X60996Y-27378D01*
X61160Y-27446D01*
X61338Y-27446D01*
X61502Y-27379D01*
X61577Y-27304D01*
X62023Y-27304D01*
X62041Y-27347D01*
X62206Y-27513D01*
X62208Y-27513D01*
X62207Y-27514D01*
X62051Y-27669D01*
X62003Y-27621D01*
X61839Y-27553D01*
X61661Y-27553D01*
X61497Y-27620D01*
X61371Y-27746D01*
X61303Y-27910D01*
X61303Y-28088D01*
X61370Y-28252D01*
X61496Y-28378D01*
X61660Y-28446D01*
X61838Y-28446D01*
X62002Y-28379D01*
X62039Y-28342D01*
X62041Y-28347D01*
X62206Y-28513D01*
X62208Y-28513D01*
X62207Y-28514D01*
X62041Y-28679D01*
X62035Y-28695D01*
X60946Y-28695D01*
X60718Y-28467D01*
X60718Y-26400D01*
X60694Y-26277D01*
X60694Y-26277D01*
X60660Y-26226D01*
X60625Y-26174D01*
X60625Y-26174D01*
X60525Y-26074D01*
X60422Y-26005D01*
X60300Y-25981D01*
X60004Y-25981D01*
X60004Y-18131D01*
X59993Y-17913D01*
X59931Y-17762D01*
X59835Y-17734D01*
X59520Y-18050D01*
X59835Y-18365D01*
X59931Y-18337D01*
X60004Y-18131D01*
X60004Y-25981D01*
X59871Y-25981D01*
X59724Y-25834D01*
X59522Y-25750D01*
X59303Y-25749D01*
X59101Y-25833D01*
X58946Y-25988D01*
X58862Y-26190D01*
X58862Y-26408D01*
X58946Y-26611D01*
X59100Y-26765D01*
X59176Y-26797D01*
X59124Y-26818D01*
X59097Y-26914D01*
X59412Y-27229D01*
X59727Y-26914D01*
X59700Y-26818D01*
X59645Y-26799D01*
X59723Y-26766D01*
X59871Y-26618D01*
X60081Y-26618D01*
X60081Y-28600D01*
X60105Y-28722D01*
X60174Y-28825D01*
X60588Y-29239D01*
X60588Y-29239D01*
X60640Y-29274D01*
X60691Y-29308D01*
X60691Y-29308D01*
X60814Y-29332D01*
X62035Y-29332D01*
X62041Y-29347D01*
X62206Y-29513D01*
X62423Y-29603D01*
X62657Y-29603D01*
X62874Y-29513D01*
X63000Y-29387D01*
X63029Y-29455D01*
X63099Y-29525D01*
X63191Y-29564D01*
X63290Y-29564D01*
X63890Y-29564D01*
X63982Y-29525D01*
X64052Y-29455D01*
X64091Y-29363D01*
X64091Y-29303D01*
X64196Y-29281D01*
X64291Y-29219D01*
X64620Y-28890D01*
X66127Y-28890D01*
X66162Y-28924D01*
X66100Y-28924D01*
X66100Y-28969D01*
X65939Y-28903D01*
X65761Y-28903D01*
X65597Y-28970D01*
X65471Y-29096D01*
X65403Y-29260D01*
X65403Y-29438D01*
X65470Y-29602D01*
X65596Y-29728D01*
X65760Y-29796D01*
X65938Y-29796D01*
X66102Y-29729D01*
X66189Y-29642D01*
X66208Y-29661D01*
X66300Y-29700D01*
X66399Y-29700D01*
X66699Y-29700D01*
X66791Y-29661D01*
X66861Y-29591D01*
X66900Y-29499D01*
X66900Y-29400D01*
X66900Y-29200D01*
X66884Y-29162D01*
X66900Y-29124D01*
X66900Y-29087D01*
X66837Y-29025D01*
X66760Y-29025D01*
X66699Y-29000D01*
X66600Y-29000D01*
X66442Y-29000D01*
X66442Y-28950D01*
X66699Y-28950D01*
X66760Y-28925D01*
X66837Y-28925D01*
X66900Y-28862D01*
X66900Y-28825D01*
X66884Y-28787D01*
X66900Y-28749D01*
X66900Y-28650D01*
X66900Y-28450D01*
X66861Y-28358D01*
X66791Y-28288D01*
X66699Y-28250D01*
X66662Y-28250D01*
X66730Y-28205D01*
X67028Y-27906D01*
X67028Y-28063D01*
X67095Y-28227D01*
X67182Y-28314D01*
X67138Y-28358D01*
X67100Y-28450D01*
X67100Y-28549D01*
X67100Y-28749D01*
X67138Y-28841D01*
X67208Y-28911D01*
X67300Y-28950D01*
X67399Y-28950D01*
X67699Y-28950D01*
X67710Y-28945D01*
X67710Y-29004D01*
X67699Y-29000D01*
X67600Y-29000D01*
X67300Y-29000D01*
X67208Y-29038D01*
X67138Y-29108D01*
X67100Y-29200D01*
X67100Y-29299D01*
X67100Y-29499D01*
X67138Y-29591D01*
X67168Y-29621D01*
X66900Y-29889D01*
X66879Y-29910D01*
X66200Y-29910D01*
X66089Y-29932D01*
X65994Y-29994D01*
X65932Y-30089D01*
X65910Y-30200D01*
X65910Y-30624D01*
X65888Y-30633D01*
X65734Y-30788D01*
X65650Y-30990D01*
X65649Y-31208D01*
X65733Y-31411D01*
X65872Y-31550D01*
X65850Y-31550D01*
X65758Y-31588D01*
X65688Y-31658D01*
X65650Y-31750D01*
X65650Y-31987D01*
X65712Y-32050D01*
X66150Y-32050D01*
X66150Y-32042D01*
X66250Y-32042D01*
X66250Y-32050D01*
X66687Y-32050D01*
X66750Y-31987D01*
X66750Y-31750D01*
X66711Y-31658D01*
X66641Y-31588D01*
X66549Y-31550D01*
X66527Y-31550D01*
X66665Y-31411D01*
X66749Y-31209D01*
X66750Y-30991D01*
X66666Y-30788D01*
X66511Y-30634D01*
X66490Y-30624D01*
X66490Y-30490D01*
X67000Y-30490D01*
X67110Y-30467D01*
X67205Y-30405D01*
X67705Y-29905D01*
X67710Y-29897D01*
X67710Y-33327D01*
X67584Y-33275D01*
X67415Y-33274D01*
X67259Y-33339D01*
X67139Y-33458D01*
X67075Y-33615D01*
X67074Y-33784D01*
X67139Y-33940D01*
X67210Y-34011D01*
X67210Y-34812D01*
X67208Y-34813D01*
X67138Y-34883D01*
X67100Y-34975D01*
X67100Y-35074D01*
X67100Y-35189D01*
X66900Y-34989D01*
X66900Y-34975D01*
X66861Y-34883D01*
X66791Y-34813D01*
X66750Y-34795D01*
X66750Y-32449D01*
X66750Y-32212D01*
X66687Y-32150D01*
X66250Y-32150D01*
X66250Y-32587D01*
X66312Y-32650D01*
X66450Y-32650D01*
X66549Y-32650D01*
X66641Y-32611D01*
X66711Y-32541D01*
X66750Y-32449D01*
X66750Y-34795D01*
X66699Y-34775D01*
X66600Y-34775D01*
X66300Y-34775D01*
X66208Y-34813D01*
X66150Y-34871D01*
X66150Y-32587D01*
X66150Y-32150D01*
X65712Y-32150D01*
X65650Y-32212D01*
X65650Y-32449D01*
X65688Y-32541D01*
X65758Y-32611D01*
X65850Y-32650D01*
X65949Y-32650D01*
X66087Y-32650D01*
X66150Y-32587D01*
X66150Y-34871D01*
X66138Y-34883D01*
X66100Y-34975D01*
X66100Y-35074D01*
X66100Y-35274D01*
X66115Y-35312D01*
X66100Y-35350D01*
X66100Y-35387D01*
X66162Y-35450D01*
X66239Y-35450D01*
X66300Y-35475D01*
X66399Y-35475D01*
X66557Y-35475D01*
X66557Y-35525D01*
X66300Y-35525D01*
X66239Y-35550D01*
X66162Y-35550D01*
X66100Y-35612D01*
X66100Y-35649D01*
X66115Y-35687D01*
X66106Y-35710D01*
X65396Y-35710D01*
X65446Y-35589D01*
X65446Y-35411D01*
X65379Y-35247D01*
X65253Y-35121D01*
X65089Y-35053D01*
X64911Y-35053D01*
X64747Y-35120D01*
X64643Y-35224D01*
X64058Y-35224D01*
X64040Y-35180D01*
X63875Y-35014D01*
X63873Y-35014D01*
X63874Y-35013D01*
X64040Y-34848D01*
X64130Y-34631D01*
X64130Y-34397D01*
X64040Y-34180D01*
X63875Y-34014D01*
X63831Y-33996D01*
X63831Y-33166D01*
X63808Y-33055D01*
X63800Y-33041D01*
X63800Y-32675D01*
X63761Y-32583D01*
X63691Y-32513D01*
X63599Y-32475D01*
X63500Y-32475D01*
X63150Y-32475D01*
X63058Y-32513D01*
X63000Y-32571D01*
X62941Y-32513D01*
X62849Y-32475D01*
X62737Y-32475D01*
X62675Y-32537D01*
X62675Y-32950D01*
X62682Y-32950D01*
X62682Y-33050D01*
X62675Y-33050D01*
X62675Y-33462D01*
X62737Y-33525D01*
X62849Y-33525D01*
X62941Y-33486D01*
X63000Y-33428D01*
X63058Y-33486D01*
X63150Y-33525D01*
X63249Y-33525D01*
X63251Y-33525D01*
X63251Y-33996D01*
X63207Y-34014D01*
X63041Y-34179D01*
X63034Y-34196D01*
X62955Y-34170D01*
X62884Y-34240D01*
X62884Y-34099D01*
X62852Y-34000D01*
X62632Y-33920D01*
X62575Y-33922D01*
X62575Y-33462D01*
X62575Y-33050D01*
X62575Y-32950D01*
X62575Y-32537D01*
X62512Y-32475D01*
X62400Y-32475D01*
X62308Y-32513D01*
X62238Y-32583D01*
X62200Y-32675D01*
X62200Y-32774D01*
X62200Y-32887D01*
X62262Y-32950D01*
X62575Y-32950D01*
X62575Y-33050D01*
X62262Y-33050D01*
X62200Y-33112D01*
X62200Y-33225D01*
X62200Y-33324D01*
X62238Y-33416D01*
X62308Y-33486D01*
X62400Y-33525D01*
X62512Y-33525D01*
X62575Y-33462D01*
X62575Y-33922D01*
X62397Y-33930D01*
X62229Y-34000D01*
X62197Y-34099D01*
X62541Y-34443D01*
X62884Y-34099D01*
X62884Y-34240D01*
X62611Y-34514D01*
X62955Y-34857D01*
X63034Y-34832D01*
X63041Y-34847D01*
X63206Y-35013D01*
X63208Y-35013D01*
X63207Y-35014D01*
X63041Y-35179D01*
X63041Y-35181D01*
X63040Y-35180D01*
X62875Y-35014D01*
X62858Y-35007D01*
X62884Y-34928D01*
X62541Y-34584D01*
X62470Y-34655D01*
X62470Y-34514D01*
X62126Y-34170D01*
X62027Y-34202D01*
X61947Y-34422D01*
X61957Y-34657D01*
X62027Y-34825D01*
X62126Y-34857D01*
X62470Y-34514D01*
X62470Y-34655D01*
X62197Y-34928D01*
X62222Y-35007D01*
X62207Y-35014D01*
X62041Y-35179D01*
X61951Y-35396D01*
X61951Y-35630D01*
X62041Y-35847D01*
X62206Y-36013D01*
X62208Y-36013D01*
X62207Y-36014D01*
X62041Y-36179D01*
X62023Y-36224D01*
X61605Y-36224D01*
X61503Y-36121D01*
X61339Y-36053D01*
X61161Y-36053D01*
X60997Y-36120D01*
X60871Y-36246D01*
X60818Y-36372D01*
X60818Y-35750D01*
X60794Y-35627D01*
X60794Y-35627D01*
X60760Y-35576D01*
X60725Y-35524D01*
X60725Y-35524D01*
X60525Y-35324D01*
X60422Y-35255D01*
X60300Y-35231D01*
X60000Y-35231D01*
X60000Y-35200D01*
X59967Y-35121D01*
X59967Y-27381D01*
X59956Y-27163D01*
X59893Y-27012D01*
X59798Y-26984D01*
X59483Y-27300D01*
X59798Y-27615D01*
X59893Y-27587D01*
X59967Y-27381D01*
X59967Y-35121D01*
X59961Y-35108D01*
X59891Y-35038D01*
X59799Y-35000D01*
X59700Y-35000D01*
X59100Y-35000D01*
X59008Y-35038D01*
X58938Y-35108D01*
X58900Y-35200D01*
X58900Y-35299D01*
X58900Y-35899D01*
X58938Y-35991D01*
X59008Y-36061D01*
X59100Y-36100D01*
X59153Y-36100D01*
X59134Y-36164D01*
X59450Y-36479D01*
X59765Y-36164D01*
X59746Y-36100D01*
X59799Y-36100D01*
X59891Y-36061D01*
X59961Y-35991D01*
X60000Y-35899D01*
X60000Y-35868D01*
X60167Y-35868D01*
X60181Y-35882D01*
X60181Y-38500D01*
X60205Y-38622D01*
X60274Y-38725D01*
X60288Y-38739D01*
X60288Y-38739D01*
X60340Y-38774D01*
X60391Y-38808D01*
X60391Y-38808D01*
X60514Y-38832D01*
X62035Y-38832D01*
X62041Y-38847D01*
X62206Y-39013D01*
X62423Y-39103D01*
X62657Y-39103D01*
X62874Y-39013D01*
X63000Y-38887D01*
X63029Y-38955D01*
X63099Y-39025D01*
X63191Y-39064D01*
X63290Y-39064D01*
X63890Y-39064D01*
X63982Y-39025D01*
X64052Y-38955D01*
X64091Y-38863D01*
X64091Y-38804D01*
X65486Y-38804D01*
X65596Y-38781D01*
X65691Y-38719D01*
X66963Y-37446D01*
X67088Y-37446D01*
X67252Y-37379D01*
X67378Y-37253D01*
X67446Y-37089D01*
X67446Y-36911D01*
X67402Y-36804D01*
X67475Y-36804D01*
X71114Y-36804D01*
X71224Y-36781D01*
X71319Y-36719D01*
X71330Y-36708D01*
X71392Y-36613D01*
X71415Y-36503D01*
X71415Y-34650D01*
X71392Y-34539D01*
X71392Y-34539D01*
X71330Y-34444D01*
X71057Y-34172D01*
X71057Y-32900D01*
X71009Y-32662D01*
X70875Y-32461D01*
X70787Y-32402D01*
X70790Y-32400D01*
X70954Y-32222D01*
X71027Y-32046D01*
X70980Y-31950D01*
X70475Y-31950D01*
X70475Y-31957D01*
X70375Y-31957D01*
X70375Y-31950D01*
X69869Y-31950D01*
X69822Y-32046D01*
X69895Y-32222D01*
X70059Y-32400D01*
X70062Y-32402D01*
X69974Y-32461D01*
X69840Y-32662D01*
X69792Y-32900D01*
X69840Y-33137D01*
X69974Y-33338D01*
X70175Y-33472D01*
X70412Y-33520D01*
X70437Y-33520D01*
X70674Y-33472D01*
X70875Y-33338D01*
X71009Y-33137D01*
X71057Y-32900D01*
X71057Y-34172D01*
X70980Y-34094D01*
X70885Y-34032D01*
X70775Y-34010D01*
X68290Y-34010D01*
X68290Y-28271D01*
X68360Y-28341D01*
X68360Y-29125D01*
X68382Y-29235D01*
X68444Y-29330D01*
X69219Y-30105D01*
X69314Y-30167D01*
X69425Y-30190D01*
X69875Y-30190D01*
X69974Y-30338D01*
X70066Y-30400D01*
X69974Y-30461D01*
X69840Y-30662D01*
X69792Y-30900D01*
X69840Y-31137D01*
X69974Y-31338D01*
X70062Y-31397D01*
X70059Y-31399D01*
X69895Y-31577D01*
X69822Y-31753D01*
X69869Y-31850D01*
X70375Y-31850D01*
X70375Y-31842D01*
X70475Y-31842D01*
X70475Y-31850D01*
X70980Y-31850D01*
X71027Y-31753D01*
X70954Y-31577D01*
X70790Y-31399D01*
X70787Y-31397D01*
X70875Y-31338D01*
X71009Y-31137D01*
X71057Y-30900D01*
X71009Y-30662D01*
X70875Y-30461D01*
X70783Y-30399D01*
X70875Y-30338D01*
X70974Y-30190D01*
X71279Y-30190D01*
X71585Y-30495D01*
X71585Y-35675D01*
X71607Y-35785D01*
X71669Y-35880D01*
X72344Y-36555D01*
X72439Y-36617D01*
X72550Y-36640D01*
X80411Y-36640D01*
X80433Y-36661D01*
X80525Y-36700D01*
X80624Y-36700D01*
X80924Y-36700D01*
X81016Y-36661D01*
X81060Y-36618D01*
X81060Y-36617D01*
X81155Y-36555D01*
X81237Y-36472D01*
X81319Y-36555D01*
X81358Y-36580D01*
X81363Y-36591D01*
X81433Y-36661D01*
X81525Y-36700D01*
X81624Y-36700D01*
X81924Y-36700D01*
X82016Y-36661D01*
X82086Y-36591D01*
X82125Y-36499D01*
X82125Y-36400D01*
X82125Y-36200D01*
X82109Y-36162D01*
X82125Y-36124D01*
X82125Y-36087D01*
X82062Y-36025D01*
X81985Y-36025D01*
X81924Y-36000D01*
X81825Y-36000D01*
X81667Y-36000D01*
X81667Y-35950D01*
X81924Y-35950D01*
X81985Y-35925D01*
X82062Y-35925D01*
X82097Y-35890D01*
X82704Y-35890D01*
X83494Y-36680D01*
X83518Y-36696D01*
X82827Y-36696D01*
X82753Y-36621D01*
X82589Y-36553D01*
X82411Y-36553D01*
X82247Y-36620D01*
X82121Y-36746D01*
X82053Y-36910D01*
X82053Y-37088D01*
X82120Y-37252D01*
X82246Y-37378D01*
X82410Y-37446D01*
X82588Y-37446D01*
X82752Y-37379D01*
X82856Y-37276D01*
X83941Y-37276D01*
X83959Y-37319D01*
X84124Y-37485D01*
X84126Y-37485D01*
X84125Y-37486D01*
X83959Y-37651D01*
X83869Y-37868D01*
X83869Y-38102D01*
X83959Y-38319D01*
X84124Y-38485D01*
X84169Y-38503D01*
X84169Y-39084D01*
X84191Y-39194D01*
X84200Y-39208D01*
X84200Y-39574D01*
X84238Y-39666D01*
X84308Y-39736D01*
X84400Y-39775D01*
X84499Y-39775D01*
X84849Y-39775D01*
X84941Y-39736D01*
X85000Y-39678D01*
X85058Y-39736D01*
X85150Y-39775D01*
X85262Y-39775D01*
X85325Y-39712D01*
X85325Y-39300D01*
X85317Y-39300D01*
X85317Y-39200D01*
X85325Y-39200D01*
X85325Y-38787D01*
X85262Y-38725D01*
X85150Y-38725D01*
X85058Y-38763D01*
X84999Y-38821D01*
X84941Y-38763D01*
X84849Y-38725D01*
X84750Y-38725D01*
X84749Y-38725D01*
X84749Y-38503D01*
X84792Y-38485D01*
X84958Y-38320D01*
X84965Y-38303D01*
X85044Y-38329D01*
X85388Y-37986D01*
X85044Y-37642D01*
X84965Y-37667D01*
X84958Y-37652D01*
X84793Y-37486D01*
X84791Y-37486D01*
X84792Y-37485D01*
X84958Y-37320D01*
X84958Y-37318D01*
X84959Y-37319D01*
X85124Y-37485D01*
X85141Y-37492D01*
X85115Y-37571D01*
X85459Y-37915D01*
X85802Y-37571D01*
X85777Y-37492D01*
X85792Y-37485D01*
X85958Y-37320D01*
X86048Y-37103D01*
X86048Y-36869D01*
X85958Y-36652D01*
X85793Y-36486D01*
X85791Y-36486D01*
X85792Y-36485D01*
X85958Y-36320D01*
X85976Y-36276D01*
X86394Y-36276D01*
X86496Y-36378D01*
X86660Y-36446D01*
X86838Y-36446D01*
X87002Y-36379D01*
X87128Y-36253D01*
X87181Y-36127D01*
X87181Y-36450D01*
X87171Y-36500D01*
X87196Y-36625D01*
X87267Y-36732D01*
X87467Y-36932D01*
X87467Y-36932D01*
X87520Y-36968D01*
X87574Y-37003D01*
X87574Y-37003D01*
X87700Y-37028D01*
X88000Y-37028D01*
X88000Y-37049D01*
X88038Y-37141D01*
X88108Y-37211D01*
X88200Y-37250D01*
X88299Y-37250D01*
X88899Y-37250D01*
X88991Y-37211D01*
X89061Y-37141D01*
X89100Y-37049D01*
X89100Y-39999D01*
X86052Y-39999D01*
X86052Y-38077D01*
X86042Y-37842D01*
X85972Y-37674D01*
X85873Y-37642D01*
X85529Y-37986D01*
X85873Y-38329D01*
X85972Y-38297D01*
X86052Y-38077D01*
X86052Y-39999D01*
X85802Y-39999D01*
X85802Y-38400D01*
X85459Y-38056D01*
X85115Y-38400D01*
X85147Y-38499D01*
X85367Y-38579D01*
X85602Y-38569D01*
X85770Y-38499D01*
X85802Y-38400D01*
X85802Y-39999D01*
X85800Y-39999D01*
X85800Y-39574D01*
X85800Y-39475D01*
X85800Y-39362D01*
X85800Y-39137D01*
X85800Y-39024D01*
X85800Y-38925D01*
X85761Y-38833D01*
X85691Y-38763D01*
X85599Y-38725D01*
X85487Y-38725D01*
X85425Y-38787D01*
X85425Y-39200D01*
X85737Y-39200D01*
X85800Y-39137D01*
X85800Y-39362D01*
X85737Y-39300D01*
X85425Y-39300D01*
X85425Y-39712D01*
X85487Y-39775D01*
X85599Y-39775D01*
X85691Y-39736D01*
X85761Y-39666D01*
X85800Y-39574D01*
X85800Y-39999D01*
X83171Y-39999D01*
X83017Y-39935D01*
X82783Y-39935D01*
X82566Y-40025D01*
X82400Y-40190D01*
X82310Y-40407D01*
X82310Y-40641D01*
X82400Y-40858D01*
X82565Y-41024D01*
X82782Y-41114D01*
X83016Y-41114D01*
X83171Y-41050D01*
X89899Y-41050D01*
X89900Y-41050D01*
X89900Y-41050D01*
X90101Y-41010D01*
X90101Y-41010D01*
X90271Y-40896D01*
X90321Y-40846D01*
X90321Y-40846D01*
X90321Y-40846D01*
X90389Y-40744D01*
X90435Y-40676D01*
X90435Y-40676D01*
X90475Y-40475D01*
X90475Y-40475D01*
X90475Y-41175D01*
X90000Y-41175D01*
X78739Y-41175D01*
X78739Y-40408D01*
X78649Y-40191D01*
X78484Y-40025D01*
X78267Y-39935D01*
X78033Y-39935D01*
X77878Y-39999D01*
X77750Y-39999D01*
X77750Y-38291D01*
X77750Y-38291D01*
X77760Y-38276D01*
X77760Y-38276D01*
X77800Y-38075D01*
X77800Y-38075D01*
X77760Y-37873D01*
X77646Y-37703D01*
X77476Y-37589D01*
X77275Y-37549D01*
X77274Y-37549D01*
X73591Y-37549D01*
X73576Y-37539D01*
X73375Y-37499D01*
X73374Y-37499D01*
X71525Y-37499D01*
X71525Y-37499D01*
X71323Y-37539D01*
X71153Y-37653D01*
X71153Y-37653D01*
X71128Y-37678D01*
X71014Y-37848D01*
X70974Y-38050D01*
X70974Y-38050D01*
X70974Y-39974D01*
X70446Y-39974D01*
X70325Y-39924D01*
X70325Y-38500D01*
X70224Y-37992D01*
X69936Y-37563D01*
X69507Y-37275D01*
X69000Y-37175D01*
X68492Y-37275D01*
X68063Y-37563D01*
X67775Y-37992D01*
X67675Y-38500D01*
X67775Y-39007D01*
X68063Y-39436D01*
X68492Y-39724D01*
X69000Y-39825D01*
X69507Y-39724D01*
X69936Y-39436D01*
X70224Y-39007D01*
X70325Y-38500D01*
X70325Y-39924D01*
X70292Y-39910D01*
X70058Y-39910D01*
X69841Y-40000D01*
X69675Y-40165D01*
X69585Y-40382D01*
X69585Y-40616D01*
X69675Y-40833D01*
X69840Y-40999D01*
X70057Y-41089D01*
X70291Y-41089D01*
X70446Y-41025D01*
X71574Y-41025D01*
X71575Y-41025D01*
X71575Y-41025D01*
X71776Y-40985D01*
X71776Y-40985D01*
X71946Y-40871D01*
X72060Y-40701D01*
X72060Y-40701D01*
X72100Y-40500D01*
X72100Y-40500D01*
X72060Y-40298D01*
X72025Y-40246D01*
X72025Y-38550D01*
X72938Y-38550D01*
X72938Y-39130D01*
X72909Y-39142D01*
X72839Y-39212D01*
X72801Y-39304D01*
X72801Y-39404D01*
X72801Y-40230D01*
X72839Y-40322D01*
X72909Y-40393D01*
X73001Y-40431D01*
X73100Y-40431D01*
X73927Y-40431D01*
X74019Y-40393D01*
X74089Y-40322D01*
X74127Y-40230D01*
X74127Y-40131D01*
X74127Y-39929D01*
X74208Y-40123D01*
X74315Y-40164D01*
X74712Y-39767D01*
X74315Y-39370D01*
X74208Y-39411D01*
X74127Y-39626D01*
X74127Y-39304D01*
X74089Y-39212D01*
X74019Y-39142D01*
X73990Y-39130D01*
X73990Y-38600D01*
X76699Y-38600D01*
X76699Y-40299D01*
X76699Y-40300D01*
X76739Y-40501D01*
X76853Y-40671D01*
X77078Y-40896D01*
X77248Y-41010D01*
X77248Y-41010D01*
X77450Y-41050D01*
X77450Y-41050D01*
X77450Y-41050D01*
X77878Y-41050D01*
X78032Y-41114D01*
X78266Y-41114D01*
X78483Y-41024D01*
X78649Y-40859D01*
X78739Y-40642D01*
X78739Y-40408D01*
X78739Y-41175D01*
X75451Y-41175D01*
X75451Y-39876D01*
X75441Y-39612D01*
X75358Y-39411D01*
X75251Y-39370D01*
X75180Y-39441D01*
X75180Y-39299D01*
X75139Y-39192D01*
X74892Y-39100D01*
X74628Y-39109D01*
X74427Y-39192D01*
X74386Y-39299D01*
X74783Y-39697D01*
X75180Y-39299D01*
X75180Y-39441D01*
X74854Y-39767D01*
X75251Y-40164D01*
X75358Y-40123D01*
X75451Y-39876D01*
X75451Y-41175D01*
X75180Y-41175D01*
X75180Y-40235D01*
X74783Y-39838D01*
X74386Y-40235D01*
X74427Y-40342D01*
X74674Y-40435D01*
X74938Y-40426D01*
X75139Y-40342D01*
X75180Y-40235D01*
X75180Y-41175D01*
X66014Y-41175D01*
X66014Y-40383D01*
X65924Y-40166D01*
X65759Y-40000D01*
X65542Y-39910D01*
X65308Y-39910D01*
X65153Y-39974D01*
X60004Y-39974D01*
X60004Y-36631D01*
X59993Y-36413D01*
X59931Y-36262D01*
X59835Y-36234D01*
X59520Y-36550D01*
X59835Y-36865D01*
X59931Y-36837D01*
X60004Y-36631D01*
X60004Y-39974D01*
X58775Y-39974D01*
X58775Y-38075D01*
X59281Y-38075D01*
X59340Y-38099D01*
X59558Y-38100D01*
X59761Y-38016D01*
X59915Y-37861D01*
X59999Y-37659D01*
X60000Y-37441D01*
X59916Y-37238D01*
X59761Y-37084D01*
X59686Y-37052D01*
X59737Y-37031D01*
X59765Y-36935D01*
X59450Y-36620D01*
X59379Y-36691D01*
X59379Y-36550D01*
X59064Y-36234D01*
X58968Y-36262D01*
X58895Y-36468D01*
X58906Y-36686D01*
X58968Y-36837D01*
X59064Y-36865D01*
X59379Y-36550D01*
X59379Y-36691D01*
X59134Y-36935D01*
X59160Y-37024D01*
X58775Y-37024D01*
X58775Y-28825D01*
X59003Y-28825D01*
X59062Y-28850D01*
X59162Y-28850D01*
X59762Y-28850D01*
X59854Y-28811D01*
X59924Y-28741D01*
X59962Y-28649D01*
X59962Y-28550D01*
X59962Y-27950D01*
X59924Y-27858D01*
X59854Y-27788D01*
X59762Y-27750D01*
X59709Y-27750D01*
X59727Y-27685D01*
X59412Y-27370D01*
X59341Y-27441D01*
X59341Y-27300D01*
X59026Y-26984D01*
X58931Y-27012D01*
X58857Y-27218D01*
X58868Y-27436D01*
X58931Y-27587D01*
X59026Y-27615D01*
X59341Y-27300D01*
X59341Y-27441D01*
X59097Y-27685D01*
X59115Y-27750D01*
X59062Y-27750D01*
X59003Y-27774D01*
X58775Y-27774D01*
X58775Y-19575D01*
X59281Y-19575D01*
X59340Y-19599D01*
X59558Y-19600D01*
X59761Y-19516D01*
X59915Y-19361D01*
X59999Y-19159D01*
X60000Y-18941D01*
X59916Y-18738D01*
X59761Y-18584D01*
X59686Y-18552D01*
X59737Y-18531D01*
X59765Y-18435D01*
X59450Y-18120D01*
X59379Y-18191D01*
X59379Y-18050D01*
X59064Y-17734D01*
X58968Y-17762D01*
X58895Y-17968D01*
X58906Y-18186D01*
X58968Y-18337D01*
X59064Y-18365D01*
X59379Y-18050D01*
X59379Y-18191D01*
X59134Y-18435D01*
X59160Y-18524D01*
X58466Y-18524D01*
X58451Y-18514D01*
X58250Y-18474D01*
X58048Y-18514D01*
X57878Y-18628D01*
X57764Y-18798D01*
X57724Y-19000D01*
X57724Y-19000D01*
X57724Y-28249D01*
X57724Y-28250D01*
X57724Y-28250D01*
X57724Y-37500D01*
X57724Y-37550D01*
X57724Y-40274D01*
X57724Y-40275D01*
X57724Y-40275D01*
X57724Y-40500D01*
X57764Y-40701D01*
X57878Y-40871D01*
X58048Y-40985D01*
X58250Y-41025D01*
X58362Y-41003D01*
X58475Y-41025D01*
X58475Y-41025D01*
X58475Y-41025D01*
X65153Y-41025D01*
X65307Y-41089D01*
X65541Y-41089D01*
X65758Y-40999D01*
X65924Y-40834D01*
X66014Y-40617D01*
X66014Y-40383D01*
X66014Y-41175D01*
X57325Y-41175D01*
X57325Y-12825D01*
X90675Y-12825D01*
X90675Y-41175D01*
M02*
