G04 (created by PCBNEW (2013-mar-13)-testing) date jeu. 10 oct. 2013 21:07:33 CEST*
%MOIN*%
G04 Gerber Fmt 3.4, Leading zero omitted, Abs format*
%FSLAX34Y34*%
G01*
G70*
G90*
G04 APERTURE LIST*
%ADD10C,0.005906*%
%ADD11C,0.006000*%
%ADD12C,0.015000*%
%ADD13C,0.008000*%
%ADD14C,0.005000*%
%ADD15C,0.004000*%
%ADD16C,0.012000*%
G04 APERTURE END LIST*
G54D10*
G54D11*
X86750Y-14000D02*
X86750Y-21975D01*
X86750Y-21975D02*
X83150Y-21975D01*
X83150Y-21975D02*
X83150Y-14000D01*
X83150Y-14000D02*
X86750Y-14000D01*
X87750Y-38000D02*
X90750Y-38000D01*
X90750Y-38000D02*
X90750Y-33400D01*
X90750Y-33400D02*
X87750Y-33400D01*
X87750Y-33400D02*
X87750Y-38000D01*
X87750Y-29000D02*
X90750Y-29000D01*
X90750Y-29000D02*
X90750Y-24400D01*
X90750Y-24400D02*
X87750Y-24400D01*
X87750Y-24400D02*
X87750Y-29000D01*
X87750Y-20500D02*
X90750Y-20500D01*
X90750Y-20500D02*
X90750Y-15900D01*
X90750Y-15900D02*
X87750Y-15900D01*
X87750Y-15900D02*
X87750Y-20500D01*
X60250Y-34250D02*
X57250Y-34250D01*
X57250Y-34250D02*
X57250Y-38850D01*
X57250Y-38850D02*
X60250Y-38850D01*
X60250Y-38850D02*
X60250Y-34250D01*
X60250Y-15750D02*
X57250Y-15750D01*
X57250Y-15750D02*
X57250Y-20350D01*
X57250Y-20350D02*
X60250Y-20350D01*
X60250Y-20350D02*
X60250Y-15750D01*
X61250Y-40500D02*
X61250Y-32525D01*
X61250Y-32525D02*
X64850Y-32525D01*
X64850Y-32525D02*
X64850Y-40500D01*
X64850Y-40500D02*
X61250Y-40500D01*
X61250Y-31000D02*
X61250Y-23025D01*
X61250Y-23025D02*
X64850Y-23025D01*
X64850Y-23025D02*
X64850Y-31000D01*
X64850Y-31000D02*
X61250Y-31000D01*
X61250Y-21750D02*
X61250Y-13775D01*
X61250Y-13775D02*
X64850Y-13775D01*
X64850Y-13775D02*
X64850Y-21750D01*
X64850Y-21750D02*
X61250Y-21750D01*
X86750Y-23000D02*
X86750Y-30975D01*
X86750Y-30975D02*
X83150Y-30975D01*
X83150Y-30975D02*
X83150Y-23000D01*
X83150Y-23000D02*
X86750Y-23000D01*
X86750Y-32000D02*
X86750Y-39975D01*
X86750Y-39975D02*
X83150Y-39975D01*
X83150Y-39975D02*
X83150Y-32000D01*
X83150Y-32000D02*
X86750Y-32000D01*
G54D12*
X72500Y-41500D02*
X75850Y-41500D01*
X75850Y-41500D02*
X75850Y-38650D01*
X75850Y-38650D02*
X72500Y-38650D01*
X72500Y-38650D02*
X72500Y-41500D01*
G54D11*
X70375Y-34950D02*
X70375Y-35950D01*
X70375Y-35950D02*
X68375Y-35950D01*
X68375Y-35950D02*
X68375Y-34950D01*
X68375Y-34950D02*
X70375Y-34950D01*
X66700Y-32600D02*
X65700Y-32600D01*
X65700Y-32600D02*
X65700Y-30600D01*
X65700Y-30600D02*
X66700Y-30600D01*
X66700Y-30600D02*
X66700Y-32600D01*
X69675Y-20725D02*
X68675Y-20725D01*
X68675Y-20725D02*
X68675Y-18725D01*
X68675Y-18725D02*
X69675Y-18725D01*
X69675Y-18725D02*
X69675Y-20725D01*
X79800Y-19100D02*
X79800Y-20100D01*
X79800Y-20100D02*
X77800Y-20100D01*
X77800Y-20100D02*
X77800Y-19100D01*
X77800Y-19100D02*
X79800Y-19100D01*
X79800Y-27700D02*
X79800Y-28700D01*
X79800Y-28700D02*
X77800Y-28700D01*
X77800Y-28700D02*
X77800Y-27700D01*
X77800Y-27700D02*
X79800Y-27700D01*
X79800Y-35100D02*
X79800Y-36100D01*
X79800Y-36100D02*
X77800Y-36100D01*
X77800Y-36100D02*
X77800Y-35100D01*
X77800Y-35100D02*
X79800Y-35100D01*
X57200Y-29600D02*
X60200Y-29600D01*
X60200Y-29600D02*
X60200Y-25000D01*
X60200Y-25000D02*
X57200Y-25000D01*
X57200Y-25000D02*
X57200Y-29600D01*
G54D12*
X69625Y-41500D02*
X65975Y-41500D01*
X65975Y-41500D02*
X65975Y-39500D01*
X65975Y-39500D02*
X69625Y-39500D01*
X69625Y-39500D02*
X69625Y-41450D01*
X69625Y-41450D02*
X69625Y-41500D01*
X78700Y-39525D02*
X82350Y-39525D01*
X82350Y-39525D02*
X82350Y-41525D01*
X82350Y-41525D02*
X78700Y-41525D01*
X78700Y-41525D02*
X78700Y-39575D01*
X78700Y-39575D02*
X78700Y-39525D01*
G54D13*
X82450Y-18871D02*
X82430Y-18909D01*
X82430Y-18966D01*
X82450Y-19023D01*
X82488Y-19061D01*
X82526Y-19080D01*
X82602Y-19099D01*
X82659Y-19099D01*
X82735Y-19080D01*
X82773Y-19061D01*
X82811Y-19023D01*
X82830Y-18966D01*
X82830Y-18928D01*
X82811Y-18871D01*
X82792Y-18852D01*
X82659Y-18852D01*
X82659Y-18928D01*
X82830Y-18623D02*
X82811Y-18661D01*
X82792Y-18680D01*
X82754Y-18699D01*
X82640Y-18699D01*
X82602Y-18680D01*
X82583Y-18661D01*
X82564Y-18623D01*
X82564Y-18566D01*
X82583Y-18528D01*
X82602Y-18509D01*
X82640Y-18490D01*
X82754Y-18490D01*
X82792Y-18509D01*
X82811Y-18528D01*
X82830Y-18566D01*
X82830Y-18623D01*
X82830Y-18319D02*
X82430Y-18319D01*
X82430Y-18166D01*
X82450Y-18128D01*
X82469Y-18109D01*
X82507Y-18090D01*
X82564Y-18090D01*
X82602Y-18109D01*
X82621Y-18128D01*
X82640Y-18166D01*
X82640Y-18319D01*
X82830Y-17919D02*
X82564Y-17919D01*
X82640Y-17919D02*
X82602Y-17899D01*
X82583Y-17880D01*
X82564Y-17842D01*
X82564Y-17804D01*
X82830Y-17614D02*
X82811Y-17652D01*
X82792Y-17671D01*
X82754Y-17690D01*
X82640Y-17690D01*
X82602Y-17671D01*
X82583Y-17652D01*
X82564Y-17614D01*
X82564Y-17557D01*
X82583Y-17519D01*
X82602Y-17500D01*
X82640Y-17480D01*
X82754Y-17480D01*
X82792Y-17500D01*
X82811Y-17519D01*
X82830Y-17557D01*
X82830Y-17614D01*
X82564Y-17138D02*
X82830Y-17138D01*
X82411Y-17233D02*
X82697Y-17328D01*
X82697Y-17080D01*
G54D11*
X90030Y-36395D02*
X90030Y-36166D01*
X90430Y-36280D02*
X90030Y-36280D01*
X90411Y-36052D02*
X90430Y-35995D01*
X90430Y-35900D01*
X90411Y-35861D01*
X90392Y-35842D01*
X90354Y-35823D01*
X90316Y-35823D01*
X90278Y-35842D01*
X90259Y-35861D01*
X90240Y-35900D01*
X90221Y-35976D01*
X90202Y-36014D01*
X90183Y-36033D01*
X90145Y-36052D01*
X90107Y-36052D01*
X90069Y-36033D01*
X90050Y-36014D01*
X90030Y-35976D01*
X90030Y-35880D01*
X90050Y-35823D01*
X90430Y-35423D02*
X90240Y-35557D01*
X90430Y-35652D02*
X90030Y-35652D01*
X90030Y-35500D01*
X90050Y-35461D01*
X90069Y-35442D01*
X90107Y-35423D01*
X90164Y-35423D01*
X90202Y-35442D01*
X90221Y-35461D01*
X90240Y-35500D01*
X90240Y-35652D01*
X90030Y-35080D02*
X90030Y-35157D01*
X90050Y-35195D01*
X90069Y-35214D01*
X90126Y-35252D01*
X90202Y-35271D01*
X90354Y-35271D01*
X90392Y-35252D01*
X90411Y-35233D01*
X90430Y-35195D01*
X90430Y-35119D01*
X90411Y-35080D01*
X90392Y-35061D01*
X90354Y-35042D01*
X90259Y-35042D01*
X90221Y-35061D01*
X90202Y-35080D01*
X90183Y-35119D01*
X90183Y-35195D01*
X90202Y-35233D01*
X90221Y-35252D01*
X90259Y-35271D01*
X90030Y-27395D02*
X90030Y-27166D01*
X90430Y-27280D02*
X90030Y-27280D01*
X90411Y-27052D02*
X90430Y-26995D01*
X90430Y-26900D01*
X90411Y-26861D01*
X90392Y-26842D01*
X90354Y-26823D01*
X90316Y-26823D01*
X90278Y-26842D01*
X90259Y-26861D01*
X90240Y-26900D01*
X90221Y-26976D01*
X90202Y-27014D01*
X90183Y-27033D01*
X90145Y-27052D01*
X90107Y-27052D01*
X90069Y-27033D01*
X90050Y-27014D01*
X90030Y-26976D01*
X90030Y-26880D01*
X90050Y-26823D01*
X90430Y-26423D02*
X90240Y-26557D01*
X90430Y-26652D02*
X90030Y-26652D01*
X90030Y-26500D01*
X90050Y-26461D01*
X90069Y-26442D01*
X90107Y-26423D01*
X90164Y-26423D01*
X90202Y-26442D01*
X90221Y-26461D01*
X90240Y-26500D01*
X90240Y-26652D01*
X90030Y-26061D02*
X90030Y-26252D01*
X90221Y-26271D01*
X90202Y-26252D01*
X90183Y-26214D01*
X90183Y-26119D01*
X90202Y-26080D01*
X90221Y-26061D01*
X90259Y-26042D01*
X90354Y-26042D01*
X90392Y-26061D01*
X90411Y-26080D01*
X90430Y-26119D01*
X90430Y-26214D01*
X90411Y-26252D01*
X90392Y-26271D01*
X90030Y-18895D02*
X90030Y-18666D01*
X90430Y-18780D02*
X90030Y-18780D01*
X90411Y-18552D02*
X90430Y-18495D01*
X90430Y-18400D01*
X90411Y-18361D01*
X90392Y-18342D01*
X90354Y-18323D01*
X90316Y-18323D01*
X90278Y-18342D01*
X90259Y-18361D01*
X90240Y-18400D01*
X90221Y-18476D01*
X90202Y-18514D01*
X90183Y-18533D01*
X90145Y-18552D01*
X90107Y-18552D01*
X90069Y-18533D01*
X90050Y-18514D01*
X90030Y-18476D01*
X90030Y-18380D01*
X90050Y-18323D01*
X90430Y-17923D02*
X90240Y-18057D01*
X90430Y-18152D02*
X90030Y-18152D01*
X90030Y-18000D01*
X90050Y-17961D01*
X90069Y-17942D01*
X90107Y-17923D01*
X90164Y-17923D01*
X90202Y-17942D01*
X90221Y-17961D01*
X90240Y-18000D01*
X90240Y-18152D01*
X90164Y-17580D02*
X90430Y-17580D01*
X90011Y-17676D02*
X90297Y-17771D01*
X90297Y-17523D01*
X57530Y-37245D02*
X57530Y-37016D01*
X57930Y-37130D02*
X57530Y-37130D01*
X57911Y-36902D02*
X57930Y-36845D01*
X57930Y-36750D01*
X57911Y-36711D01*
X57892Y-36692D01*
X57854Y-36673D01*
X57816Y-36673D01*
X57778Y-36692D01*
X57759Y-36711D01*
X57740Y-36750D01*
X57721Y-36826D01*
X57702Y-36864D01*
X57683Y-36883D01*
X57645Y-36902D01*
X57607Y-36902D01*
X57569Y-36883D01*
X57550Y-36864D01*
X57530Y-36826D01*
X57530Y-36730D01*
X57550Y-36673D01*
X57930Y-36273D02*
X57740Y-36407D01*
X57930Y-36502D02*
X57530Y-36502D01*
X57530Y-36350D01*
X57550Y-36311D01*
X57569Y-36292D01*
X57607Y-36273D01*
X57664Y-36273D01*
X57702Y-36292D01*
X57721Y-36311D01*
X57740Y-36350D01*
X57740Y-36502D01*
X57930Y-35892D02*
X57930Y-36121D01*
X57930Y-36007D02*
X57530Y-36007D01*
X57588Y-36045D01*
X57626Y-36083D01*
X57645Y-36121D01*
X57530Y-18695D02*
X57530Y-18466D01*
X57930Y-18580D02*
X57530Y-18580D01*
X57911Y-18352D02*
X57930Y-18295D01*
X57930Y-18200D01*
X57911Y-18161D01*
X57892Y-18142D01*
X57854Y-18123D01*
X57816Y-18123D01*
X57778Y-18142D01*
X57759Y-18161D01*
X57740Y-18200D01*
X57721Y-18276D01*
X57702Y-18314D01*
X57683Y-18333D01*
X57645Y-18352D01*
X57607Y-18352D01*
X57569Y-18333D01*
X57550Y-18314D01*
X57530Y-18276D01*
X57530Y-18180D01*
X57550Y-18123D01*
X57930Y-17723D02*
X57740Y-17857D01*
X57930Y-17952D02*
X57530Y-17952D01*
X57530Y-17800D01*
X57550Y-17761D01*
X57569Y-17742D01*
X57607Y-17723D01*
X57664Y-17723D01*
X57702Y-17742D01*
X57721Y-17761D01*
X57740Y-17800D01*
X57740Y-17952D01*
X57530Y-17590D02*
X57530Y-17342D01*
X57683Y-17476D01*
X57683Y-17419D01*
X57702Y-17380D01*
X57721Y-17361D01*
X57759Y-17342D01*
X57854Y-17342D01*
X57892Y-17361D01*
X57911Y-17380D01*
X57930Y-17419D01*
X57930Y-17533D01*
X57911Y-17571D01*
X57892Y-17590D01*
G54D13*
X65150Y-37171D02*
X65130Y-37209D01*
X65130Y-37266D01*
X65150Y-37323D01*
X65188Y-37361D01*
X65226Y-37380D01*
X65302Y-37399D01*
X65359Y-37399D01*
X65435Y-37380D01*
X65473Y-37361D01*
X65511Y-37323D01*
X65530Y-37266D01*
X65530Y-37228D01*
X65511Y-37171D01*
X65492Y-37152D01*
X65359Y-37152D01*
X65359Y-37228D01*
X65530Y-36923D02*
X65511Y-36961D01*
X65492Y-36980D01*
X65454Y-36999D01*
X65340Y-36999D01*
X65302Y-36980D01*
X65283Y-36961D01*
X65264Y-36923D01*
X65264Y-36866D01*
X65283Y-36828D01*
X65302Y-36809D01*
X65340Y-36790D01*
X65454Y-36790D01*
X65492Y-36809D01*
X65511Y-36828D01*
X65530Y-36866D01*
X65530Y-36923D01*
X65530Y-36619D02*
X65130Y-36619D01*
X65130Y-36466D01*
X65150Y-36428D01*
X65169Y-36409D01*
X65207Y-36390D01*
X65264Y-36390D01*
X65302Y-36409D01*
X65321Y-36428D01*
X65340Y-36466D01*
X65340Y-36619D01*
X65530Y-36219D02*
X65264Y-36219D01*
X65340Y-36219D02*
X65302Y-36199D01*
X65283Y-36180D01*
X65264Y-36142D01*
X65264Y-36104D01*
X65530Y-35914D02*
X65511Y-35952D01*
X65492Y-35971D01*
X65454Y-35990D01*
X65340Y-35990D01*
X65302Y-35971D01*
X65283Y-35952D01*
X65264Y-35914D01*
X65264Y-35857D01*
X65283Y-35819D01*
X65302Y-35800D01*
X65340Y-35780D01*
X65454Y-35780D01*
X65492Y-35800D01*
X65511Y-35819D01*
X65530Y-35857D01*
X65530Y-35914D01*
X65530Y-35400D02*
X65530Y-35628D01*
X65530Y-35514D02*
X65130Y-35514D01*
X65188Y-35552D01*
X65226Y-35590D01*
X65245Y-35628D01*
X65150Y-27671D02*
X65130Y-27709D01*
X65130Y-27766D01*
X65150Y-27823D01*
X65188Y-27861D01*
X65226Y-27880D01*
X65302Y-27899D01*
X65359Y-27899D01*
X65435Y-27880D01*
X65473Y-27861D01*
X65511Y-27823D01*
X65530Y-27766D01*
X65530Y-27728D01*
X65511Y-27671D01*
X65492Y-27652D01*
X65359Y-27652D01*
X65359Y-27728D01*
X65530Y-27423D02*
X65511Y-27461D01*
X65492Y-27480D01*
X65454Y-27499D01*
X65340Y-27499D01*
X65302Y-27480D01*
X65283Y-27461D01*
X65264Y-27423D01*
X65264Y-27366D01*
X65283Y-27328D01*
X65302Y-27309D01*
X65340Y-27290D01*
X65454Y-27290D01*
X65492Y-27309D01*
X65511Y-27328D01*
X65530Y-27366D01*
X65530Y-27423D01*
X65530Y-27119D02*
X65130Y-27119D01*
X65130Y-26966D01*
X65150Y-26928D01*
X65169Y-26909D01*
X65207Y-26890D01*
X65264Y-26890D01*
X65302Y-26909D01*
X65321Y-26928D01*
X65340Y-26966D01*
X65340Y-27119D01*
X65530Y-26719D02*
X65264Y-26719D01*
X65340Y-26719D02*
X65302Y-26699D01*
X65283Y-26680D01*
X65264Y-26642D01*
X65264Y-26604D01*
X65530Y-26414D02*
X65511Y-26452D01*
X65492Y-26471D01*
X65454Y-26490D01*
X65340Y-26490D01*
X65302Y-26471D01*
X65283Y-26452D01*
X65264Y-26414D01*
X65264Y-26357D01*
X65283Y-26319D01*
X65302Y-26300D01*
X65340Y-26280D01*
X65454Y-26280D01*
X65492Y-26300D01*
X65511Y-26319D01*
X65530Y-26357D01*
X65530Y-26414D01*
X65169Y-26128D02*
X65150Y-26109D01*
X65130Y-26071D01*
X65130Y-25976D01*
X65150Y-25938D01*
X65169Y-25919D01*
X65207Y-25900D01*
X65245Y-25900D01*
X65302Y-25919D01*
X65530Y-26147D01*
X65530Y-25900D01*
X65150Y-18421D02*
X65130Y-18459D01*
X65130Y-18516D01*
X65150Y-18573D01*
X65188Y-18611D01*
X65226Y-18630D01*
X65302Y-18649D01*
X65359Y-18649D01*
X65435Y-18630D01*
X65473Y-18611D01*
X65511Y-18573D01*
X65530Y-18516D01*
X65530Y-18478D01*
X65511Y-18421D01*
X65492Y-18402D01*
X65359Y-18402D01*
X65359Y-18478D01*
X65530Y-18173D02*
X65511Y-18211D01*
X65492Y-18230D01*
X65454Y-18249D01*
X65340Y-18249D01*
X65302Y-18230D01*
X65283Y-18211D01*
X65264Y-18173D01*
X65264Y-18116D01*
X65283Y-18078D01*
X65302Y-18059D01*
X65340Y-18040D01*
X65454Y-18040D01*
X65492Y-18059D01*
X65511Y-18078D01*
X65530Y-18116D01*
X65530Y-18173D01*
X65530Y-17869D02*
X65130Y-17869D01*
X65130Y-17716D01*
X65150Y-17678D01*
X65169Y-17659D01*
X65207Y-17640D01*
X65264Y-17640D01*
X65302Y-17659D01*
X65321Y-17678D01*
X65340Y-17716D01*
X65340Y-17869D01*
X65530Y-17469D02*
X65264Y-17469D01*
X65340Y-17469D02*
X65302Y-17449D01*
X65283Y-17430D01*
X65264Y-17392D01*
X65264Y-17354D01*
X65530Y-17164D02*
X65511Y-17202D01*
X65492Y-17221D01*
X65454Y-17240D01*
X65340Y-17240D01*
X65302Y-17221D01*
X65283Y-17202D01*
X65264Y-17164D01*
X65264Y-17107D01*
X65283Y-17069D01*
X65302Y-17050D01*
X65340Y-17030D01*
X65454Y-17030D01*
X65492Y-17050D01*
X65511Y-17069D01*
X65530Y-17107D01*
X65530Y-17164D01*
X65130Y-16897D02*
X65130Y-16650D01*
X65283Y-16783D01*
X65283Y-16726D01*
X65302Y-16688D01*
X65321Y-16669D01*
X65359Y-16650D01*
X65454Y-16650D01*
X65492Y-16669D01*
X65511Y-16688D01*
X65530Y-16726D01*
X65530Y-16840D01*
X65511Y-16878D01*
X65492Y-16897D01*
X82450Y-27871D02*
X82430Y-27909D01*
X82430Y-27966D01*
X82450Y-28023D01*
X82488Y-28061D01*
X82526Y-28080D01*
X82602Y-28099D01*
X82659Y-28099D01*
X82735Y-28080D01*
X82773Y-28061D01*
X82811Y-28023D01*
X82830Y-27966D01*
X82830Y-27928D01*
X82811Y-27871D01*
X82792Y-27852D01*
X82659Y-27852D01*
X82659Y-27928D01*
X82830Y-27623D02*
X82811Y-27661D01*
X82792Y-27680D01*
X82754Y-27699D01*
X82640Y-27699D01*
X82602Y-27680D01*
X82583Y-27661D01*
X82564Y-27623D01*
X82564Y-27566D01*
X82583Y-27528D01*
X82602Y-27509D01*
X82640Y-27490D01*
X82754Y-27490D01*
X82792Y-27509D01*
X82811Y-27528D01*
X82830Y-27566D01*
X82830Y-27623D01*
X82830Y-27319D02*
X82430Y-27319D01*
X82430Y-27166D01*
X82450Y-27128D01*
X82469Y-27109D01*
X82507Y-27090D01*
X82564Y-27090D01*
X82602Y-27109D01*
X82621Y-27128D01*
X82640Y-27166D01*
X82640Y-27319D01*
X82830Y-26919D02*
X82564Y-26919D01*
X82640Y-26919D02*
X82602Y-26899D01*
X82583Y-26880D01*
X82564Y-26842D01*
X82564Y-26804D01*
X82830Y-26614D02*
X82811Y-26652D01*
X82792Y-26671D01*
X82754Y-26690D01*
X82640Y-26690D01*
X82602Y-26671D01*
X82583Y-26652D01*
X82564Y-26614D01*
X82564Y-26557D01*
X82583Y-26519D01*
X82602Y-26500D01*
X82640Y-26480D01*
X82754Y-26480D01*
X82792Y-26500D01*
X82811Y-26519D01*
X82830Y-26557D01*
X82830Y-26614D01*
X82430Y-26119D02*
X82430Y-26309D01*
X82621Y-26328D01*
X82602Y-26309D01*
X82583Y-26271D01*
X82583Y-26176D01*
X82602Y-26138D01*
X82621Y-26119D01*
X82659Y-26100D01*
X82754Y-26100D01*
X82792Y-26119D01*
X82811Y-26138D01*
X82830Y-26176D01*
X82830Y-26271D01*
X82811Y-26309D01*
X82792Y-26328D01*
X82450Y-36871D02*
X82430Y-36909D01*
X82430Y-36966D01*
X82450Y-37023D01*
X82488Y-37061D01*
X82526Y-37080D01*
X82602Y-37099D01*
X82659Y-37099D01*
X82735Y-37080D01*
X82773Y-37061D01*
X82811Y-37023D01*
X82830Y-36966D01*
X82830Y-36928D01*
X82811Y-36871D01*
X82792Y-36852D01*
X82659Y-36852D01*
X82659Y-36928D01*
X82830Y-36623D02*
X82811Y-36661D01*
X82792Y-36680D01*
X82754Y-36699D01*
X82640Y-36699D01*
X82602Y-36680D01*
X82583Y-36661D01*
X82564Y-36623D01*
X82564Y-36566D01*
X82583Y-36528D01*
X82602Y-36509D01*
X82640Y-36490D01*
X82754Y-36490D01*
X82792Y-36509D01*
X82811Y-36528D01*
X82830Y-36566D01*
X82830Y-36623D01*
X82830Y-36319D02*
X82430Y-36319D01*
X82430Y-36166D01*
X82450Y-36128D01*
X82469Y-36109D01*
X82507Y-36090D01*
X82564Y-36090D01*
X82602Y-36109D01*
X82621Y-36128D01*
X82640Y-36166D01*
X82640Y-36319D01*
X82830Y-35919D02*
X82564Y-35919D01*
X82640Y-35919D02*
X82602Y-35899D01*
X82583Y-35880D01*
X82564Y-35842D01*
X82564Y-35804D01*
X82830Y-35614D02*
X82811Y-35652D01*
X82792Y-35671D01*
X82754Y-35690D01*
X82640Y-35690D01*
X82602Y-35671D01*
X82583Y-35652D01*
X82564Y-35614D01*
X82564Y-35557D01*
X82583Y-35519D01*
X82602Y-35500D01*
X82640Y-35480D01*
X82754Y-35480D01*
X82792Y-35500D01*
X82811Y-35519D01*
X82830Y-35557D01*
X82830Y-35614D01*
X82430Y-35138D02*
X82430Y-35214D01*
X82450Y-35252D01*
X82469Y-35271D01*
X82526Y-35309D01*
X82602Y-35328D01*
X82754Y-35328D01*
X82792Y-35309D01*
X82811Y-35290D01*
X82830Y-35252D01*
X82830Y-35176D01*
X82811Y-35138D01*
X82792Y-35119D01*
X82754Y-35100D01*
X82659Y-35100D01*
X82621Y-35119D01*
X82602Y-35138D01*
X82583Y-35176D01*
X82583Y-35252D01*
X82602Y-35290D01*
X82621Y-35309D01*
X82659Y-35328D01*
G54D14*
X72436Y-20626D02*
X72436Y-20126D01*
X72960Y-20578D02*
X72936Y-20602D01*
X72865Y-20626D01*
X72817Y-20626D01*
X72746Y-20602D01*
X72698Y-20554D01*
X72675Y-20507D01*
X72651Y-20411D01*
X72651Y-20340D01*
X72675Y-20245D01*
X72698Y-20197D01*
X72746Y-20150D01*
X72817Y-20126D01*
X72865Y-20126D01*
X72936Y-20150D01*
X72960Y-20173D01*
X73436Y-20626D02*
X73151Y-20626D01*
X73294Y-20626D02*
X73294Y-20126D01*
X73246Y-20197D01*
X73198Y-20245D01*
X73151Y-20269D01*
G54D15*
X72008Y-29102D02*
X72008Y-28864D01*
X72151Y-29150D02*
X71651Y-28983D01*
X72151Y-28816D01*
X72151Y-28364D02*
X71913Y-28530D01*
X72151Y-28650D02*
X71651Y-28650D01*
X71651Y-28459D01*
X71675Y-28411D01*
X71698Y-28388D01*
X71746Y-28364D01*
X71817Y-28364D01*
X71865Y-28388D01*
X71889Y-28411D01*
X71913Y-28459D01*
X71913Y-28650D01*
X72151Y-28150D02*
X71651Y-28150D01*
X71651Y-28030D01*
X71675Y-27959D01*
X71722Y-27911D01*
X71770Y-27888D01*
X71865Y-27864D01*
X71936Y-27864D01*
X72032Y-27888D01*
X72079Y-27911D01*
X72127Y-27959D01*
X72151Y-28030D01*
X72151Y-28150D01*
X71651Y-27650D02*
X72055Y-27650D01*
X72103Y-27626D01*
X72127Y-27602D01*
X72151Y-27554D01*
X72151Y-27459D01*
X72127Y-27411D01*
X72103Y-27388D01*
X72055Y-27364D01*
X71651Y-27364D01*
X72151Y-27126D02*
X71651Y-27126D01*
X72151Y-26888D02*
X71651Y-26888D01*
X72151Y-26602D01*
X71651Y-26602D01*
X71651Y-26269D02*
X71651Y-26173D01*
X71675Y-26126D01*
X71722Y-26078D01*
X71817Y-26054D01*
X71984Y-26054D01*
X72079Y-26078D01*
X72127Y-26126D01*
X72151Y-26173D01*
X72151Y-26269D01*
X72127Y-26316D01*
X72079Y-26364D01*
X71984Y-26388D01*
X71817Y-26388D01*
X71722Y-26364D01*
X71675Y-26316D01*
X71651Y-26269D01*
X72198Y-25959D02*
X72198Y-25578D01*
X72151Y-25459D02*
X71651Y-25459D01*
X71651Y-25269D01*
X71675Y-25221D01*
X71698Y-25197D01*
X71746Y-25173D01*
X71817Y-25173D01*
X71865Y-25197D01*
X71889Y-25221D01*
X71913Y-25269D01*
X71913Y-25459D01*
X72151Y-24673D02*
X71913Y-24840D01*
X72151Y-24959D02*
X71651Y-24959D01*
X71651Y-24769D01*
X71675Y-24721D01*
X71698Y-24697D01*
X71746Y-24673D01*
X71817Y-24673D01*
X71865Y-24697D01*
X71889Y-24721D01*
X71913Y-24769D01*
X71913Y-24959D01*
X71651Y-24364D02*
X71651Y-24269D01*
X71675Y-24221D01*
X71722Y-24173D01*
X71817Y-24150D01*
X71984Y-24150D01*
X72079Y-24173D01*
X72127Y-24221D01*
X72151Y-24269D01*
X72151Y-24364D01*
X72127Y-24411D01*
X72079Y-24459D01*
X71984Y-24483D01*
X71817Y-24483D01*
X71722Y-24459D01*
X71675Y-24411D01*
X71651Y-24364D01*
X72198Y-24054D02*
X72198Y-23673D01*
X72151Y-23554D02*
X71651Y-23554D01*
X72008Y-23388D01*
X71651Y-23221D01*
X72151Y-23221D01*
X72151Y-22983D02*
X71651Y-22983D01*
X72151Y-22745D02*
X71651Y-22745D01*
X72151Y-22459D01*
X71651Y-22459D01*
X72151Y-22221D02*
X71651Y-22221D01*
X72198Y-22102D02*
X72198Y-21721D01*
X71651Y-21650D02*
X71651Y-21340D01*
X71841Y-21507D01*
X71841Y-21435D01*
X71865Y-21388D01*
X71889Y-21364D01*
X71936Y-21340D01*
X72055Y-21340D01*
X72103Y-21364D01*
X72127Y-21388D01*
X72151Y-21435D01*
X72151Y-21578D01*
X72127Y-21626D01*
X72103Y-21650D01*
X72103Y-21126D02*
X72127Y-21102D01*
X72151Y-21126D01*
X72127Y-21150D01*
X72103Y-21126D01*
X72151Y-21126D01*
X71651Y-20935D02*
X71651Y-20626D01*
X71841Y-20792D01*
X71841Y-20721D01*
X71865Y-20673D01*
X71889Y-20650D01*
X71936Y-20626D01*
X72055Y-20626D01*
X72103Y-20650D01*
X72127Y-20673D01*
X72151Y-20721D01*
X72151Y-20864D01*
X72127Y-20911D01*
X72103Y-20935D01*
X71651Y-20483D02*
X72151Y-20316D01*
X71651Y-20150D01*
G54D10*
X72740Y-37327D02*
X72721Y-37346D01*
X72665Y-37365D01*
X72628Y-37365D01*
X72571Y-37346D01*
X72534Y-37308D01*
X72515Y-37271D01*
X72496Y-37196D01*
X72496Y-37140D01*
X72515Y-37065D01*
X72534Y-37027D01*
X72571Y-36990D01*
X72628Y-36971D01*
X72665Y-36971D01*
X72721Y-36990D01*
X72740Y-37008D01*
X72984Y-36971D02*
X73059Y-36971D01*
X73096Y-36990D01*
X73134Y-37027D01*
X73152Y-37102D01*
X73152Y-37233D01*
X73134Y-37308D01*
X73096Y-37346D01*
X73059Y-37365D01*
X72984Y-37365D01*
X72946Y-37346D01*
X72909Y-37308D01*
X72890Y-37233D01*
X72890Y-37102D01*
X72909Y-37027D01*
X72946Y-36990D01*
X72984Y-36971D01*
X73321Y-37365D02*
X73321Y-36971D01*
X73546Y-37365D01*
X73546Y-36971D01*
X73734Y-37365D02*
X73734Y-36971D01*
X73959Y-37365D01*
X73959Y-36971D01*
X74052Y-37402D02*
X74352Y-37402D01*
X74427Y-37008D02*
X74446Y-36990D01*
X74484Y-36971D01*
X74577Y-36971D01*
X74615Y-36990D01*
X74634Y-37008D01*
X74652Y-37046D01*
X74652Y-37083D01*
X74634Y-37140D01*
X74409Y-37365D01*
X74652Y-37365D01*
G54D11*
X69125Y-36035D02*
X69125Y-36250D01*
X69110Y-36292D01*
X69082Y-36321D01*
X69039Y-36335D01*
X69010Y-36335D01*
X69267Y-36335D02*
X69267Y-36035D01*
X69382Y-36035D01*
X69410Y-36050D01*
X69425Y-36064D01*
X69439Y-36092D01*
X69439Y-36135D01*
X69425Y-36164D01*
X69410Y-36178D01*
X69382Y-36192D01*
X69267Y-36192D01*
X69725Y-36335D02*
X69553Y-36335D01*
X69639Y-36335D02*
X69639Y-36035D01*
X69610Y-36078D01*
X69582Y-36107D01*
X69553Y-36121D01*
X65285Y-31849D02*
X65500Y-31849D01*
X65542Y-31864D01*
X65571Y-31892D01*
X65585Y-31935D01*
X65585Y-31964D01*
X65585Y-31707D02*
X65285Y-31707D01*
X65285Y-31592D01*
X65300Y-31564D01*
X65314Y-31550D01*
X65342Y-31535D01*
X65385Y-31535D01*
X65414Y-31550D01*
X65428Y-31564D01*
X65442Y-31592D01*
X65442Y-31707D01*
X65314Y-31421D02*
X65300Y-31407D01*
X65285Y-31378D01*
X65285Y-31307D01*
X65300Y-31278D01*
X65314Y-31264D01*
X65342Y-31250D01*
X65371Y-31250D01*
X65414Y-31264D01*
X65585Y-31435D01*
X65585Y-31250D01*
X68260Y-19974D02*
X68475Y-19974D01*
X68517Y-19989D01*
X68546Y-20017D01*
X68560Y-20060D01*
X68560Y-20089D01*
X68560Y-19832D02*
X68260Y-19832D01*
X68260Y-19717D01*
X68275Y-19689D01*
X68289Y-19675D01*
X68317Y-19660D01*
X68360Y-19660D01*
X68389Y-19675D01*
X68403Y-19689D01*
X68417Y-19717D01*
X68417Y-19832D01*
X68260Y-19560D02*
X68260Y-19375D01*
X68375Y-19475D01*
X68375Y-19432D01*
X68389Y-19403D01*
X68403Y-19389D01*
X68432Y-19375D01*
X68503Y-19375D01*
X68532Y-19389D01*
X68546Y-19403D01*
X68560Y-19432D01*
X68560Y-19517D01*
X68546Y-19546D01*
X68532Y-19560D01*
X78550Y-20185D02*
X78550Y-20400D01*
X78535Y-20442D01*
X78507Y-20471D01*
X78464Y-20485D01*
X78435Y-20485D01*
X78692Y-20485D02*
X78692Y-20185D01*
X78807Y-20185D01*
X78835Y-20200D01*
X78850Y-20214D01*
X78864Y-20242D01*
X78864Y-20285D01*
X78850Y-20314D01*
X78835Y-20328D01*
X78807Y-20342D01*
X78692Y-20342D01*
X79121Y-20285D02*
X79121Y-20485D01*
X79050Y-20171D02*
X78978Y-20385D01*
X79164Y-20385D01*
X78550Y-28785D02*
X78550Y-29000D01*
X78535Y-29042D01*
X78507Y-29071D01*
X78464Y-29085D01*
X78435Y-29085D01*
X78692Y-29085D02*
X78692Y-28785D01*
X78807Y-28785D01*
X78835Y-28800D01*
X78850Y-28814D01*
X78864Y-28842D01*
X78864Y-28885D01*
X78850Y-28914D01*
X78835Y-28928D01*
X78807Y-28942D01*
X78692Y-28942D01*
X79135Y-28785D02*
X78992Y-28785D01*
X78978Y-28928D01*
X78992Y-28914D01*
X79021Y-28900D01*
X79092Y-28900D01*
X79121Y-28914D01*
X79135Y-28928D01*
X79150Y-28957D01*
X79150Y-29028D01*
X79135Y-29057D01*
X79121Y-29071D01*
X79092Y-29085D01*
X79021Y-29085D01*
X78992Y-29071D01*
X78978Y-29057D01*
X78550Y-36185D02*
X78550Y-36400D01*
X78535Y-36442D01*
X78507Y-36471D01*
X78464Y-36485D01*
X78435Y-36485D01*
X78692Y-36485D02*
X78692Y-36185D01*
X78807Y-36185D01*
X78835Y-36200D01*
X78850Y-36214D01*
X78864Y-36242D01*
X78864Y-36285D01*
X78850Y-36314D01*
X78835Y-36328D01*
X78807Y-36342D01*
X78692Y-36342D01*
X79121Y-36185D02*
X79064Y-36185D01*
X79035Y-36200D01*
X79021Y-36214D01*
X78992Y-36257D01*
X78978Y-36314D01*
X78978Y-36428D01*
X78992Y-36457D01*
X79007Y-36471D01*
X79035Y-36485D01*
X79092Y-36485D01*
X79121Y-36471D01*
X79135Y-36457D01*
X79150Y-36428D01*
X79150Y-36357D01*
X79135Y-36328D01*
X79121Y-36314D01*
X79092Y-36300D01*
X79035Y-36300D01*
X79007Y-36314D01*
X78992Y-36328D01*
X78978Y-36357D01*
X57980Y-27795D02*
X57980Y-27566D01*
X58380Y-27680D02*
X57980Y-27680D01*
X58361Y-27452D02*
X58380Y-27395D01*
X58380Y-27300D01*
X58361Y-27261D01*
X58342Y-27242D01*
X58304Y-27223D01*
X58266Y-27223D01*
X58228Y-27242D01*
X58209Y-27261D01*
X58190Y-27300D01*
X58171Y-27376D01*
X58152Y-27414D01*
X58133Y-27433D01*
X58095Y-27452D01*
X58057Y-27452D01*
X58019Y-27433D01*
X58000Y-27414D01*
X57980Y-27376D01*
X57980Y-27280D01*
X58000Y-27223D01*
X58380Y-26823D02*
X58190Y-26957D01*
X58380Y-27052D02*
X57980Y-27052D01*
X57980Y-26900D01*
X58000Y-26861D01*
X58019Y-26842D01*
X58057Y-26823D01*
X58114Y-26823D01*
X58152Y-26842D01*
X58171Y-26861D01*
X58190Y-26900D01*
X58190Y-27052D01*
X58019Y-26671D02*
X58000Y-26652D01*
X57980Y-26614D01*
X57980Y-26519D01*
X58000Y-26480D01*
X58019Y-26461D01*
X58057Y-26442D01*
X58095Y-26442D01*
X58152Y-26461D01*
X58380Y-26690D01*
X58380Y-26442D01*
G54D16*
X66753Y-40342D02*
X66839Y-40371D01*
X66982Y-40371D01*
X67039Y-40342D01*
X67067Y-40314D01*
X67096Y-40257D01*
X67096Y-40200D01*
X67067Y-40142D01*
X67039Y-40114D01*
X66982Y-40085D01*
X66867Y-40057D01*
X66810Y-40028D01*
X66782Y-40000D01*
X66753Y-39942D01*
X66753Y-39885D01*
X66782Y-39828D01*
X66810Y-39800D01*
X66867Y-39771D01*
X67010Y-39771D01*
X67096Y-39800D01*
X67696Y-40314D02*
X67667Y-40342D01*
X67582Y-40371D01*
X67525Y-40371D01*
X67439Y-40342D01*
X67382Y-40285D01*
X67353Y-40228D01*
X67325Y-40114D01*
X67325Y-40028D01*
X67353Y-39914D01*
X67382Y-39857D01*
X67439Y-39800D01*
X67525Y-39771D01*
X67582Y-39771D01*
X67667Y-39800D01*
X67696Y-39828D01*
X67953Y-40371D02*
X67953Y-39771D01*
X67953Y-40057D02*
X68296Y-40057D01*
X68296Y-40371D02*
X68296Y-39771D01*
X68896Y-40371D02*
X68553Y-40371D01*
X68725Y-40371D02*
X68725Y-39771D01*
X68667Y-39857D01*
X68610Y-39914D01*
X68553Y-39942D01*
X65360Y-42242D02*
X65446Y-42271D01*
X65589Y-42271D01*
X65646Y-42242D01*
X65675Y-42214D01*
X65703Y-42157D01*
X65703Y-42100D01*
X65675Y-42042D01*
X65646Y-42014D01*
X65589Y-41985D01*
X65475Y-41957D01*
X65417Y-41928D01*
X65389Y-41900D01*
X65360Y-41842D01*
X65360Y-41785D01*
X65389Y-41728D01*
X65417Y-41700D01*
X65475Y-41671D01*
X65617Y-41671D01*
X65703Y-41700D01*
X66303Y-42214D02*
X66275Y-42242D01*
X66189Y-42271D01*
X66132Y-42271D01*
X66046Y-42242D01*
X65989Y-42185D01*
X65960Y-42128D01*
X65932Y-42014D01*
X65932Y-41928D01*
X65960Y-41814D01*
X65989Y-41757D01*
X66046Y-41700D01*
X66132Y-41671D01*
X66189Y-41671D01*
X66275Y-41700D01*
X66303Y-41728D01*
X66560Y-42271D02*
X66560Y-41671D01*
X66560Y-41957D02*
X66903Y-41957D01*
X66903Y-42271D02*
X66903Y-41671D01*
X67303Y-41671D02*
X67417Y-41671D01*
X67475Y-41700D01*
X67532Y-41757D01*
X67560Y-41871D01*
X67560Y-42071D01*
X67532Y-42185D01*
X67475Y-42242D01*
X67417Y-42271D01*
X67303Y-42271D01*
X67246Y-42242D01*
X67189Y-42185D01*
X67160Y-42071D01*
X67160Y-41871D01*
X67189Y-41757D01*
X67246Y-41700D01*
X67303Y-41671D01*
X67732Y-41671D02*
X68075Y-41671D01*
X67903Y-42271D02*
X67903Y-41671D01*
X68189Y-41671D02*
X68532Y-41671D01*
X68360Y-42271D02*
X68360Y-41671D01*
X68732Y-42271D02*
X68732Y-41671D01*
X69075Y-42271D02*
X68817Y-41928D01*
X69075Y-41671D02*
X68732Y-42014D01*
X69446Y-41985D02*
X69446Y-42271D01*
X69246Y-41671D02*
X69446Y-41985D01*
X69646Y-41671D01*
X79428Y-41167D02*
X79514Y-41196D01*
X79657Y-41196D01*
X79714Y-41167D01*
X79742Y-41139D01*
X79771Y-41082D01*
X79771Y-41025D01*
X79742Y-40967D01*
X79714Y-40939D01*
X79657Y-40910D01*
X79542Y-40882D01*
X79485Y-40853D01*
X79457Y-40825D01*
X79428Y-40767D01*
X79428Y-40710D01*
X79457Y-40653D01*
X79485Y-40625D01*
X79542Y-40596D01*
X79685Y-40596D01*
X79771Y-40625D01*
X80371Y-41139D02*
X80342Y-41167D01*
X80257Y-41196D01*
X80200Y-41196D01*
X80114Y-41167D01*
X80057Y-41110D01*
X80028Y-41053D01*
X80000Y-40939D01*
X80000Y-40853D01*
X80028Y-40739D01*
X80057Y-40682D01*
X80114Y-40625D01*
X80200Y-40596D01*
X80257Y-40596D01*
X80342Y-40625D01*
X80371Y-40653D01*
X80628Y-41196D02*
X80628Y-40596D01*
X80628Y-40882D02*
X80971Y-40882D01*
X80971Y-41196D02*
X80971Y-40596D01*
X81228Y-40653D02*
X81257Y-40625D01*
X81314Y-40596D01*
X81457Y-40596D01*
X81514Y-40625D01*
X81542Y-40653D01*
X81571Y-40710D01*
X81571Y-40767D01*
X81542Y-40853D01*
X81200Y-41196D01*
X81571Y-41196D01*
X78735Y-39267D02*
X78821Y-39296D01*
X78964Y-39296D01*
X79021Y-39267D01*
X79050Y-39239D01*
X79078Y-39182D01*
X79078Y-39125D01*
X79050Y-39067D01*
X79021Y-39039D01*
X78964Y-39010D01*
X78850Y-38982D01*
X78792Y-38953D01*
X78764Y-38925D01*
X78735Y-38867D01*
X78735Y-38810D01*
X78764Y-38753D01*
X78792Y-38725D01*
X78850Y-38696D01*
X78992Y-38696D01*
X79078Y-38725D01*
X79678Y-39239D02*
X79650Y-39267D01*
X79564Y-39296D01*
X79507Y-39296D01*
X79421Y-39267D01*
X79364Y-39210D01*
X79335Y-39153D01*
X79307Y-39039D01*
X79307Y-38953D01*
X79335Y-38839D01*
X79364Y-38782D01*
X79421Y-38725D01*
X79507Y-38696D01*
X79564Y-38696D01*
X79650Y-38725D01*
X79678Y-38753D01*
X79935Y-39296D02*
X79935Y-38696D01*
X79935Y-38982D02*
X80278Y-38982D01*
X80278Y-39296D02*
X80278Y-38696D01*
X80678Y-38696D02*
X80792Y-38696D01*
X80850Y-38725D01*
X80907Y-38782D01*
X80935Y-38896D01*
X80935Y-39096D01*
X80907Y-39210D01*
X80850Y-39267D01*
X80792Y-39296D01*
X80678Y-39296D01*
X80621Y-39267D01*
X80564Y-39210D01*
X80535Y-39096D01*
X80535Y-38896D01*
X80564Y-38782D01*
X80621Y-38725D01*
X80678Y-38696D01*
X81107Y-38696D02*
X81450Y-38696D01*
X81278Y-39296D02*
X81278Y-38696D01*
X81564Y-38696D02*
X81907Y-38696D01*
X81735Y-39296D02*
X81735Y-38696D01*
X82107Y-39296D02*
X82107Y-38696D01*
X82450Y-39296D02*
X82192Y-38953D01*
X82450Y-38696D02*
X82107Y-39039D01*
X82821Y-39010D02*
X82821Y-39296D01*
X82621Y-38696D02*
X82821Y-39010D01*
X83021Y-38696D01*
M02*
