G04 (created by PCBNEW (2013-mar-13)-testing) date jeu. 10 oct. 2013 21:07:33 CEST*
%MOIN*%
G04 Gerber Fmt 3.4, Leading zero omitted, Abs format*
%FSLAX34Y34*%
G01*
G70*
G90*
G04 APERTURE LIST*
%ADD10C,0.005906*%
%ADD11C,0.015000*%
G04 APERTURE END LIST*
G54D10*
G54D11*
X70000Y-38500D02*
G75*
G03X70000Y-38500I-1000J0D01*
G74*
G01*
X60000Y-14500D02*
G75*
G03X60000Y-14500I-1000J0D01*
G74*
G01*
X90000Y-14500D02*
G75*
G03X90000Y-14500I-1000J0D01*
G74*
G01*
X58250Y-40500D02*
G75*
G03X58250Y-40500I0J0D01*
G74*
G01*
X58249Y-40500D02*
X58250Y-40500D01*
X58250Y-40499D02*
X58250Y-40500D01*
X90000Y-40500D02*
G75*
G03X90000Y-40500I0J0D01*
G74*
G01*
X89999Y-40500D02*
X90000Y-40500D01*
X90000Y-40499D02*
X90000Y-40500D01*
X90000Y-13250D02*
G75*
G03X90000Y-13250I0J0D01*
G74*
G01*
X89999Y-13250D02*
X90000Y-13250D01*
X90000Y-13249D02*
X90000Y-13250D01*
X58500Y-13750D02*
G75*
G03X58500Y-13750I0J0D01*
G74*
G01*
X58499Y-13750D02*
X58500Y-13750D01*
X58500Y-13749D02*
X58500Y-13750D01*
X91000Y-41500D02*
X90000Y-41500D01*
X91000Y-12500D02*
X91000Y-41500D01*
X57000Y-12500D02*
X91000Y-12500D01*
X57000Y-41500D02*
X57000Y-12500D01*
X90000Y-41500D02*
X57000Y-41500D01*
M02*
