G04 (created by PCBNEW (2013-mar-13)-testing) date jeu. 10 oct. 2013 21:07:33 CEST*
%MOIN*%
G04 Gerber Fmt 3.4, Leading zero omitted, Abs format*
%FSLAX34Y34*%
G01*
G70*
G90*
G04 APERTURE LIST*
%ADD10C,0.005906*%
%ADD11R,0.080000X0.080000*%
%ADD12C,0.087874*%
%ADD13C,0.080000*%
%ADD14O,0.094000X0.094000*%
%ADD15R,0.055000X0.075000*%
%ADD16R,0.050000X0.040000*%
%ADD17R,0.102677X0.102677*%
%ADD18C,0.102677*%
G04 APERTURE END LIST*
G54D10*
G54D11*
X84459Y-15986D03*
G54D12*
X85459Y-15986D03*
X84459Y-16986D03*
X85459Y-16986D03*
X84459Y-17986D03*
X85459Y-17986D03*
X84459Y-18986D03*
X85459Y-18986D03*
X84459Y-19986D03*
X85459Y-19986D03*
G54D11*
X88550Y-36700D03*
G54D13*
X88550Y-35700D03*
X88550Y-34700D03*
G54D11*
X88550Y-27700D03*
G54D13*
X88550Y-26700D03*
X88550Y-25700D03*
G54D11*
X88550Y-19200D03*
G54D13*
X88550Y-18200D03*
X88550Y-17200D03*
G54D11*
X59450Y-35550D03*
G54D13*
X59450Y-36550D03*
X59450Y-37550D03*
G54D11*
X59450Y-17050D03*
G54D13*
X59450Y-18050D03*
X59450Y-19050D03*
G54D11*
X63541Y-38514D03*
G54D12*
X62541Y-38514D03*
X63541Y-37514D03*
X62541Y-37514D03*
X63541Y-36514D03*
X62541Y-36514D03*
X63541Y-35514D03*
X62541Y-35514D03*
X63541Y-34514D03*
X62541Y-34514D03*
G54D11*
X63541Y-29014D03*
G54D12*
X62541Y-29014D03*
X63541Y-28014D03*
X62541Y-28014D03*
X63541Y-27014D03*
X62541Y-27014D03*
X63541Y-26014D03*
X62541Y-26014D03*
X63541Y-25014D03*
X62541Y-25014D03*
G54D11*
X63541Y-19764D03*
G54D12*
X62541Y-19764D03*
X63541Y-18764D03*
X62541Y-18764D03*
X63541Y-17764D03*
X62541Y-17764D03*
X63541Y-16764D03*
X62541Y-16764D03*
X63541Y-15764D03*
X62541Y-15764D03*
G54D11*
X84459Y-24986D03*
G54D12*
X85459Y-24986D03*
X84459Y-25986D03*
X85459Y-25986D03*
X84459Y-26986D03*
X85459Y-26986D03*
X84459Y-27986D03*
X85459Y-27986D03*
X84459Y-28986D03*
X85459Y-28986D03*
G54D11*
X84459Y-33986D03*
G54D12*
X85459Y-33986D03*
X84459Y-34986D03*
X85459Y-34986D03*
X84459Y-35986D03*
X85459Y-35986D03*
X84459Y-36986D03*
X85459Y-36986D03*
X84459Y-37986D03*
X85459Y-37986D03*
G54D14*
X70425Y-32900D03*
X70425Y-31900D03*
X70425Y-30900D03*
X70425Y-29900D03*
X70425Y-28900D03*
X70425Y-27900D03*
X70425Y-26900D03*
X70425Y-25900D03*
X70425Y-24900D03*
X70425Y-23900D03*
X70425Y-22900D03*
X70425Y-21900D03*
X76425Y-21900D03*
X76425Y-22900D03*
X76425Y-23900D03*
X76425Y-24900D03*
X76425Y-25900D03*
X76425Y-26900D03*
X76425Y-27900D03*
X76425Y-28900D03*
X76425Y-29900D03*
X76425Y-30900D03*
X76425Y-31900D03*
X76425Y-32900D03*
G54D15*
X62625Y-33000D03*
X63375Y-33000D03*
X62875Y-23500D03*
X63625Y-23500D03*
X62625Y-14250D03*
X63375Y-14250D03*
X85375Y-21750D03*
X84625Y-21750D03*
X85375Y-30500D03*
X84625Y-30500D03*
X85375Y-39250D03*
X84625Y-39250D03*
G54D16*
X66500Y-35875D03*
X66500Y-35125D03*
X67500Y-35875D03*
X66500Y-35500D03*
X67500Y-35125D03*
X66500Y-29350D03*
X66500Y-28600D03*
X67500Y-29350D03*
X66500Y-28975D03*
X67500Y-28600D03*
X66500Y-19175D03*
X66500Y-18425D03*
X67500Y-19175D03*
X66500Y-18800D03*
X67500Y-18425D03*
X81850Y-19925D03*
X81850Y-20675D03*
X80850Y-19925D03*
X81850Y-20300D03*
X80850Y-20675D03*
X81850Y-28725D03*
X81850Y-29475D03*
X80850Y-28725D03*
X81850Y-29100D03*
X80850Y-29475D03*
X81725Y-35600D03*
X81725Y-36350D03*
X80725Y-35600D03*
X81725Y-35975D03*
X80725Y-36350D03*
G54D17*
X73464Y-39767D03*
G54D18*
X74783Y-39767D03*
G54D11*
X69875Y-35450D03*
G54D13*
X68875Y-35450D03*
G54D11*
X66200Y-32100D03*
G54D13*
X66200Y-31100D03*
G54D11*
X69175Y-20225D03*
G54D13*
X69175Y-19225D03*
G54D11*
X79300Y-19600D03*
G54D13*
X78300Y-19600D03*
G54D11*
X79300Y-28200D03*
G54D13*
X78300Y-28200D03*
G54D11*
X79300Y-35600D03*
G54D13*
X78300Y-35600D03*
G54D11*
X59412Y-28300D03*
G54D13*
X59412Y-27300D03*
X59412Y-26300D03*
G54D12*
X70175Y-40500D03*
X65425Y-40500D03*
X78150Y-40525D03*
X82900Y-40525D03*
M02*
