M48
;DRILL file {Pcbnew (2013-mar-13)-testing} date jeu. 10 oct. 2013 21:07:35 CEST
;FORMAT={-:-/ absolute / inch / decimal}
FMAT,2
INCH,TZ
T1C0.025
T2C0.040
T3C0.055
%
G90
G05
M72
T1
X6.125Y-1.775
X6.125Y-2.7
X6.125Y-3.65
X6.175Y-1.875
X6.175Y-2.8
X6.175Y-3.75
X6.425Y-3.7
X6.45Y-1.875
X6.45Y-2.8
X6.5Y-1.7
X6.5Y-2.6
X6.5Y-3.55
X6.5775Y-1.7425
X6.58Y-1.9175
X6.585Y-2.65
X6.585Y-2.935
X6.7Y-3.6
X6.7Y-3.7
X6.705Y-1.8425
X6.7475Y-2.7975
X6.75Y-3.37
X6.7625Y-2.6875
X6.85Y-2.6875
X6.865Y-2.8
X7.4Y-1.65
X7.4Y-2.65
X7.45Y-2.85
X7.5Y-1.375
X7.5Y-1.575
X7.5Y-2.775
X7.75Y-2.39
X7.8075Y-2.29
X7.8075Y-2.7
X8.015Y-2.0675
X8.015Y-2.9225
X8.14Y-2.07
X8.1425Y-2.535
X8.1425Y-2.935
X8.1525Y-1.6
X8.2025Y-3.475
X8.25Y-1.65
X8.25Y-1.9
X8.25Y-2.8
X8.25Y-3.7
X8.325Y-1.7
X8.325Y-2.49
X8.325Y-2.6
X8.325Y-3.5
X8.625Y-1.7
X8.625Y-2.6
X8.625Y-3.5
X8.675Y-1.8
X8.675Y-2.7
X8.675Y-3.6
T2
X5.9413Y-2.63
X5.9413Y-2.73
X5.9413Y-2.83
X5.945Y-1.705
X5.945Y-1.805
X5.945Y-1.905
X5.945Y-3.555
X5.945Y-3.655
X5.945Y-3.755
X6.2541Y-1.5764
X6.2541Y-1.6764
X6.2541Y-1.7764
X6.2541Y-1.8764
X6.2541Y-1.9764
X6.2541Y-2.5014
X6.2541Y-2.6014
X6.2541Y-2.7014
X6.2541Y-2.8014
X6.2541Y-2.9014
X6.2541Y-3.4514
X6.2541Y-3.5514
X6.2541Y-3.6514
X6.2541Y-3.7514
X6.2541Y-3.8514
X6.3541Y-1.5764
X6.3541Y-1.6764
X6.3541Y-1.7764
X6.3541Y-1.8764
X6.3541Y-1.9764
X6.3541Y-2.5014
X6.3541Y-2.6014
X6.3541Y-2.7014
X6.3541Y-2.8014
X6.3541Y-2.9014
X6.3541Y-3.4514
X6.3541Y-3.5514
X6.3541Y-3.6514
X6.3541Y-3.7514
X6.3541Y-3.8514
X6.5425Y-4.05
X6.62Y-3.11
X6.62Y-3.21
X6.8875Y-3.545
X6.9175Y-1.9225
X6.9175Y-2.0225
X6.9875Y-3.545
X7.0175Y-4.05
X7.0425Y-2.19
X7.0425Y-2.29
X7.0425Y-2.39
X7.0425Y-2.49
X7.0425Y-2.59
X7.0425Y-2.69
X7.0425Y-2.79
X7.0425Y-2.89
X7.0425Y-2.99
X7.0425Y-3.09
X7.0425Y-3.19
X7.0425Y-3.29
X7.6425Y-2.19
X7.6425Y-2.29
X7.6425Y-2.39
X7.6425Y-2.49
X7.6425Y-2.59
X7.6425Y-2.69
X7.6425Y-2.79
X7.6425Y-2.89
X7.6425Y-2.99
X7.6425Y-3.09
X7.6425Y-3.19
X7.6425Y-3.29
X7.815Y-4.0525
X7.83Y-1.96
X7.83Y-2.82
X7.83Y-3.56
X7.93Y-1.96
X7.93Y-2.82
X7.93Y-3.56
X8.29Y-4.0525
X8.4459Y-1.5986
X8.4459Y-1.6986
X8.4459Y-1.7986
X8.4459Y-1.8986
X8.4459Y-1.9986
X8.4459Y-2.4986
X8.4459Y-2.5986
X8.4459Y-2.6986
X8.4459Y-2.7986
X8.4459Y-2.8986
X8.4459Y-3.3986
X8.4459Y-3.4986
X8.4459Y-3.5986
X8.4459Y-3.6986
X8.4459Y-3.7986
X8.5459Y-1.5986
X8.5459Y-1.6986
X8.5459Y-1.7986
X8.5459Y-1.8986
X8.5459Y-1.9986
X8.5459Y-2.4986
X8.5459Y-2.5986
X8.5459Y-2.6986
X8.5459Y-2.7986
X8.5459Y-2.8986
X8.5459Y-3.3986
X8.5459Y-3.4986
X8.5459Y-3.5986
X8.5459Y-3.6986
X8.5459Y-3.7986
X8.855Y-1.72
X8.855Y-1.82
X8.855Y-1.92
X8.855Y-2.57
X8.855Y-2.67
X8.855Y-2.77
X8.855Y-3.47
X8.855Y-3.57
X8.855Y-3.67
T3
X7.3465Y-3.9768
X7.4783Y-3.9768
T0
M30
